<svg width="120" height="120" viewBox="0 0 120 120" fill="none" xmlns="http://www.w3.org/2000/svg">
<path d="M80.9695 99.3669H39.0263C38.1799 99.3669 37.4037 98.9112 36.988 98.18C36.5723 97.4438 36.5824 96.5423 37.0181 95.8212L57.9871 60.9044C58.4128 60.1983 59.1741 59.7676 59.9954 59.7676C60.8167 59.7676 61.583 60.1983 62.0036 60.9044L82.9727 95.8212C83.4084 96.5473 83.4184 97.4488 83.0028 98.18C82.5871 98.9162 81.8058 99.3669 80.9645 99.3669H80.9695Z" fill="url(#paint0_linear_56_16560)"/>
<path d="M80.8185 81.2332C80.2777 81.2332 79.7318 81.0479 79.2911 80.6673C78.3095 79.8209 78.1993 78.3435 79.0406 77.3619C82.947 72.8145 85.1005 67.0051 85.1005 61.0053C85.1005 47.1628 73.8372 35.8995 59.9947 35.8995C46.1522 35.8995 34.8889 47.1628 34.8889 61.0053C34.8889 67.0051 37.0424 72.8145 40.9487 77.3619C41.7901 78.3435 41.6799 79.8209 40.6983 80.6673C39.7167 81.5137 38.2394 81.3985 37.393 80.4169C32.7554 75.0231 30.1963 68.1269 30.1963 61.0053C30.1963 44.5786 43.563 31.2119 59.9897 31.2119C76.4164 31.2119 89.7831 44.5786 89.7831 61.0053C89.7831 68.1269 87.229 75.0231 82.5864 80.4169C82.1207 80.9578 81.4696 81.2332 80.8085 81.2332H80.8185Z" fill="url(#paint1_linear_56_16560)"/>
<path d="M86.8787 89.7167C86.2877 89.7167 85.6918 89.4913 85.236 89.0456C84.3145 88.1391 84.2995 86.6567 85.206 85.7302C91.7266 79.0894 95.3124 70.3051 95.3124 61C95.3124 51.6949 91.6414 42.7003 84.9706 36.0294C78.2998 29.3586 69.4303 25.6876 60 25.6876C50.5697 25.6876 41.7003 29.3586 35.0294 36.0294C28.3586 42.7003 24.6876 51.5697 24.6876 61C24.6876 70.4303 28.2785 79.0894 34.7941 85.7302C35.7005 86.6517 35.6855 88.1391 34.764 89.0456C33.8375 89.952 32.3551 89.937 31.4486 89.0155C24.0666 81.4883 20 71.5421 20 61C20 50.4579 24.1618 40.2713 31.714 32.714C39.2713 25.1568 49.3126 21 60 21C70.6874 21 80.7287 25.1618 88.286 32.714C95.8433 40.2713 100 50.3126 100 61C100 71.6874 95.9334 81.4883 88.5514 89.0155C88.0907 89.4813 87.4847 89.7167 86.8787 89.7167Z" fill="url(#paint2_linear_56_16560)"/>
<path d="M74.4638 72.4281C74.0331 72.4281 73.5974 72.3079 73.2068 72.0625C72.115 71.3664 71.7945 69.919 72.4856 68.8273C73.9881 66.4634 74.7844 63.724 74.7844 60.9044C74.7844 52.7511 68.1486 46.1154 59.9953 46.1154C51.8421 46.1154 45.2063 52.7511 45.2063 60.9044C45.2063 63.724 46.0026 66.4634 47.505 68.8273C48.2012 69.919 47.8756 71.3664 46.7839 72.0625C45.6921 72.7586 44.2447 72.4331 43.5486 71.3413C41.5654 68.2213 40.5137 64.6104 40.5137 60.9044C40.5137 50.1669 49.2479 41.4277 59.9903 41.4277C70.7328 41.4277 79.467 50.1619 79.467 60.9044C79.467 64.6154 78.4203 68.2263 76.432 71.3413C75.9863 72.0425 75.2251 72.4281 74.4538 72.4281H74.4638Z" fill="url(#paint3_linear_56_16560)"/>
<path d="M80.8185 81.2332C80.2777 81.2332 79.7318 81.0479 79.2911 80.6673C78.3095 79.8209 78.1993 78.3435 79.0406 77.3619C82.947 72.8145 85.1005 67.0051 85.1005 61.0053C85.1005 47.1628 73.8372 35.8995 59.9947 35.8995C46.1522 35.8995 34.8889 47.1628 34.8889 61.0053C34.8889 67.0051 37.0424 72.8145 40.9487 77.3619C41.7901 78.3435 41.6799 79.8209 40.6983 80.6673C39.7167 81.5137 38.2394 81.3985 37.393 80.4169C32.7554 75.0231 30.1963 68.1269 30.1963 61.0053C30.1963 44.5786 43.563 31.2119 59.9897 31.2119C76.4164 31.2119 89.7831 44.5786 89.7831 61.0053C89.7831 68.1269 87.229 75.0231 82.5864 80.4169C82.1207 80.9578 81.4696 81.2332 80.8085 81.2332H80.8185Z" fill="url(#paint4_linear_56_16560)"/>
<defs>
<linearGradient id="paint0_linear_56_16560" x1="18.9107" y1="91.1511" x2="18.9107" y2="60.129" gradientUnits="userSpaceOnUse">
<stop stop-color="#3B5AA7"/>
<stop offset="0.22" stop-color="#3B65AF"/>
<stop offset="0.62" stop-color="#3D85C5"/>
<stop offset="1" stop-color="#3FA9DF"/>
</linearGradient>
<linearGradient id="paint1_linear_56_16560" x1="7.48176" y1="70.8561" x2="7.48176" y2="31.6685" gradientUnits="userSpaceOnUse">
<stop stop-color="#3B5AA7"/>
<stop offset="0.22" stop-color="#3B65AF"/>
<stop offset="0.62" stop-color="#3D85C5"/>
<stop offset="1" stop-color="#3FA9DF"/>
</linearGradient>
<linearGradient id="paint2_linear_56_16560" x1="-10.496" y1="75.4598" x2="-10.496" y2="21.6272" gradientUnits="userSpaceOnUse">
<stop stop-color="#3B5AA7"/>
<stop offset="0.22" stop-color="#3B65AF"/>
<stop offset="0.62" stop-color="#3D85C5"/>
<stop offset="1" stop-color="#3FA9DF"/>
</linearGradient>
<linearGradient id="paint3_linear_56_16560" x1="25.6647" y1="65.9971" x2="25.6647" y2="41.7107" gradientUnits="userSpaceOnUse">
<stop stop-color="#3B5AA7"/>
<stop offset="0.22" stop-color="#3B65AF"/>
<stop offset="0.62" stop-color="#3D85C5"/>
<stop offset="1" stop-color="#3FA9DF"/>
</linearGradient>
<linearGradient id="paint4_linear_56_16560" x1="7.48176" y1="70.8561" x2="7.48176" y2="31.6685" gradientUnits="userSpaceOnUse">
<stop stop-color="#3B5AA7"/>
<stop offset="0.22" stop-color="#3B65AF"/>
<stop offset="0.62" stop-color="#3D85C5"/>
<stop offset="1" stop-color="#3FA9DF"/>
</linearGradient>
</defs>
</svg>
