<svg width="120" height="120" viewBox="0 0 120 120" fill="none" xmlns="http://www.w3.org/2000/svg">
<path fill-rule="evenodd" clip-rule="evenodd" d="M88.2099 67.6249C86.5556 68.196 84.6839 68.8444 82.7459 67.3707C82.2669 67.0059 81.8469 66.5527 81.438 66.118C80.9185 65.5616 80.4321 65.0348 79.8573 64.7069C78.741 64.0694 77.4883 64.0031 76.7956 64.2168C74.6586 64.869 73.8591 66.2248 74.3455 68.3581C74.5776 69.375 74.9718 70.3698 75.3513 71.3314C76.1729 73.4057 76.9467 75.3621 76.0035 77.2522C75.1855 78.8955 73.1849 80.104 69.7105 81.0582C69.0215 81.2462 68.3067 81.4119 67.5514 81.5814C65.2339 82.112 62.8538 82.6573 61.24 83.9468C64.5228 86.1796 68.4836 87.4839 72.7428 87.4839C83.7886 87.4839 92.8228 78.7076 93.2354 67.7575C92.7896 67.4223 92.1633 67.0685 91.2827 67.0022C90.2253 66.9212 89.2415 67.2638 88.2062 67.6212L88.2099 67.6249ZM93.1912 65.4474C92.6422 65.2116 92.0601 65.0716 91.4448 65.0237C89.9747 64.9095 88.6926 65.3516 87.5614 65.7459C85.9071 66.3169 84.9971 66.5822 83.9581 65.7901C83.6154 65.5285 83.2691 65.1564 82.9044 64.7658C82.3333 64.1542 81.6885 63.4578 80.8521 62.9789C79.4115 62.1572 77.5951 61.8956 76.2208 62.312C73.0744 63.2699 71.689 65.6353 72.4112 68.8039C72.6764 69.9719 73.1001 71.0367 73.5054 72.0683C74.187 73.7889 74.7766 75.2737 74.2276 76.368C73.6933 77.4365 71.9985 78.3723 69.1873 79.146C68.5425 79.3229 67.8462 79.4813 67.113 79.6508C64.5155 80.244 61.6159 80.9072 59.6189 82.7273C56.3766 80.0193 53.9818 76.3275 52.8912 72.1199C57.2719 71.5562 60.0168 70.5614 61.4869 69.0176C63.0122 67.4149 62.9607 65.4879 62.9201 63.7894C62.9017 63.0231 62.8833 62.3009 62.9864 61.5972C63.5391 57.8428 65.8382 57.6365 69.0178 57.7581C70.0753 57.7986 70.9853 57.8318 71.7001 57.5591C72.1385 57.3933 73.6344 56.6896 74.4228 54.6521C75.2592 52.4857 74.9387 49.7445 73.4796 46.4911C75.1229 46.5501 76.7514 46.797 78.3246 47.2391C86.6256 49.5787 92.5612 56.9438 93.1986 65.4548L93.1912 65.4474ZM47.4862 66.9801C47.4862 80.9072 58.8157 92.2404 72.7428 92.2404C86.6698 92.2404 98.0031 80.9072 98.0031 66.9801C98.0031 63.8594 97.4393 60.8161 96.3377 57.9276C96.1351 57.4154 96.393 56.837 96.9088 56.6417C97.4246 56.4464 97.9994 56.7006 98.1983 57.2128C99.3921 60.3261 100 63.6126 100 66.9765C100 82.0015 87.7751 94.2263 72.7501 94.2263C57.7251 94.2263 45.5003 82.0015 45.5003 66.9765C45.5003 63.6052 46.1192 59.8729 47.3498 55.8053C46.1229 54.2984 44.6197 53.171 42.877 52.4304C42.1217 53.8084 41.1232 54.9247 39.9552 55.6764C39.1005 56.2253 37.8072 56.7891 36.1161 56.7891C34.0197 56.7891 31.3079 55.9269 28.0399 53.1047C24.4918 50.0392 22.7748 45.4153 21.1169 40.9424C20.7779 40.0287 20.4279 39.0855 20.0705 38.1828C19.9231 37.8144 20.0115 37.3944 20.2916 37.1107C20.5753 36.8306 20.9953 36.7422 21.3637 36.8896C23.6444 37.7959 26.7724 36.9559 29.7973 36.1453C31.4074 35.7143 33.0728 35.2685 34.6239 35.0806C34.6644 35.0769 34.7086 35.0732 34.7492 35.0732C39.2884 35.0953 42.6338 37.6707 43.9307 42.1325C44.6307 44.5384 44.6381 47.2465 43.9491 49.7482C43.8681 50.0392 43.7796 50.3266 43.6802 50.603C45.3345 51.3067 46.8009 52.3125 48.0572 53.6057C48.8862 51.2072 50.2974 49.2139 51.3106 46.9149C49.7336 45.0837 48.7536 42.6888 48.6467 40.3161C48.5104 37.2875 49.5715 32.7409 55.415 28.2828C58.8489 25.6595 63.027 25 67.5662 25C69.8173 25 72.1569 25.1621 74.5408 25.3279C74.9166 25.3537 75.2961 25.3795 75.6792 25.4053C74.1428 28.8023 74.3197 30.8214 74.5592 33.4963C74.6439 34.4505 74.7397 35.5374 74.7692 36.8233C74.8981 42.6446 70.6353 45.9385 68.0857 47.3865C65.1271 49.0629 61.5753 49.9619 58.5283 49.9766C58.4288 49.9619 58.333 49.9619 58.2336 49.9766C56.3582 49.9508 54.7002 49.5787 53.5212 48.8381C53.2854 48.6907 53.0533 48.5286 52.8322 48.3591C49.4573 53.9042 47.4862 60.4551 47.4862 66.9728V66.9801ZM69.1947 49.3613C70.1158 48.8381 70.9853 48.2486 71.7848 47.6002C73.1628 50.8166 72.9896 52.7989 72.5512 53.93C72.039 55.26 71.0885 55.6543 70.9816 55.6911C70.6463 55.8201 69.8505 55.7906 69.0805 55.7611C66.3798 55.6616 61.8627 55.4922 61.0042 61.3025C60.8753 62.1757 60.8974 63.0194 60.9158 63.8336C60.9563 65.3958 60.9895 66.6338 60.0316 67.636C58.8894 68.8371 56.4135 69.6624 52.4748 70.1561C52.3127 69.1208 52.228 68.0597 52.228 66.9801C52.228 61.424 54.4939 56.1001 58.4731 52.2462H58.532C62.1464 52.2278 66.0445 51.1446 69.1947 49.3613Z" fill="url(#paint0_linear_56_16635)"/>
<defs>
<linearGradient id="paint0_linear_56_16635" x1="-10.496" y1="79.8637" x2="-10.496" y2="25.6319" gradientUnits="userSpaceOnUse">
<stop stop-color="#3B5AA7"/>
<stop offset="0.22" stop-color="#3B65AF"/>
<stop offset="0.62" stop-color="#3D85C5"/>
<stop offset="1" stop-color="#3FA9DF"/>
</linearGradient>
</defs>
</svg>
