<svg width="120" height="120" viewBox="0 0 120 120" fill="none" xmlns="http://www.w3.org/2000/svg">
<path d="M36.8623 42.8568H30.0082C29.2176 42.8568 28.5819 42.217 28.5819 41.4306C28.5819 40.6441 29.2217 40.0043 30.0082 40.0043H33.5289L30.1589 37.1192C30.1059 37.1233 30.0611 37.1477 30.0082 37.1477H24.295C23.5045 37.1477 22.8688 36.508 22.8688 35.7215C22.8688 34.935 23.5085 34.2953 24.295 34.2953H26.8623L24.7922 32.5227C24.1932 32.0092 24.1239 31.1086 24.6373 30.5096C25.1508 29.9065 26.0554 29.8413 26.6504 30.3548L34.291 36.9033V32.7549C34.291 31.9644 34.9307 31.3287 35.7172 31.3287C36.5037 31.3287 37.1434 31.9685 37.1434 32.7549V39.3523L40 41.8014V38.5821C40 37.7916 40.6398 37.1559 41.4263 37.1559C42.2127 37.1559 42.8525 37.7957 42.8525 38.5821V44.2504L45.542 46.5528C45.6235 46.2839 45.7091 46.0149 45.7091 45.7215C45.7091 34.6946 36.74 25.7256 25.7131 25.7256H22.8566C21.2795 25.7256 20 27.0051 20 28.5821C20 39.609 28.969 48.5781 39.9959 48.5781H42.8525C43.044 48.5781 43.2111 48.5047 43.3904 48.4681L36.85 42.865L36.8623 42.8568Z" fill="url(#paint0_linear_56_16639)"/>
<path d="M66.0069 37.1429H72.8611C73.6516 37.1429 74.2873 36.5032 74.2873 35.7167C74.2873 34.9302 73.6475 34.2904 72.8611 34.2904H69.3403L72.7103 31.4054C72.7633 31.4094 72.8081 31.4339 72.8611 31.4339H78.5742C79.3647 31.4339 80.0004 30.7941 80.0004 30.0076C80.0004 29.2212 79.3607 28.5814 78.5742 28.5814H76.0069L78.077 26.8088C78.676 26.2953 78.7453 25.3948 78.2319 24.7957C77.7184 24.1926 76.8138 24.1274 76.2188 24.6409L68.5783 31.1894V27.0411C68.5783 26.2505 67.9385 25.6148 67.152 25.6148C66.3655 25.6148 65.7258 26.2546 65.7258 27.0411V33.6385L62.8692 36.0875V32.8683C62.8692 32.0777 62.2294 31.442 61.443 31.442C60.6565 31.442 60.0167 32.0818 60.0167 32.8683V38.5366L57.3272 40.8389C57.2457 40.57 57.1602 40.3011 57.1602 40.0077C57.1602 28.9808 66.1292 20.0117 77.1561 20.0117H80.0126C81.5896 20.0117 82.8692 21.2913 82.8692 22.8683C82.8692 33.8952 73.9002 42.8642 62.8733 42.8642H60.0167C59.8252 42.8642 59.6581 42.7909 59.4788 42.7542L66.0192 37.1511L66.0069 37.1429Z" fill="url(#paint1_linear_56_16639)"/>
<path d="M97.1398 31.4303H91.4267C89.8496 31.4303 88.5701 32.7099 88.5701 34.2869C88.5701 35.5135 89.3525 36.5404 90.4446 36.9438L80.0045 47.3839L76.3126 43.6919C75.196 42.5754 73.3908 42.5754 72.2743 43.6919L62.2946 53.6716C60.2612 51.2714 57.4984 49.5069 54.2995 48.8549V22.8566C54.2995 21.2795 53.02 20 51.443 20C49.8659 20 48.5864 21.2795 48.5864 22.8566V48.8549C42.0746 50.1834 37.1602 55.9536 37.1602 62.8484C37.1602 70.7254 43.566 77.1312 51.443 77.1312C59.3199 77.1312 65.7258 70.7254 65.7258 62.8484C65.7258 61.4833 65.4731 60.1834 65.1105 58.9324L74.2955 49.7474L77.9874 53.4393C79.1039 54.5558 80.9092 54.5558 82.0257 53.4393L94.487 40.978C94.8904 42.066 95.9173 42.8525 97.1439 42.8525C98.7209 42.8525 100 41.573 100 39.9959V34.2828C100 32.7058 98.7209 31.4263 97.1439 31.4263L97.1398 31.4303ZM51.4348 61.4222C54.5848 61.4222 57.1479 63.9854 57.1479 67.1353C57.1479 69.7881 55.3183 72.0049 52.8651 72.6447V72.8484C52.8651 73.639 52.2254 74.2747 51.4389 74.2747C50.6524 74.2747 50.0126 73.6349 50.0126 72.8484V72.6447C47.5554 72.0049 45.7298 69.7881 45.7298 67.1353C45.7298 66.3448 46.3696 65.7091 47.1561 65.7091C47.9425 65.7091 48.5823 66.3489 48.5823 67.1353C48.5823 68.7083 49.8619 69.9919 51.4389 69.9919C53.0159 69.9919 54.2954 68.7083 54.2954 67.1353C54.2954 65.5624 53.0159 64.2788 51.4389 64.2788C48.2889 64.2788 45.7257 61.7156 45.7257 58.5656C45.7257 55.9128 47.5554 53.696 50.0086 53.0562V52.8525C50.0086 52.0619 50.6483 51.4263 51.4348 51.4263C52.2213 51.4263 52.861 52.066 52.861 52.8525V53.0562C55.3183 53.696 57.1439 55.9128 57.1439 58.5656C57.1439 59.3562 56.5041 59.9919 55.7176 59.9919C54.9311 59.9919 54.2914 59.3521 54.2914 58.5656C54.2914 56.9927 53.0118 55.7091 51.4348 55.7091C49.8578 55.7091 48.5782 56.9927 48.5782 58.5656C48.5782 60.1386 49.8578 61.4222 51.4348 61.4222Z" fill="url(#paint2_linear_56_16639)"/>
<path d="M97.1398 51.4268H91.4267C89.8497 51.4268 88.5701 52.7063 88.5701 54.2833V94.2752H85.7136V68.5661C85.7136 66.9891 84.4341 65.7096 82.8571 65.7096H77.1439C75.5669 65.7096 74.2874 66.9891 74.2874 68.5661V94.2752H71.4308V79.9924C71.4308 78.4154 70.1513 77.1358 68.5742 77.1358H62.8611C61.2841 77.1358 60.0045 78.4154 60.0045 79.9924V94.2752H57.148V88.5621C57.148 86.985 55.8684 85.7055 54.2914 85.7055H48.5783C47.0013 85.7055 45.7218 86.985 45.7218 88.5621V94.2752H22.8692C21.2922 94.2752 20.0127 95.5547 20.0127 97.1318C20.0127 98.7088 21.2922 99.9883 22.8692 99.9883H97.1398C98.7169 99.9883 99.9964 98.7088 99.9964 97.1318V54.2833C99.9964 52.7063 98.7169 51.4268 97.1398 51.4268Z" fill="url(#paint3_linear_56_16639)"/>
<defs>
<linearGradient id="paint0_linear_56_16639" x1="10.1997" y1="43.8368" x2="10.1997" y2="25.9342" gradientUnits="userSpaceOnUse">
<stop stop-color="#3B5AA7"/>
<stop offset="0.22" stop-color="#3B65AF"/>
<stop offset="0.62" stop-color="#3D85C5"/>
<stop offset="1" stop-color="#3FA9DF"/>
</linearGradient>
<linearGradient id="paint1_linear_56_16639" x1="47.3599" y1="38.1229" x2="47.3599" y2="20.2203" gradientUnits="userSpaceOnUse">
<stop stop-color="#3B5AA7"/>
<stop offset="0.22" stop-color="#3B65AF"/>
<stop offset="0.62" stop-color="#3D85C5"/>
<stop offset="1" stop-color="#3FA9DF"/>
</linearGradient>
<linearGradient id="paint2_linear_56_16639" x1="13.2054" y1="65.278" x2="13.2054" y2="20.5215" gradientUnits="userSpaceOnUse">
<stop stop-color="#3B5AA7"/>
<stop offset="0.22" stop-color="#3B65AF"/>
<stop offset="0.62" stop-color="#3D85C5"/>
<stop offset="1" stop-color="#3FA9DF"/>
</linearGradient>
<linearGradient id="paint3_linear_56_16639" x1="-10.4771" y1="89.9131" x2="-10.4771" y2="51.87" gradientUnits="userSpaceOnUse">
<stop stop-color="#3B5AA7"/>
<stop offset="0.22" stop-color="#3B65AF"/>
<stop offset="0.62" stop-color="#3D85C5"/>
<stop offset="1" stop-color="#3FA9DF"/>
</linearGradient>
</defs>
</svg>
