<svg width="120" height="120" viewBox="0 0 120 120" fill="none" xmlns="http://www.w3.org/2000/svg">
<path fill-rule="evenodd" clip-rule="evenodd" d="M82.5714 79.5055L82.9827 79.7454C88.3336 82.8345 93.5328 76.5779 95.9268 72.4264C98.3208 68.2748 101.141 60.6474 95.7897 57.5582L95.3785 57.3184C94.5217 56.8239 93.4251 57.1176 92.9257 57.9744L91.2759 60.8334C90.7814 61.6902 91.0752 62.7868 91.9319 63.2862L92.9013 63.8443C93.6454 64.2702 93.9832 65.1661 93.7041 65.9788C92.7201 68.8183 91.2024 71.4472 89.2344 73.7237C88.6714 74.3748 87.7265 74.5266 86.9873 74.0958L86.018 73.5377C85.1612 73.0432 84.0646 73.337 83.5652 74.1937L81.9154 77.0528C81.4209 77.9095 81.7147 79.0061 82.5714 79.5055ZM43.4943 35.2977C41.1052 35.2977 39.9057 38.1959 41.5948 39.8849C41.9081 40.1982 41.9081 40.7025 41.5948 41.0109L39.8764 42.7293C39.563 43.0426 39.0588 43.0426 38.7503 42.7293C37.0613 41.0403 34.1631 42.2397 34.1631 44.6288C34.1631 45.0694 33.8058 45.4268 33.3651 45.4268H30.9369C30.4963 45.4268 30.1389 45.0694 30.1389 44.6288C30.1389 42.2348 27.2456 41.0354 25.5517 42.7293C25.2383 43.0426 24.7341 43.0426 24.4257 42.7293L22.7073 41.0109C22.394 40.6976 22.394 40.1933 22.7073 39.8849C24.3963 38.1959 23.1968 35.2977 20.8078 35.2977C20.3672 35.2977 20.0098 34.9403 20.0098 34.4997V32.0714C20.0098 31.6308 20.3672 31.2734 20.8078 31.2734C23.1968 31.2734 24.3963 28.3752 22.7073 26.6862C22.394 26.3729 22.394 25.8686 22.7073 25.5602L24.4257 23.8418C24.739 23.5285 25.2432 23.5285 25.5517 23.8418C27.2407 25.5308 30.1389 24.3314 30.1389 21.9423C30.1389 21.5017 30.4963 21.1443 30.9369 21.1443H33.3651C33.8058 21.1443 34.1631 21.5017 34.1631 21.9423C34.1631 24.3314 37.0613 25.5308 38.7503 23.8418C39.0637 23.5285 39.5679 23.5285 39.8764 23.8418L41.5948 25.5602C41.9081 25.8735 41.9081 26.3778 41.5948 26.6862C39.9057 28.3752 41.1052 31.2734 43.4943 31.2734C43.9349 31.2734 44.2923 31.6308 44.2923 32.0714V34.4997C44.2923 34.9403 43.9349 35.2977 43.4943 35.2977ZM32.151 27.4548C28.9297 27.4548 26.3154 30.0691 26.3154 33.2905C26.3154 36.5118 28.9297 39.1261 32.151 39.1261C35.3724 39.1261 37.9867 36.5118 37.9867 33.2905C37.9867 30.0691 35.3773 27.4548 32.151 27.4548ZM45.4476 58.0282C47.5723 61.6853 52.2575 62.9435 55.9293 60.8383L61.9411 57.3673L54.2696 44.0805L48.2577 47.5515C44.6007 49.6762 43.3474 54.3614 45.4476 58.0331V58.0282ZM63.3217 59.2228L58.4995 62.0084L66.4108 72.5928C66.9151 73.2586 67.8649 73.3908 68.5258 72.8866C68.5649 72.8572 68.5992 72.8278 68.6335 72.7935L70.4595 71.1339C71.0421 70.6052 71.1254 69.7191 70.6456 69.0875L63.3168 59.2179L63.3217 59.2228ZM89.1805 53.8473C90.8842 52.8584 91.4717 50.6749 90.4877 48.9615L75.8203 23.553C74.8314 21.8444 72.6479 21.2569 70.9345 22.2458C69.2259 23.2348 68.6384 25.4182 69.6273 27.1317L84.2947 52.5402C85.2836 54.2439 87.4671 54.8314 89.1805 53.8473ZM93.4398 40.443C92.8034 40.443 92.2893 39.929 92.2893 39.2925C92.2893 38.6561 92.8034 38.1421 93.4398 38.1421H98.8495C99.4859 38.1421 100 38.6561 100 39.2925C100 39.929 99.4859 40.443 98.8495 40.443H93.4398ZM86.6593 26.4072C86.3411 26.9555 85.6361 27.1366 85.0927 26.8184C84.5493 26.5002 84.3632 25.805 84.6766 25.2567L87.379 20.5715C87.6972 20.0232 88.3972 19.8372 88.9456 20.1554C89.4939 20.4736 89.6799 21.1737 89.3617 21.722L86.6593 26.4072ZM93.0628 31.8609C92.5145 32.1742 91.8144 31.9882 91.5011 31.4399C91.1878 30.8916 91.3738 30.1915 91.9222 29.8782L96.3625 27.3129C96.9157 27.0044 97.6109 27.2003 97.9193 27.7486C98.2229 28.292 98.0368 28.9823 97.5032 29.2956L93.0628 31.8609ZM56.4923 43.3363L63.6938 55.8105C69.9015 53.2794 75.9427 51.9233 81.1958 51.7765L68.7363 30.1915C65.9849 34.6661 61.7894 39.224 56.4923 43.3315V43.3363ZM83.1932 31.7336C85.4452 31.3273 87.5993 32.8205 88.0056 35.0725C88.2259 36.2915 87.8881 37.5448 87.0901 38.4896L83.1883 31.7336H83.1932ZM78.7479 83.3241H60.4234C59.5863 83.3241 58.9107 84.0046 58.9107 84.8369V98.4811C58.9107 99.3182 59.5912 99.9938 60.4234 99.9938H78.7479C79.5851 99.9938 80.2607 99.3133 80.2607 98.4811V84.8369C80.2607 83.9997 79.5802 83.3241 78.7479 83.3241ZM72.1241 92.0873L67.0424 95.0198C66.8074 95.1569 66.5039 95.0737 66.3717 94.8387C66.3276 94.7653 66.308 94.6771 66.308 94.5939V88.724C66.308 88.4499 66.5283 88.2295 66.8025 88.2295C66.8906 88.2295 66.9738 88.254 67.0473 88.2932L72.129 91.2257C72.364 91.3628 72.4472 91.6614 72.3101 91.8964C72.2661 91.9698 72.2024 92.0335 72.129 92.0775L72.1241 92.0873ZM66.9885 57.0099C66.3423 57.24 65.7059 57.4848 65.0743 57.7345L72.4962 67.7216C73.6711 69.298 73.4606 71.5109 72.0066 72.8425L70.1805 74.5021C68.6237 75.9219 66.2101 75.8093 64.7953 74.2475C64.717 74.1594 64.6386 74.0664 64.5652 73.9734L60.1346 68.0447H34.3443C33.7078 68.0447 33.1938 67.5307 33.1938 66.8943C33.1938 66.2578 33.7078 65.7438 34.3443 65.7438H58.4113L56.4727 63.1491C51.5427 65.5773 45.5749 63.5505 43.1467 58.6157C42.241 56.7749 41.9227 54.6992 42.241 52.6675C29.5269 54.5082 20 62.0867 20 71.1535C20 77.6647 24.9103 83.4073 32.3909 86.8049L29.62 98.7405C29.5563 99.0049 29.7228 99.2693 29.9871 99.3329C30.1242 99.3623 30.2662 99.3329 30.3788 99.2546L43.8761 89.8353C45.3253 89.9871 46.7841 90.0605 48.2381 90.0605C51.0482 90.0605 53.8486 89.7815 56.6 89.2185V84.832C56.6 82.7268 58.3085 81.0231 60.4136 81.0182H72.3346C74.9636 78.1445 76.4812 74.7665 76.4812 71.1486C76.4812 65.5186 72.8095 60.4663 66.9787 57.0001L66.9885 57.0099ZM62.1467 76.5681H34.3492C33.7127 76.5681 33.1987 76.054 33.1987 75.4176C33.1987 74.7812 33.7127 74.2671 34.3492 74.2671H62.1467C62.7832 74.2671 63.2972 74.7812 63.2972 75.4176C63.2972 76.054 62.7832 76.5681 62.1467 76.5681Z" fill="url(#paint0_linear_56_16568)"/>
<defs>
<linearGradient id="paint0_linear_56_16568" x1="-10.496" y1="83.3973" x2="-10.496" y2="20.7301" gradientUnits="userSpaceOnUse">
<stop stop-color="#3B5AA7"/>
<stop offset="0.22" stop-color="#3B65AF"/>
<stop offset="0.62" stop-color="#3D85C5"/>
<stop offset="1" stop-color="#3FA9DF"/>
</linearGradient>
</defs>
</svg>
