<svg width="90" height="104" viewBox="0 0 90 104" fill="none" xmlns="http://www.w3.org/2000/svg">
<path d="M90 77.7786V25.927L44.9988 0L-1.72955e-06 25.927V77.7786L44.9988 103.706L90 77.7786Z" fill="url(#paint0_linear_56_16444)"/>
<g clip-path="url(#clip0_56_16444)">
<path d="M56.9624 46.0213C58.162 44.8338 58.9066 43.1877 58.9066 41.3704C58.9066 37.7608 55.9694 34.8242 52.3591 34.8242C49.5771 34.8242 47.1114 36.5878 46.1907 39.1721C45.8048 39.1009 45.4078 39.0618 45.0016 39.0618C44.5953 39.0618 44.1985 39.1009 43.8124 39.1721C42.8918 36.5877 40.4259 34.8242 37.644 34.8242C34.0337 34.8242 31.0965 37.7608 31.0965 41.3704C31.0965 43.1877 31.8412 44.8338 33.0409 46.0213C30.1632 47.6605 28.3105 50.7647 28.3105 54.1407C28.3105 54.7233 28.7828 55.1954 29.3652 55.1954C29.9477 55.1954 30.4199 54.7233 30.4199 54.1407C30.4199 51.159 32.2867 48.4514 35.0692 47.3896C36.2554 47.8991 37.5663 48.0444 38.8353 47.8071C39.1662 48.7306 39.6999 49.5683 40.3972 50.2583C38.9601 51.0714 37.765 52.2519 36.934 53.6787C36.1031 55.1056 35.6663 56.7276 35.6684 58.3788C35.6684 58.9614 36.1406 59.4335 36.7231 59.4335C37.3055 59.4335 37.7778 58.9614 37.7778 58.3788C37.7761 56.958 38.1939 55.5684 38.9788 54.3842C39.7638 53.2 40.8809 52.2739 42.19 51.7221C42.2618 51.6917 42.328 51.6539 42.389 51.6107C43.2128 51.9711 44.1024 52.1568 45.0016 52.1562C45.9156 52.1562 46.7861 51.9674 47.577 51.6276C50.3581 52.6895 52.2254 55.3999 52.2254 58.3788C52.2254 58.9614 52.6976 59.4335 53.2801 59.4335C53.8625 59.4335 54.3348 58.9614 54.3348 58.3788C54.3348 55.0059 52.4817 51.8991 49.6048 50.2593C50.3027 49.5691 50.8368 48.7311 51.1679 47.8071C52.4368 48.0444 53.7477 47.8991 54.9338 47.3896C57.7163 48.4514 59.5831 51.1588 59.5831 54.1407C59.5831 54.7233 60.0553 55.1954 60.6378 55.1954C61.2202 55.1954 61.6924 54.7233 61.6924 54.1407C61.6927 50.7646 59.8401 47.6605 56.9624 46.0213ZM38.4546 45.6091C38.4546 45.6506 38.457 45.6914 38.4577 45.7326C38.192 45.7821 37.9199 45.8085 37.6442 45.8085C35.197 45.8085 33.206 43.8177 33.206 41.3704C33.206 38.924 35.197 36.9336 37.6442 36.9336C39.5322 36.9336 41.2047 38.1316 41.8271 39.8858C39.8175 41.0049 38.4546 43.1504 38.4546 45.6091ZM40.564 45.6091C40.564 43.1622 42.5547 41.1714 45.0017 41.1714C47.4487 41.1714 49.4394 43.1621 49.4394 45.6091C49.4394 48.0561 47.4487 50.0468 45.0017 50.0468C42.5547 50.0468 40.564 48.056 40.564 45.6091ZM51.5456 45.7326C51.5463 45.6914 51.5487 45.6504 51.5487 45.6091C51.5487 43.1504 50.1857 41.005 48.1762 39.8859C48.7986 38.1317 50.4711 36.9337 52.3591 36.9337C54.8063 36.9337 56.7973 38.924 56.7973 41.3705C56.7973 43.8177 54.8063 45.8086 52.3591 45.8086C52.0862 45.8083 51.8139 45.7828 51.5456 45.7326Z" fill="white"/>
<path d="M72.3143 61.5361V42.365C74.9433 41.8689 76.9385 39.5565 76.9385 36.7854C76.9385 33.6537 74.3908 31.106 71.2591 31.106C69.538 31.106 67.9943 31.8766 66.952 33.0896L50.36 23.5095C50.5719 22.9067 50.6801 22.2723 50.6799 21.6333C50.6799 18.5018 48.1322 15.9541 45.0006 15.9541C41.869 15.9541 39.3211 18.5018 39.3211 21.6334C39.3211 22.2908 39.4346 22.9218 39.6411 23.5096L23.049 33.0896C22.0067 31.8766 20.4631 31.106 18.742 31.106C15.6102 31.106 13.0625 33.6537 13.0625 36.7854C13.0625 39.5565 15.0577 41.8688 17.6867 42.365V61.5361C15.0577 62.0323 13.0625 64.3447 13.0625 67.1157C13.0625 70.2475 15.6102 72.7952 18.742 72.7952C20.4604 72.7952 22.0018 72.027 23.0441 70.8173L39.6409 80.3991C39.4291 81.0018 39.3209 81.636 39.3211 82.2748C39.3211 85.4065 41.8689 87.9542 45.0006 87.9542C48.1323 87.9542 50.68 85.4065 50.68 82.2748C50.68 81.6176 50.5666 80.9867 50.3603 80.3991L66.9571 70.8173C67.9994 72.0271 69.5408 72.7952 71.2592 72.7952C74.391 72.7952 76.9387 70.2475 76.9387 67.1157C76.9385 64.3446 74.9432 62.0323 72.3143 61.5361ZM71.2591 33.2154C73.2276 33.2154 74.8292 34.8169 74.8292 36.7854C74.8292 38.7539 73.2276 40.3555 71.2591 40.3555C69.2906 40.3555 67.689 38.7539 67.689 36.7854C67.689 34.8169 69.2906 33.2154 71.2591 33.2154ZM45.0006 18.0635C46.9691 18.0635 48.5707 19.6649 48.5707 21.6334C48.5707 23.6001 46.972 25.2004 45.0061 25.2033L45.0006 25.2031L44.9951 25.2033C43.0292 25.2004 41.4305 23.6001 41.4305 21.6334C41.4305 19.6649 43.032 18.0635 45.0006 18.0635ZM15.1719 36.7854C15.1719 34.8169 16.7735 33.2154 18.742 33.2154C20.7104 33.2154 22.312 34.8169 22.312 36.7854C22.312 38.7539 20.7104 40.3555 18.742 40.3555C16.7735 40.3555 15.1719 38.7539 15.1719 36.7854ZM18.742 70.6857C16.7735 70.6857 15.1719 69.0841 15.1719 67.1156C15.1719 65.1471 16.7735 63.5455 18.742 63.5455C20.7104 63.5455 22.312 65.1471 22.312 67.1156C22.312 69.0841 20.7104 70.6857 18.742 70.6857ZM45.0006 85.8447C43.0321 85.8447 41.4305 84.2431 41.4305 82.2746C41.4305 80.3062 43.0321 78.7046 45.0006 78.7046C46.9691 78.7046 48.5707 80.3062 48.5707 82.2746C48.5707 84.2431 46.9691 85.8447 45.0006 85.8447ZM49.303 78.5737C48.4794 77.6174 47.3438 76.938 46.0551 76.695V72.6318C46.0551 72.0492 45.5829 71.5771 45.0005 71.5771C44.418 71.5771 43.9458 72.0492 43.9458 72.6318V76.695C42.6572 76.9382 41.5216 77.6174 40.6979 78.5737L24.1013 68.992C24.3133 68.3892 24.4215 67.7547 24.4213 67.1157C24.4213 66.4578 24.3075 65.8261 24.1008 65.2378L27.6206 63.2051C27.8589 63.0632 28.0318 62.8332 28.1017 62.5648C28.1717 62.2965 28.1331 62.0114 27.9944 61.7712C27.8557 61.5311 27.6281 61.3552 27.3607 61.2817C27.0933 61.2081 26.8077 61.2429 26.5657 61.3784L23.0427 63.4129C22.2191 62.4575 21.0839 61.7789 19.7959 61.536V42.3652C21.0844 42.1223 22.2198 41.4432 23.0434 40.4874L26.5712 42.5247C26.6911 42.594 26.8235 42.639 26.9608 42.6571C27.0981 42.6752 27.2377 42.6661 27.3715 42.6302C27.5053 42.5944 27.6307 42.5326 27.7406 42.4482C27.8505 42.3639 27.9426 42.2587 28.0119 42.1388C28.0811 42.0188 28.1261 41.8864 28.1442 41.7491C28.1623 41.6118 28.1532 41.4722 28.1174 41.3384C28.0815 41.2046 28.0197 41.0792 27.9354 40.9693C27.8511 40.8594 27.7459 40.7672 27.626 40.6979L24.1009 38.6622C24.3129 38.0592 24.4212 37.4246 24.421 36.7854C24.4212 36.149 24.3138 35.5171 24.1035 34.9164L40.6979 25.3348C41.5215 26.2908 42.6569 26.97 43.9453 27.213V31.2767C43.9453 31.8593 44.4176 32.3314 45 32.3314C45.5825 32.3314 46.0547 31.8593 46.0547 31.2767V27.213C47.3431 26.97 48.4786 26.2908 49.3022 25.3348L65.8966 34.9164C65.6863 35.5171 65.5789 36.149 65.5791 36.7854C65.5791 37.443 65.6927 38.0743 65.8991 38.6622L62.3741 40.6979C62.1318 40.8378 61.9551 41.0682 61.8827 41.3384C61.8103 41.6086 61.8482 41.8965 61.9881 42.1387C62.128 42.3809 62.3584 42.5577 62.6286 42.6301C62.8988 42.7025 63.1867 42.6645 63.4289 42.5247L66.9566 40.4874C67.7804 41.4432 68.9158 42.1223 70.2041 42.3652V61.536C68.9161 61.7789 67.7811 62.4575 66.9573 63.4129L63.4344 61.3784C63.3144 61.3091 63.182 61.2641 63.0447 61.246C62.9074 61.2279 62.7678 61.2371 62.634 61.2729C62.5002 61.3087 62.3748 61.3705 62.2649 61.4549C62.155 61.5392 62.0628 61.6443 61.9935 61.7642C61.9243 61.8842 61.8793 62.0166 61.8612 62.1539C61.8431 62.2912 61.8522 62.4308 61.8881 62.5646C61.9239 62.6984 61.9857 62.8238 62.07 62.9337C62.1543 63.0436 62.2595 63.1358 62.3794 63.2051L65.8993 65.2378C65.687 65.8412 65.5786 66.4762 65.5788 67.1157C65.5788 67.7732 65.6923 68.4043 65.8987 68.992L49.303 78.5737ZM71.2591 70.6857C69.2906 70.6857 67.689 69.0841 67.689 67.1156C67.689 65.1471 69.2906 63.5455 71.2591 63.5455C73.2276 63.5455 74.8292 65.1471 74.8292 67.1156C74.8292 69.0841 73.2276 70.6857 71.2591 70.6857Z" fill="white"/>
<path d="M53.8357 62.8516H50.6969C50.1145 62.8516 49.6422 63.3236 49.6422 63.9062C49.6422 64.4889 50.1145 64.9609 50.6969 64.9609H53.8357C54.4181 64.9609 54.8904 64.4889 54.8904 63.9062C54.8904 63.3236 54.4181 62.8516 53.8357 62.8516ZM53.8357 66.9824H36.168C35.5855 66.9824 35.1133 67.4545 35.1133 68.0371C35.1133 68.6197 35.5855 69.0918 36.168 69.0918H53.8358C53.9743 69.0918 54.1115 69.0645 54.2394 69.0115C54.3674 68.9585 54.4836 68.8808 54.5816 68.7828C54.6795 68.6849 54.7572 68.5686 54.8102 68.4407C54.8632 68.3127 54.8904 68.1755 54.8904 68.037C54.8904 67.8985 54.8631 67.7614 54.8101 67.6334C54.7571 67.5055 54.6794 67.3892 54.5815 67.2913C54.4835 67.1934 54.3673 67.1157 54.2393 67.0627C54.1113 67.0097 53.9742 66.9824 53.8357 66.9824ZM36.168 64.9609H36.1826C36.7651 64.9609 37.2373 64.4889 37.2373 63.9062C37.2373 63.3236 36.7651 62.8516 36.1826 62.8516H36.168C35.5855 62.8516 35.1133 63.3236 35.1133 63.9062C35.1133 64.4889 35.5855 64.9609 36.168 64.9609ZM39.8358 64.9609C40.4182 64.9609 40.8904 64.4889 40.8904 63.9062C40.8904 63.3236 40.4182 62.8516 39.8358 62.8516H39.8211C39.2387 62.8516 38.7664 63.3236 38.7664 63.9062C38.7664 64.4889 39.2387 64.9609 39.8211 64.9609H39.8358ZM43.4889 64.9609C44.0714 64.9609 44.5436 64.4889 44.5436 63.9062C44.5436 63.3236 44.0714 62.8516 43.4889 62.8516H43.4743C42.8918 62.8516 42.4196 63.3236 42.4196 63.9062C42.4196 64.4889 42.8918 64.9609 43.4743 64.9609H43.4889Z" fill="white"/>
</g>
<defs>
<linearGradient id="paint0_linear_56_16444" x1="-8.67767" y1="-34.8132" x2="-8.67767" y2="56.477" gradientUnits="userSpaceOnUse">
<stop stop-color="#CC2027"/>
<stop offset="0.11" stop-color="#D23125"/>
<stop offset="0.37" stop-color="#E15723"/>
<stop offset="0.62" stop-color="#EB7121"/>
<stop offset="0.83" stop-color="#F18220"/>
<stop offset="1" stop-color="#F48820"/>
</linearGradient>
<clipPath id="clip0_56_16444">
<rect width="72" height="72" fill="white" transform="translate(9 15.9561)"/>
</clipPath>
</defs>
</svg>
