<svg width="120" height="120" viewBox="0 0 120 120" fill="none" xmlns="http://www.w3.org/2000/svg">
<path fill-rule="evenodd" clip-rule="evenodd" d="M70.0147 45.0918L66.2297 52.4574C66.1743 52.564 66.251 52.6918 66.3746 52.6918H73.5058C73.6251 52.6918 73.7018 52.5725 73.6549 52.4617L70.3089 45.096C70.2535 44.9724 70.0787 44.9682 70.019 45.0875L70.0147 45.0918ZM78.0496 71.302C84.3581 71.302 89.4731 76.417 89.4731 82.7255C89.4731 89.034 84.3581 94.149 78.0496 94.149C71.7411 94.149 66.6261 89.034 66.6261 82.7255C66.6261 76.417 71.7411 71.302 78.0496 71.302ZM84.4135 76.3616C80.8969 72.845 75.198 72.845 71.6814 76.3616C68.1648 79.8781 68.1648 85.5771 71.6814 89.0937C75.198 92.6102 80.8969 92.6102 84.4135 89.0937C87.9301 85.5771 87.9301 79.8781 84.4135 76.3616ZM29.0051 54.3244H38.7578C38.8473 54.3244 38.9197 54.3968 38.9197 54.4864V56.5878C38.9197 56.6773 38.8473 56.7497 38.7578 56.7497H29.0051C28.9327 56.7497 28.873 56.7966 28.8517 56.8648C27.8713 60.0873 23.758 61.1657 21.3284 58.7361C18.4853 55.893 20.51 51.0167 24.5252 51.0167C26.5414 51.0167 28.2763 52.3423 28.8517 54.2136C28.873 54.2818 28.9327 54.3286 29.0051 54.3286V54.3244ZM28.5491 42.9477L31.1279 45.5266C31.1577 45.5564 31.1961 45.5734 31.243 45.5734H38.7578C38.8473 45.5734 38.9197 45.6459 38.9197 45.7354V47.8368C38.9197 47.9264 38.8473 47.9988 38.7578 47.9988H30.6718C30.3606 47.9988 30.0495 47.8795 29.815 47.645L26.8355 44.6655C26.7844 44.6144 26.7076 44.6016 26.6437 44.6357C23.6727 46.2213 20.0027 44.073 20.0027 40.6417C20.0027 36.6264 24.879 34.6017 27.7221 37.4448C29.1245 38.8472 29.4527 41.0083 28.5192 42.7645C28.4851 42.8284 28.4979 42.9051 28.5491 42.9563V42.9477ZM26.8355 66.4086L29.815 63.4291C30.0537 63.1904 30.3606 63.0753 30.6718 63.0753H38.7578C38.8473 63.0753 38.9197 63.1478 38.9197 63.2373V65.3387C38.9197 65.4282 38.8473 65.5007 38.7578 65.5007H31.243C31.2003 65.5007 31.162 65.5177 31.1279 65.5476L28.5491 68.1264C28.4979 68.1775 28.4851 68.2543 28.5192 68.3182C30.1049 71.2892 27.9566 74.9592 24.5252 74.9592C20.51 74.9592 18.4853 70.0829 21.3284 67.2398C22.7307 65.8374 24.8918 65.5092 26.648 66.4427C26.7119 66.4768 26.7887 66.464 26.8398 66.4129L26.8355 66.4086ZM90.9906 56.7455H81.2337C81.1442 56.7455 81.0717 56.673 81.0717 56.5835V54.4821C81.0717 54.3926 81.1442 54.3201 81.2337 54.3201H90.9906C91.0631 54.3201 91.1227 54.2732 91.144 54.205C92.1244 50.9826 96.2377 49.9042 98.6674 52.3338C101.51 55.1769 99.4858 60.0532 95.4705 60.0532C93.4543 60.0532 91.7195 58.7276 91.144 56.8563C91.1227 56.7881 91.0631 56.7412 90.9906 56.7412V56.7455ZM93.1602 44.6613L90.1807 47.6408C89.942 47.8795 89.6351 47.9946 89.3239 47.9946H81.238C81.1484 47.9946 81.076 47.9221 81.076 47.8326V45.7312C81.076 45.6416 81.1484 45.5692 81.238 45.5692H88.757C88.7997 45.5692 88.838 45.5521 88.8721 45.5223L91.4509 42.9435C91.5021 42.8923 91.5149 42.8156 91.4808 42.7517C89.8951 39.7807 92.0434 36.1107 95.4748 36.1107C99.49 36.1107 101.515 40.987 98.6716 43.8301C97.2693 45.2324 95.1081 45.5607 93.352 44.6272C93.288 44.5931 93.2113 44.6059 93.1602 44.657V44.6613ZM91.4467 68.1221C91.4978 68.1733 91.5106 68.25 91.4765 68.3139C90.543 70.0658 90.8712 72.2269 92.2736 73.6336C95.1167 76.4766 99.993 74.452 99.993 70.4367C99.993 67.0053 96.323 64.857 93.352 66.4427C93.288 66.4768 93.2113 66.464 93.1602 66.4129L90.1807 63.4334C89.942 63.1947 89.6351 63.0796 89.3239 63.0796H81.238C81.1484 63.0796 81.076 63.152 81.076 63.2416V65.343C81.076 65.4325 81.1484 65.5049 81.238 65.5049H88.757C88.7997 65.5049 88.838 65.522 88.8721 65.5518L91.4509 68.1306L91.4467 68.1221ZM35.416 26.3367V30.4927C35.416 30.676 35.5694 30.8294 35.7527 30.8294H84.2473C84.4306 30.8294 84.584 30.676 84.584 30.4927V26.3367C84.584 26.1535 84.4306 26 84.2473 26H35.7527C35.5694 26 35.416 26.1535 35.416 26.3367ZM78.4929 33.2548C78.5824 33.2548 78.6549 33.3273 78.6549 33.4168V69.2176C78.6549 69.3114 78.5781 69.3838 78.4886 69.3796C72.8067 69.1963 67.7471 72.602 65.6755 77.7085C65.65 77.7725 65.5946 77.8108 65.5264 77.8108H41.5113C41.4218 77.8108 41.3494 77.7384 41.3494 77.6488V33.421C41.3494 33.3315 41.4218 33.2591 41.5113 33.2591H78.4929V33.2548ZM43.6 52.0013L48.7491 41.5241C48.958 41.0978 49.3885 40.8463 49.8318 40.8463L70.1682 40.8421C70.6286 40.8463 71.0505 41.1106 71.2509 41.5241C72.9559 45.0193 74.6822 48.5103 76.4 52.0013C76.5066 52.2187 76.5833 52.3466 76.5833 52.6407C76.5833 56.1828 73.7104 59.0558 70.1682 59.0558C66.6261 59.0558 63.7531 56.1828 63.7531 52.6407C63.7531 52.3466 63.8256 52.2187 63.9364 52.0013L68.1137 43.4976C68.1648 43.391 68.0881 43.2632 67.9688 43.2632H61.3747C61.2852 43.2632 61.2127 43.3356 61.2127 43.4251V63.1435C61.2127 63.233 61.2852 63.3055 61.3747 63.3055H66.1487C66.8179 63.3055 67.3592 63.8468 67.3592 64.516C67.3592 65.1853 66.8179 65.7266 66.1487 65.7266H53.8513C53.1821 65.7266 52.6408 65.1853 52.6408 64.516C52.6408 63.8468 53.1821 63.3055 53.8513 63.3055H58.6253C58.7148 63.3055 58.7873 63.233 58.7873 63.1435V43.4251C58.7873 43.3356 58.7148 43.2632 58.6253 43.2632H52.027C51.9076 43.2632 51.8309 43.3868 51.8821 43.4976C53.2716 46.3322 54.674 49.1667 56.0636 52.0013C56.1701 52.2187 56.2469 52.3466 56.2469 52.6407C56.2469 56.1828 53.3739 59.0558 49.8318 59.0558C46.2896 59.0558 43.4167 56.1828 43.4167 52.6407C43.4167 52.3423 43.4892 52.2187 43.6 52.0013ZM50.5138 69.013C50.5138 69.6822 51.0551 70.2235 51.7243 70.2235H68.2799C68.9491 70.2235 69.4905 69.6822 69.4905 69.013C69.4905 68.3438 68.9491 67.8024 68.2799 67.8024H51.7243C51.0551 67.8024 50.5138 68.3438 50.5138 69.013ZM64.742 80.2362H35.7569C35.5737 80.2362 35.4202 80.3896 35.4202 80.5729V84.7289C35.4202 84.9122 35.5737 85.0656 35.7569 85.0656H64.7165C64.8188 85.0656 64.8912 84.9761 64.8742 84.8781C64.6355 83.4075 64.644 81.89 64.8997 80.4237C64.9168 80.3257 64.8401 80.2362 64.742 80.2362ZM81.7708 79.1407L76.5492 84.3495C76.4853 84.4134 76.3872 84.4134 76.3233 84.3495L73.9576 82.0477C73.4802 81.5789 72.7172 81.5874 72.2483 82.0605C71.7795 82.5379 71.788 83.3009 72.2611 83.7698L75.5944 87.0221C76.0675 87.4867 76.8263 87.4824 77.2951 87.0178L83.4715 80.8542C83.9447 80.3854 83.9447 79.6181 83.4758 79.145C83.0069 78.6718 82.2396 78.6676 81.7665 79.1407H81.7708ZM49.6869 45.0918L46.0723 52.4574C46.0211 52.564 46.0978 52.6918 46.2172 52.6918H53.3483C53.4677 52.6918 53.5444 52.5682 53.4933 52.4617L49.9767 45.096C49.9171 44.9724 49.7465 44.9724 49.6869 45.096V45.0918Z" fill="url(#paint0_linear_56_16570)"/>
<defs>
<linearGradient id="paint0_linear_56_16570" x1="-10.496" y1="80.0099" x2="-10.496" y2="26.622" gradientUnits="userSpaceOnUse">
<stop stop-color="#3B5AA7"/>
<stop offset="0.22" stop-color="#3B65AF"/>
<stop offset="0.62" stop-color="#3D85C5"/>
<stop offset="1" stop-color="#3FA9DF"/>
</linearGradient>
</defs>
</svg>
