<svg width="120" height="120" viewBox="0 0 120 120" fill="none" xmlns="http://www.w3.org/2000/svg">
<path d="M87.7913 59.242H97.651C98.9457 59.242 99.9958 58.1919 99.9958 56.8972C99.9958 55.6025 98.9457 54.5525 97.651 54.5525H88.7232C89.845 47.4718 89.3263 42.6811 89.2968 42.4238C89.1913 41.496 88.5461 40.7243 87.6563 40.4502C84.097 39.3579 80.9932 38.253 78.2942 37.1692V31.3748H86.3405C87.3063 34.1033 89.9125 36.0601 92.97 36.0601C96.8456 36.0601 100 32.9056 100 29.03C100 25.1544 96.8456 22 92.97 22C89.9167 22 87.3105 23.961 86.3405 26.6853H75.9494C74.6547 26.6853 73.6046 27.7354 73.6046 29.03V35.1281C64.9172 31.0248 62.0369 27.6637 61.864 27.4528C60.9278 26.1666 59.0722 26.1624 58.136 27.4528C57.9631 27.6637 55.0828 31.0248 46.3954 35.1281V29.03C46.3954 27.7354 45.3453 26.6853 44.0506 26.6853H33.6595C32.6937 23.9568 30.0875 22 27.03 22C23.1544 22 20 25.1544 20 29.03C20 32.9056 23.1544 36.0601 27.03 36.0601C30.0833 36.0601 32.6895 34.0991 33.6595 31.3748H41.7058V37.1692C39.0068 38.253 35.903 39.3579 32.3437 40.4502C31.4539 40.7201 30.8086 41.496 30.7032 42.4238C30.6737 42.6811 30.1508 47.4718 31.2768 54.5525H22.349C21.0543 54.5525 20.0042 55.6025 20.0042 56.8972C20.0042 58.1919 21.0543 59.242 22.349 59.242H32.2088C32.719 61.3759 33.3179 63.4254 34.1149 65.6563H27.6753C26.3806 65.6563 25.3305 66.7064 25.3305 68.0011C25.3305 69.2957 26.3806 70.3458 27.6753 70.3458H36.0042C38.0369 74.8413 40.5124 78.9067 43.4433 82.698H33.6595C32.6937 79.9694 30.0875 78.0127 27.03 78.0127C23.1544 78.0127 20 81.1671 20 85.0427C20 88.9183 23.1544 92.0728 27.03 92.0728C30.0833 92.0728 32.6895 90.1118 33.6595 87.3875H47.437C50.739 90.9088 54.4882 94.1392 58.6547 97.049C59.4602 97.6099 60.5314 97.6099 61.3369 97.049C65.5077 94.1434 69.2567 90.9088 72.5546 87.3875H86.3321C87.2979 90.116 89.9041 92.0728 92.9615 92.0728C96.8371 92.0728 99.9916 88.9183 99.9916 85.0427C99.9916 81.1671 96.8371 78.0127 92.9615 78.0127C89.9083 78.0127 87.3021 79.9737 86.3321 82.698H76.5482C79.4707 78.9151 81.9462 74.8498 83.9874 70.3458H92.3163C93.611 70.3458 94.6611 69.2957 94.6611 68.0011C94.6611 66.7064 93.611 65.6563 92.3163 65.6563H85.8766C86.6737 63.4254 87.2725 61.3759 87.7828 59.242H87.7913ZM72.892 71.2483C72.892 73.6057 70.9774 75.5203 68.62 75.5203H51.3717C49.0142 75.5203 47.0996 73.6057 47.0996 71.2483V57.8292C47.0996 55.9652 48.2973 54.3796 49.9631 53.7976V52.271C49.9631 46.738 54.4628 42.2383 59.9958 42.2383C65.5287 42.2383 70.0285 46.738 70.0285 52.271V53.7976C71.6943 54.3838 72.892 55.9694 72.892 57.8292V71.2483Z" fill="url(#paint0_linear_56_16615)"/>
<path d="M51.7891 58.2422V70.8305H68.2065V58.2422H51.7891ZM62.3405 65.365C62.3405 66.6597 61.2904 67.7098 59.9957 67.7098C58.701 67.7098 57.651 66.6597 57.651 65.365V63.7119C57.651 62.4172 58.701 61.3671 59.9957 61.3671C61.2904 61.3671 62.3405 62.4172 62.3405 63.7119V65.365Z" fill="url(#paint1_linear_56_16615)"/>
<path d="M65.3432 52.2663V53.5526H54.6484V52.2663C54.6484 49.3185 57.048 46.9189 59.9958 46.9189C62.9436 46.9189 65.3432 49.3185 65.3432 52.2663Z" fill="url(#paint2_linear_56_16615)"/>
<defs>
<linearGradient id="paint0_linear_56_16615" x1="-10.496" y1="81.8118" x2="-10.496" y2="22.6888" gradientUnits="userSpaceOnUse">
<stop stop-color="#3B5AA7"/>
<stop offset="0.22" stop-color="#3B65AF"/>
<stop offset="0.62" stop-color="#3D85C5"/>
<stop offset="1" stop-color="#3FA9DF"/>
</linearGradient>
<linearGradient id="paint1_linear_56_16615" x1="45.5307" y1="68.2187" x2="45.5307" y2="58.3571" gradientUnits="userSpaceOnUse">
<stop stop-color="#3B5AA7"/>
<stop offset="0.22" stop-color="#3B65AF"/>
<stop offset="0.62" stop-color="#3D85C5"/>
<stop offset="1" stop-color="#3FA9DF"/>
</linearGradient>
<linearGradient id="paint2_linear_56_16615" x1="50.5716" y1="52.1763" x2="50.5716" y2="46.9795" gradientUnits="userSpaceOnUse">
<stop stop-color="#3B5AA7"/>
<stop offset="0.22" stop-color="#3B65AF"/>
<stop offset="0.62" stop-color="#3D85C5"/>
<stop offset="1" stop-color="#3FA9DF"/>
</linearGradient>
</defs>
</svg>
