<svg width="90" height="104" viewBox="0 0 90 104" fill="none" xmlns="http://www.w3.org/2000/svg">
<path d="M90 77.7786V25.927L44.9988 0L-1.72955e-06 25.927V77.7786L44.9988 103.706L90 77.7786Z" fill="url(#paint0_linear_56_16452)"/>
<path d="M26.7548 62.28C26.7548 61.8383 27.1129 61.4802 27.5546 61.4802H46.8909C47.3326 61.4802 47.6907 61.8383 47.6907 62.28C47.6907 62.7218 47.3326 63.0798 46.8909 63.0798H27.5546C27.1129 63.0798 26.7548 62.7218 26.7548 62.28ZM27.5546 57.1503H41.6803C42.122 57.1503 42.4801 56.7922 42.4801 56.3505C42.4801 55.9088 42.122 55.5507 41.6803 55.5507H27.5546C27.1129 55.5507 26.7548 55.9088 26.7548 56.3505C26.7548 56.7922 27.1129 57.1503 27.5546 57.1503ZM60.2919 68.8328V78.3231C60.2919 79.3448 59.4607 80.1759 58.439 80.1759H45.6915C44.6698 80.1759 43.8387 79.3448 43.8387 78.3231V72.5279C41.7165 73.021 39.4961 73.2712 37.2227 73.2712C36.2803 73.2712 35.3332 73.2271 34.4026 73.14L24.5241 80.0322C24.3867 80.128 24.2266 80.176 24.0665 80.176C23.9101 80.176 23.7538 80.1303 23.6183 80.0386C23.3442 79.853 23.2126 79.5178 23.2874 79.1953L25.2706 70.6521C19.9389 68.0365 16.7773 63.8352 16.7773 59.3153C16.7773 56.2155 18.2216 53.2854 20.9538 50.842C23.5678 48.5044 27.1249 46.8175 31.2406 45.9638C31.673 45.8743 32.0965 46.152 32.1862 46.5844C32.2758 47.017 31.998 47.4403 31.5655 47.53C27.7801 48.3152 24.3901 49.9149 22.0202 52.0343C19.6368 54.1658 18.377 56.6835 18.377 59.3153C18.377 63.3558 21.4236 67.1544 26.5268 69.4765C26.8735 69.6341 27.0608 70.0144 26.9746 70.3853L25.3164 77.5288L33.7297 71.6589C33.8872 71.549 34.0788 71.4997 34.27 71.5193C35.2411 71.6202 36.2344 71.6713 37.2227 71.6713C39.5042 71.6713 41.7264 71.4056 43.8387 70.8825V68.8327C43.8387 67.811 44.6698 66.9799 45.6915 66.9799H51.9785C54.6182 64.7994 56.0685 62.0867 56.0685 59.3152C56.0685 56.3538 54.4277 53.483 51.4482 51.2315C51.0958 50.9652 51.026 50.4637 51.2922 50.1112C51.5586 49.7589 52.06 49.6891 52.4125 49.9554C55.8016 52.5164 57.6682 55.8404 57.6682 59.3152C57.6682 62.0567 56.4953 64.7207 54.3283 66.9799H58.4389C59.4606 66.9799 60.2919 67.8111 60.2919 68.8328ZM58.6922 68.8328C58.6922 68.6956 58.5763 68.5796 58.439 68.5796H45.6915C45.5543 68.5796 45.4383 68.6956 45.4383 68.8328V78.3231C45.4383 78.4603 45.5543 78.5763 45.6915 78.5763H58.439C58.5763 78.5763 58.6922 78.4603 58.6922 78.3231V68.8328ZM55.1471 73.5778C55.1471 73.8636 54.9946 74.1277 54.7472 74.2705L50.1832 76.9054C50.0595 76.9768 49.9214 77.0126 49.7833 77.0126C49.6453 77.0126 49.5072 76.9769 49.3834 76.9054C49.136 76.7626 48.9835 76.4985 48.9835 76.2127V70.9428C48.9835 70.6571 49.136 70.393 49.3834 70.2502C49.6309 70.1073 49.9358 70.1073 50.1832 70.2502L54.7472 72.8852C54.9946 73.0282 55.1471 73.2921 55.1471 73.5778ZM52.7476 73.5778L50.5831 72.3282V74.8275L52.7476 73.5778ZM68.0008 32.0919C68.1366 32.0919 68.274 32.0574 68.4 31.9846L71.489 30.2012C71.8715 29.9804 72.0026 29.4912 71.7817 29.1087C71.561 28.7262 71.072 28.5951 70.6892 28.816L67.6002 30.5993C67.2177 30.8202 67.0867 31.3093 67.3075 31.6919C67.4556 31.9484 67.7244 32.0919 68.0008 32.0919ZM62.8523 28.4834C62.9783 28.5562 63.1157 28.5907 63.2515 28.5907C63.5279 28.5907 63.7967 28.4473 63.9448 28.1907L65.826 24.9322C66.0469 24.5497 65.9159 24.0606 65.5333 23.8397C65.1508 23.6189 64.6616 23.7499 64.4408 24.1324L62.5595 27.3908C62.3387 27.7734 62.4697 28.2625 62.8523 28.4834ZM67.8586 37.1544C67.8586 37.5961 68.2167 37.9542 68.6584 37.9542H72.4209C72.8626 37.9542 73.2207 37.5961 73.2207 37.1544C73.2207 36.7127 72.8626 36.3546 72.4209 36.3546H68.6584C68.2167 36.3546 67.8586 36.7127 67.8586 37.1544ZM33.9737 45.9319C34.399 44.3445 35.4121 43.0207 36.8266 42.2041L41.0101 39.7888C41.1937 39.6827 41.4121 39.6539 41.617 39.7089C41.6979 39.7306 41.7738 39.765 41.8429 39.8094C46.1422 36.5918 49.5322 32.8668 51.4742 29.2208L51.4007 29.0934C50.4944 27.5237 51.0341 25.5094 52.6038 24.603C54.1737 23.6968 56.1879 24.2365 57.0942 25.8061L60.3579 31.4589C62.0914 30.5621 64.2485 31.181 65.2343 32.8887C66.2201 34.5963 65.6776 36.7735 64.0344 37.8267L67.298 43.4795C67.7358 44.2376 67.8513 45.1231 67.6235 45.9732C67.3957 46.8231 66.8529 47.5323 66.0948 47.97C65.5908 48.2611 65.0305 48.4097 64.4617 48.4097C64.1749 48.4097 63.8861 48.3719 63.6012 48.2956C62.7513 48.0679 62.0421 47.5249 61.6044 46.7669L61.5309 46.6395C57.4386 46.4994 52.5667 47.553 47.6736 49.6312L53.4484 57.4044C54.0247 58.1802 53.9236 59.2514 53.2131 59.896L51.9427 61.0489C51.5986 61.3611 51.1499 61.5326 50.6895 61.5326C50.6303 61.5326 50.571 61.5297 50.5117 61.524C49.9968 61.4743 49.5243 61.2088 49.2156 60.7954L43.1741 52.7112L42.9633 52.8329C42.0232 53.3756 40.9776 53.6529 39.916 53.6529C39.3804 53.6529 38.8408 53.5823 38.3084 53.4397C36.721 53.0144 35.3973 52.0012 34.5807 50.5868C33.7639 49.1723 33.5484 47.5192 33.9737 45.9319ZM52.1642 58.3583L46.5296 50.7737L44.5691 51.9057L50.497 59.8379C50.5486 59.9071 50.6171 59.9271 50.6654 59.9318C50.7087 59.9359 50.7922 59.9327 50.8678 59.8642L52.1381 58.7114C52.2379 58.6208 52.249 58.4723 52.1642 58.3583ZM61.1599 32.848L63.2324 36.4377C64.1122 35.8279 64.3937 34.6319 63.849 33.6885C63.3044 32.7452 62.1279 32.391 61.1599 32.848ZM52.7859 28.2936L62.9896 45.967C63.2137 46.355 63.5778 46.6332 64.0152 46.7503C64.4524 46.8673 64.9068 46.8087 65.295 46.5847C65.683 46.3607 65.9612 45.9965 66.0784 45.5592C66.1956 45.1219 66.1367 44.6674 65.9128 44.2794L55.709 26.606C55.3968 26.0652 54.8283 25.7626 54.2446 25.7626C53.9585 25.7626 53.6688 25.8352 53.4037 25.9883C53.0157 26.2123 52.7375 26.5765 52.6204 27.0138C52.5032 27.4511 52.562 27.9056 52.7859 28.2936ZM42.72 41.1509L46.8219 48.2557C51.6191 46.189 56.4314 45.0653 60.6012 45.0293L52.4038 30.8308C50.2879 34.4239 46.9085 38.0297 42.72 41.1509ZM35.9658 49.7869C36.5687 50.8313 37.5477 51.5798 38.7223 51.8945C39.8967 52.2092 41.1188 52.0504 42.1633 51.4475L45.6541 49.4321L41.1171 41.5739L37.6263 43.5893C36.5819 44.1922 35.8335 45.1712 35.5187 46.3458C35.2039 47.5203 35.3629 48.7425 35.9658 49.7869ZM21.1652 32.9784C21.1652 30.2997 23.3444 28.1204 26.0232 28.1204C28.702 28.1204 30.8812 30.2996 30.8812 32.9784C30.8812 35.6571 28.702 37.8363 26.0232 37.8363C23.3444 37.8363 21.1652 35.6571 21.1652 32.9784ZM22.7648 32.9784C22.7648 34.7751 24.2265 36.2367 26.0232 36.2367C27.8199 36.2367 29.2816 34.7751 29.2816 32.9784C29.2816 31.1817 27.8199 29.72 26.0232 29.72C24.2265 29.72 22.7648 31.1817 22.7648 32.9784ZM16.7773 33.823V32.1338C16.7773 31.3868 17.385 30.7792 18.1319 30.7792C18.7934 30.7792 19.0544 30.2735 19.1185 30.1184C19.1827 29.9634 19.3559 29.4212 18.888 28.9534C18.6322 28.6977 18.4912 28.3576 18.4912 27.9956C18.4912 27.6338 18.6321 27.2935 18.888 27.0377L20.0824 25.8432C20.6105 25.315 21.4699 25.315 21.9981 25.8432C22.466 26.3111 23.0082 26.1379 23.1631 26.0737C23.3181 26.0095 23.8239 25.7486 23.8239 25.0871C23.8239 24.34 24.4315 23.7324 25.1784 23.7324H26.8676C27.6145 23.7324 28.2221 24.34 28.2221 25.0871C28.2221 25.7486 28.7278 26.0095 28.8828 26.0737C29.0378 26.1379 29.5802 26.3109 30.0478 25.8432C30.576 25.315 31.4354 25.315 31.9636 25.8432L33.158 27.0377C33.4139 27.2935 33.5547 27.6336 33.5547 27.9955C33.5547 28.3574 33.4139 28.6976 33.1579 28.9534C32.6901 29.4212 32.8634 29.9634 32.9276 30.1184C32.9918 30.2733 33.2526 30.7792 33.9142 30.7792C34.6611 30.7792 35.2687 31.3868 35.2687 32.1338V33.823C35.2687 34.5699 34.6611 35.1775 33.9142 35.1775C33.2526 35.1775 32.9917 35.6832 32.9276 35.8383C32.8634 35.9932 32.6901 36.5355 33.158 37.0032C33.6862 37.5315 33.6862 38.3909 33.158 38.919L31.9636 40.1135C31.7079 40.3693 31.3676 40.5103 31.0058 40.5103C30.6439 40.5103 30.3036 40.3694 30.0478 40.1135C29.58 39.6458 29.038 39.8188 28.8828 39.8831C28.7279 39.9473 28.2221 40.2082 28.2221 40.8698C28.2221 41.6167 27.6145 42.2244 26.8676 42.2244H25.1786C24.4317 42.2244 23.8241 41.6167 23.8241 40.8698C23.8241 40.2068 23.3187 39.946 23.1639 39.8819C23.0089 39.8176 22.4672 39.6447 21.9984 40.1136C21.7426 40.3694 21.4024 40.5104 21.0405 40.5104C20.6787 40.5104 20.3383 40.3695 20.0826 40.1136L18.8883 38.9192C18.6324 38.6635 18.4914 38.3233 18.4914 37.9613C18.4914 37.5994 18.6323 37.2592 18.8883 37.0034C19.356 36.5356 19.1828 35.9934 19.1186 35.8385C19.0544 35.6834 18.7935 35.1777 18.132 35.1777C17.385 35.1775 16.7773 34.5699 16.7773 33.823ZM18.377 33.5885C19.37 33.675 20.207 34.2858 20.5964 35.2262C20.9859 36.1665 20.826 37.1904 20.1849 37.9538L21.0478 38.8167C21.8118 38.175 22.8359 38.0147 23.7759 38.4039C24.716 38.7933 25.3266 39.6308 25.4129 40.6249H26.6332C26.7197 39.6319 27.3305 38.7948 28.2709 38.4053C29.2111 38.016 30.235 38.1758 30.9984 38.8167L31.8614 37.9538C31.2203 37.1904 31.0605 36.1665 31.4499 35.2262C31.8394 34.286 32.6763 33.675 33.6693 33.5885V32.3683C32.6763 32.2818 31.8393 31.6709 31.4499 30.7306C31.0605 29.7903 31.2203 28.7665 31.8613 28.003L30.9983 27.14C30.2347 27.781 29.211 27.9409 28.2708 27.5515C27.3305 27.162 26.7197 26.325 26.6332 25.332H25.4129C25.3265 26.325 24.7156 27.1621 23.7754 27.5515C22.8351 27.941 21.8112 27.781 21.0478 27.1399L20.1849 28.0029C20.8258 28.7665 20.9858 29.7903 20.5963 30.7305C20.207 31.6709 19.37 32.2818 18.377 32.3683V33.5885ZM73.1579 54.8531C72.8755 57.2214 71.7367 59.4744 71.0829 60.6066C70.4292 61.7388 69.0475 63.8515 67.1377 65.2802C65.8995 66.2065 64.6526 66.6724 63.4445 66.6724C62.6008 66.6724 61.7758 66.4453 60.9857 65.9891L60.6985 65.8232C60.2252 65.55 59.8867 65.1081 59.7448 64.5788C59.603 64.0496 59.6753 63.4976 59.9485 63.0244L61.0969 61.0353C61.6617 60.0569 62.9173 59.7205 63.8957 60.2853L64.5693 60.6743C64.7603 60.7846 64.9862 60.7473 65.1318 60.5815C65.7599 59.8653 66.3384 59.0518 66.8513 58.1634C67.3642 57.2751 67.7795 56.3672 68.0856 55.4654C68.1564 55.2565 68.0758 55.042 67.8849 54.9318L67.2112 54.543C66.7379 54.2698 66.3994 53.8278 66.2575 53.2986C66.1157 52.7693 66.188 52.2172 66.4612 51.7441L67.6096 49.755C68.1743 48.7767 69.4298 48.4403 70.4084 49.005L70.6957 49.1709C72.6174 50.2803 73.4688 52.2451 73.1579 54.8531ZM69.8959 50.5562L69.6087 50.3903C69.3942 50.2664 69.1187 50.3402 68.995 50.5547L67.8466 52.5438C67.7871 52.647 67.7714 52.7678 67.8027 52.8844C67.8339 53.0009 67.9079 53.0979 68.0111 53.1575L68.6848 53.5463C69.5421 54.0414 69.9186 55.0418 69.6004 55.9793C69.2607 56.9802 68.8019 57.9841 68.2367 58.9631C67.6715 59.942 67.0315 60.8413 66.3345 61.6362C65.6816 62.3807 64.627 62.5546 63.7696 62.0596L63.096 61.6708C63.0255 61.6301 62.9483 61.6107 62.8721 61.6107C62.7167 61.6107 62.5654 61.6913 62.4822 61.8352L61.3338 63.8243C61.2742 63.9275 61.2586 64.0484 61.2899 64.1649C61.3211 64.2815 61.3951 64.3785 61.4983 64.438L61.7855 64.6039C63.1476 65.3903 64.5849 65.1925 66.1796 63.9994C67.9234 62.6949 69.2208 60.6329 69.6978 59.8068C70.1747 58.9808 71.3118 56.8261 71.5696 54.6637C71.8053 52.686 71.2579 51.3425 69.8959 50.5562Z" fill="white"/>
<defs>
<linearGradient id="paint0_linear_56_16452" x1="-8.67767" y1="-34.8132" x2="-8.67767" y2="56.477" gradientUnits="userSpaceOnUse">
<stop stop-color="#CC2027"/>
<stop offset="0.11" stop-color="#D23125"/>
<stop offset="0.37" stop-color="#E15723"/>
<stop offset="0.62" stop-color="#EB7121"/>
<stop offset="0.83" stop-color="#F18220"/>
<stop offset="1" stop-color="#F48820"/>
</linearGradient>
</defs>
</svg>
