<svg width="120" height="120" viewBox="0 0 120 120" fill="none" xmlns="http://www.w3.org/2000/svg">
<path d="M77.7699 54.8633H67.0659L72.4203 58.6884L77.7699 54.8633Z" fill="url(#paint0_linear_56_16651)"/>
<path d="M72.4205 61.7603C72.1341 61.7603 71.8523 61.6725 71.6213 61.5016L64.1465 56.1611V65.895H80.699V56.1611L73.2243 61.5016C72.9887 61.6679 72.7115 61.7603 72.4251 61.7603H72.4205Z" fill="url(#paint1_linear_56_16651)"/>
<path d="M72.4204 41.0684C61.7534 41.0684 53.1099 49.7165 53.1099 60.3789C53.1099 71.0413 61.7581 79.6895 72.4204 79.6895C83.0828 79.6895 91.731 71.0413 91.731 60.3789C91.7171 49.7165 83.0782 41.0776 72.4204 41.0684ZM83.457 67.2762C83.457 68.0385 82.838 68.6575 82.0757 68.6575H62.7652C62.0029 68.6575 61.3839 68.0385 61.3839 67.2762V53.2645C61.3839 52.6224 61.9059 52.1003 62.548 52.1003H82.2929C82.935 52.1003 83.457 52.6224 83.457 53.2645V67.2762Z" fill="url(#paint2_linear_56_16651)"/>
<path d="M38.9687 47.2402C45.0622 47.2402 50.0053 42.3016 50.0053 36.2036C50.0053 30.1055 45.0668 25.167 38.9687 25.167C32.8707 25.167 27.9321 30.1055 27.9321 36.2036C27.9414 42.297 32.8753 47.2309 38.9687 47.2402ZM38.9687 27.9296C43.5377 27.9296 47.2473 31.6346 47.2473 36.2082C47.2473 40.7817 43.5423 44.4868 38.9687 44.4868C34.3952 44.4868 30.6901 40.7817 30.6901 36.2082C30.6947 31.6392 34.3998 27.9388 38.9687 27.9296Z" fill="url(#paint3_linear_56_16651)"/>
<path d="M39.3154 73.5547C33.2219 73.5547 28.2788 78.4932 28.2788 84.5913C28.2788 90.6894 33.2173 95.6278 39.3154 95.6278C45.4135 95.6278 50.352 90.6894 50.352 84.5913C50.3428 78.4978 45.4089 73.5639 39.3154 73.5547ZM45.6167 89.9409C44.9607 88.4765 43.815 87.2938 42.3783 86.587C43.9167 84.8962 43.792 82.2768 42.1011 80.743C40.4103 79.2046 37.7909 79.3294 36.2571 81.0202C34.8204 82.6001 34.8204 85.007 36.2571 86.587C34.8204 87.2938 33.6747 88.4811 33.0187 89.9409C30.0574 86.4623 30.4732 81.2373 33.9565 78.2714C37.4352 75.3102 42.6601 75.726 45.626 79.2093C48.2593 82.2999 48.2593 86.8503 45.626 89.9409H45.6167Z" fill="url(#paint4_linear_56_16651)"/>
<path d="M35.1756 60.3834C35.1756 59.9491 34.9723 59.5426 34.6212 59.2792L29.1052 55.14C28.4954 54.6826 27.6315 54.8073 27.1741 55.4171C26.994 55.6574 26.897 55.9484 26.897 56.2441V64.5227C26.897 65.0447 27.1926 65.5205 27.6592 65.7561C28.1305 65.9779 28.6802 65.9271 29.1052 65.6268L34.6212 61.4875C34.9677 61.2288 35.1756 60.8176 35.1756 60.3834Z" fill="url(#paint5_linear_56_16651)"/>
<path d="M42.0732 60.3833C42.0732 54.2898 37.1347 49.3467 31.0366 49.3467C24.9385 49.3467 20 54.2852 20 60.3833C20 66.4813 24.9385 71.4199 31.0366 71.4199C37.13 71.4106 42.0639 66.4767 42.0732 60.3833ZM22.7627 60.3833C22.7627 55.8143 26.4677 52.1047 31.0412 52.1047C35.6148 52.1047 39.3198 55.8097 39.3198 60.3833C39.3198 64.9568 35.6148 68.6619 31.0412 68.6619C26.4723 68.6572 22.7719 64.9522 22.7627 60.3833Z" fill="url(#paint6_linear_56_16651)"/>
<path d="M37.9526 42.4267C40.2347 42.4267 42.0872 40.5742 42.0918 38.2874V32.7714C42.8541 32.7714 43.4731 32.1523 43.4731 31.3901C43.4731 30.6278 42.8541 30.0088 42.0918 30.0088H40.7105C39.9483 30.0088 39.3339 30.6232 39.3292 31.3855V34.4022C38.8857 34.2405 38.4191 34.1527 37.9479 34.1481C35.6612 34.1481 33.8086 36.0006 33.8086 38.2874C33.8086 40.5742 35.6612 42.4267 37.9479 42.4267H37.9526Z" fill="url(#paint7_linear_56_16651)"/>
<path d="M98.0366 54.8724C96.9278 49.7445 94.2992 45.0693 90.4972 41.452L87.5498 29.6994C87.3973 29.0849 86.8429 28.6553 86.21 28.6553H84.4915L82.0199 20.0025C81.849 19.4112 81.3085 19 80.694 19H64.1415C63.527 19 62.9819 19.4066 62.8156 20.0025L60.3441 28.6553H58.6255C57.9926 28.6553 57.4428 29.0849 57.2858 29.6994L54.3476 41.4428C43.8885 51.3614 43.4496 67.8816 53.3682 78.3407C53.687 78.678 54.015 79.006 54.3476 79.3201L57.2812 91.0635C57.4336 91.6779 57.988 92.1076 58.6209 92.1076H60.3394L62.811 100.76C62.9819 101.352 63.5224 101.763 64.1368 101.763H80.6895C81.3039 101.763 81.849 101.356 82.0153 100.76L84.4869 92.1076H86.2054C86.8383 92.1076 87.3881 91.6779 87.5452 91.0635L90.4833 79.3201C94.6365 75.3656 97.3713 70.1499 98.2676 64.4861C99.2654 64.3244 100 63.4605 100 62.4488V56.9328C100 55.8287 99.1315 54.9232 98.0273 54.8724H98.0366ZM72.4201 83.829C59.4709 83.829 48.9702 73.3283 48.9702 60.3791C48.9702 47.43 59.4709 36.9293 72.4201 36.9293C85.3693 36.9293 95.87 47.43 95.87 60.3791C95.8561 73.3237 85.3646 83.8151 72.4201 83.829Z" fill="url(#paint8_linear_56_16651)"/>
<defs>
<linearGradient id="paint0_linear_56_16651" x1="62.9856" y1="57.8948" x2="62.9856" y2="54.8982" gradientUnits="userSpaceOnUse">
<stop stop-color="#3B5AA7"/>
<stop offset="0.22" stop-color="#3B65AF"/>
<stop offset="0.62" stop-color="#3D85C5"/>
<stop offset="1" stop-color="#3FA9DF"/>
</linearGradient>
<linearGradient id="paint1_linear_56_16651" x1="57.8366" y1="63.8754" x2="57.8366" y2="56.25" gradientUnits="userSpaceOnUse">
<stop stop-color="#3B5AA7"/>
<stop offset="0.22" stop-color="#3B65AF"/>
<stop offset="0.62" stop-color="#3D85C5"/>
<stop offset="1" stop-color="#3FA9DF"/>
</linearGradient>
<linearGradient id="paint2_linear_56_16651" x1="38.3875" y1="71.6766" x2="38.3875" y2="41.4209" gradientUnits="userSpaceOnUse">
<stop stop-color="#3B5AA7"/>
<stop offset="0.22" stop-color="#3B65AF"/>
<stop offset="0.62" stop-color="#3D85C5"/>
<stop offset="1" stop-color="#3FA9DF"/>
</linearGradient>
<linearGradient id="paint3_linear_56_16651" x1="19.5178" y1="42.6606" x2="19.5178" y2="25.3685" gradientUnits="userSpaceOnUse">
<stop stop-color="#3B5AA7"/>
<stop offset="0.22" stop-color="#3B65AF"/>
<stop offset="0.62" stop-color="#3D85C5"/>
<stop offset="1" stop-color="#3FA9DF"/>
</linearGradient>
<linearGradient id="paint4_linear_56_16651" x1="19.8645" y1="91.0483" x2="19.8645" y2="73.7562" gradientUnits="userSpaceOnUse">
<stop stop-color="#3B5AA7"/>
<stop offset="0.22" stop-color="#3B65AF"/>
<stop offset="0.62" stop-color="#3D85C5"/>
<stop offset="1" stop-color="#3FA9DF"/>
</linearGradient>
<linearGradient id="paint5_linear_56_16651" x1="23.7412" y1="63.6049" x2="23.7412" y2="54.9649" gradientUnits="userSpaceOnUse">
<stop stop-color="#3B5AA7"/>
<stop offset="0.22" stop-color="#3B65AF"/>
<stop offset="0.62" stop-color="#3D85C5"/>
<stop offset="1" stop-color="#3FA9DF"/>
</linearGradient>
<linearGradient id="paint6_linear_56_16651" x1="11.5857" y1="66.8403" x2="11.5857" y2="49.5481" gradientUnits="userSpaceOnUse">
<stop stop-color="#3B5AA7"/>
<stop offset="0.22" stop-color="#3B65AF"/>
<stop offset="0.62" stop-color="#3D85C5"/>
<stop offset="1" stop-color="#3FA9DF"/>
</linearGradient>
<linearGradient id="paint7_linear_56_16651" x1="30.1245" y1="39.8503" x2="30.1245" y2="30.1221" gradientUnits="userSpaceOnUse">
<stop stop-color="#3B5AA7"/>
<stop offset="0.22" stop-color="#3B65AF"/>
<stop offset="0.62" stop-color="#3D85C5"/>
<stop offset="1" stop-color="#3FA9DF"/>
</linearGradient>
<linearGradient id="paint8_linear_56_16651" x1="25.7011" y1="84.5918" x2="25.7011" y2="19.7554" gradientUnits="userSpaceOnUse">
<stop stop-color="#3B5AA7"/>
<stop offset="0.22" stop-color="#3B65AF"/>
<stop offset="0.62" stop-color="#3D85C5"/>
<stop offset="1" stop-color="#3FA9DF"/>
</linearGradient>
</defs>
</svg>
