<svg width="120" height="120" viewBox="0 0 120 120" fill="none" xmlns="http://www.w3.org/2000/svg">
<path d="M72.8091 42.4995H43.591C39.5406 42.4995 36.25 45.7946 36.25 49.8405V92.4156C36.25 96.5057 39.5804 99.8361 43.6705 99.8361H81.4002C82.6943 99.8361 83.7455 98.7849 83.7455 97.4907V83.4315C80.3357 83.5154 77.5795 86.2716 77.4956 89.6815H79.0547V95.1497H43.666C42.1599 95.1497 40.932 93.9218 40.932 92.4156C40.932 90.9094 42.1599 89.6815 43.666 89.6815H72.8047C72.8886 83.6877 77.7473 78.829 83.7411 78.7451V53.4315C77.7473 53.3476 72.8886 48.4889 72.8047 42.4951L72.8091 42.4995ZM67.4514 68.1003L54.9514 75.6002C53.4099 76.5278 51.4001 75.4236 51.4001 73.5905V58.5905C51.4001 56.7707 53.3878 55.6444 54.9514 56.5808L67.4514 64.0808C68.9664 64.9907 68.9664 67.1904 67.4514 68.1003Z" fill="url(#paint0_linear_56_16645)"/>
<path d="M81.4007 42.5H77.4961C77.58 45.9099 80.3362 48.6661 83.7461 48.75V44.8454C83.7461 43.5512 82.6948 42.5 81.4007 42.5Z" fill="url(#paint1_linear_56_16645)"/>
<path d="M56.0908 69.4521L61.6916 66.0908L56.0908 62.7295V69.4521Z" fill="url(#paint2_linear_56_16645)"/>
<path d="M98.485 55.773C97.0539 35.8525 80.4549 20 59.9956 20C39.5362 20 22.9373 35.8436 21.5062 55.773C20.6493 57.1864 20 58.8472 20 60.6228V70.3092C20 75.4726 24.3374 79.682 29.5318 79.682C30.6537 79.682 31.5636 78.7721 31.5636 77.6502V53.2774C31.5636 52.1555 30.6537 51.2456 29.5318 51.2456C29.598 51.2456 28.3083 51.197 26.811 51.6475C30.0221 36.2721 43.6837 24.6864 60 24.6864C76.3162 24.6864 89.9779 36.2721 93.189 51.6475C91.6873 51.1926 90.4064 51.2456 90.4682 51.2456C89.3463 51.2456 88.4364 52.1555 88.4364 53.2774V77.6502C88.4364 78.7721 89.3463 79.682 90.4682 79.682C95.6316 79.682 100 75.4991 100 70.3092V60.6228C100 58.8472 99.3507 57.1864 98.4938 55.773H98.485Z" fill="url(#paint3_linear_56_16645)"/>
<defs>
<linearGradient id="paint0_linear_56_16645" x1="18.1447" y1="87.9394" x2="18.1447" y2="43.0185" gradientUnits="userSpaceOnUse">
<stop stop-color="#3B5AA7"/>
<stop offset="0.22" stop-color="#3B65AF"/>
<stop offset="0.62" stop-color="#3D85C5"/>
<stop offset="1" stop-color="#3FA9DF"/>
</linearGradient>
<linearGradient id="paint1_linear_56_16645" x1="75.1136" y1="47.4533" x2="75.1136" y2="42.557" gradientUnits="userSpaceOnUse">
<stop stop-color="#3B5AA7"/>
<stop offset="0.22" stop-color="#3B65AF"/>
<stop offset="0.62" stop-color="#3D85C5"/>
<stop offset="1" stop-color="#3FA9DF"/>
</linearGradient>
<linearGradient id="paint2_linear_56_16645" x1="53.9558" y1="68.0574" x2="53.9558" y2="62.7909" gradientUnits="userSpaceOnUse">
<stop stop-color="#3B5AA7"/>
<stop offset="0.22" stop-color="#3B65AF"/>
<stop offset="0.62" stop-color="#3D85C5"/>
<stop offset="1" stop-color="#3FA9DF"/>
</linearGradient>
<linearGradient id="paint3_linear_56_16645" x1="-10.496" y1="67.2996" x2="-10.496" y2="20.5447" gradientUnits="userSpaceOnUse">
<stop stop-color="#3B5AA7"/>
<stop offset="0.22" stop-color="#3B65AF"/>
<stop offset="0.62" stop-color="#3D85C5"/>
<stop offset="1" stop-color="#3FA9DF"/>
</linearGradient>
</defs>
</svg>
