<svg width="120" height="120" viewBox="0 0 120 120" fill="none" xmlns="http://www.w3.org/2000/svg">
<path fill-rule="evenodd" clip-rule="evenodd" d="M48.3046 73.6406C45.6224 73.6406 43.446 75.817 43.446 78.4992C43.446 80.7187 44.9362 82.5931 46.9713 83.1735V87.6949H37.76C37.2346 86.3773 35.9444 85.4479 34.4386 85.4479C32.4622 85.4479 30.8623 87.0478 30.8623 89.0242C30.8623 91.0006 32.4622 92.6005 34.4386 92.6005C35.9444 92.6005 37.2346 91.6711 37.76 90.3536H48.3046C49.0379 90.3536 49.634 89.7575 49.634 89.0242V83.1735C51.6731 82.5931 53.1671 80.7187 53.1671 78.4992C53.1671 75.817 50.9908 73.6406 48.3085 73.6406H48.3046Z" fill="url(#paint0_linear_56_16608)"/>
<path d="M70.4094 83.3578C73.0927 83.3578 75.268 81.1826 75.268 78.4992C75.268 75.8159 73.0927 73.6406 70.4094 73.6406C67.7261 73.6406 65.5508 75.8159 65.5508 78.4992C65.5508 81.1826 67.7261 83.3578 70.4094 83.3578Z" fill="url(#paint1_linear_56_16608)"/>
<path fill-rule="evenodd" clip-rule="evenodd" d="M96.416 79.3899C94.9102 79.3899 93.62 80.3193 93.0946 81.6369H80.5501V77.7665H80.9618C81.9304 77.7665 82.7186 76.9783 82.7186 76.0097V73.653L82.6872 70.5786C82.5461 68.5081 81.8363 66.7278 79.3227 65.9004H40.8422C38.7364 66.9043 37.2698 69.0571 37.2698 71.5354V75.1156H26.8977C26.3723 73.7981 25.0821 72.8687 23.5763 72.8687C21.5999 72.8687 20 74.4686 20 76.445C20 78.4214 21.5999 80.0213 23.5763 80.0213C25.0821 80.0213 26.3723 79.0919 26.8977 77.7743H41.2617C41.6304 73.9628 44.8459 70.9825 48.7516 70.9825C52.6573 70.9825 55.8728 73.9628 56.2414 77.7743H57.908V91.209C57.9119 91.9423 58.508 92.5383 59.2413 92.5383H76.4522C76.9777 93.8559 78.2678 94.7853 79.7736 94.7853C81.75 94.7853 83.3499 93.1854 83.3499 91.209C83.3499 89.2326 81.75 87.6327 79.7736 87.6327C78.2678 87.6327 76.9777 88.5621 76.4522 89.8796H60.5746V77.7704H62.9235C63.2921 73.9588 66.5076 70.9786 70.4133 70.9786C74.319 70.9786 77.4247 73.8608 77.8835 77.5783V82.9662C77.8875 83.6995 78.4835 84.2956 79.2168 84.2956H93.0946C93.62 85.6132 94.9102 86.5425 96.416 86.5425C98.3923 86.5425 99.9923 84.9426 99.9923 82.9662C99.9923 80.9899 98.3923 79.3899 96.416 79.3899Z" fill="url(#paint2_linear_56_16608)"/>
<path fill-rule="evenodd" clip-rule="evenodd" d="M62.3827 55.0498H55.4614C49.846 55.0498 49.3245 58.9045 46.3011 63.2181C46.2736 63.2573 46.2462 63.2925 46.2227 63.3318H72.5469C68.4373 60.1672 68.151 55.0537 62.3866 55.0537L62.3827 55.0498Z" fill="url(#paint3_linear_56_16608)"/>
<path fill-rule="evenodd" clip-rule="evenodd" d="M26.6311 58.0338C27.4702 54.5006 28.8702 51.1282 30.776 48.0382L27.8898 41.5444L35.5443 33.8898L42.0382 36.772C45.1282 34.8662 48.5045 33.4663 52.0377 32.6271L54.5866 26H65.4135L67.9663 32.6271C71.4995 33.4663 74.8719 34.8662 77.9619 36.772L84.4557 33.8859L92.1103 41.5404L89.2281 48.0342C91.1339 51.1243 92.5338 54.5006 93.373 58.0338L100 60.5827V71.4096H86.9027C87.2517 69.6607 87.436 67.849 87.436 65.9981C87.436 50.8459 75.1542 38.5641 60.002 38.5641C44.8498 38.5641 32.568 50.8459 32.568 65.9981C32.568 67.8529 32.7523 69.6607 33.1013 71.4096H20.0039V60.5827L26.6311 58.0298V58.0338Z" fill="url(#paint4_linear_56_16608)"/>
<defs>
<linearGradient id="paint0_linear_56_16608" x1="22.3597" y1="88.6668" x2="22.3597" y2="73.8137" gradientUnits="userSpaceOnUse">
<stop stop-color="#3B5AA7"/>
<stop offset="0.22" stop-color="#3B65AF"/>
<stop offset="0.62" stop-color="#3D85C5"/>
<stop offset="1" stop-color="#3FA9DF"/>
</linearGradient>
<linearGradient id="paint1_linear_56_16608" x1="61.8466" y1="81.3418" x2="61.8466" y2="73.7293" gradientUnits="userSpaceOnUse">
<stop stop-color="#3B5AA7"/>
<stop offset="0.22" stop-color="#3B65AF"/>
<stop offset="0.62" stop-color="#3D85C5"/>
<stop offset="1" stop-color="#3FA9DF"/>
</linearGradient>
<linearGradient id="paint2_linear_56_16608" x1="-10.4931" y1="88.7925" x2="-10.4931" y2="66.164" gradientUnits="userSpaceOnUse">
<stop stop-color="#3B5AA7"/>
<stop offset="0.22" stop-color="#3B65AF"/>
<stop offset="0.62" stop-color="#3D85C5"/>
<stop offset="1" stop-color="#3FA9DF"/>
</linearGradient>
<linearGradient id="paint3_linear_56_16608" x1="36.1878" y1="61.6135" x2="36.1878" y2="55.1254" gradientUnits="userSpaceOnUse">
<stop stop-color="#3B5AA7"/>
<stop offset="0.22" stop-color="#3B65AF"/>
<stop offset="0.62" stop-color="#3D85C5"/>
<stop offset="1" stop-color="#3FA9DF"/>
</linearGradient>
<linearGradient id="paint4_linear_56_16608" x1="-10.4907" y1="61.9883" x2="-10.4907" y2="26.4145" gradientUnits="userSpaceOnUse">
<stop stop-color="#3B5AA7"/>
<stop offset="0.22" stop-color="#3B65AF"/>
<stop offset="0.62" stop-color="#3D85C5"/>
<stop offset="1" stop-color="#3FA9DF"/>
</linearGradient>
</defs>
</svg>
