<svg width="120" height="120" viewBox="0 0 120 120" fill="none" xmlns="http://www.w3.org/2000/svg">
<path fill-rule="evenodd" clip-rule="evenodd" d="M40.031 65.1864C39.3715 63.8339 38.5231 62.5697 37.494 61.4398C34.7597 58.4786 33.1006 54.522 33.1006 50.1832C33.1006 40.9679 40.5812 33.4873 49.7965 33.4873C59.0118 33.4873 66.4924 40.9679 66.4924 50.1832C66.4924 54.5262 64.8333 58.4829 62.1115 61.4524C61.0909 62.5823 60.2424 63.8423 59.583 65.1864H40.0268H40.031ZM51.968 43.3326C52.0016 43.1436 51.9008 42.9546 51.7286 42.8748C51.5522 42.795 51.3464 42.8412 51.2246 42.9924C49.3009 45.3655 45.2224 50.3932 43.8364 52.0985C43.7398 52.2161 43.7146 52.3757 43.7734 52.5185C43.828 52.6613 43.9582 52.7621 44.1052 52.7831C45.2056 52.9386 47.2343 53.2242 48.1416 53.3544C48.2592 53.3712 48.3642 53.4384 48.4314 53.535C48.4986 53.6316 48.5196 53.7534 48.4944 53.8668C48.255 54.9127 47.646 57.563 47.2343 59.3565C47.1923 59.5497 47.2847 59.7429 47.4612 59.8311C47.6376 59.9193 47.8518 59.8689 47.9736 59.7177C50.0485 57.1598 54.3411 51.8717 55.765 50.116C55.8616 49.9984 55.8868 49.8388 55.828 49.696C55.7734 49.5532 55.6432 49.4524 55.4962 49.4314C54.3873 49.276 52.3334 48.9819 51.4388 48.8601C51.3254 48.8433 51.2246 48.7803 51.1574 48.6879C51.0902 48.5955 51.065 48.4779 51.0818 48.3645C51.254 47.39 51.6824 44.9665 51.9722 43.3326H51.968Z" fill="url(#paint0_linear_56_16625)"/>
<path fill-rule="evenodd" clip-rule="evenodd" d="M57.94 76.3036C57.94 77.6057 57.9358 78.7439 57.9358 79.5294C57.9358 80.277 57.604 80.9911 57.0285 81.4699C52.2025 85.4979 47.3848 85.5273 42.563 81.4615C41.9959 80.9826 41.6683 80.277 41.6683 79.5336C41.6599 77.9921 41.6599 75.0771 41.6599 72.242C41.6599 70.7089 41.4415 69.201 41.0215 67.752H58.5952C58.1752 69.1968 57.9568 70.7089 57.9568 72.242C57.9568 72.7418 57.9526 73.2416 57.9526 73.7373H50.8122C50.1024 73.7373 49.5269 74.3127 49.5269 75.0225C49.5269 75.7324 50.1024 76.3078 50.8122 76.3078H57.9442L57.94 76.3036Z" fill="url(#paint1_linear_56_16625)"/>
<path fill-rule="evenodd" clip-rule="evenodd" d="M27.321 46.9062H21.2853C20.5754 46.9062 20 47.4817 20 48.1915C20 48.9014 20.5754 49.4768 21.2853 49.4768H27.321C28.0266 49.4768 28.6063 48.9014 28.6063 48.1915C28.6063 47.4817 28.0308 46.9062 27.321 46.9062Z" fill="url(#paint2_linear_56_16625)"/>
<path fill-rule="evenodd" clip-rule="evenodd" d="M78.3161 46.9062H72.2804C71.5705 46.9062 70.9951 47.4817 70.9951 48.1915C70.9951 48.9014 71.5705 49.4768 72.2804 49.4768H78.3161C79.0259 49.4768 79.6014 48.9014 79.6014 48.1915C79.6014 47.4817 79.0259 46.9062 78.3161 46.9062Z" fill="url(#paint3_linear_56_16625)"/>
<path fill-rule="evenodd" clip-rule="evenodd" d="M48.5156 21.2853V27.321C48.5156 28.0308 49.0911 28.6063 49.8009 28.6063C50.5107 28.6063 51.0862 28.0308 51.0862 27.321V21.2853C51.0862 20.5796 50.5107 20 49.8009 20C49.0911 20 48.5156 20.5754 48.5156 21.2853Z" fill="url(#paint4_linear_56_16625)"/>
<path fill-rule="evenodd" clip-rule="evenodd" d="M69.2138 26.599L65.3411 32.2693C64.9421 32.8532 65.0933 33.6554 65.6772 34.0544C66.261 34.4535 67.0632 34.3023 67.4623 33.7184L71.3349 28.0481C71.7339 27.4643 71.5827 26.662 70.9989 26.263C70.415 25.864 69.6128 26.0152 69.2138 26.599Z" fill="url(#paint5_linear_56_16625)"/>
<path fill-rule="evenodd" clip-rule="evenodd" d="M28.262 28.0432L32.1347 33.7135C32.5337 34.2974 33.3317 34.4486 33.9198 34.0496C34.5036 33.6506 34.6548 32.8525 34.2558 32.2645L30.3832 26.5942C29.9841 26.0103 29.1861 25.8591 28.5981 26.2581C28.0142 26.6572 27.863 27.4552 28.262 28.0432Z" fill="url(#paint6_linear_56_16625)"/>
<path fill-rule="evenodd" clip-rule="evenodd" d="M77.8501 71.8354C80.4879 68.7273 84.3563 65.5393 90.3458 62.3891C90.9716 62.0615 91.2152 61.2845 90.8834 60.6544C90.5558 60.0286 89.7788 59.785 89.1487 60.1168C75.1914 67.4546 72.0664 74.9688 69.8319 81.3364C69.5841 75.414 70.7013 67.3328 77.4847 62.5488C87.3972 55.5596 96.8855 54.7069 98.5698 49.3852C100.254 44.0635 102.207 71.3818 93.1599 77.8544C85.2047 83.5499 78.896 82.147 73.2047 86.5656C73.0283 87.0613 72.8477 87.5485 72.6586 88.0273C71.281 91.4967 66.9925 101.922 56.2064 100.032C52.3884 99.3637 50.347 96.6252 49.3264 93.5212C48.5788 91.2447 48.4023 88.7792 48.4023 86.9773C48.8686 87.0361 49.3348 87.0655 49.7968 87.0613C50.1832 87.0613 50.5697 87.0403 50.9603 86.9983C50.9603 88.5776 51.1157 90.7281 51.7667 92.719C52.5018 94.9577 53.892 97.0158 56.6474 97.4988C65.7283 99.0907 69.1095 90.0014 70.2687 87.0739C72.0328 82.6258 73.0829 77.3462 77.8417 71.8229L77.8501 71.8354Z" fill="url(#paint7_linear_56_16625)"/>
<defs>
<linearGradient id="paint0_linear_56_16625" x1="20.3716" y1="58.6097" x2="20.3716" y2="33.7766" gradientUnits="userSpaceOnUse">
<stop stop-color="#3B5AA7"/>
<stop offset="0.22" stop-color="#3B65AF"/>
<stop offset="0.62" stop-color="#3D85C5"/>
<stop offset="1" stop-color="#3FA9DF"/>
</linearGradient>
<linearGradient id="paint1_linear_56_16625" x1="34.3224" y1="81.0259" x2="34.3224" y2="67.9048" gradientUnits="userSpaceOnUse">
<stop stop-color="#3B5AA7"/>
<stop offset="0.22" stop-color="#3B65AF"/>
<stop offset="0.62" stop-color="#3D85C5"/>
<stop offset="1" stop-color="#3FA9DF"/>
</linearGradient>
<linearGradient id="paint2_linear_56_16625" x1="16.7193" y1="48.9435" x2="16.7193" y2="46.9297" gradientUnits="userSpaceOnUse">
<stop stop-color="#3B5AA7"/>
<stop offset="0.22" stop-color="#3B65AF"/>
<stop offset="0.62" stop-color="#3D85C5"/>
<stop offset="1" stop-color="#3FA9DF"/>
</linearGradient>
<linearGradient id="paint3_linear_56_16625" x1="67.7144" y1="48.9435" x2="67.7144" y2="46.9297" gradientUnits="userSpaceOnUse">
<stop stop-color="#3B5AA7"/>
<stop offset="0.22" stop-color="#3B65AF"/>
<stop offset="0.62" stop-color="#3D85C5"/>
<stop offset="1" stop-color="#3FA9DF"/>
</linearGradient>
<linearGradient id="paint4_linear_56_16625" x1="47.5357" y1="26.8207" x2="47.5357" y2="20.0786" gradientUnits="userSpaceOnUse">
<stop stop-color="#3B5AA7"/>
<stop offset="0.22" stop-color="#3B65AF"/>
<stop offset="0.62" stop-color="#3D85C5"/>
<stop offset="1" stop-color="#3FA9DF"/>
</linearGradient>
<linearGradient id="paint5_linear_56_16625" x1="62.6633" y1="32.5684" x2="62.6633" y2="26.1152" gradientUnits="userSpaceOnUse">
<stop stop-color="#3B5AA7"/>
<stop offset="0.22" stop-color="#3B65AF"/>
<stop offset="0.62" stop-color="#3D85C5"/>
<stop offset="1" stop-color="#3FA9DF"/>
</linearGradient>
<linearGradient id="paint6_linear_56_16625" x1="25.5842" y1="32.5635" x2="25.5842" y2="26.1103" gradientUnits="userSpaceOnUse">
<stop stop-color="#3B5AA7"/>
<stop offset="0.22" stop-color="#3B65AF"/>
<stop offset="0.62" stop-color="#3D85C5"/>
<stop offset="1" stop-color="#3FA9DF"/>
</linearGradient>
<linearGradient id="paint7_linear_56_16625" x1="28.7331" y1="89.5621" x2="28.7331" y2="49.1727" gradientUnits="userSpaceOnUse">
<stop stop-color="#3B5AA7"/>
<stop offset="0.22" stop-color="#3B65AF"/>
<stop offset="0.62" stop-color="#3D85C5"/>
<stop offset="1" stop-color="#3FA9DF"/>
</linearGradient>
</defs>
</svg>
