<svg width="120" height="120" viewBox="0 0 120 120" fill="none" xmlns="http://www.w3.org/2000/svg">
<path d="M95.4135 46.4878V44.4445C98.0176 43.8337 99.9832 41.5073 99.9832 38.7199C99.9832 35.4884 97.3347 32.8398 94.0865 32.8398C90.8383 32.8398 88.2064 35.4884 88.2064 38.7199C88.2064 41.4018 90.0054 43.6394 92.4541 44.339V46.4878C92.4541 47.9481 91.2492 49.153 89.7889 49.153H73.3369V52.1069H89.7889C92.8816 52.1069 95.408 49.5805 95.408 46.4878H95.4135Z" fill="url(#paint0_linear_56_16550)"/>
<path d="M84.1864 32.7016V30.6583C86.7906 30.0475 88.7561 27.7211 88.7561 24.9337C88.7561 21.7022 86.1076 19.0703 82.8594 19.0703C79.6112 19.0703 76.9793 21.7077 76.9793 24.9337C76.9793 27.6156 78.7783 29.8532 81.227 30.5528V32.7016C81.227 34.1619 80.0221 35.3668 78.5618 35.3668H73.3369V38.3207H78.5618C81.6545 38.3207 84.1809 35.7944 84.1809 32.7016H84.1864Z" fill="url(#paint1_linear_56_16550)"/>
<path d="M95.4135 83.5009V81.4576C95.4135 78.3649 92.8871 75.8496 89.8055 75.8496H73.3535V78.8035H89.8055C91.2658 78.8035 92.4707 80.0084 92.4707 81.4687V83.6175C90.0165 84.3338 88.223 86.5714 88.223 89.2366C88.223 92.4682 90.8716 95.1167 94.1031 95.1167C97.3346 95.1167 99.9998 92.4682 99.9998 89.2366C99.9721 86.4326 98.0065 84.1061 95.4135 83.4954V83.5009Z" fill="url(#paint2_linear_56_16550)"/>
<path d="M81.7044 93.3398V91.2965C81.7044 88.1871 79.1892 85.6885 76.0964 85.6885H73.3535V88.6424H76.0964C77.5567 88.6424 78.7616 89.8306 78.7616 91.3076V93.4397C76.3241 94.1726 74.5251 96.3936 74.5251 99.0755C74.5251 102.307 77.1625 104.939 80.3885 104.939C83.6145 104.939 86.2852 102.301 86.2852 99.0755C86.2575 96.2715 84.303 93.945 81.6989 93.3342L81.7044 93.3398Z" fill="url(#paint3_linear_56_16550)"/>
<path d="M93.9199 69.8529C97.1625 69.8529 99.8166 67.2044 99.8166 63.9562C99.8166 60.708 97.1681 58.0928 93.9199 58.0928C91.2103 58.0928 88.906 59.964 88.2674 62.4959H73.3535V65.4498H88.2674C88.9226 67.9762 91.1936 69.8529 93.9199 69.8529Z" fill="url(#paint4_linear_56_16550)"/>
<path d="M57.5125 15C50.4775 15 44.764 20.7135 44.764 27.8706C44.764 28.6036 44.8862 29.3309 45.0083 30.0472C43.6702 29.5586 42.221 29.3143 40.6385 29.3143C33.6036 29.3143 27.8901 35.0278 27.8901 42.1849C27.8901 42.9456 27.9678 43.6785 28.1011 44.4114C28.1177 44.4281 28.1455 44.4392 28.1621 44.4559C30.3276 46.7379 33.2649 47.9872 36.4353 47.9872C37.2571 47.9872 37.9123 48.6424 37.9123 49.4642C37.9123 50.2859 37.2571 50.9411 36.4353 50.9411C33.1427 50.9411 30.0555 49.8418 27.5236 47.8484C23.0761 49.8306 20 54.2782 20 59.442C20 65.3998 24.1255 70.4858 29.7168 71.824C28.5008 73.7729 27.8901 75.9495 27.8901 78.3759C27.8901 85.2887 33.6036 91.1244 40.6385 91.1244C41.2771 91.1244 41.9156 91.0633 42.5597 90.9745C44.0366 86.4936 47.618 83.0511 52.171 81.7907C50.3609 80.0527 49.0172 77.8318 48.3343 75.3331C47.0072 76.4325 45.397 77.221 43.5647 77.5708C43.4758 77.5875 43.3815 77.5986 43.2926 77.5986C42.593 77.5986 41.9822 77.1099 41.8434 76.3937C41.6935 75.5886 42.2099 74.8223 43.015 74.6557C45.1027 74.2615 46.8073 73.04 47.9067 71.4131C47.9678 71.1855 48.0733 70.9856 48.2399 70.819C49.045 69.3587 49.3948 67.6208 49.0949 65.8051C48.9561 65 49.5058 64.2338 50.3109 64.1005C51.116 63.9617 51.8823 64.5114 52.0155 65.3165C52.4431 67.8429 51.9711 70.2804 50.8273 72.3404C51.2382 78.2371 56.1133 82.7735 62.1432 82.7735C62.965 82.7735 63.6202 83.4287 63.6202 84.2504C63.6202 85.0722 62.965 85.7274 62.1432 85.7274C59.8001 85.7274 57.5902 85.1777 55.6413 84.206C50.2776 84.3892 45.9689 88.2426 44.9917 93.362C46.0577 99.3309 51.2549 103.873 57.5291 103.873C64.5641 103.873 70.3998 98.1593 70.3998 91.1244V58.5869C70.0333 58.6147 69.6668 58.6646 69.317 58.6646C67.3681 58.6646 65.447 58.1483 63.709 57.1544C61.6657 55.9661 60.0833 54.2004 59.1227 52.0683C57.4181 53.0566 55.4969 53.5786 53.487 53.5786C53.2871 53.5786 53.0927 53.5786 52.8928 53.5619C52.0711 53.5175 51.4436 52.829 51.4936 52.0072C51.538 51.1855 52.2376 50.5747 53.0483 50.608C55.2582 50.7135 57.3903 49.9695 59.0339 48.5036C60.6941 47.0267 61.6713 44.9722 61.7768 42.729C61.8212 41.9073 62.5375 41.2798 63.3315 41.3298C64.1366 41.3742 64.7807 42.0627 64.7307 42.8845C64.5919 45.6552 63.4647 48.1982 61.5769 50.1527C62.2321 52.0239 63.4814 53.5952 65.2027 54.5836C66.7851 55.4997 68.6008 55.8329 70.4109 55.5886V27.8762C70.3831 20.7024 64.5475 15.0056 57.5069 15.0056L57.5125 15Z" fill="url(#paint5_linear_56_16550)"/>
<defs>
<linearGradient id="paint0_linear_56_16550" x1="63.1793" y1="48.1095" x2="63.1793" y2="33.0157" gradientUnits="userSpaceOnUse">
<stop stop-color="#3B5AA7"/>
<stop offset="0.22" stop-color="#3B65AF"/>
<stop offset="0.62" stop-color="#3D85C5"/>
<stop offset="1" stop-color="#3FA9DF"/>
</linearGradient>
<linearGradient id="paint1_linear_56_16550" x1="67.4591" y1="34.3268" x2="67.4591" y2="19.246" gradientUnits="userSpaceOnUse">
<stop stop-color="#3B5AA7"/>
<stop offset="0.22" stop-color="#3B65AF"/>
<stop offset="0.62" stop-color="#3D85C5"/>
<stop offset="1" stop-color="#3FA9DF"/>
</linearGradient>
<linearGradient id="paint2_linear_56_16550" x1="63.1959" y1="91.1193" x2="63.1959" y2="76.0255" gradientUnits="userSpaceOnUse">
<stop stop-color="#3B5AA7"/>
<stop offset="0.22" stop-color="#3B65AF"/>
<stop offset="0.62" stop-color="#3D85C5"/>
<stop offset="1" stop-color="#3FA9DF"/>
</linearGradient>
<linearGradient id="paint3_linear_56_16550" x1="68.4239" y1="100.945" x2="68.4239" y2="85.8642" gradientUnits="userSpaceOnUse">
<stop stop-color="#3B5AA7"/>
<stop offset="0.22" stop-color="#3B65AF"/>
<stop offset="0.62" stop-color="#3D85C5"/>
<stop offset="1" stop-color="#3FA9DF"/>
</linearGradient>
<linearGradient id="paint4_linear_56_16550" x1="63.2658" y1="67.413" x2="63.2658" y2="58.2001" gradientUnits="userSpaceOnUse">
<stop stop-color="#3B5AA7"/>
<stop offset="0.22" stop-color="#3B65AF"/>
<stop offset="0.62" stop-color="#3D85C5"/>
<stop offset="1" stop-color="#3FA9DF"/>
</linearGradient>
<linearGradient id="paint5_linear_56_16550" x1="0.783342" y1="85.4341" x2="0.783342" y2="15.8112" gradientUnits="userSpaceOnUse">
<stop stop-color="#3B5AA7"/>
<stop offset="0.22" stop-color="#3B65AF"/>
<stop offset="0.62" stop-color="#3D85C5"/>
<stop offset="1" stop-color="#3FA9DF"/>
</linearGradient>
</defs>
</svg>
