<svg width="120" height="120" viewBox="0 0 120 120" fill="none" xmlns="http://www.w3.org/2000/svg">
<path d="M90.4501 45.234C90.0757 31.345 78.6588 20 64.6827 20C54.9327 20 46.1008 25.6212 41.7207 34.2275C35.3404 33.9761 29.9295 38.9409 29.55 45.2289C23.8672 47.9164 20 53.6505 20 59.9949C20 69.037 27.5138 76.556 36.5611 76.556H43.5928V90.6193H38.4742C37.5048 87.8959 34.925 85.9315 31.8733 85.9315C27.9959 85.9315 24.8416 89.0858 24.8416 92.9632C24.8416 96.8406 27.9959 99.9949 31.8733 99.9949C34.925 99.9949 37.4997 98.0305 38.4742 95.3071H48.2806V76.5611H57.6561V86.3675C54.9327 87.3368 52.9683 89.9167 52.9683 92.9683C52.9683 96.8457 56.1226 100 60 100C63.8774 100 67.0317 96.8457 67.0317 92.9683C67.0317 89.9167 65.0673 87.342 62.3439 86.3675V76.5611H71.7194V95.3071H81.5258C82.4952 98.0305 85.075 99.9949 88.1267 99.9949C92.0041 99.9949 95.1584 96.8406 95.1584 92.9632C95.1584 89.0858 92.4195 85.9315 88.1267 85.9315C85.075 85.9315 82.5003 87.8959 81.5258 90.6193H76.4072V76.556H83.4389C92.4811 76.556 100 69.0422 100 59.9949C100 53.6556 96.138 47.9215 90.4603 45.234H90.4501ZM62.0054 68.0882C61.1181 66.6367 58.8768 66.6367 57.9844 68.0882L53.989 65.6417C56.5791 61.4053 63.4107 61.4053 66.0008 65.6417L62.0054 68.0882ZM70.0013 63.1953C67.8472 59.6769 64.1082 57.574 60 57.574C55.8918 57.574 52.1528 59.6769 49.9987 63.1953L45.9982 60.7488C49.0088 55.8251 54.2454 52.8811 60 52.8811C65.7546 52.8811 70.9912 55.82 74.0018 60.7488L70.0013 63.1953ZM77.9972 58.3023C74.13 51.9733 67.401 48.1985 60 48.1985C52.5991 48.1985 45.87 51.9785 42.0028 58.3023L38.0023 55.8559C42.7311 48.1215 50.9527 43.5056 60 43.5056C69.0473 43.5056 77.274 48.1215 81.9977 55.8559L77.9972 58.3023Z" fill="url(#paint0_linear_56_16558)"/>
<defs>
<linearGradient id="paint0_linear_56_16558" x1="-10.496" y1="83.4022" x2="-10.496" y2="20.7302" gradientUnits="userSpaceOnUse">
<stop stop-color="#3B5AA7"/>
<stop offset="0.22" stop-color="#3B65AF"/>
<stop offset="0.62" stop-color="#3D85C5"/>
<stop offset="1" stop-color="#3FA9DF"/>
</linearGradient>
</defs>
</svg>
