<svg width="120" height="120" viewBox="0 0 120 120" fill="none" xmlns="http://www.w3.org/2000/svg">
<path d="M90.0715 89.1908H54.8836C52.6665 89.1908 50.8458 91.0115 50.8458 93.2286V95.501C50.8458 97.7181 52.6665 99.5388 54.8836 99.5388H90.0715C92.2886 99.5388 94.1092 97.7181 94.1092 95.501V93.2286C94.1092 91.0115 92.2886 89.1908 90.0715 89.1908ZM72.4683 72.4358C63.5492 72.4358 56.165 79.2991 55.4598 88.1122H89.4768C88.7762 79.3037 81.3874 72.4358 72.4683 72.4358ZM92.2148 54.3118H85.1164C84.0009 54.3118 82.9546 54.0583 82.0189 53.5928L72.0396 71.3572C76.5798 71.2512 80.7606 72.8184 84.0194 75.501L92.2194 54.3118H92.2148ZM93.9802 32.3482H85.1164C81.8207 32.3482 79.0965 35.0493 79.0965 38.3681V47.2318C79.0965 50.5275 81.7977 53.2517 85.1164 53.2517H93.9802C97.2759 53.2517 100 50.5506 100 47.2318V38.3681C100 35.0539 97.2989 32.3482 93.9802 32.3482ZM61.5856 52.3667C58.2162 52.7815 54.9712 51.3941 52.92 48.8728L49.7488 57.0866C49.6566 57.3033 49.4446 57.4462 49.2279 57.4278L34.8145 57.2295L43.9871 64.5446L52.5651 64.0929L62.4752 53.4637L61.5902 52.3667H61.5856ZM69.062 38.4925C70.3941 41.1752 70.3941 44.3833 69.062 47.0705H78.018V38.4925H69.062ZM53.5838 35.9528C55.6395 33.897 58.5573 32.8368 61.5856 33.1964L62.4706 32.0809L52.5605 21.4517L43.9825 21L34.8099 28.315L49.2233 28.1168C49.4399 28.0984 49.675 28.2413 49.7442 28.4579L52.9154 36.6718C53.132 36.4367 53.3487 36.1832 53.5838 35.9528ZM60.4102 34.2058C55.6718 34.2058 51.8322 38.0454 51.8322 42.7838C51.8322 47.5222 55.6718 51.3618 60.4102 51.3618C65.1486 51.3618 68.9882 47.5222 68.9882 42.7838C68.9882 38.0454 65.1486 34.2058 60.4102 34.2058ZM37.4372 32.6017V41.212C37.4372 41.5024 37.1837 41.7513 36.8979 41.7513H29.1496C28.8453 41.7513 28.6103 41.4978 28.6103 41.212V32.6017H20V52.9797H46.0336V32.6017H37.4372ZM29.6704 32.6017V40.6727H36.3356V32.6017H29.6704Z" fill="url(#paint0_linear_56_16637)"/>
<defs>
<linearGradient id="paint0_linear_56_16637" x1="-10.496" y1="83.2441" x2="-10.496" y2="21.7168" gradientUnits="userSpaceOnUse">
<stop stop-color="#3B5AA7"/>
<stop offset="0.22" stop-color="#3B65AF"/>
<stop offset="0.62" stop-color="#3D85C5"/>
<stop offset="1" stop-color="#3FA9DF"/>
</linearGradient>
</defs>
</svg>
