<svg width="120" height="120" viewBox="0 0 120 120" fill="none" xmlns="http://www.w3.org/2000/svg">
<path fill-rule="evenodd" clip-rule="evenodd" d="M32.5772 22.1921C35.5689 21.3918 38.6468 23.1647 39.4512 26.1605C40.2515 29.1523 38.4786 32.2302 35.4827 33.0345C32.491 33.8348 29.4131 32.0619 28.6087 29.0661C27.8085 26.0744 29.5813 22.9964 32.5772 22.1921ZM100 56.9479L88.8415 61.6305V97.2153H100V56.9479ZM82.8416 67.8314H71.6832V97.2194H82.8416V67.8314ZM65.6833 63.9491L54.5248 68.9025V97.2153H65.6833V63.945V63.9491ZM76.5996 38.7718C74.8473 38.7718 73.4273 40.1917 73.4273 41.9441C73.4273 43.6965 74.8473 45.1164 76.5996 45.1164C78.352 45.1164 79.7719 43.6965 79.7719 41.9441C79.7719 40.1917 78.352 38.7718 76.5996 38.7718ZM93.1547 37.9921C92.7361 36.2397 92.0425 34.5653 91.0986 33.0305L92.5309 29.8089L88.7348 26.0128L85.5133 27.4451C83.9784 26.5012 82.3081 25.8076 80.5558 25.389L79.2917 22.1018H73.9198L72.6558 25.389C70.9034 25.8076 69.229 26.5012 67.6983 27.4451L64.4767 26.0128L60.6806 29.8089L62.1129 33.0305C61.169 34.5653 60.4754 36.2397 60.0568 37.9879L56.7696 39.2519V44.6239L60.0568 45.8879C60.4754 47.6403 61.169 49.3147 62.1129 50.8495L60.6806 54.0711L64.4767 57.8672L67.6983 56.4349C69.2331 57.3788 70.9034 58.0724 72.6558 58.491L73.9198 61.7782H79.2917L80.5558 58.491C82.3081 58.0724 83.9825 57.3788 85.5174 56.4349L88.7389 57.8672L92.535 54.0711L91.1027 50.8495C92.0466 49.3147 92.7402 47.6444 93.1588 45.892L96.446 44.628V39.256L93.1588 37.9921H93.1547ZM76.5996 53.5745C70.1729 53.5745 64.9692 48.3667 64.9692 41.9441C64.9692 35.5215 70.177 30.3137 76.5996 30.3137C83.0222 30.3137 88.23 35.5215 88.23 41.9441C88.23 48.3667 83.0222 53.5745 76.5996 53.5745ZM20.2081 84.7107H31.3625V97.2194H20.2081V84.7107ZM48.5249 77.0529H37.3664V97.2194H48.5249V77.0529ZM47.6754 36.3053C49.358 35.542 51.3402 36.2848 52.1035 37.9633C52.8668 39.6459 52.124 41.6281 50.4455 42.3914L43.1775 45.7074C42.3034 46.1054 41.3513 46.0931 40.5264 45.7566L36.0778 44.033L35.9547 51.1245L43.949 54.8467C45.131 55.3966 45.841 56.5498 45.882 57.7687L46.276 70.2363C46.3375 72.0831 44.8889 73.6302 43.0421 73.6918C41.1954 73.7533 39.6482 72.3047 39.5866 70.4579L39.2583 60.0422L35.8603 58.4581L35.848 59.3077C35.8398 60.0381 35.5976 60.7112 35.1914 61.257L26.0971 74.5372C25.0547 76.0597 22.9741 76.4455 21.4516 75.4031C19.929 74.3607 19.5432 72.28 20.5856 70.7575L29.1709 58.216C29.2489 52.171 29.3721 45.1821 29.45 39.137C29.4788 36.8348 31.818 35.2096 34.0053 36.0591L41.6837 39.0344L47.6754 36.3013V36.3053Z" fill="url(#paint0_linear_56_16620)"/>
<defs>
<linearGradient id="paint0_linear_56_16620" x1="-10.496" y1="81.6134" x2="-10.496" y2="22.6866" gradientUnits="userSpaceOnUse">
<stop stop-color="#3B5AA7"/>
<stop offset="0.22" stop-color="#3B65AF"/>
<stop offset="0.62" stop-color="#3D85C5"/>
<stop offset="1" stop-color="#3FA9DF"/>
</linearGradient>
</defs>
</svg>
