<svg width="90" height="104" viewBox="0 0 90 104" fill="none" xmlns="http://www.w3.org/2000/svg">
<path d="M90 77.7786V25.927L44.9988 0L-1.72955e-06 25.927V77.7786L44.9988 103.706L90 77.7786Z" fill="url(#paint0_linear_56_16437)"/>
<path d="M72.9932 46.7148C71.9353 41.0716 69.197 35.8798 65.1371 31.82C61.0773 27.7601 55.8855 25.0218 50.2423 23.9639C50.1019 22.6717 49.4892 21.4769 48.5217 20.6089C47.5543 19.7408 46.3003 19.2607 45.0005 19.2607C43.7007 19.2607 42.4468 19.7408 41.4793 20.6089C40.5119 21.4769 39.8991 22.6717 39.7587 23.9639C34.1156 25.0218 28.9237 27.7601 24.8639 31.82C20.8041 35.8798 18.0657 41.0716 17.0078 46.7148C15.7156 46.8552 14.5208 47.4679 13.6528 48.4354C12.7848 49.4028 12.3047 50.6568 12.3047 51.9566C12.3047 53.2564 12.7848 54.5103 13.6528 55.4778C14.5208 56.4452 15.7156 57.058 17.0078 57.1984C18.0657 62.8415 20.8041 68.0334 24.8639 72.0932C28.9237 76.153 34.1156 78.8914 39.7587 79.9493C39.8991 81.2415 40.5119 82.4363 41.4793 83.3043C42.4468 84.1723 43.7007 84.6524 45.0005 84.6524C46.3003 84.6524 47.5543 84.1723 48.5217 83.3043C49.4892 82.4363 50.1019 81.2415 50.2423 79.9493C55.8855 78.8914 61.0773 76.153 65.1371 72.0932C69.197 68.0334 71.9353 62.8415 72.9932 57.1984C74.2854 57.058 75.4802 56.4452 76.3482 55.4778C77.2163 54.5103 77.6964 53.2564 77.6964 51.9566C77.6964 50.6568 77.2163 49.4028 76.3482 48.4354C75.4802 47.4679 74.2854 46.8552 72.9932 46.7148ZM45.0005 21.3706C45.6263 21.3706 46.2381 21.5562 46.7584 21.9039C47.2787 22.2516 47.6843 22.7457 47.9237 23.3239C48.1632 23.902 48.2259 24.5382 48.1038 25.152C47.9817 25.7658 47.6804 26.3295 47.2379 26.772C46.7954 27.2145 46.2316 27.5159 45.6178 27.638C45.004 27.7601 44.3678 27.6974 43.7897 27.4579C43.2115 27.2184 42.7174 26.8129 42.3697 26.2926C42.022 25.7722 41.8365 25.1605 41.8365 24.5347C41.8376 23.6959 42.1713 22.8917 42.7644 22.2986C43.3576 21.7055 44.1617 21.3718 45.0005 21.3706ZM14.4146 51.9566C14.4146 51.3308 14.6002 50.7191 14.9478 50.1987C15.2955 49.6784 15.7897 49.2728 16.3678 49.0334C16.946 48.7939 17.5822 48.7312 18.1959 48.8533C18.8097 48.9754 19.3735 49.2767 19.816 49.7193C20.2585 50.1618 20.5598 50.7255 20.6819 51.3393C20.804 51.9531 20.7413 52.5893 20.5019 53.1674C20.2624 53.7456 19.8568 54.2397 19.3365 54.5874C18.8162 54.9351 18.2044 55.1206 17.5787 55.1206C16.7398 55.1195 15.9357 54.7858 15.3426 54.1927C14.7494 53.5995 14.4157 52.7954 14.4146 51.9566ZM45.0005 82.5425C44.3747 82.5425 43.763 82.3569 43.2427 82.0093C42.7223 81.6616 42.3168 81.1674 42.0773 80.5893C41.8378 80.0111 41.7752 79.3749 41.8973 78.7612C42.0193 78.1474 42.3207 77.5836 42.7632 77.1411C43.2057 76.6986 43.7695 76.3973 44.3832 76.2752C44.997 76.1531 45.6332 76.2158 46.2114 76.4552C46.7895 76.6947 47.2837 77.1003 47.6313 77.6206C47.979 78.1409 48.1646 78.7527 48.1646 79.3785C48.1635 80.2173 47.8298 81.0214 47.2366 81.6146C46.6435 82.2077 45.8393 82.5414 45.0005 82.5425ZM63.6448 70.6008C59.9422 74.3265 55.2027 76.8497 50.0446 77.8412C49.7149 76.7604 49.0468 75.8141 48.1387 75.1416C47.2306 74.4692 46.1305 74.1062 45.0005 74.1062C43.8706 74.1062 42.7705 74.4692 41.8623 75.1416C40.9542 75.8141 40.2861 76.7604 39.9565 77.8412C34.8038 76.8342 30.0686 74.3133 26.3562 70.6009C22.6438 66.8885 20.1229 62.1533 19.1159 57.0006C20.1967 56.671 21.143 56.0029 21.8155 55.0948C22.4879 54.1866 22.8509 53.0866 22.8509 51.9566C22.8509 50.8266 22.4879 49.7265 21.8155 48.8184C21.143 47.9103 20.1967 47.2422 19.1159 46.9125C20.1229 41.7599 22.6438 37.0247 26.3562 33.3123C30.0686 29.5999 34.8038 27.079 39.9565 26.0719C40.2861 27.1527 40.9542 28.0991 41.8623 28.7715C42.7705 29.444 43.8706 29.8069 45.0005 29.8069C46.1305 29.8069 47.2306 29.444 48.1387 28.7715C49.0468 28.0991 49.7149 27.1527 50.0446 26.0719C55.1972 27.079 59.9324 29.5999 63.6448 33.3123C67.3572 37.0247 69.8781 41.7599 70.8852 46.9125C69.8044 47.2422 68.858 47.9103 68.1856 48.8184C67.5131 49.7265 67.1502 50.8266 67.1502 51.9566C67.1502 53.0866 67.5131 54.1866 68.1856 55.0948C68.858 56.0029 69.8044 56.671 70.8852 57.0006C69.8936 62.1587 67.3704 66.8982 63.6448 70.6008ZM72.4224 55.1206C71.7966 55.1206 71.1849 54.9351 70.6645 54.5874C70.1442 54.2397 69.7387 53.7456 69.4992 53.1674C69.2597 52.5893 69.197 51.9531 69.3191 51.3393C69.4412 50.7255 69.7426 50.1618 70.1851 49.7193C70.6276 49.2767 71.1914 48.9754 71.8051 48.8533C72.4189 48.7312 73.0551 48.7939 73.6332 49.0334C74.2114 49.2728 74.7056 49.6784 75.0532 50.1987C75.4009 50.7191 75.5865 51.3308 75.5865 51.9566C75.5853 52.7954 75.2516 53.5995 74.6585 54.1927C74.0654 54.7858 73.2612 55.1195 72.4224 55.1206Z" fill="white"/>
<path d="M45.0005 32.9727C34.5327 32.9727 26.0161 41.4893 26.0161 51.957C26.0161 62.4248 34.5327 70.9414 45.0005 70.9414C55.4683 70.9414 63.9849 62.4248 63.9849 51.957C63.9849 41.4893 55.4683 32.9727 45.0005 32.9727ZM39.0942 36.1499C38.4261 36.9664 37.8438 37.8495 37.3566 38.7853C37.1048 39.2612 36.8702 39.7583 36.6487 40.2724C35.706 40.0012 34.7828 39.6664 33.8854 39.2705C35.4193 37.9247 37.184 36.8675 39.0942 36.1499ZM32.3007 40.8564C33.4602 41.4245 34.6655 41.8938 35.9038 42.2592C35.0561 44.8629 34.563 47.8147 34.4708 50.9023H28.1598C28.3898 47.1876 29.8463 43.6543 32.3007 40.8564ZM28.1598 53.0117H34.4708C34.563 56.0993 35.0561 59.0511 35.9038 61.6549C34.6655 62.0203 33.4602 62.4895 32.3007 63.0576C29.8463 60.2598 28.3898 56.7264 28.1598 53.0117ZM33.8854 64.6436C34.7828 64.2476 35.706 63.9129 36.6487 63.6417C36.8702 64.1558 37.1048 64.6528 37.3566 65.1288C37.8438 66.0645 38.4261 66.9477 39.0942 67.7642C37.184 67.0466 35.4193 65.9894 33.8854 64.6436ZM43.9458 68.6936C41.9063 68.1597 40.0685 66.0991 38.737 63.1262C40.4531 62.7781 42.1956 62.5761 43.9458 62.5224V68.6936ZM43.9458 60.4117C41.9342 60.4653 39.9319 60.705 37.9644 61.1275C37.1204 58.5017 36.6547 55.7689 36.5814 53.0117H43.9458V60.4117ZM43.9458 50.9023H36.5814C36.6547 48.1451 37.1204 45.4124 37.9644 42.7865C39.9319 43.2091 41.9342 43.4487 43.9458 43.5024V50.9023ZM43.9458 41.3917C42.1956 41.3379 40.4531 41.1359 38.737 40.7879C40.0685 37.815 41.9063 35.7544 43.9458 35.2205V41.3917ZM61.8412 50.9023H55.5302C55.4379 47.8147 54.9449 44.8629 54.0972 42.2592C55.3355 41.8938 56.5408 41.4245 57.7002 40.8564C60.1547 43.6543 61.6111 47.1876 61.8412 50.9023ZM56.1156 39.2705C55.2181 39.6664 54.2949 40.0012 53.3523 40.2724C53.1308 39.7583 52.8961 39.2612 52.6443 38.7853C52.1571 37.8495 51.5749 36.9664 50.9067 36.1499C52.817 36.8675 54.5817 37.9247 56.1156 39.2705ZM46.0552 35.2205C48.0947 35.7544 49.9325 37.815 51.264 40.7879C49.5479 41.1359 47.8054 41.3379 46.0552 41.3917V35.2205ZM46.0552 43.5024C48.0668 43.4487 50.0691 43.2091 52.0366 42.7865C52.8806 45.4124 53.3463 48.1451 53.4195 50.9023H46.0552V43.5024ZM46.0552 53.0117H53.4195C53.3463 55.7689 52.8806 58.5017 52.0366 61.1275C50.0691 60.705 48.0668 60.4653 46.0552 60.4117V53.0117ZM46.0552 68.6936V62.5224C47.8054 62.5761 49.5479 62.7781 51.264 63.1262C49.9325 66.0991 48.0947 68.1597 46.0552 68.6936ZM50.9067 67.7642C51.5749 66.9477 52.1571 66.0645 52.6443 65.1288C52.8961 64.6528 53.1308 64.1558 53.3523 63.6417C54.2949 63.9129 55.2181 64.2476 56.1156 64.6436C54.5817 65.9894 52.817 67.0466 50.9067 67.7642ZM57.7002 63.0576C56.5408 62.4895 55.3355 62.0203 54.0972 61.6549C54.9449 59.0511 55.4379 56.0993 55.5302 53.0117H61.8412C61.6111 56.7264 60.1547 60.2598 57.7002 63.0576Z" fill="white"/>
<defs>
<linearGradient id="paint0_linear_56_16437" x1="-8.67767" y1="-34.8132" x2="-8.67767" y2="56.477" gradientUnits="userSpaceOnUse">
<stop stop-color="#CC2027"/>
<stop offset="0.11" stop-color="#D23125"/>
<stop offset="0.37" stop-color="#E15723"/>
<stop offset="0.62" stop-color="#EB7121"/>
<stop offset="0.83" stop-color="#F18220"/>
<stop offset="1" stop-color="#F48820"/>
</linearGradient>
</defs>
</svg>
