<svg width="120" height="120" viewBox="0 0 120 120" fill="none" xmlns="http://www.w3.org/2000/svg">
<path d="M27.8919 95.0435C26.9303 95.3437 25.8797 95.128 25.1151 94.4666C24.3505 93.8053 23.9846 92.7968 24.1441 91.8024L28.694 64.4473H27.5682C26.874 64.4473 26.2783 64.9398 26.147 65.6199L20.0212 97.0558C19.9415 97.4779 20.054 97.9141 20.326 98.2472C20.6028 98.5849 21.0202 98.7819 21.4565 98.7819H51.4101L51.8464 93.5238C43.8584 92.0135 35.6218 92.5388 27.8872 95.0435H27.8919Z" fill="url(#paint0_linear_56_16572)"/>
<path d="M42.6298 44.6674C42.0622 43.8934 41.157 43.4337 40.1954 43.4384C38.8211 43.4478 37.6203 44.3672 37.2592 45.6899C36.8933 47.0126 37.4561 48.4198 38.6287 49.128C39.079 49.3907 39.3558 49.8785 39.3464 50.3992C39.337 50.9198 39.0509 51.3983 38.5912 51.6515C38.1316 51.9001 37.5734 51.8861 37.1325 51.614C36.7385 51.3701 36.3773 51.084 36.0537 50.7557C34.7356 53.8045 35.2328 57.3318 37.3482 59.8928C39.4637 62.4538 42.8361 63.6124 46.0773 62.8947C45.9929 62.4163 45.9506 61.9285 45.946 61.4454C43.3896 61.1639 41.4478 59.0063 41.4478 56.4359C41.4478 55.6291 42.095 54.9771 42.8971 54.9677C43.2817 54.9677 43.6476 55.1131 43.9197 55.3805C44.1917 55.6479 44.3465 56.0137 44.3465 56.3984V56.4359C44.3653 57.5804 45.2705 58.5185 46.415 58.5748C46.6214 57.9228 46.8981 57.2989 47.2452 56.7079C47.5032 56.2529 47.9911 55.9715 48.5164 55.9762C49.0417 55.9809 49.5248 56.2717 49.7781 56.7314C50.0314 57.191 50.0127 57.7539 49.7312 58.1995C48.0614 60.9622 48.7884 64.5411 51.401 66.4361C54.0137 68.331 57.6441 67.9089 59.7502 65.4604C60.1536 64.9961 60.8009 64.8319 61.3778 65.0571C62.9022 65.6621 64.5486 65.9107 66.1856 65.7841C67.0346 65.7278 67.8742 65.573 68.6904 65.3244C69.1875 65.1743 69.7269 65.2963 70.1021 65.6481C70.4774 65.9999 70.6463 66.5299 70.529 67.0365C70.4117 67.543 70.0365 67.9464 69.5393 68.1012C68.8123 68.317 68.0665 68.4718 67.316 68.5656C67.8273 69.5787 69.0374 70.5262 72.1754 71.5769C73.8264 72.1022 75.2993 73.0778 76.4203 74.3959C76.8659 74.9541 77.6258 75.1558 78.2918 74.8978C78.8688 74.6539 79.244 74.0863 79.244 73.4578C79.244 73.2983 79.2206 73.1388 79.169 72.9887C78.8969 72.121 78.5357 71.2861 78.0854 70.4981C77.2599 70.8452 76.3968 71.0984 75.5103 71.2485C75.4353 71.2579 75.3556 71.2673 75.2805 71.2673C74.5253 71.2673 73.9015 70.6857 73.8405 69.9305C73.7796 69.18 74.3096 68.5046 75.0554 68.3826C77.4475 67.9933 79.5958 66.6753 81.0264 64.7193C78.7984 65.3948 76.3921 65.1696 74.3283 64.1002C73.7185 63.7812 73.1463 63.3919 72.6303 62.9416C72.0534 63.1762 71.4343 63.2934 70.8104 63.2981C68.892 63.3028 67.1424 62.2193 66.2887 60.5026C65.9323 59.7849 66.2184 58.9125 66.936 58.556C67.6537 58.1995 68.5261 58.4856 68.8826 59.2033C69.1687 59.7521 69.68 60.1508 70.2804 60.3056C70.8808 60.4603 71.5187 60.3478 72.0346 60.0054C72.9118 59.3956 73.212 58.2277 72.7336 57.2708C72.4991 56.8064 72.5319 56.2576 72.818 55.8214C73.1041 55.3899 73.5966 55.1413 74.1126 55.1694C74.6285 55.1976 75.0929 55.5025 75.3274 55.9668C76.1623 57.6085 76.0169 59.5785 74.9475 61.0748C75.1726 61.2343 75.4072 61.3797 75.6511 61.511C78.1464 62.754 81.1578 62.2005 83.048 60.1555L83.0808 60.1179C84.5865 58.434 85.0556 56.0653 84.3098 53.9311C83.972 54.1938 83.6109 54.4236 83.2263 54.6066C83.034 54.6957 82.8229 54.7426 82.6118 54.7426C81.9364 54.7379 81.3594 54.2689 81.2093 53.6075C81.0639 52.9508 81.3876 52.2801 81.9927 51.9846C82.5696 51.7125 83.0527 51.2669 83.367 50.7134C84.1034 49.4564 83.8501 47.8522 82.7525 46.886C81.6596 45.9197 80.0367 45.8681 78.8782 46.7546C78.2356 47.2331 77.3302 47.1064 76.8471 46.4638C76.3687 45.8212 76.4953 44.9159 77.1379 44.4328C77.7008 44.0107 78.3387 43.6964 79.0141 43.4994C78.0713 39.4468 74.5769 36.4965 70.4258 36.2385C70.4258 36.3511 70.4586 36.4542 70.4586 36.5668C70.4586 37.3689 69.8114 38.0162 69.0093 38.0162C68.2072 38.0162 67.5599 37.3689 67.5599 36.5668C67.5599 35.4786 66.9783 34.4702 66.0355 33.9261C65.0927 33.382 63.9295 33.382 62.9867 33.9261C62.0439 34.4702 61.4622 35.4786 61.4622 36.5668C61.4622 37.3689 60.815 38.0162 60.0129 38.0162C59.2108 38.0162 58.5635 37.3689 58.5635 36.5668C58.5729 35.9148 58.6854 35.2722 58.9059 34.6625C57.7661 33.912 56.4293 33.5086 55.0644 33.5039C52.5549 33.5133 50.2378 34.8313 48.9479 36.9843C48.6149 37.5518 48.3616 38.1616 48.1974 38.7995C47.9817 39.5594 47.203 40.0097 46.4385 39.8127C45.6739 39.6157 45.2096 38.8464 45.3878 38.0772C45.4722 37.7676 45.5754 37.4674 45.6927 37.1672C45.5192 37.1391 45.3409 37.1203 45.1627 37.1109C43.0801 37.1156 41.2883 38.5791 40.8614 40.6194C42.4984 40.7836 43.99 41.6232 44.975 42.9412C45.2846 43.3587 45.3456 43.9075 45.1439 44.3812C44.9422 44.855 44.4919 45.188 43.9807 45.2443C43.4647 45.3053 42.9581 45.0848 42.6486 44.6674H42.6298ZM64.877 52.8758C66.1293 52.0127 66.9924 50.69 67.2785 49.1937C67.3676 48.6777 67.7288 48.2462 68.2213 48.0727C68.7138 47.8991 69.2673 48.0023 69.6613 48.3494C70.0553 48.6965 70.2335 49.2265 70.1256 49.7378C69.4314 53.3307 66.5749 56.1075 62.9632 56.7079C61.9031 59.5175 59.2061 61.3703 56.2041 61.3609C55.402 61.3609 54.7548 60.7136 54.7548 59.9116C54.7548 59.1095 55.402 58.4622 56.2041 58.4622C57.6066 58.4622 58.9246 57.7867 59.7361 56.6423C57.9443 56.2576 56.3168 55.3242 55.0878 53.964C54.5484 53.3683 54.5953 52.4489 55.191 51.9095C55.7867 51.3701 56.7061 51.417 57.2455 52.0127C59.2342 54.1375 62.466 54.5034 64.877 52.8758ZM55.3599 42.2142C56.1619 42.2142 56.8092 42.8615 56.8092 43.6636C56.8092 44.4657 56.1619 45.113 55.3599 45.113C54.3608 45.113 53.3992 45.5116 52.6909 46.2152C51.9827 46.9235 51.5887 47.8804 51.5887 48.8841C51.5887 49.6862 50.9414 50.3335 50.1393 50.3335C49.3372 50.3335 48.69 49.6862 48.69 48.8841C48.69 45.2021 51.6778 42.2142 55.3599 42.2142Z" fill="url(#paint1_linear_56_16572)"/>
<path d="M58.549 92.2851V74.1234C58.549 73.3213 59.1964 72.6741 59.9984 72.6741C60.8005 72.6741 61.4478 73.3213 61.4478 74.1234V92.2851C71.6825 88.8657 82.7521 88.8657 92.9869 92.2851L87.7522 60.7789C87.2644 60.6991 86.7766 60.6429 86.2935 60.5819C86.0449 60.9946 85.7682 61.384 85.4586 61.7498C84.8254 64.7189 83.104 67.3456 80.6367 69.1233C81.1621 70.0614 81.5936 71.0511 81.9172 72.0737C82.0626 72.5146 82.1377 72.9789 82.1377 73.448C82.1377 75.2351 81.0776 76.8533 79.4359 77.5616C78.8918 77.7914 78.3056 77.9134 77.7146 77.9134C76.3637 77.904 75.0831 77.3036 74.2107 76.267C73.4274 75.357 72.4049 74.6816 71.2557 74.3204C67.0014 72.8945 64.9751 71.2857 64.2762 68.6261C63.249 68.5558 62.2358 68.3728 61.2508 68.0773C59.1822 70.0051 56.3304 70.8588 53.5396 70.3898C50.7487 69.916 48.3378 68.1712 47.0197 65.6664C42.1088 66.8719 36.982 64.7893 34.299 60.5068L33.314 60.6382C32.6808 60.7226 32.1742 61.2104 32.071 61.8389L27.0146 92.2804C37.2494 88.8657 48.319 88.8704 58.5537 92.2898L58.549 92.2851Z" fill="url(#paint2_linear_56_16572)"/>
<path d="M92.4238 64.4473H91.3028L95.8479 91.7977C96.0121 92.7921 95.6462 93.8006 94.8864 94.4619C94.1265 95.1233 93.0805 95.3437 92.119 95.0482C84.3843 92.5388 76.143 92.0088 68.1504 93.5144L68.5866 98.7819H98.5356C98.9718 98.7819 99.3892 98.5849 99.666 98.2472C99.938 97.9141 100.051 97.4779 99.9709 97.0558L93.845 65.6199C93.7137 64.9398 93.118 64.4473 92.4238 64.4473Z" fill="url(#paint3_linear_56_16572)"/>
<path d="M60.6269 95.7325C60.4299 95.8263 60.2141 95.8779 59.9984 95.8779C59.7826 95.8779 59.5668 95.8263 59.3698 95.7325C57.8594 95.0852 56.2975 94.5645 54.7027 94.1658L54.2056 100.184C54.5011 100.648 56.5039 101.68 59.9984 101.68C63.4928 101.68 65.4956 100.648 65.7911 100.188L65.2939 94.1611C63.6991 94.5598 62.1372 95.0852 60.6269 95.7371V95.7325Z" fill="url(#paint4_linear_56_16572)"/>
<path d="M59.9987 23.3579C60.8008 23.3579 61.4481 22.7106 61.4481 21.9085V20.4591C61.4481 19.6571 60.8008 19.0098 59.9987 19.0098C59.1966 19.0098 58.5493 19.6571 58.5493 20.4591V21.9085C58.5493 22.7106 59.1966 23.3579 59.9987 23.3579Z" fill="url(#paint5_linear_56_16572)"/>
<path d="M83.3761 33.3391C83.7607 33.3391 84.1313 33.1844 84.4034 32.9123L85.8527 31.4629C86.228 31.0971 86.3827 30.5577 86.2467 30.0511C86.1154 29.5445 85.7167 29.1458 85.2101 29.0145C84.7036 28.8831 84.1641 29.0332 83.7983 29.4085L82.3489 30.8579C81.9362 31.2706 81.8095 31.8945 82.0346 32.4386C82.2598 32.9827 82.7898 33.3345 83.3761 33.3345V33.3391Z" fill="url(#paint6_linear_56_16572)"/>
<path d="M35.5984 32.9174C36.166 33.4662 37.0712 33.4615 37.6294 32.8986C38.1876 32.3404 38.197 31.4352 37.6482 30.8676L36.1988 29.4182C35.833 29.043 35.2935 28.8882 34.787 29.0242C34.2804 29.1556 33.8817 29.5543 33.7503 30.0609C33.619 30.5674 33.7691 31.1068 34.1444 31.4727L35.5937 32.9221L35.5984 32.9174Z" fill="url(#paint7_linear_56_16572)"/>
<path d="M46.448 26.3407C46.6731 26.8848 47.2032 27.2366 47.7895 27.2366C47.9818 27.2366 48.1694 27.199 48.343 27.124C48.6995 26.9786 48.9809 26.6925 49.1263 26.3407C49.2717 25.9842 49.2717 25.5855 49.1263 25.229L47.4612 21.2092C47.2689 20.7214 46.8279 20.3696 46.3073 20.2993C45.7866 20.2289 45.266 20.4447 44.9517 20.8621C44.6327 21.2796 44.5718 21.8378 44.7828 22.3209L46.448 26.3407Z" fill="url(#paint8_linear_56_16572)"/>
<path d="M71.6547 27.1289C71.8329 27.1992 72.0206 27.2367 72.2082 27.2414C72.7945 27.2414 73.3245 26.8896 73.5497 26.3455L75.2148 22.3258C75.4259 21.8426 75.3602 21.2845 75.0459 20.867C74.727 20.4496 74.211 20.2338 73.6904 20.3042C73.1697 20.3745 72.7288 20.7263 72.5365 21.2141L70.8714 25.2339C70.7213 25.5904 70.7213 25.9891 70.8714 26.3455C71.0168 26.702 71.3029 26.9835 71.6594 27.1336L71.6547 27.1289Z" fill="url(#paint9_linear_56_16572)"/>
<path d="M89.4833 44.5076C89.6756 44.5076 89.8632 44.4701 90.0367 44.395L94.0565 42.7299C94.535 42.5329 94.8727 42.092 94.9384 41.5807C95.004 41.0694 94.7929 40.5582 94.3849 40.2392C93.9721 39.9249 93.4233 39.8499 92.9449 40.0516L88.9251 41.7167C88.2825 41.9794 87.9166 42.6595 88.0527 43.3396C88.1887 44.0198 88.7844 44.5076 89.4786 44.5076H89.4833Z" fill="url(#paint10_linear_56_16572)"/>
<path d="M25.9454 42.7295L29.9652 44.3947C30.7063 44.6996 31.5553 44.3525 31.8602 43.6114C32.165 42.8703 31.8179 42.0213 31.0768 41.7164L27.0571 40.0512C26.316 39.7464 25.467 40.0982 25.1621 40.8346C24.8572 41.5757 25.209 42.4247 25.9454 42.7295Z" fill="url(#paint11_linear_56_16572)"/>
<defs>
<linearGradient id="paint0_linear_56_16572" x1="7.85474" y1="91.6584" x2="7.85474" y2="64.7606" gradientUnits="userSpaceOnUse">
<stop stop-color="#3B5AA7"/>
<stop offset="0.22" stop-color="#3B65AF"/>
<stop offset="0.62" stop-color="#3D85C5"/>
<stop offset="1" stop-color="#3FA9DF"/>
</linearGradient>
<linearGradient id="paint1_linear_56_16572" x1="16.5207" y1="66.3976" x2="16.5207" y2="33.8827" gradientUnits="userSpaceOnUse">
<stop stop-color="#3B5AA7"/>
<stop offset="0.22" stop-color="#3B65AF"/>
<stop offset="0.62" stop-color="#3D85C5"/>
<stop offset="1" stop-color="#3FA9DF"/>
</linearGradient>
<linearGradient id="paint2_linear_56_16572" x1="1.866" y1="85.6957" x2="1.866" y2="60.7969" gradientUnits="userSpaceOnUse">
<stop stop-color="#3B5AA7"/>
<stop offset="0.22" stop-color="#3B65AF"/>
<stop offset="0.62" stop-color="#3D85C5"/>
<stop offset="1" stop-color="#3FA9DF"/>
</linearGradient>
<linearGradient id="paint3_linear_56_16572" x1="56.0108" y1="91.6584" x2="56.0108" y2="64.7606" gradientUnits="userSpaceOnUse">
<stop stop-color="#3B5AA7"/>
<stop offset="0.22" stop-color="#3B65AF"/>
<stop offset="0.62" stop-color="#3D85C5"/>
<stop offset="1" stop-color="#3FA9DF"/>
</linearGradient>
<linearGradient id="paint4_linear_56_16572" x1="49.7891" y1="100.12" x2="49.7891" y2="94.2298" gradientUnits="userSpaceOnUse">
<stop stop-color="#3B5AA7"/>
<stop offset="0.22" stop-color="#3B65AF"/>
<stop offset="0.62" stop-color="#3D85C5"/>
<stop offset="1" stop-color="#3FA9DF"/>
</linearGradient>
<linearGradient id="paint5_linear_56_16572" x1="57.4443" y1="22.4558" x2="57.4443" y2="19.0495" gradientUnits="userSpaceOnUse">
<stop stop-color="#3B5AA7"/>
<stop offset="0.22" stop-color="#3B65AF"/>
<stop offset="0.62" stop-color="#3D85C5"/>
<stop offset="1" stop-color="#3FA9DF"/>
</linearGradient>
<linearGradient id="paint6_linear_56_16572" x1="80.2581" y1="32.4322" x2="80.2581" y2="29.0077" gradientUnits="userSpaceOnUse">
<stop stop-color="#3B5AA7"/>
<stop offset="0.22" stop-color="#3B65AF"/>
<stop offset="0.62" stop-color="#3D85C5"/>
<stop offset="1" stop-color="#3FA9DF"/>
</linearGradient>
<linearGradient id="paint7_linear_56_16572" x1="32.0453" y1="32.4225" x2="32.0453" y2="29.0153" gradientUnits="userSpaceOnUse">
<stop stop-color="#3B5AA7"/>
<stop offset="0.22" stop-color="#3B65AF"/>
<stop offset="0.62" stop-color="#3D85C5"/>
<stop offset="1" stop-color="#3FA9DF"/>
</linearGradient>
<linearGradient id="paint8_linear_56_16572" x1="42.9148" y1="25.7945" x2="42.9148" y2="20.3496" gradientUnits="userSpaceOnUse">
<stop stop-color="#3B5AA7"/>
<stop offset="0.22" stop-color="#3B65AF"/>
<stop offset="0.62" stop-color="#3D85C5"/>
<stop offset="1" stop-color="#3FA9DF"/>
</linearGradient>
<linearGradient id="paint9_linear_56_16572" x1="69.0135" y1="25.7994" x2="69.0135" y2="20.3545" gradientUnits="userSpaceOnUse">
<stop stop-color="#3B5AA7"/>
<stop offset="0.22" stop-color="#3B65AF"/>
<stop offset="0.62" stop-color="#3D85C5"/>
<stop offset="1" stop-color="#3FA9DF"/>
</linearGradient>
<linearGradient id="paint10_linear_56_16572" x1="85.3843" y1="43.5598" x2="85.3843" y2="39.9811" gradientUnits="userSpaceOnUse">
<stop stop-color="#3B5AA7"/>
<stop offset="0.22" stop-color="#3B65AF"/>
<stop offset="0.62" stop-color="#3D85C5"/>
<stop offset="1" stop-color="#3FA9DF"/>
</linearGradient>
<linearGradient id="paint11_linear_56_16572" x1="22.4149" y1="43.5583" x2="22.4149" y2="39.9831" gradientUnits="userSpaceOnUse">
<stop stop-color="#3B5AA7"/>
<stop offset="0.22" stop-color="#3B65AF"/>
<stop offset="0.62" stop-color="#3D85C5"/>
<stop offset="1" stop-color="#3FA9DF"/>
</linearGradient>
</defs>
</svg>
