<svg width="120" height="120" viewBox="0 0 120 120" fill="none" xmlns="http://www.w3.org/2000/svg">
<path d="M51.3404 61.0275C45.9419 61.9123 41.3808 63.2027 37.9785 64.6827C36.7776 65.2041 35.6716 66.7683 35.5663 68.0745C35.4978 68.9382 35.4609 69.8073 35.4609 70.6868C35.4609 71.5664 35.4978 72.4354 35.5663 73.2992C35.6716 74.6053 36.7776 76.1696 37.9785 76.691C41.3756 78.171 45.9366 79.4561 51.3404 80.3462C52.6307 80.5568 53.5893 79.6404 53.4998 78.3342C53.326 75.7956 53.2364 73.2307 53.2364 70.6868C53.2364 68.143 53.326 65.5728 53.4998 63.0394C53.5893 61.7332 52.636 60.8115 51.3404 61.0222V61.0275Z" fill="url(#paint0_linear_56_16593)"/>
<path d="M56.0584 100.776C57.2803 101.25 57.8807 100.576 57.4383 99.3431C56.1216 95.6721 55.1103 91.3375 54.4046 86.6922C54.2097 85.3966 53.03 84.2115 51.7291 84.0166C47.0837 83.3162 42.7491 82.2997 39.0782 80.983C37.8457 80.5406 37.1716 81.141 37.6456 82.3629C40.9215 90.795 47.6315 97.505 56.0584 100.776Z" fill="url(#paint1_linear_56_16593)"/>
<path d="M61.7316 40.9345C60.2517 44.3316 58.9613 48.8927 58.0765 54.2912C57.8605 55.5868 58.777 56.5401 60.0884 56.4506C62.627 56.2768 65.1919 56.1872 67.7358 56.1872C70.2797 56.1872 72.8446 56.2768 75.3832 56.4506C76.6894 56.5401 77.6058 55.5868 77.3951 54.2912C76.5103 48.8927 75.22 44.3316 73.74 40.9345C73.2186 39.7337 71.6543 38.6329 70.3482 38.5223C69.4897 38.4539 68.6154 38.417 67.7358 38.417C66.8563 38.417 65.982 38.4539 65.1235 38.5223C63.8173 38.6277 62.2583 39.7337 61.7316 40.9345Z" fill="url(#paint2_linear_56_16593)"/>
<path d="M56.0584 40.6026C47.6315 43.8733 40.9163 50.5885 37.6456 59.0154C37.1716 60.2373 37.8457 60.8324 39.0782 60.3953C42.7491 59.0786 47.0837 58.0674 51.7291 57.3616C53.0247 57.1667 54.2097 55.9817 54.4046 54.6861C55.1051 50.0407 56.1216 45.7062 57.4383 42.0352C57.8807 40.8028 57.2803 40.1286 56.0584 40.6026Z" fill="url(#paint3_linear_56_16593)"/>
<path d="M81.0604 54.6865C81.2553 55.9821 82.4403 57.1671 83.736 57.362C88.3813 58.0625 92.7159 59.079 96.3868 60.3904C97.6193 60.8328 98.2987 60.2324 97.8194 59.0105C94.5487 50.5836 87.8335 43.8684 79.4066 40.5977C78.1847 40.1237 77.5896 40.7979 78.0267 42.0303C79.3434 45.7013 80.3547 50.0359 81.0604 54.6812V54.6865Z" fill="url(#paint4_linear_56_16593)"/>
<path d="M99.8944 68.0745C99.789 66.7683 98.683 65.2041 97.4822 64.6827C94.0851 63.2027 89.5188 61.9176 84.1203 61.0275C82.8299 60.8116 81.8713 61.7333 81.9609 63.0394C82.1347 65.5728 82.2242 68.143 82.2242 70.6868C82.2242 73.2307 82.1347 75.8009 81.9609 78.3343C81.8713 79.6404 82.8299 80.5568 84.1203 80.3462C89.5188 79.4614 94.0798 78.171 97.4822 76.691C98.683 76.1696 99.789 74.6001 99.8944 73.2992C99.9681 72.4354 99.9997 71.5664 99.9997 70.6868C99.9997 69.8073 99.9628 68.9383 99.8944 68.0745Z" fill="url(#paint5_linear_56_16593)"/>
<path d="M78.6688 70.6872C78.6688 67.8905 78.5634 65.1939 78.3686 62.6132C78.2685 61.307 77.1098 60.1431 75.8036 60.0483C73.2229 59.8534 70.5263 59.748 67.7296 59.748C64.9329 59.748 62.2363 59.8534 59.6556 60.0483C58.3494 60.1483 57.1854 61.307 57.0854 62.6132C56.8905 65.1939 56.7852 67.8905 56.7852 70.6872C56.7852 73.4839 56.8905 76.1805 57.0854 78.7612C57.1854 80.0674 58.3441 81.2314 59.6556 81.3262C62.2363 81.5211 64.9329 81.6264 67.7296 81.6264C70.5263 81.6264 73.2229 81.5211 75.8036 81.3262C77.1098 81.2261 78.2737 80.0622 78.3686 78.7612C78.5634 76.1805 78.6688 73.4839 78.6688 70.6872Z" fill="url(#paint6_linear_56_16593)"/>
<path d="M96.3867 80.983C92.7157 82.2997 88.3811 83.3109 83.7358 84.0166C82.4402 84.2115 81.2551 85.3966 81.0603 86.6922C80.3598 91.3375 79.3433 95.6721 78.0318 99.3431C77.5894 100.576 78.1898 101.255 79.4065 100.776C87.8386 97.505 94.5486 90.7898 97.8193 82.3629C98.2933 81.141 97.6191 80.5406 96.3867 80.983Z" fill="url(#paint7_linear_56_16593)"/>
<path d="M75.3779 84.9179C72.8446 85.0917 70.2744 85.1813 67.7305 85.1813C65.1867 85.1813 62.6217 85.0917 60.0831 84.9179C58.7769 84.8284 57.8605 85.787 58.0712 87.0773C58.9613 92.4758 60.2464 97.0369 61.7264 100.439C62.2478 101.64 63.812 102.746 65.1182 102.851C65.9819 102.925 66.851 102.957 67.7305 102.957C68.6101 102.957 69.4791 102.92 70.3429 102.851C71.649 102.746 73.2133 101.645 73.7347 100.439C75.2147 97.0421 76.4998 92.4758 77.3899 87.0773C77.6005 85.7817 76.6841 84.8284 75.3779 84.9179Z" fill="url(#paint8_linear_56_16593)"/>
<path d="M42.8555 31.7966C43.1083 31.9915 43.3242 31.9177 43.4401 31.8335C43.3558 31.9441 43.2083 32.1547 42.9819 32.5497C42.9819 32.5497 42.1813 33.7506 42.4499 34.1509C42.7185 34.5669 44.13 34.3036 44.13 34.3036C44.5777 34.2509 44.8305 34.1983 44.9675 34.1667C44.8411 34.2404 44.6883 34.4089 44.7673 34.7144L45.4889 37.1266C45.4994 37.1635 45.5152 37.1951 45.531 37.2267L47.4271 35.5992L47.5798 33.5504C47.5903 33.3924 47.6219 33.1976 47.6219 33.1976C47.6219 33.1976 48.0011 32.9395 48.117 32.8868L54.8006 28.7787L58.2925 38.9015C58.3873 39.1701 58.6401 39.2439 58.856 39.0543L60.6942 37.4848C60.9101 37.2951 61.0523 36.9159 60.9996 36.6315L59.1826 25.8662L65.5818 21.3894C66.7615 20.5625 67.699 19.2879 67.678 18.5453C67.6674 18.2662 67.5726 17.9765 67.4199 17.7184C67.2408 17.4656 67.0196 17.2655 66.7563 17.1496C66.0821 16.8389 64.5389 17.197 63.3118 17.9501L56.6756 22.0583L47.5008 16.1331C47.2585 15.9804 46.853 15.954 46.5949 16.0804L44.425 17.1443C44.1669 17.2707 44.13 17.5288 44.3407 17.7237L52.2567 24.9339L45.8417 29.4476C45.7469 29.5371 45.3625 29.7847 45.3625 29.7847C45.3625 29.7847 45.1676 29.7373 45.0201 29.6846L43.0767 29.0157L40.833 30.1165C40.833 30.1165 40.8804 30.1692 40.912 30.1902L42.8397 31.8019L42.8555 31.7966Z" fill="url(#paint9_linear_56_16593)"/>
<path d="M21.7402 64.9934C21.8508 64.0033 22.0562 63.0447 22.2722 62.044C22.3512 61.67 22.4354 61.2961 22.5092 60.9222C22.5935 60.4323 22.7357 59.9741 22.8937 59.4896C22.9727 59.2473 23.0464 59.0051 23.1201 58.7628L23.7838 56.6455C23.9839 56.1715 24.1788 55.7028 24.3684 55.234C24.737 54.3281 25.0899 53.4696 25.4849 52.6533L26.4646 50.7835C26.5541 50.6203 26.6489 50.4359 26.7437 50.2569C26.9596 49.8355 27.165 49.4405 27.3968 49.114C27.6865 48.6768 27.9393 48.2765 28.1973 47.8763C28.6608 47.1442 29.098 46.4542 29.5615 45.8275L31.7524 43.0097C32.237 42.4673 32.7479 41.9195 33.2377 41.3875L33.9382 40.6291C34.4859 39.9971 35.0811 39.4599 35.6551 38.9438L37.7935 37.0214C38.5308 36.4368 39.1629 35.9627 39.679 35.573C39.8528 35.4413 40.0108 35.3254 40.153 35.2148L41.0431 36.4367C40.8798 36.5526 40.706 36.6738 40.5111 36.8054C39.9634 37.1846 39.2945 37.6481 38.5414 38.1906L38.4624 38.2538L36.4557 39.9286C35.908 40.3763 35.2865 40.8872 34.6755 41.5403L32.5583 43.6523L32.4793 43.7418L30.3041 46.312C29.7879 46.9546 29.3244 47.6182 28.8768 48.2608C28.624 48.6242 28.3659 48.9981 28.0973 49.3668C27.7813 49.7723 27.5232 50.2253 27.2756 50.6624C27.1914 50.8152 27.1018 50.9679 27.0123 51.1154L26.0011 52.8587C25.5534 53.6856 25.1742 54.5125 24.8055 55.313C24.5949 55.7712 24.3842 56.2347 24.1577 56.6982L24.0998 56.8351L23.3782 58.8523C23.2992 59.0788 23.2307 59.2789 23.157 59.4738C22.9779 59.9636 22.7673 60.5219 22.6461 61.1276C22.5724 61.433 22.4776 61.7859 22.388 62.1388C22.1458 63.0552 21.9035 64.0033 21.7455 64.9987L21.7402 64.9934Z" fill="url(#paint10_linear_56_16593)"/>
<path d="M40.4481 33.1978C40.4481 33.1978 40.1216 33.4454 39.5159 33.9089C38.905 34.3776 38.0149 35.0307 36.8772 35.9313C36.3137 36.4422 35.6869 37.0057 35.0022 37.6167C34.3228 38.2329 33.5697 38.8807 32.8902 39.6602C32.1898 40.4239 31.4261 41.2245 30.6571 42.0882C29.9461 43.0046 29.1929 43.9685 28.4135 44.9744C27.6603 45.9962 26.9861 47.1496 26.2277 48.2925C25.8327 48.8561 25.543 49.4933 25.206 50.1148C24.8742 50.7416 24.5423 51.3789 24.2053 52.0214C23.568 53.3329 23.0466 54.7391 22.4462 56.1453C22.2197 56.8774 21.9879 57.6148 21.7509 58.3574C21.535 59.1053 21.2453 59.8426 21.1137 60.6274C20.8029 62.1864 20.3921 63.7506 20.2762 65.3886C20.1972 66.2049 20.0708 67.016 20.0339 67.8377C20.0234 68.6645 20.0182 69.4967 20.0076 70.3289C20.0129 70.7449 19.9813 71.161 20.0181 71.5771L20.134 72.8306C20.2236 73.668 20.271 74.5055 20.3974 75.3376L20.9082 77.8183C21.003 78.2291 21.0557 78.6504 21.1874 79.0507L21.5771 80.2568C21.851 81.0521 22.0722 81.8737 22.3935 82.6479L23.4468 84.9443C23.7629 85.7238 24.2105 86.4295 24.6477 87.1405C25.0954 87.8621 25.4798 88.5415 25.9749 89.2841C26.4595 89.9267 26.944 90.564 27.4233 91.196C27.9605 91.8175 28.5188 92.4284 29.0613 93.0394C30.1989 94.1928 31.3576 95.283 32.6058 96.2311C35.076 98.1534 37.7199 99.6387 40.3323 100.766C42.9604 101.867 45.5675 102.556 47.9849 103.041C49.2068 103.215 50.3708 103.452 51.4926 103.515C52.0509 103.562 52.5987 103.61 53.1253 103.652C53.6573 103.668 54.1734 103.673 54.6738 103.689C55.0688 103.689 55.4533 103.71 55.8272 103.71C55.9273 103.71 56.0274 103.71 56.1274 103.71C56.5909 103.689 57.0439 103.668 57.4757 103.647C57.9076 103.626 58.3184 103.61 58.7134 103.589C59.1084 103.547 59.4824 103.505 59.8405 103.462C60.5516 103.378 61.1888 103.331 61.7366 103.236C62.2843 103.141 62.7478 103.057 63.127 102.994C63.8802 102.862 64.2805 102.793 64.2805 102.793C64.2805 102.793 63.8749 102.846 63.1165 102.946C62.7373 102.994 62.2685 103.057 61.7208 103.131C61.173 103.199 60.5305 103.22 59.8247 103.273C59.4666 103.299 59.0979 103.32 58.7029 103.347C58.3079 103.347 57.8971 103.347 57.4705 103.347C57.0439 103.347 56.5962 103.347 56.1327 103.347C55.6692 103.347 55.1899 103.294 54.6949 103.273C54.1998 103.241 53.6942 103.21 53.1675 103.173C52.6461 103.104 52.1089 103.036 51.5611 102.967C50.4551 102.862 49.3227 102.578 48.1324 102.356C45.7781 101.777 43.2606 100.998 40.7536 99.823C38.2624 98.6275 35.7765 97.079 33.4907 95.1408C32.3372 94.1875 31.2681 93.092 30.2463 91.9597C29.767 91.3751 29.2825 90.7852 28.7979 90.1953C28.345 89.5422 27.8868 88.8839 27.4286 88.2202C25.8959 85.5816 24.4001 82.7059 23.6944 79.6301L23.3731 78.4924C23.2625 78.1185 23.2362 77.7182 23.1624 77.3285L22.7832 75.0058C22.7042 74.2263 22.6884 73.4415 22.641 72.6621L22.5778 71.4981C22.5568 71.1136 22.6094 70.7239 22.62 70.3341C22.6568 69.5599 22.699 68.791 22.7358 68.0273C22.8043 67.2636 22.957 66.5104 23.0571 65.7625C23.2204 64.2562 23.6733 62.8131 24.0209 61.3858C24.1684 60.6643 24.4686 59.9901 24.7004 59.3054C24.9426 58.626 25.1849 57.9519 25.4219 57.283C26.0381 56.0084 26.5701 54.7233 27.2126 53.5383C27.5497 52.9536 27.8868 52.3796 28.2133 51.8107C28.5504 51.2472 28.8401 50.6731 29.2298 50.1675C29.9777 49.1405 30.6361 48.1082 31.3734 47.1918C32.1318 46.2964 32.8586 45.4379 33.5486 44.6215C34.307 43.8631 35.0233 43.1521 35.7027 42.478C36.3611 41.7775 37.051 41.2455 37.6672 40.7294C38.2835 40.2132 38.8523 39.7392 39.3632 39.3126C40.5008 38.4857 41.4488 37.8537 42.0703 37.4166C42.6971 36.9794 43.0341 36.7477 43.0341 36.7477L40.4376 33.1768L40.4481 33.1978Z" fill="url(#paint11_linear_56_16593)"/>
<defs>
<linearGradient id="paint0_linear_56_16593" x1="28.5823" y1="76.3546" x2="28.5823" y2="61.1691" gradientUnits="userSpaceOnUse">
<stop stop-color="#3B5AA7"/>
<stop offset="0.22" stop-color="#3B65AF"/>
<stop offset="0.62" stop-color="#3D85C5"/>
<stop offset="1" stop-color="#3FA9DF"/>
</linearGradient>
<linearGradient id="paint1_linear_56_16593" x1="29.8348" y1="96.7599" x2="29.8348" y2="81.0213" gradientUnits="userSpaceOnUse">
<stop stop-color="#3B5AA7"/>
<stop offset="0.22" stop-color="#3B65AF"/>
<stop offset="0.62" stop-color="#3D85C5"/>
<stop offset="1" stop-color="#3FA9DF"/>
</linearGradient>
<linearGradient id="paint2_linear_56_16593" x1="50.6571" y1="52.7137" x2="50.6571" y2="38.5816" gradientUnits="userSpaceOnUse">
<stop stop-color="#3B5AA7"/>
<stop offset="0.22" stop-color="#3B65AF"/>
<stop offset="0.62" stop-color="#3D85C5"/>
<stop offset="1" stop-color="#3FA9DF"/>
</linearGradient>
<linearGradient id="paint3_linear_56_16593" x1="29.8348" y1="56.3705" x2="29.8348" y2="40.6335" gradientUnits="userSpaceOnUse">
<stop stop-color="#3B5AA7"/>
<stop offset="0.22" stop-color="#3B65AF"/>
<stop offset="0.62" stop-color="#3D85C5"/>
<stop offset="1" stop-color="#3FA9DF"/>
</linearGradient>
<linearGradient id="paint4_linear_56_16593" x1="70.2254" y1="56.3673" x2="70.2254" y2="40.6287" gradientUnits="userSpaceOnUse">
<stop stop-color="#3B5AA7"/>
<stop offset="0.22" stop-color="#3B65AF"/>
<stop offset="0.62" stop-color="#3D85C5"/>
<stop offset="1" stop-color="#3FA9DF"/>
</linearGradient>
<linearGradient id="paint5_linear_56_16593" x1="75.0765" y1="76.3555" x2="75.0765" y2="61.173" gradientUnits="userSpaceOnUse">
<stop stop-color="#3B5AA7"/>
<stop offset="0.22" stop-color="#3B65AF"/>
<stop offset="0.62" stop-color="#3D85C5"/>
<stop offset="1" stop-color="#3FA9DF"/>
</linearGradient>
<linearGradient id="paint6_linear_56_16593" x1="48.4431" y1="77.0872" x2="48.4431" y2="59.9477" gradientUnits="userSpaceOnUse">
<stop stop-color="#3B5AA7"/>
<stop offset="0.22" stop-color="#3B65AF"/>
<stop offset="0.62" stop-color="#3D85C5"/>
<stop offset="1" stop-color="#3FA9DF"/>
</linearGradient>
<linearGradient id="paint7_linear_56_16593" x1="70.2303" y1="96.7616" x2="70.2303" y2="81.0213" gradientUnits="userSpaceOnUse">
<stop stop-color="#3B5AA7"/>
<stop offset="0.22" stop-color="#3B65AF"/>
<stop offset="0.62" stop-color="#3D85C5"/>
<stop offset="1" stop-color="#3FA9DF"/>
</linearGradient>
<linearGradient id="paint8_linear_56_16593" x1="50.6537" y1="99.213" x2="50.6537" y2="85.0768" gradientUnits="userSpaceOnUse">
<stop stop-color="#3B5AA7"/>
<stop offset="0.22" stop-color="#3B65AF"/>
<stop offset="0.62" stop-color="#3D85C5"/>
<stop offset="1" stop-color="#3FA9DF"/>
</linearGradient>
<linearGradient id="paint9_linear_56_16593" x1="30.5996" y1="34.355" x2="30.5996" y2="16.2114" gradientUnits="userSpaceOnUse">
<stop stop-color="#3B5AA7"/>
<stop offset="0.22" stop-color="#3B65AF"/>
<stop offset="0.62" stop-color="#3D85C5"/>
<stop offset="1" stop-color="#3FA9DF"/>
</linearGradient>
<linearGradient id="paint10_linear_56_16593" x1="14.382" y1="58.8193" x2="14.382" y2="35.4867" gradientUnits="userSpaceOnUse">
<stop stop-color="#3B5AA7"/>
<stop offset="0.22" stop-color="#3B65AF"/>
<stop offset="0.62" stop-color="#3D85C5"/>
<stop offset="1" stop-color="#3FA9DF"/>
</linearGradient>
<linearGradient id="paint11_linear_56_16593" x1="3.12026" y1="89.0762" x2="3.12026" y2="33.8205" gradientUnits="userSpaceOnUse">
<stop stop-color="#3B5AA7"/>
<stop offset="0.22" stop-color="#3B65AF"/>
<stop offset="0.62" stop-color="#3D85C5"/>
<stop offset="1" stop-color="#3FA9DF"/>
</linearGradient>
</defs>
</svg>
