<svg width="120" height="120" viewBox="0 0 120 120" fill="none" xmlns="http://www.w3.org/2000/svg">
<path d="M73.4894 60.9385L69.6324 54.8502L61.7216 68.6622C61.3029 69.3912 60.5246 69.8395 59.6872 69.8395C59.6675 69.8395 59.6478 69.8395 59.6281 69.8395C58.7661 69.8197 57.9878 69.3222 57.5987 68.5538L48.0131 49.6338L43.4124 60.5888C43.0479 61.4607 42.1957 62.0271 41.25 62.0271H28.7236C28.9453 62.2734 29.1768 62.5148 29.4132 62.7512L58.3425 91.6805C58.8006 92.1386 59.4015 92.3652 59.9976 92.3652C60.5936 92.3652 61.1995 92.1386 61.6526 91.6805L90.5819 62.7512C90.8183 62.5148 91.0449 62.2734 91.2715 62.0271H75.4646C74.6617 62.0271 73.913 61.6183 73.4844 60.9385H73.4894Z" fill="url(#paint0_linear_56_16587)"/>
<path d="M45.6532 43.1517C46.0079 42.3094 46.8157 41.7479 47.7319 41.7183C48.6432 41.6838 49.4954 42.1863 49.9042 42.999L59.8149 62.5594L67.4992 49.1415C67.908 48.4272 68.6617 47.979 69.4794 47.9642C70.302 47.9445 71.0704 48.3583 71.5137 49.0528L76.7597 57.338H94.5024C95.9506 54.4564 96.7191 51.2596 96.7191 47.9396C96.7191 42.3488 94.5418 37.088 90.5864 33.1326C86.631 29.1772 81.3752 27 75.7795 27C70.1837 27 64.9279 29.1772 60.9725 33.1326L60.0021 34.103L59.0317 33.1326C55.0763 29.1772 49.8205 27 44.2248 27C38.629 27 33.3732 29.1772 29.4178 33.1326C25.4624 37.088 23.2852 42.3439 23.2852 47.9396C23.2852 51.2547 24.0536 54.4564 25.5018 57.338H39.6979L45.6582 43.1468L45.6532 43.1517Z" fill="url(#paint1_linear_56_16587)"/>
<path d="M22.3447 57.3428C21.0492 57.3428 20 58.392 20 59.6874C20 60.9829 21.0492 62.0321 22.3447 62.0321H28.7285C27.4281 60.6086 26.3494 59.0323 25.4972 57.3428H22.3447Z" fill="url(#paint2_linear_56_16587)"/>
<path d="M97.6553 57.3428H94.5028C93.6556 59.0274 92.5719 60.6037 91.2715 62.0321H97.6553C98.9508 62.0321 100 60.9829 100 59.6874C100 58.392 98.9508 57.3428 97.6553 57.3428Z" fill="url(#paint3_linear_56_16587)"/>
<defs>
<linearGradient id="paint0_linear_56_16587" x1="4.88034" y1="83.4995" x2="4.88034" y2="50.0238" gradientUnits="userSpaceOnUse">
<stop stop-color="#3B5AA7"/>
<stop offset="0.22" stop-color="#3B65AF"/>
<stop offset="0.62" stop-color="#3D85C5"/>
<stop offset="1" stop-color="#3FA9DF"/>
</linearGradient>
<linearGradient id="paint1_linear_56_16587" x1="-4.70789" y1="55.1818" x2="-4.70789" y2="27.3246" gradientUnits="userSpaceOnUse">
<stop stop-color="#3B5AA7"/>
<stop offset="0.22" stop-color="#3B65AF"/>
<stop offset="0.62" stop-color="#3D85C5"/>
<stop offset="1" stop-color="#3FA9DF"/>
</linearGradient>
<linearGradient id="paint2_linear_56_16587" x1="16.6727" y1="61.0592" x2="16.6727" y2="57.3856" gradientUnits="userSpaceOnUse">
<stop stop-color="#3B5AA7"/>
<stop offset="0.22" stop-color="#3B65AF"/>
<stop offset="0.62" stop-color="#3D85C5"/>
<stop offset="1" stop-color="#3FA9DF"/>
</linearGradient>
<linearGradient id="paint3_linear_56_16587" x1="87.9442" y1="61.0592" x2="87.9442" y2="57.3856" gradientUnits="userSpaceOnUse">
<stop stop-color="#3B5AA7"/>
<stop offset="0.22" stop-color="#3B65AF"/>
<stop offset="0.62" stop-color="#3D85C5"/>
<stop offset="1" stop-color="#3FA9DF"/>
</linearGradient>
</defs>
</svg>
