<svg width="120" height="120" viewBox="0 0 120 120" fill="none" xmlns="http://www.w3.org/2000/svg">
<path d="M20.8542 103.1H44.4278V62.2955H20.8542V103.1ZM36.0135 65.668H39.5046C40.3393 65.668 41.0171 66.3459 41.0171 67.1806C41.0171 68.0152 40.3393 68.6931 39.5046 68.6931H36.0135C35.1788 68.6931 34.5009 68.0152 34.5009 67.1806C34.5009 66.3459 35.1788 65.668 36.0135 65.668ZM36.0135 78.12H39.5046C40.3393 78.12 41.0171 78.7979 41.0171 79.6326C41.0171 80.4672 40.3393 81.1451 39.5046 81.1451H36.0135C35.1788 81.1451 34.5009 80.4672 34.5009 79.6326C34.5009 78.7979 35.1788 78.12 36.0135 78.12ZM36.0135 90.572H39.5046C40.3393 90.572 41.0171 91.2499 41.0171 92.0845C41.0171 92.9192 40.3393 93.5971 39.5046 93.5971H36.0135C35.1788 93.5971 34.5009 92.9192 34.5009 92.0845C34.5009 91.2499 35.1788 90.572 36.0135 90.572ZM25.4808 65.668H28.9719C29.8066 65.668 30.4844 66.3459 30.4844 67.1806C30.4844 68.0152 29.8066 68.6931 28.9719 68.6931H25.4808C24.6461 68.6931 23.9682 68.0152 23.9682 67.1806C23.9682 66.3459 24.6461 65.668 25.4808 65.668ZM25.4808 78.12H28.9719C29.8066 78.12 30.4844 78.7979 30.4844 79.6326C30.4844 80.4672 29.8066 81.1451 28.9719 81.1451H25.4808C24.6461 81.1451 23.9682 80.4672 23.9682 79.6326C23.9682 78.7979 24.6461 78.12 25.4808 78.12ZM25.4808 90.572H28.9719C29.8066 90.572 30.4844 91.2499 30.4844 92.0845C30.4844 92.9192 29.8066 93.5971 28.9719 93.5971H25.4808C24.6461 93.5971 23.9682 92.9192 23.9682 92.0845C23.9682 91.2499 24.6461 90.572 25.4808 90.572ZM76.7715 103.1H96.7819V50.5977H76.7715V103.1ZM90.2954 53.2585H93.7865C94.6212 53.2585 95.299 53.9363 95.299 54.771C95.299 55.6056 94.6212 56.2835 93.7865 56.2835H90.2954C89.4608 56.2835 88.7828 55.6056 88.7828 54.771C88.7828 53.9363 89.4608 53.2585 90.2954 53.2585ZM90.2954 65.668H93.7865C94.6212 65.668 95.299 66.3459 95.299 67.1806C95.299 68.0152 94.6212 68.6931 93.7865 68.6931H90.2954C89.4608 68.6931 88.7828 68.0152 88.7828 67.1806C88.7828 66.3459 89.4608 65.668 90.2954 65.668ZM90.2954 78.12H93.7865C94.6212 78.12 95.299 78.7979 95.299 79.6326C95.299 80.4672 94.6212 81.1451 93.7865 81.1451H90.2954C89.4608 81.1451 88.7828 80.4672 88.7828 79.6326C88.7828 78.7979 89.4608 78.12 90.2954 78.12ZM90.2954 90.572H93.7865C94.6212 90.572 95.299 91.2499 95.299 92.0845C95.299 92.9192 94.6212 93.5971 93.7865 93.5971H90.2954C89.4608 93.5971 88.7828 92.9192 88.7828 92.0845C88.7828 91.2499 89.4608 90.572 90.2954 90.572ZM79.7627 53.2585H83.2538C84.0885 53.2585 84.7664 53.9363 84.7664 54.771C84.7664 55.6056 84.0885 56.2835 83.2538 56.2835H79.7627C78.9281 56.2835 78.2502 55.6056 78.2502 54.771C78.2502 53.9363 78.9281 53.2585 79.7627 53.2585ZM79.7627 65.668H83.2538C84.0885 65.668 84.7664 66.3459 84.7664 67.1806C84.7664 68.0152 84.0885 68.6931 83.2538 68.6931H79.7627C78.9281 68.6931 78.2502 68.0152 78.2502 67.1806C78.2502 66.3459 78.9281 65.668 79.7627 65.668ZM79.7627 78.12H83.2538C84.0885 78.12 84.7664 78.7979 84.7664 79.6326C84.7664 80.4672 84.0885 81.1451 83.2538 81.1451H79.7627C78.9281 81.1451 78.2502 80.4672 78.2502 79.6326C78.2502 78.7979 78.9281 78.12 79.7627 78.12ZM79.7627 90.572H83.2538C84.0885 90.572 84.7664 91.2499 84.7664 92.0845C84.7664 92.9192 84.0885 93.5971 83.2538 93.5971H79.7627C78.9281 93.5971 78.2502 92.9192 78.2502 92.0845C78.2502 91.2499 78.9281 90.572 79.7627 90.572ZM47.4529 103.1H73.7507V44.162H47.4529V103.1ZM63.6713 53.4025H68.6707C69.5054 53.4025 70.1833 54.0804 70.1833 54.915C70.1833 55.7497 69.5054 56.4276 68.6707 56.4276H63.6713C62.8366 56.4276 62.1588 55.7497 62.1588 54.915C62.1588 54.0804 62.8366 53.4025 63.6713 53.4025ZM63.6713 65.668H68.6707C69.5054 65.668 70.1833 66.3459 70.1833 67.1806C70.1833 68.0152 69.5054 68.6931 68.6707 68.6931H63.6713C62.8366 68.6931 62.1588 68.0152 62.1588 67.1806C62.1588 66.3459 62.8366 65.668 63.6713 65.668ZM63.6713 78.12H68.6707C69.5054 78.12 70.1833 78.7979 70.1833 79.6326C70.1833 80.4672 69.5054 81.1451 68.6707 81.1451H63.6713C62.8366 81.1451 62.1588 80.4672 62.1588 79.6326C62.1588 78.7979 62.8366 78.12 63.6713 78.12ZM63.6713 90.572H68.6707C69.5054 90.572 70.1833 91.2499 70.1833 92.0845C70.1833 92.9192 69.5054 93.5971 68.6707 93.5971H63.6713C62.8366 93.5971 62.1588 92.9192 62.1588 92.0845C62.1588 91.2499 62.8366 90.572 63.6713 90.572ZM51.6261 53.4025H56.6255C57.4601 53.4025 58.1381 54.0804 58.1381 54.915C58.1381 55.7497 57.4601 56.4276 56.6255 56.4276H51.6261C50.7914 56.4276 50.1135 55.7497 50.1135 54.915C50.1135 54.0804 50.7914 53.4025 51.6261 53.4025ZM51.6261 65.668H56.6255C57.4601 65.668 58.1381 66.3459 58.1381 67.1806C58.1381 68.0152 57.4601 68.6931 56.6255 68.6931H51.6261C50.7914 68.6931 50.1135 68.0152 50.1135 67.1806C50.1135 66.3459 50.7914 65.668 51.6261 65.668ZM51.6261 78.12H56.6255C57.4601 78.12 58.1381 78.7979 58.1381 79.6326C58.1381 80.4672 57.4601 81.1451 56.6255 81.1451H51.6261C50.7914 81.1451 50.1135 80.4672 50.1135 79.6326C50.1135 78.7979 50.7914 78.12 51.6261 78.12ZM51.6261 90.572H56.6255C57.4601 90.572 58.1381 91.2499 58.1381 92.0845C58.1381 92.9192 57.4601 93.5971 56.6255 93.5971H51.6261C50.7914 93.5971 50.1135 92.9192 50.1135 92.0845C50.1135 91.2499 50.7914 90.572 51.6261 90.572ZM97.2777 33.7776C96.8497 34.4597 95.9515 34.6674 95.2737 34.2394C94.6508 33.8496 92.2994 32.5744 88.2278 32.5744C84.1563 32.5744 81.9828 33.7395 81.1778 34.2394C80.9405 34.3877 80.6736 34.4555 80.4109 34.4555C79.9237 34.4555 79.4492 34.2098 79.1738 33.7692C78.7501 33.087 78.9619 32.1888 79.6398 31.7651C80.6609 31.1296 83.5377 29.6595 88.2236 29.6595C92.9095 29.6595 95.799 31.1339 96.8116 31.7651C97.4937 32.1931 97.6971 33.087 97.2734 33.7692L97.2777 33.7776ZM94.189 38.705C93.7611 39.3872 92.8671 39.5948 92.185 39.1668C91.8418 38.9508 90.4564 38.3915 88.2278 38.3915C85.5629 38.3915 84.258 39.1753 84.2452 39.1838C84.008 39.3321 83.7453 39.3999 83.4826 39.3999C82.9954 39.3999 82.5166 39.1541 82.2455 38.7093C81.8218 38.0271 82.0336 37.1332 82.7115 36.7095C83.042 36.5061 84.8596 35.4808 88.2278 35.4808C90.8504 35.4808 92.829 36.1375 93.7315 36.701C94.4136 37.1289 94.6169 38.0229 94.1932 38.705H94.189ZM99.79 29.4646C99.5147 29.9094 99.0402 30.1552 98.5529 30.1552C98.2903 30.1552 98.0275 30.0874 97.786 29.9391C95.3711 28.4435 91.8842 27.5834 88.2236 27.5834C84.563 27.5834 81.0634 28.4393 78.6484 29.9391C77.9663 30.367 77.0681 30.1509 76.6444 29.4688C76.2207 28.7867 76.4326 27.8885 77.1147 27.469C80.0212 25.6684 83.9656 24.677 88.2194 24.677C92.4731 24.677 96.4091 25.6684 99.3113 27.469C99.9934 27.8927 100.205 28.7867 99.7816 29.4688L99.79 29.4646ZM90.4945 42.48C90.4945 43.7341 89.4777 44.7552 88.2194 44.7552C86.961 44.7552 85.9442 43.7384 85.9442 42.48C85.9442 41.2217 86.961 40.2048 88.2194 40.2048C89.4777 40.2048 90.4945 41.2217 90.4945 42.48ZM43.0677 22.4654C39.9198 22.4654 37.365 25.0244 37.365 28.1723C37.365 31.3203 39.924 33.8793 43.0677 33.8793C45.7072 33.8793 47.9147 32.066 48.5629 29.6298H50.2279V42.713H53.1344V26.7191H48.5629C47.9147 24.2787 45.7072 22.4696 43.0677 22.4696V22.4654ZM67.6751 27.414C70.8231 27.414 73.3778 24.8549 73.3778 21.707C73.3778 18.559 70.8188 16 67.6751 16C65.0356 16 62.8282 17.8134 62.1842 20.2495H57.4983V42.4758H60.4047V23.1602H62.18C62.8282 25.6006 65.0313 27.4097 67.6709 27.4097L67.6751 27.414ZM35.6872 47.6828V47.0727H35.6067C35.2974 44.8992 34.5306 42.4207 32.7469 40.5268C28.8151 36.3621 21.7439 36.9298 21.4474 36.9552L20.3034 37.0527L20.1381 38.1924C20.0958 38.4889 19.1171 45.5136 23.0488 49.6783C25.9129 52.7161 30.4167 53.2288 32.7808 53.2796V60.156H35.6872V51.7798C35.755 51.2036 35.8948 49.6148 35.6872 47.6786V47.6828ZM69.1283 38.2263V42.48H66.2219V38.2263C64.9381 37.667 64.0357 36.3875 64.0357 34.8919C64.0357 32.8837 65.6669 31.2525 67.6751 31.2525C69.6834 31.2525 71.3145 32.8837 71.3145 34.8919C71.3145 36.3833 70.4163 37.6628 69.1283 38.2263Z" fill="url(#paint0_linear_56_16622)"/>
<defs>
<linearGradient id="paint0_linear_56_16622" x1="-10.496" y1="85.0293" x2="-10.496" y2="16.795" gradientUnits="userSpaceOnUse">
<stop stop-color="#3B5AA7"/>
<stop offset="0.22" stop-color="#3B65AF"/>
<stop offset="0.62" stop-color="#3D85C5"/>
<stop offset="1" stop-color="#3FA9DF"/>
</linearGradient>
</defs>
</svg>
