<svg width="34" height="34" viewBox="0 0 34 34" fill="none" xmlns="http://www.w3.org/2000/svg">
<g clip-path="url(#clip0_11245_13188)">
<path d="M34 17C34 26.3888 30 34 17 34C4 34 0 26.3888 0 17C0 7.6112 4 0 17 0C30 0 34 7.6112 34 17Z" fill="#C83A3A"/>
<path d="M7 7C7 6.4477 7.448 6 8 6H26C26.552 6 27 6.4477 27 7V28C27 28.5523 26.552 29 26 29H8C7.448 29 7 28.5523 7 28V7Z" fill="white"/>
<path d="M10 19C10 17.3431 11.343 16 13 16H21C22.657 16 24 17.3431 24 19V23C24 24.6569 22.657 26 21 26H13C11.343 26 10 24.6569 10 23V19Z" fill="#C83A3A"/>
<path d="M27 11H7V12H27V11Z" fill="#C83A3A"/>
<path d="M12 9C12 9.5523 11.552 10 11 10C10.448 10 10 9.5523 10 9C10 8.4477 10.448 8 11 8C11.552 8 12 8.4477 12 9Z" fill="#A68559"/>
<path d="M16 9C16 9.5523 15.552 10 15 10C14.448 10 14 9.5523 14 9C14 8.4477 14.448 8 15 8C15.552 8 16 8.4477 16 9Z" fill="#A68559"/>
<path d="M20 9C20 9.5523 19.552 10 19 10C18.448 10 18 9.5523 18 9C18 8.4477 18.448 8 19 8C19.552 8 20 8.4477 20 9Z" fill="#A68559"/>
<path d="M24 9C24 9.5523 23.552 10 23 10C22.448 10 22 9.5523 22 9C22 8.4477 22.448 8 23 8C23.552 8 24 8.4477 24 9Z" fill="#A68559"/>
</g>
<defs>
<clipPath id="clip0_11245_13188">
<rect width="34" height="34" fill="white"/>
</clipPath>
</defs>
</svg>
