<svg width="362" height="361" viewBox="0 0 362 361" fill="none" xmlns="http://www.w3.org/2000/svg">
<path opacity="0.5" d="M56.7784 50.0426C56.4001 50.1698 56.0382 50.3105 55.7254 50.4914C55.5691 50.5819 54.4163 51.687 53.0328 53.0402C51.3514 54.7233 49.7191 56.4466 48.0898 58.1997C47.7518 58.5786 47.4241 58.9114 46.9252 59.4864C46.4099 60.048 45.8976 60.6394 45.3853 61.2308C43.9421 62.8906 42.9101 64.1493 42.9592 64.1896C43.0411 64.2567 43.1722 64.3642 43.4269 64.3543C43.6398 64.5289 45.5878 62.6544 47.5835 60.3542C49.6283 58.0944 51.5852 56.0085 53.5585 53.936C54.6382 52.8531 55.5452 51.8472 56.135 51.128C56.7247 50.4087 56.9839 49.9924 56.762 50.0292M31.931 80.3789C33.5603 78.0244 35.2388 75.7102 36.947 73.393C38.9024 70.8411 40.3589 68.5636 40.146 68.389C39.9985 68.2681 39.8675 68.1606 39.8928 67.9627C39.8436 67.9224 38.825 69.1647 37.4935 70.8887C37.0274 71.4907 36.5746 72.0762 36.1249 72.6916C35.6751 73.3069 35.3966 73.68 35.1047 74.0694C33.6482 76.0462 32.2408 78.0633 30.8796 80.0909C29.7969 81.7454 29.0165 82.9645 28.8839 83.2932C28.7678 83.6353 28.7916 83.8736 28.741 84.2694C28.7484 84.4942 29.1059 84.1586 29.6822 83.4557C30.2586 82.7528 31.0538 81.6826 31.9444 80.3626M42.6822 73.7491C44.8447 71.0116 47.0563 68.3144 49.3036 65.6739C51.828 62.7958 53.286 60.0821 52.4594 59.7871C51.8548 59.4553 51.3022 59.1936 50.7959 58.9424C50.1689 58.8384 47.9796 60.7064 45.6161 63.3884C43.6667 65.6991 41.6293 68.1838 39.7319 70.5645C37.5486 73.3943 36.1621 75.9205 36.4778 76.3708C36.7191 76.9787 37.084 77.4692 37.5278 77.9972C37.9269 78.6798 39.9211 77.1165 42.0389 74.5338C42.2399 74.2886 42.4544 74.027 42.6688 73.7655M74.2463 35.0877C73.7444 35.3322 73.1353 35.7076 72.6989 36.0058C72.6989 36.0058 72.5589 36.1098 72.5425 36.0963C68.3323 39.2597 64.2323 42.6227 60.2588 46.1989C59.6274 46.8019 59.2565 47.154 59.5365 46.9462C59.8493 46.7652 60.1948 46.6111 60.5731 46.4839C60.9871 46.4133 63.2612 44.6422 65.4014 42.7339C67.4372 40.9861 69.3822 39.3825 71.4836 37.6884C73.031 36.4695 74.069 35.5711 74.3639 35.2115C74.498 35.048 74.4786 35.0048 74.2626 35.1011M19.4776 101.113C20.6392 98.8945 21.9051 96.5154 23.1457 94.3342C24.6722 91.704 25.8726 89.2711 25.9515 88.7071C26.0022 88.3112 26.0856 87.9422 26.2017 87.6001C26.2598 87.429 26.0811 87.7472 25.5062 88.6153C22.8315 93.1471 20.3771 97.7775 18.1238 102.463C18.0851 102.577 18.0658 102.635 18.0658 102.635C17.7873 103.308 17.613 103.821 17.3971 104.519C17.3583 104.733 17.4045 104.744 17.5251 104.597C17.82 104.237 18.5617 102.932 19.4642 101.129M71.4166 41.3786C70.5305 41.3901 69.6637 41.4449 68.9697 41.4225C68.1387 41.5339 65.6367 43.2822 63.233 45.4118C61.1256 47.347 58.9274 49.4264 56.8722 51.4317C54.6189 53.712 53.1251 55.7676 53.7357 55.8582C54.3463 55.9489 54.8691 56.2135 55.5512 56.4174C56.3152 56.6885 58.993 54.8929 61.5605 52.2962C63.8063 50.0919 66.1013 47.9278 68.5527 45.6732C69.491 44.8297 70.2565 44.0632 70.806 43.393C71.7711 42.216 72.0377 41.4231 71.4166 41.3786ZM26.7498 96.688C28.3895 93.9866 30.1528 91.1679 31.8745 88.5337C33.9148 85.4774 35.1539 82.5295 34.7384 81.8334C34.3273 81.3324 34.0563 80.7274 33.8344 80.1627C33.5216 79.7422 31.9027 81.4492 30.1081 84.1056C28.4535 86.6581 26.936 89.0769 25.4511 91.5226C23.8338 94.297 22.5351 97.2507 22.6632 97.9298C22.7332 98.7799 22.9372 99.4666 23.0996 100.338C23.2783 100.922 23.9902 100.521 24.9552 99.3444C25.4914 98.6906 26.1228 97.7868 26.7498 96.688ZM91.3523 26.2875C90.3857 26.3971 89.2986 26.6538 88.3707 26.8498C87.3029 27.1498 84.6252 28.6446 82.2765 30.2727C80.2273 31.7361 78.0544 33.3169 76.0543 34.8206C73.6535 36.6793 72.4219 38.0477 73.2365 37.9229C74.0378 37.8144 74.8882 37.7463 75.7415 37.7079C76.79 37.6655 79.6137 36.1263 82.1112 34.183C84.5179 32.3839 86.7876 30.7185 88.9635 29.1675C90.2726 28.2726 91.1736 27.5079 91.5891 27.0011C92.0046 26.4944 91.9614 26.2129 91.3821 26.2846M14.5183 120.092C15.6576 117.5 16.8595 114.931 18.0643 112.393C19.4806 109.563 20.5112 106.335 20.3473 105.298C20.2014 104.44 20.1046 103.623 19.9929 102.957C19.9422 102.15 18.8551 103.61 17.5773 106.171C16.4201 108.584 15.3701 110.867 14.2785 113.334C13.1585 115.97 12.2173 118.889 12.1905 119.823C12.122 120.943 12.1578 121.901 12.2233 122.857C12.2456 123.532 12.5301 123.519 12.9456 123.012C13.3611 122.505 13.9345 121.472 14.5183 120.092ZM70.0852 53.026C68.9504 52.5055 67.7247 52.1293 66.6613 51.7221C65.5816 51.3015 62.5762 53.1291 60.0086 55.7257C57.7345 58.0983 55.3725 60.6448 53.1639 63.0711C50.7602 65.8021 49.3662 68.7049 50.3119 69.289C51.131 69.9607 52.0961 70.588 53.0328 71.3834C54.1334 72.3132 57.3205 70.4979 60.0459 67.3746C62.4824 64.6704 65.0619 61.8921 67.5802 59.2552C67.9749 58.8407 68.3562 58.4425 68.6912 58.0338C70.6482 55.6472 71.2796 53.5407 70.0718 53.0424M39.8645 93.0897C41.957 90.1034 44.0822 87.144 46.3504 84.1105C48.7586 80.9731 49.9277 77.4758 48.9075 76.4479C47.9603 75.6986 47.0622 74.9896 46.3206 74.1901C45.4851 73.505 43.0054 75.3263 40.7819 78.2051C38.7148 80.9934 36.801 83.6614 34.9201 86.3563C32.8768 89.3829 31.6734 92.6881 32.2066 93.8087C32.8276 94.7553 33.4978 95.7422 34.1695 96.8944C34.8918 97.9514 36.9009 96.8377 38.8578 94.4511C39.2063 94.0261 39.5384 93.5877 39.8645 93.0897ZM99.6015 19.301C100.578 18.8446 101.885 18.2207 103.174 17.5833C103.347 17.5063 103.347 17.5063 103.487 17.4024C102.181 18.0263 100.888 18.6339 99.6015 19.301ZM6.03382 136.153C6.34805 134.934 6.72037 133.545 7.01822 132.313C6.6459 133.702 6.27359 135.092 5.91765 136.495C5.9673 136.39 6.00602 136.276 6.03382 136.153ZM92.0582 33.9467C90.7119 33.7176 89.4013 33.545 88.0967 33.4321C86.7757 33.3057 83.6377 34.8606 81.0002 36.9078C78.6918 38.7875 76.2762 40.798 74.0169 42.718C71.5298 44.9159 70.3399 47.002 71.4673 47.2976C72.4547 47.6972 73.6148 48.0198 74.7973 48.4153C76.2241 48.8471 79.6271 47.2362 82.3883 44.7709C84.9349 42.5672 87.3908 40.5077 89.863 38.4616C90.7134 37.792 91.3985 37.1236 91.881 36.5351C92.9935 35.1783 93.1305 34.1425 92.0418 33.9333M23.8249 119.166C25.3305 116.328 26.9435 113.358 28.6055 110.429C30.4686 107.255 31.3786 103.573 30.6011 102.416C29.9816 101.334 29.4246 100.275 28.9436 99.2249C28.4327 98.1773 26.6202 99.7529 24.9522 102.622C23.4213 105.358 22.0139 107.977 20.6229 110.609C19.1157 113.583 18.2222 116.978 18.6049 118.249C18.9713 119.506 19.3972 120.757 19.8857 122.033C20.2908 123.076 21.2856 122.798 22.3981 121.441C22.8673 120.869 23.3617 120.099 23.8249 119.166ZM111.243 14.9597C110.01 15.2607 108.953 15.5145 107.742 15.8886C106.691 16.2019 103.897 17.4375 101.822 18.4975C99.9068 19.4967 97.8545 20.6297 95.8157 21.7463C93.6398 22.9966 92.6554 23.8296 93.7069 23.5162C94.6183 23.3068 95.6891 23.0367 96.6229 22.9002C97.9082 22.6692 100.845 21.3595 103.147 20.0217C105.326 18.8012 107.365 17.6846 109.423 16.6112C110.77 15.9382 111.575 15.4234 111.803 15.1455C111.978 14.933 111.803 14.8448 111.243 14.9597ZM6.24678 142.642C6.95419 140.242 7.63331 138.011 8.40327 135.635C9.27748 133.099 9.95661 129.965 9.88959 128.844C9.89852 127.731 9.87915 126.785 9.98042 125.693C10.0236 124.772 9.41301 125.884 8.59986 128.279C7.93266 130.329 7.24012 132.577 6.63547 134.65C5.96083 137.077 5.35469 139.888 5.19534 141.151C5.10747 142.227 5.05238 143.33 5.01515 144.612C5.01217 145.184 5.13281 145.337 5.30706 145.125C5.53492 144.847 5.8581 144.018 6.23638 142.688M114.006 19.2752C112.485 19.2586 110.968 19.2717 109.632 19.2972C108.12 19.3699 104.993 20.5779 102.55 22.0197C100.44 23.3237 98.206 24.7451 95.9885 26.1799C93.6503 27.7618 92.6495 29.1828 93.9213 29.2689C95.3198 29.2674 96.5812 29.3996 97.862 29.575C99.5002 29.7155 102.893 28.4514 105.454 26.6973C107.912 25.1037 110.242 23.5977 112.45 22.209C113.471 21.5979 114.208 20.9995 114.611 20.5091C115.2 19.7899 115.06 19.2924 114.019 19.2589M12.3261 144.483C13.3001 141.892 14.3039 139.298 15.3568 136.744C16.575 133.889 17.1946 130.159 16.6912 128.735C16.3129 127.359 15.9361 126.148 15.6025 124.917C15.3136 123.532 14.1162 124.792 12.9784 127.55C12.0059 130.005 11.0944 132.32 10.1845 134.799C9.24921 137.477 8.6937 140.794 8.94688 142.122C9.17177 143.619 9.46816 144.928 9.79879 146.429C10.0356 147.444 10.5568 147.543 11.16 146.808C11.5353 146.35 11.9374 145.559 12.3395 144.467M71.9707 71.5757C70.2655 70.3141 68.5185 69.2371 66.9503 68.1426C65.2227 67.1087 61.5293 68.9736 58.643 72.2931C56.1142 75.2769 53.5407 78.4154 51.0029 81.6106C48.3133 85.0913 47.3155 88.9478 48.6543 90.4556C50.0349 91.779 51.417 93.2677 53.0046 94.7061C54.7873 96.4412 58.6326 94.8923 61.6276 91.0059C64.4066 87.5165 67.141 84.1817 70.0183 80.7729C70.1255 80.6421 70.2193 80.5277 70.3266 80.397C73.2887 76.7844 73.9559 72.9302 71.9543 71.5623M130.122 7.33937L129.941 7.49234L130.473 7.24486C130.473 7.24486 130.224 7.31429 130.108 7.35572M1.36942 164.394L1.26812 164.585C1.26812 164.585 1.24878 164.842 1.2309 164.964L1.36942 164.394ZM129.941 7.49234C128.779 7.79652 127.623 8.11508 126.473 8.44807C123.673 9.32338 120.882 10.288 118.11 11.2959C117.223 11.6433 116.325 11.9917 115.418 12.3411C113.409 13.1541 112.591 13.5498 113.815 13.1594C114.853 12.8624 116.067 12.5182 117.125 12.2644C118.361 11.9931 121.257 11.0331 123.266 10.2202C125.119 9.49766 126.961 8.82129 128.833 8.14199C129.998 7.75743 130.603 7.48778 130.67 7.40605C130.723 7.34066 130.485 7.36398 129.941 7.49234ZM1.78642 163.151C2.07236 161.198 2.35977 159.411 2.73358 157.285C3.13717 155.155 3.49907 152.308 3.53481 150.861C3.57651 149.775 3.6346 148.701 3.73587 147.609C3.88182 146.362 3.67927 147.043 3.27568 149.173C3.02548 150.58 3.02546 150.58 2.79165 152.001C2.32253 154.979 1.94573 157.978 1.61512 160.987C1.48853 162.579 1.47514 162.595 1.38281 164.378C1.35303 164.982 1.37983 165.25 1.43344 165.185C1.50046 165.103 1.64046 164.398 1.80279 163.164M95.4866 48.0754C93.485 47.3089 91.6353 46.5577 89.8079 45.8794C87.9478 45.1743 84.0488 46.7886 81.1268 49.45C78.3478 52.0373 75.755 54.5312 73.0579 57.1857C70.1925 60.1122 69.1396 63.2674 70.7584 64.2668C72.3118 65.2124 74.0438 66.1406 75.7207 67.2696C77.7104 68.5184 81.9564 66.9152 85.1361 63.6723C88.0342 60.7726 90.8683 57.9845 93.768 55.25C94.2922 54.7778 94.7405 54.2979 95.1292 53.8238C97.2202 51.2738 97.4018 48.8804 95.503 48.0888M136.183 5.69396L136.007 5.74122C136.007 5.74122 136.14 5.71323 136.213 5.69106M134.658 9.0908C133.203 9.12789 131.737 9.2111 130.288 9.30775C128.65 9.468 125.742 10.3088 123.59 11.1959C121.616 12.0656 119.676 12.962 117.738 13.8883C115.501 14.9792 114.861 15.7936 116.34 15.6941C117.659 15.6552 119.128 15.6017 120.629 15.5752C122.139 15.638 125.502 14.6775 127.722 13.5732C129.789 12.5892 131.889 11.632 133.83 10.7355C134.84 10.3059 135.479 9.92769 135.72 9.63345C136.015 9.27383 135.677 9.05129 134.671 9.07445M5.31304 167.737C5.81046 165.494 6.30939 163.415 6.88276 161.179C7.55889 158.617 7.81356 155.299 7.46804 153.649C7.18656 152.188 6.93636 150.889 6.71594 149.588C6.52382 148.118 5.86406 148.889 5.2475 151.145C4.69051 153.394 4.20799 155.486 3.74185 157.592C3.30549 159.694 3.03888 162.893 3.21462 164.349C3.40377 165.789 3.60931 167.243 3.84611 168.858C4.0278 169.773 4.30632 170.001 4.6012 169.641C4.82906 169.363 5.09413 168.706 5.29667 167.724M136.196 5.67761C137.43 5.37656 140.045 4.7599 141.795 4.36319C142.133 4.28501 142.265 4.257 142.487 4.22026C140.383 4.68172 138.295 5.15661 136.213 5.69106M0.636707 176.615C0.696275 174.805 0.776673 172.301 0.842199 170.851L0.854117 170.669C0.743915 172.875 0.663506 175.078 0.629257 177.292L0.65308 176.628L0.636707 176.615ZM119.496 29.0526C117.501 28.5109 115.516 28.0586 113.696 27.6051C111.684 27.1855 107.653 28.5271 104.871 30.4832C102.261 32.3622 99.6879 34.2979 97.1606 36.2442C94.2594 38.5126 93.5237 40.7798 95.2722 41.4207C97.1144 41.9471 98.839 42.6505 100.742 43.3363C102.872 44.1805 107.274 42.7876 110.25 40.3615C113.025 38.1806 115.719 36.0977 118.462 34.0552C119.162 33.5357 119.726 33.0143 120.128 32.5239C121.442 30.922 121.286 29.5089 119.509 29.0362M25.1787 147.887C26.6442 144.797 28.1454 141.763 29.7538 138.599C31.5499 135.205 31.9922 130.757 30.7472 128.834C29.6883 127.118 28.7351 125.407 27.7834 123.861C26.8571 122.117 24.7334 123.438 23.122 126.572C21.6505 129.603 20.2864 132.503 18.9996 135.275C17.5818 138.541 17.1142 142.587 17.9065 144.494C18.6794 146.358 19.512 148.216 20.4338 150.065C21.2291 151.701 22.6157 151.581 23.9158 149.995C24.3581 149.456 24.799 148.751 25.1787 147.887ZM153.433 2.99913C151.998 3.07943 150.549 3.17608 149.119 3.31594C147.514 3.50306 144.857 4.00351 143.113 4.45978C141.385 4.92948 139.823 5.39806 138.098 5.89755C136.204 6.50385 135.939 6.86055 137.368 6.7207C138.815 6.59427 140.088 6.54489 141.524 6.46459C143.157 6.41003 146.139 5.84773 148.004 5.24434C149.725 4.71508 151.45 4.2156 153.177 3.74589C153.983 3.53176 154.431 3.35259 154.539 3.22181C154.673 3.05835 154.303 2.97419 153.42 3.01547M2.24816 187.914C2.37177 186.293 2.52366 184.504 2.70535 182.712C2.94513 180.749 2.89895 177.732 2.63236 176.119C2.41343 174.682 2.22429 173.242 2.06494 171.799C1.90558 170.356 1.61216 170.881 1.40069 172.676C1.219 174.468 1.08349 176.27 0.97329 177.875C0.867554 179.674 0.915218 182.557 1.04479 184.002C1.20415 185.445 1.3769 186.872 1.57945 188.295C1.72838 189.183 1.87285 189.575 2.00689 189.411C2.11412 189.28 2.2154 188.789 2.24816 187.914ZM142.297 15.2448C140.293 14.9145 138.28 14.6304 136.448 14.3585C134.424 14.1205 130.722 14.9938 128.235 16.2896C125.923 17.5381 123.485 18.8742 121.239 20.1764C118.714 21.6865 118.075 23.2676 120.005 23.62C121.932 23.9427 123.835 24.3279 125.758 24.7563C128.02 25.2717 132.034 24.3528 134.783 22.6706C137.106 21.2405 139.479 19.8507 141.887 18.5175C142.685 18.0786 143.259 17.6466 143.594 17.2379C144.358 16.3062 143.947 15.5044 142.326 15.2419M162.815 6.42669C160.853 6.2126 158.878 6.01485 157.085 5.82941C155.1 5.67779 151.779 6.15304 149.585 6.92395C147.746 7.63011 145.747 8.39694 143.765 9.17723C141.629 10.0778 141.318 11.0254 143.32 11.1904C145.146 11.4027 146.945 11.6478 148.912 11.9214C151.067 12.2669 154.789 11.7375 157.051 10.7494C159.014 9.92585 160.993 9.11577 163.008 8.36235C163.675 8.11666 164.115 7.84815 164.329 7.58661C164.745 7.07986 164.234 6.63367 162.815 6.42669ZM128.914 46.5346C126.269 45.3499 123.736 44.2295 121.341 43.1407C118.721 42.0588 114.089 43.2636 111.093 45.782C108.266 48.1935 105.502 50.629 102.658 53.1626C99.545 56.0231 98.9686 59.4323 101.447 60.7536C103.687 62.0982 106.175 63.3733 108.579 64.8522C111.348 66.521 116.343 65.3407 119.624 62.2082C122.567 59.4545 125.488 56.793 128.486 54.1392C128.9 53.7679 129.268 53.3861 129.577 53.0102C131.654 50.4764 131.469 47.728 128.884 46.5375M153.556 27.9761C151.016 27.0968 148.599 26.2356 146.161 25.4667C143.688 24.6412 139.404 25.4211 136.591 27.2148C134.097 28.8872 131.519 30.6279 128.976 32.4253C126.217 34.4544 125.849 36.9411 128.337 37.9155C130.761 38.8362 133.16 39.8194 135.525 40.9112C138.354 42.1379 143.068 41.3009 145.929 39.0815C148.619 37.1044 151.228 35.2253 153.767 33.3982C154.274 33.0479 154.671 32.6632 154.979 32.2873C156.347 30.6199 155.854 28.8489 153.542 27.9924M180.257 1.89377C178.464 1.70832 176.674 1.55267 174.887 1.42678C173.086 1.31724 170.215 1.47783 168.635 1.76772C167.041 2.07396 165.451 2.40998 163.879 2.78921C162.132 3.2157 162.18 3.69216 163.984 3.83148C165.787 3.9708 167.564 4.14281 169.344 4.3446C171.295 4.60482 174.464 4.4151 176.224 3.97226C177.809 3.57669 179.399 3.24067 180.811 2.92214C181.461 2.79848 181.809 2.67416 181.93 2.52704C182.117 2.29819 181.522 2.05577 180.274 1.90721M175.511 15.3336C173.171 14.6454 170.957 14.005 168.566 13.4118C166.16 12.8053 162.317 13.1811 160.077 14.2422C158.013 15.2561 155.836 16.3411 153.648 17.4723C151.369 18.7477 151.338 20.3896 153.77 21.0989C156.004 21.7825 158.379 22.5274 160.728 23.3051C163.227 24.2334 167.457 23.8196 169.872 22.4106C172.021 21.193 174.22 20.0157 176.275 18.9125C176.79 18.6516 177.167 18.3591 177.422 18.0486C178.239 17.0514 177.557 15.9454 175.511 15.3336ZM194.66 0.800604C193.035 0.643802 191.609 0.512721 189.99 0.415478C188.371 0.318235 185.836 0.235415 184.587 0.222326C183.324 0.225583 182.245 0.270924 180.972 0.320308C179.536 0.400606 179.717 0.548374 181.517 0.657914C183.123 0.771503 184.761 0.911956 186.356 1.07167C188.136 1.27346 190.822 1.37148 192.106 1.27597C193.363 1.21316 194.458 1.18128 195.718 1.14824C196.108 1.14014 196.286 1.12265 196.343 1.08704C196.397 1.02165 195.846 0.925208 194.674 0.78426M194.102 7.99706C191.88 7.43258 189.829 6.92652 187.765 6.43681C185.505 5.95115 182.365 5.97273 180.448 6.50604C178.875 7.02074 177.17 7.56343 175.454 8.15225C173.582 8.83155 173.789 9.84872 176.038 10.3805C178.257 10.9152 180.297 11.4674 182.493 12.0646C184.849 12.7663 188.529 12.7221 190.259 11.9814C191.985 11.3465 193.579 10.7395 195.162 10.1787C195.613 10.0293 195.913 9.86472 196.074 9.66857C196.529 9.11278 195.77 8.43531 194.128 7.96436M208.974 4.82822C207.062 4.35372 205.321 3.93764 203.398 3.50927C201.462 3.09724 198.793 2.87718 197.532 3.04568C196.254 3.20075 195.009 3.38268 193.737 3.59731C192.303 3.84285 192.63 4.41221 194.705 4.85579C196.614 5.30051 198.523 5.74524 200.406 6.22265C202.463 6.78827 205.419 7.02533 206.712 6.71845C207.997 6.48748 209.272 6.30263 210.381 6.11892C210.722 6.07053 210.941 6.004 211.022 5.90592C211.236 5.64438 210.503 5.23491 208.974 4.82822ZM191.85 31.7929C188.932 30.4394 186.124 29.1204 183.278 27.8802C180.214 26.5711 175.609 26.8411 172.917 28.4878C170.592 30.0534 168.154 31.6902 165.616 33.3818C162.877 35.3186 163.084 38.1401 166.268 39.6028C169.222 41.0129 172.121 42.4884 175.086 44.0176C178.39 45.7694 183.517 45.4633 186.176 43.3238C188.606 41.4622 190.983 39.666 193.399 37.9562C193.722 37.7292 193.996 37.4618 194.21 37.2002C195.658 35.4348 194.724 33.1656 191.85 31.7929ZM220.631 4.84567C219.058 4.45824 217.472 4.08717 215.902 3.72952C214.134 3.34613 212.009 2.99771 211.111 2.8901C210.216 2.81227 209.307 2.75076 208.415 2.70271C207.328 2.6587 207.837 2.93967 209.589 3.30962C211.159 3.66727 212.913 4.06701 214.486 4.45444C216.401 4.95872 218.694 5.33578 219.613 5.35114C220.519 5.38285 221.259 5.41568 222.154 5.49351C222.398 5.52976 222.531 5.50177 222.544 5.48542C222.611 5.40369 221.896 5.1729 220.631 4.84567ZM211.111 20.3312C208.488 19.2195 205.839 18.1405 203.317 17.1392C200.611 16.0959 196.642 15.9579 194.721 16.8976C192.84 17.7882 190.995 18.7355 188.987 19.7138C186.862 20.8689 187.248 22.7707 190.194 23.956C192.787 25.0706 195.491 26.2495 198.153 27.4476C201.225 28.846 205.4 28.9338 207.496 27.6462C209.433 26.5546 211.236 25.4911 212.91 24.4854C213.253 24.3015 213.519 24.1101 213.693 23.8976C214.551 22.8514 213.516 21.3739 211.108 20.3014M226.159 14.108C223.901 13.1861 221.633 12.3104 219.506 11.4961C217.026 10.611 213.92 10.2232 212.441 10.6235C210.975 11.0074 209.668 11.4661 208.195 11.926C206.566 12.4763 207.23 13.7043 209.791 14.6566C212.185 15.5802 214.396 16.4915 216.749 17.4642C219.388 18.5893 222.905 19.0121 224.452 18.3946C225.658 17.8256 227.023 17.3313 228.208 16.8545C228.47 16.7687 228.64 16.6619 228.747 16.5311C229.216 15.959 228.245 14.9714 226.129 14.1109M237.467 11.8441C235.65 11.1197 233.648 10.3532 231.805 9.66153C229.776 8.92775 227.177 8.35502 226.224 8.44826C225.285 8.52515 224.163 8.58974 223.229 8.72619C222.087 8.88304 222.823 9.62299 224.993 10.4181C226.978 11.1711 229.118 11.9692 231.093 12.7683C233.367 13.7036 235.949 14.2629 236.95 14.0447C237.927 13.889 238.91 13.7928 239.708 13.6546C239.887 13.6371 240.003 13.5957 240.043 13.5466C240.271 13.2688 239.257 12.6012 237.5 11.8709M245.643 12.3975C244.139 11.7928 242.45 11.1461 240.936 10.5876C239.236 9.98704 237.184 9.31573 236.475 9.14451C235.94 9.06149 235.218 8.90662 234.515 8.79496C233.785 8.71599 234.581 9.1494 236.451 9.8084C238.137 10.4253 239.813 11.0884 241.488 11.7514C243.308 12.5056 245.374 13.1606 246.103 13.2395C246.665 13.2899 247.213 13.3565 247.764 13.453C247.903 13.4845 247.978 13.4921 247.992 13.4758C248.045 13.4104 247.131 12.9887 245.657 12.3811M231.007 40.472C228.129 38.7688 225.195 37.1012 222.36 35.5142C219.211 33.8074 215.068 33.5812 213.046 35.012C211.09 36.361 209.157 37.783 207.108 39.2464C204.779 40.9177 205.553 43.849 208.855 45.7362C211.841 47.4739 214.895 49.2951 217.893 51.1519C221.2 53.2341 225.681 53.3822 227.919 51.5544C229.723 49.8895 231.505 48.3168 233.31 46.8171C233.45 46.7132 233.571 46.5661 233.678 46.4353C235.019 44.8007 233.873 42.2213 231.007 40.472ZM245.923 29.9314C243.469 28.5477 241.001 27.1803 238.507 25.8456C235.841 24.4525 232.524 23.9199 231.068 24.6939C229.635 25.4054 228.208 26.1764 226.787 27.007C225.17 27.9772 226.064 29.9947 228.877 31.5087C231.532 32.948 234.147 34.4363 236.733 35.9275C239.564 37.6202 243.211 38.1505 244.57 36.9952C246.001 36.1184 247.139 35.1652 248.394 34.3357C248.507 34.2645 248.617 34.1635 248.698 34.0654C249.489 33.101 248.381 31.345 245.907 29.918M256.502 24.2808C254.527 23.1809 252.381 22.0226 250.379 20.9554C248.048 19.7551 245.5 19.0872 244.446 19.3707C243.576 19.6964 242.696 20.0681 241.644 20.3815C240.575 20.8169 241.506 22.1542 243.932 23.4054C246.187 24.5981 248.273 25.7623 250.488 27.0041C252.991 28.4281 255.675 29.0978 256.676 28.5789C257.471 28.1102 258.272 27.701 259.044 27.2948C259.16 27.2533 259.23 27.2014 259.284 27.136C259.699 26.6293 258.509 25.4075 256.485 24.2673M263.81 22.318C262.091 21.3735 260.343 20.4319 258.611 19.5037C256.865 18.5919 254.85 17.8418 254.251 17.8703C253.653 17.8988 253.041 17.9436 252.431 18.0182C251.641 18.0806 252.6 18.949 254.645 19.9969C256.518 20.9864 258.234 21.9011 260.097 22.9367C262.104 24.0635 264.103 24.8002 264.769 24.6899C265.25 24.5376 265.734 24.4151 266.175 24.3118C266.251 24.3195 266.307 24.2838 266.321 24.2675C266.495 24.055 265.433 23.2116 263.793 22.3045M268.368 22.9395C267.106 22.2511 265.892 21.583 264.724 20.9355C264.041 20.5663 263.33 20.2298 262.647 19.8607C261.667 19.3852 261.019 19.0727 260.703 18.9231C260.374 18.7899 260.031 18.6731 259.675 18.5726C259.306 18.4884 260.249 19.0427 261.836 19.8798C263.266 20.642 264.696 21.4043 266.273 22.2875C267.85 23.1706 269.451 23.9913 269.82 24.0755C270.019 24.1012 270.361 24.2181 270.546 24.2601C270.579 24.287 270.595 24.3004 270.608 24.2841C270.622 24.2678 269.63 23.6732 268.371 22.9693M280.536 48.362C281.372 47.5435 280.056 45.3717 277.519 43.4549C275.213 41.7559 273.042 40.1941 270.696 38.5441C268.193 36.8194 265.359 35.999 264.362 36.7129C263.406 37.3778 262.426 38.1052 261.419 38.8652C260.325 39.7992 261.477 42.0019 264.27 43.9089C266.747 45.6663 269.226 47.4536 271.548 49.166C274.217 51.1903 277.213 51.9798 278.193 50.9517C278.916 50.2044 279.628 49.5033 280.231 48.7677C280.338 48.6369 280.459 48.4898 280.566 48.3591M267.704 53.5865C264.976 51.5681 262.234 49.5659 259.58 47.6905C256.512 45.5849 252.823 44.9384 251.242 46.2659C249.743 47.5251 248.363 48.9081 246.692 50.2443C244.925 51.8304 246.166 55.0619 249.417 57.345C252.287 59.4249 255.255 61.5853 258.069 63.7007C261.308 66.1654 265.259 66.7261 266.776 64.9088C268.123 63.3337 269.418 61.8537 270.687 60.4065L270.728 60.3574C271.987 58.8209 270.619 55.8124 267.704 53.5865ZM283.591 37.8541C281.741 36.5014 279.733 35.074 277.857 33.754C275.822 32.3593 273.687 31.4556 273.085 31.755C272.497 32.0381 271.895 32.3375 271.283 32.683C270.617 33.094 271.876 34.6999 274.136 36.253C276.239 37.7312 278.214 39.1318 280.146 40.5517C282.356 42.1998 284.646 43.1485 285.23 42.6704C285.431 42.4252 285.632 42.1801 285.853 41.9781C286.057 41.7626 286.277 41.5607 286.435 41.3347C286.435 41.3347 286.462 41.302 286.475 41.2857C286.824 40.8607 285.463 39.2798 283.544 37.8436M281.15 30.7406C281.15 30.7406 282.17 31.4677 283.512 32.404C284.837 33.3268 286.166 34.2794 287.481 35.2483C288.602 36.0859 289.56 36.7891 290.012 37.1056C287.114 34.8933 284.149 32.7626 281.166 30.754M255.873 78.7404C257.926 76.4046 256.688 72.3007 253.216 69.6182C250.029 67.2236 246.783 64.8348 243.637 62.5564C240.094 60.0613 235.37 59.7416 233.118 61.8864C231.086 63.9646 228.841 66.0336 226.734 68.2695C224.184 70.7441 225.201 75.05 228.868 77.7285C232.308 80.2487 235.659 82.7776 239.062 85.3766C242.779 88.2607 247.757 88.4053 250.012 85.6888C251.763 83.6531 253.474 81.6664 255.096 79.6885C255.351 79.3779 255.605 79.0673 255.873 78.7404ZM289.484 37.9843C289.618 37.8208 288.41 36.7211 286.833 35.5373C285.242 34.3697 283.769 33.326 282.152 32.1912C280.521 31.0727 278.799 30.0984 278.534 30.1544C278.286 30.2239 277.994 30.3126 277.718 30.4147C277.258 30.4747 278.452 31.5908 280.211 32.787C281.973 34.0129 283.561 35.1507 285.151 36.3182C287.004 37.7006 288.595 38.5675 288.927 38.4297C289.007 38.3316 289.12 38.2604 289.22 38.2056C289.32 38.1507 289.42 38.0958 289.487 38.0141M308.325 53.5974C308.274 53.3918 308.197 53.219 308.119 53.0461C308.028 52.8896 306.904 51.7216 305.605 50.4654C304.424 49.333 303.233 48.2467 302.025 47.147C300.686 45.9398 299.572 45.0264 299.663 45.1829C299.609 45.2482 299.556 45.3136 299.62 45.5028C299.539 45.6009 300.664 46.7689 302.003 47.9761C303.328 49.1996 304.637 50.4097 305.832 51.5258C307.18 52.8223 308.247 53.7252 308.328 53.6272M308.332 58.3328C308.371 57.8178 308.498 57.4295 308.627 57.071C308.623 56.5753 307.413 55.0097 305.896 53.5192C304.335 52.0481 302.908 50.7142 301.452 49.3832C299.851 47.9611 298.324 46.9828 298.096 47.2607C297.999 47.646 297.742 47.9268 297.471 48.224C297.294 48.7074 298.473 50.276 300.306 51.9159C301.861 53.3275 303.419 54.7689 304.934 56.2295C306.648 57.8811 308.024 58.7088 308.292 58.3818L308.319 58.3492M305.856 66.7994C306.241 65.9949 306.466 65.0858 306.782 64.3332C307.124 63.548 305.845 61.4328 303.863 59.5067C302.103 57.8446 300.329 56.1988 298.542 54.5694C296.479 52.7414 294.509 51.8366 293.969 52.4606C293.588 53.1595 293.033 53.7702 292.598 54.5344C291.935 55.2758 293.262 57.5667 295.505 59.5425C297.489 61.3331 299.328 63.0326 301.258 64.8886C303.221 66.7715 305.188 67.6466 305.765 66.9437C305.792 66.911 305.818 66.8783 305.845 66.8456M299.718 80.1649C300.536 78.867 301.193 77.4646 301.924 76.2053C302.695 74.8969 301.365 71.9749 299.02 69.7235C296.778 67.6122 294.625 65.6277 292.474 63.673C289.933 61.4256 287.189 60.5966 286.319 61.8243C285.503 62.9867 284.617 64.201 283.589 65.354C282.529 66.7809 283.817 69.8875 286.538 72.2826C288.901 74.412 291.268 76.5711 293.578 78.7658C295.839 80.9203 298.491 81.7283 299.496 80.5023C299.577 80.4043 299.657 80.3062 299.705 80.1812M288.879 99.8992C290.153 97.7448 291.454 95.723 292.653 93.7263C293.932 91.6316 292.722 87.7957 289.862 85.0683C287.293 82.6884 284.727 80.3383 282.036 77.9403C279.102 75.3706 275.416 74.7538 273.992 76.7575C272.564 78.5661 271.066 80.4267 269.514 82.3527C267.829 84.6074 268.945 88.6932 272.125 91.4644C275.012 94.0236 277.788 96.5186 280.554 99.0596C283.476 101.811 287.035 102.215 288.697 100.188C288.764 100.106 288.832 100.024 288.912 99.926M316.141 61.3729C316.601 61.9143 317.316 62.7465 317.998 63.5518C318.935 64.648 319.962 65.9007 321.006 67.1668C321.006 67.1668 321.124 67.2906 321.154 67.2877C319.539 65.2805 317.855 63.3253 316.141 61.3729ZM325.319 74.5031C325.16 73.9624 325.075 73.5648 324.872 73.0433C324.67 72.5218 323.531 70.9042 322.291 69.3415C321.16 67.9486 319.998 66.5587 318.839 65.1986C317.547 63.7012 316.486 62.7224 316.584 63.1037C316.669 63.5014 316.754 63.899 316.826 64.313C316.854 64.7463 317.98 66.3802 319.39 68.0014C320.667 69.4854 321.933 71.0154 323.182 72.5321C324.333 73.9681 325.2 74.8155 325.334 74.652C325.361 74.6193 325.358 74.5896 325.349 74.5002M326.21 83.4072C326.243 82.5319 326.353 81.8295 326.316 81.0062C326.305 80.1502 325.096 77.9831 323.547 76.0297C322.21 74.3863 320.725 72.6221 319.344 70.998C317.715 69.1426 316.343 68.2093 316.148 68.8147C316.087 69.5575 315.996 70.3031 315.774 70.9412C315.587 71.7715 316.958 74.2084 318.659 76.177C320.138 77.8817 321.694 79.7593 323.221 81.6397C324.525 83.2562 325.759 84.158 326.094 83.7493C326.147 83.6839 326.195 83.559 326.18 83.4101M324.42 96.7834C324.735 95.4294 325.038 94.0917 325.355 92.903C325.611 91.5548 324.393 88.697 322.586 86.4229C320.854 84.2919 319.203 82.3636 317.43 80.2816C315.426 77.9818 313.475 77.1202 313.052 78.3043C312.656 79.4556 312.216 80.6263 311.734 81.8162C311.199 83.2367 312.471 86.3298 314.639 88.764C316.488 90.8535 318.384 93.1188 320.178 95.2738C321.806 97.2646 323.513 98.09 324.183 97.2727C324.29 97.1419 324.365 96.9842 324.433 96.767M318.594 115.516C319.425 113.6 320.18 111.677 320.875 109.76C321.611 107.793 320.458 104.087 318.302 101.472C316.236 99.0123 314.157 96.5694 312.054 94.1891C309.705 91.6072 306.983 90.8511 306.109 92.786C305.214 94.5124 304.262 96.2744 303.309 98.1719C302.201 100.325 303.389 104.389 305.915 107.089C308.215 109.63 310.49 112.234 312.681 114.741C314.705 117.084 317.019 117.67 318.186 116.248C318.346 116.051 318.488 115.812 318.61 115.53M339.715 98.4447C339.581 97.706 339.417 96.9702 339.226 96.2672C338.958 95.3913 337.998 93.4555 336.971 91.7666C336.023 90.2507 335.058 88.7212 334.079 87.2082C332.983 85.5713 332.212 84.7747 332.405 85.5075C332.478 86.0868 332.658 86.8359 332.702 87.4181C332.795 88.2058 333.918 90.4114 335.105 92.2048C336.081 93.6881 337.134 95.3442 338.082 96.8602C338.946 98.2793 339.56 99.0011 339.707 98.8213C339.748 98.7722 339.749 98.6368 339.715 98.4447ZM307.573 140.35C309.015 137.623 310.392 135.007 311.688 132.325C313.064 129.544 312.074 124.905 309.469 121.867C307.101 119.241 304.593 116.42 302.064 113.69C299.237 110.689 295.594 110.353 294.011 113.019C292.522 115.571 290.911 118.104 289.278 120.729C287.394 123.695 288.364 128.727 291.466 131.927C294.199 134.742 296.853 137.52 299.505 140.433C302.021 143.179 305.221 143.452 307.031 141.245C307.245 140.984 307.427 140.695 307.606 140.377M340.933 111.527C340.891 110.208 340.911 109.048 340.887 107.908C340.876 106.751 339.847 104.13 338.656 102.142C337.528 100.342 336.388 98.5596 335.217 96.7797C333.929 94.8759 332.8 94.1143 332.709 95.1606C332.648 96.204 332.554 97.2206 332.511 98.4427C332.365 99.6898 333.422 102.443 334.796 104.444C336.051 106.321 337.263 108.217 338.479 110.143C339.505 111.832 340.397 112.481 340.772 112.023C340.853 111.925 340.911 111.754 340.933 111.527ZM339.03 129.184C339.341 127.334 339.698 125.796 339.965 124.101C340.258 122.373 339.329 119.096 337.89 116.741C336.59 114.718 335.186 112.555 333.755 110.425C332.192 108.187 330.53 107.507 330.139 109.154C329.79 110.782 329.321 112.257 328.87 113.909C328.392 115.896 329.323 119.338 331.041 121.786C332.554 123.984 334.054 126.197 335.497 128.447C336.687 130.27 337.963 130.852 338.634 130.035C338.794 129.838 338.917 129.556 339.016 129.2M351.078 125.449C350.955 124.364 350.771 123.284 350.605 122.218C350.36 120.979 349.55 118.592 348.767 116.774C348.031 115.132 347.282 113.507 346.503 111.884C345.633 110.105 345.006 109.399 345.176 110.495C345.359 111.575 345.438 112.514 345.578 113.613C345.723 114.907 346.561 117.426 347.505 119.349C348.345 121.131 349.169 122.9 349.905 124.542C350.45 125.781 350.892 126.445 351.053 126.249C351.12 126.167 351.139 125.909 351.065 125.466M332.809 151.94C333.639 149.558 334.437 147.315 335.173 145.048C335.934 142.583 335.193 138.641 333.484 135.981C331.896 133.641 330.282 131.333 328.582 128.928C326.606 126.159 324.292 125.874 323.409 128.321C322.49 130.411 321.569 132.636 320.601 134.986C319.498 137.635 320.244 141.937 322.339 144.694C324.174 147.101 325.972 149.586 327.684 151.975C329.184 154.189 330.979 154.539 332.118 153.15C332.373 152.839 332.602 152.426 332.793 151.926M351.698 142.168C351.775 140.537 351.854 139.071 351.872 137.445C351.887 135.79 351.188 132.866 350.269 130.746C349.459 128.961 348.545 127.035 347.63 125.11C346.598 123.061 345.636 122.463 345.608 124.135C345.532 125.631 345.426 127.13 345.261 128.635C345.054 130.324 345.854 133.659 346.96 135.851C347.915 137.727 348.874 139.798 349.775 141.74C350.433 143.209 351.042 143.736 351.404 143.295C351.552 143.115 351.665 142.743 351.701 142.198M321.234 179.955C322.712 176.984 324.121 173.929 325.494 171.119C326.92 167.942 326.424 163.134 324.411 160.444C322.493 157.805 320.524 155.261 318.486 152.634C316.12 149.573 312.905 149.752 311.29 152.857C309.758 155.728 308.142 158.668 306.486 161.656C304.603 165.088 305.125 170.3 307.649 173.135C309.89 175.848 312.041 178.404 314.139 180.89C316.056 183.364 318.719 183.223 320.488 181.066C320.756 180.739 321.005 180.369 321.231 179.925M348.865 163.164C349.348 161.072 349.754 158.972 350.144 156.859C350.548 154.73 349.994 150.995 348.971 148.735C347.982 146.666 346.966 144.631 345.873 142.422C344.649 140.106 343.201 139.767 342.744 141.962C342.297 144.11 341.773 146.086 341.234 148.214C340.592 150.667 341.173 154.67 342.515 157.11C343.678 159.266 344.783 161.293 345.86 163.488C346.652 165.095 347.593 165.484 348.263 164.666C348.518 164.356 348.739 163.853 348.895 163.161M187.608 359.093C185.986 358.966 184.391 358.806 182.779 358.633C180.818 358.419 178.157 358.424 176.722 358.669C175.282 358.855 174.021 359.024 172.773 359.176C171.327 359.302 171.671 359.584 173.649 359.812C175.26 359.985 176.868 360.128 178.309 360.243C180.109 360.353 182.619 360.333 184.065 360.206C185.329 360.068 186.756 359.898 188.001 359.716C188.653 359.622 189.005 359.528 189.085 359.43C189.206 359.282 188.698 359.167 187.637 359.09M358.203 152.478C358.103 151.029 358.008 149.775 357.878 148.33C357.719 146.887 357.247 144.422 356.834 142.854C356.392 141.288 355.936 139.739 355.464 138.176C354.918 136.471 354.574 136.188 354.669 137.442C354.781 138.709 354.894 140.142 354.946 141.414C354.986 142.869 355.521 145.658 356.097 147.361C356.614 149.07 357.086 150.632 357.512 152.184C357.773 153.136 357.996 153.565 358.117 153.418C358.197 153.32 358.24 153 358.2 152.448M193.066 360.288C191.644 360.352 189.16 360.475 187.71 360.571C189.688 360.498 191.663 360.395 193.635 360.263L193.053 360.304L193.066 360.288ZM194.022 360.225C194.201 360.207 194.366 360.206 194.575 360.186C194.396 360.203 194.201 360.207 194.022 360.225ZM194.575 360.186C194.575 360.186 194.724 360.171 194.783 360.165C194.694 360.174 194.634 360.18 194.575 360.186ZM358.974 152.071C359.177 153.495 359.509 155.763 359.743 157.349C359.856 158.18 359.874 158.358 359.935 158.819C359.649 156.561 359.32 154.323 358.961 152.088M341.538 188.539C342.546 185.839 343.475 183.102 344.373 180.503C345.297 177.707 345.036 173.447 343.819 171.055C342.637 168.855 341.41 166.51 340.113 164.216C338.623 161.655 336.526 161.74 335.482 164.684C334.462 167.264 333.394 169.97 332.276 172.771C330.959 175.846 331.259 180.493 332.9 183.069C334.336 185.394 335.7 187.607 336.993 189.705C338.02 191.559 339.457 191.644 340.597 190.255C340.959 189.814 341.292 189.24 341.551 188.523M206.712 354.037C204.922 353.881 203.126 353.666 201.343 353.434C199.39 353.144 196.097 353.451 194.238 354.114C192.354 354.674 190.814 355.216 189.09 355.715C187.17 356.219 187.547 356.829 189.514 357.102C191.294 357.304 193.087 357.489 194.874 357.615C196.678 357.755 199.686 357.46 201.592 356.973C203.141 356.521 204.879 356.005 206.584 355.462C207.4 355.202 207.902 354.958 208.09 354.729C208.371 354.386 207.925 354.129 206.742 354.034M357.64 171.507C357.838 169.729 357.99 167.94 358.126 166.137C358.261 164.335 357.96 161.327 357.439 159.424C356.949 157.682 356.432 155.974 355.886 154.268C355.248 152.406 354.608 152.318 354.443 154.124C354.291 155.913 354.109 157.705 353.881 159.486C353.595 161.438 353.939 164.728 354.624 166.766C355.201 168.468 355.734 170.19 356.254 171.929C356.569 172.98 356.919 173.322 357.201 172.979C357.375 172.766 357.536 172.269 357.624 171.494M328.943 217.331C330.592 214.118 332.173 210.986 333.677 207.982C335.296 204.471 335.381 199.756 333.883 197.407C332.45 195.111 330.959 192.686 329.385 190.329C327.561 187.576 324.578 188.274 322.804 191.74C321.115 195.002 319.34 198.303 317.516 201.564C315.432 205.241 315.377 210.554 317.429 213.029C319.179 215.339 320.861 217.565 322.484 219.662C323.848 221.573 326.051 221.192 327.847 219.002C328.236 218.528 328.602 217.981 328.93 217.347M214.764 356.948C213.317 357.074 211.882 357.154 210.446 357.235C208.812 357.289 205.995 357.685 204.248 358.112C202.481 358.495 200.904 358.815 199.489 359.103C197.701 359.414 197.735 359.606 199.531 359.52C200.967 359.44 202.416 359.343 203.846 359.204C205.467 359.03 207.957 358.666 209.733 358.372C211.15 358.113 212.741 357.777 214.315 357.428C215.227 357.218 215.751 357.047 215.818 356.965C215.885 356.883 215.568 356.869 214.78 356.961M361.085 178.733C361.119 177.121 361.121 175.482 361.109 173.859C361.067 172.24 360.931 169.532 360.771 167.923C360.611 166.481 360.438 165.054 360.236 163.631C359.986 162.031 359.791 162.035 359.819 163.671C359.831 165.294 359.813 166.92 359.779 168.532C359.703 170.328 359.87 173.199 360.12 174.798C360.34 176.4 360.529 177.84 360.689 179.283C360.76 179.998 360.836 180.306 360.903 180.225C360.97 180.143 361.025 179.641 361.055 178.736M228.827 344.341C226.982 344.085 225.147 343.783 223.13 343.469C221.115 343.02 217.335 343.721 214.845 344.987C212.83 346.041 210.62 347.099 208.553 348.083C206.31 349.114 206.301 350.228 208.44 350.56C210.407 350.833 212.206 351.078 214.195 351.26C216.183 351.441 219.446 350.836 221.724 349.862C223.811 348.921 225.894 347.95 227.959 346.936C228.833 346.505 229.406 346.073 229.728 345.681C230.277 345.011 229.986 344.498 228.794 344.314M353.457 194.184C354.045 191.796 354.605 189.576 355.104 187.498C355.613 185.072 355.579 181.572 355.011 179.658C354.462 177.923 353.851 176.028 353.198 174.152C352.453 172.12 351.346 172.334 350.791 174.748C350.231 176.968 349.626 179.343 348.989 181.691C348.231 184.186 348.301 188.043 349.108 190.099C349.823 191.833 350.478 193.573 351.077 195.349C351.477 196.498 352.081 196.664 352.644 195.978C352.938 195.618 353.236 194.988 353.47 194.168M311.015 247.983C313.334 244.553 315.617 241.067 317.834 237.528C320.14 233.814 320.615 228.791 318.773 226.46C317.029 224.21 315.168 222.001 313.22 219.666C311.019 216.904 307.034 217.956 304.423 222.075C301.993 225.741 299.492 229.459 296.953 233.09C294.055 237.193 293.791 242.526 296.274 244.944C298.442 247.078 300.536 249.068 302.474 251.149C304.407 253.035 307.817 251.949 310.377 248.827C310.592 248.565 310.806 248.304 311.002 247.999M234.768 350.059C233.478 350.095 231.85 350.209 230.379 350.233C228.723 350.215 225.461 350.985 223.325 351.885C221.343 352.666 219.328 353.419 217.486 354.095C215.452 354.806 215.191 355.357 217.02 355.299C218.475 355.262 220.086 355.134 221.535 355.037C223.144 354.88 226.127 354.182 228.178 353.486C230.036 352.823 231.892 352.13 233.728 351.394C234.797 350.959 235.483 350.591 235.684 350.346C235.885 350.1 235.618 349.991 234.798 350.056M358.939 198.925C359.313 196.799 359.615 194.86 359.914 192.891C360.196 190.743 360.3 187.876 360.139 186.268C359.962 184.647 359.759 183.223 359.523 181.608C359.225 179.832 358.732 180.166 358.434 182.3C358.12 184.421 357.788 186.363 357.411 188.46C356.963 190.744 356.86 194.077 357.161 195.882C357.426 197.329 357.645 198.766 357.837 200.236C357.925 200.964 358.094 201.158 358.295 200.913C358.497 200.668 358.729 199.983 358.939 198.925ZM344.855 219.744C345.955 217.065 346.978 214.514 348.013 211.782C349.032 209.036 349.346 205.111 348.639 203.301C347.948 201.504 347.228 199.575 346.435 197.803C345.517 195.547 343.824 196.209 342.664 199.194C341.545 201.995 340.394 204.769 339.165 207.671C337.797 210.676 337.494 215.021 338.571 216.915C339.465 218.632 340.312 220.339 341.087 222.067C341.645 223.29 342.636 223.118 343.614 221.925C344.043 221.402 344.494 220.651 344.884 219.741M277.872 309.051C276.291 308.274 274.544 307.497 272.745 306.651C270.689 305.649 266.458 307.1 263.496 309.811C260.692 312.295 257.965 314.652 255.205 316.982C252.133 319.493 251.542 322.152 253.854 322.873C255.814 323.523 257.606 324.144 259.535 324.632C261.353 325.221 265.297 323.753 268.181 321.471C270.767 319.354 273.29 317.213 275.92 314.941C276.471 314.436 276.949 313.953 277.351 313.462C279 311.452 279.284 309.635 277.872 309.051ZM331.427 247.279C333.079 244.396 334.759 241.345 336.315 238.411C338.004 235.149 338.613 231.165 337.721 229.313C336.82 227.672 335.904 225.882 334.896 224.071C333.691 222.099 331.213 223.183 329.384 226.55C327.626 229.729 325.789 233.006 323.976 236.085C321.838 239.662 321.243 244.095 322.612 245.901C323.795 247.499 324.943 248.906 325.97 250.459C326.819 251.729 328.583 251.015 330.245 248.989C330.66 248.482 331.053 247.902 331.441 247.263M256.662 338.761C255.307 338.743 253.932 338.682 252.538 338.578C250.8 338.492 247.349 339.627 244.777 341.126C242.502 342.432 240.207 343.694 237.862 344.915C235.518 346.137 234.948 347.2 236.799 347.214C238.29 347.234 239.775 347.194 241.432 347.077C242.914 347.007 246.116 345.942 248.506 344.731C250.548 343.644 252.73 342.453 254.909 341.233C256.047 340.58 256.844 339.976 257.205 339.535C257.634 339.012 257.482 338.696 256.659 338.731M353.098 221.719C353.884 219.357 354.608 216.97 355.302 214.587C356.021 212.006 356.41 208.825 356.216 207.19C355.994 205.724 355.729 204.276 355.443 202.62C355.067 200.808 354.149 201.559 353.369 204.281C352.642 206.638 351.854 209.136 351.02 211.623C350.037 214.426 349.601 218.032 350.025 219.719C350.401 221.066 350.685 222.556 350.955 223.898C351.102 224.621 351.452 224.662 351.881 224.138C352.243 223.697 352.656 222.86 353.065 221.692M301.744 284.148C300.252 283.061 298.788 281.806 297.148 280.598C295.276 279.172 291.228 280.801 288.285 284.156C285.497 287.256 282.663 290.344 279.767 293.409C276.617 296.649 275.82 300.261 278.047 301.321C279.86 302.316 281.606 303.228 283.313 304.053C285.069 304.919 288.796 303.246 291.648 300.336C294.234 297.617 296.897 294.771 299.4 291.985C299.521 291.838 299.641 291.691 299.762 291.544C302.255 288.503 303.11 285.322 301.728 284.134M313.501 274.788C315.742 271.788 317.921 268.763 320.08 265.695C322.466 262.184 323.363 258.217 322.183 256.648C321.039 255.136 319.817 253.587 318.485 252.003C316.948 250.169 313.563 251.658 310.987 255.368C308.64 258.665 306.166 262.049 303.659 265.407C300.836 269.051 300.031 273.339 301.89 274.781C303.396 276.153 304.82 277.457 306.272 278.593C307.613 279.83 310.646 278.27 313.152 275.213C313.273 275.066 313.393 274.919 313.514 274.772M257.08 343.396C256.185 343.619 255.128 343.873 254.054 344.113C252.802 344.371 249.947 345.447 247.869 346.477C245.915 347.39 243.958 348.273 242.158 349.066C239.992 349.969 239.408 350.447 240.82 350.129C241.878 349.875 243.094 349.561 244.146 349.247C245.34 348.86 247.876 347.905 249.853 347.065C251.683 346.27 253.481 345.447 255.262 344.611C256.595 343.955 257.393 343.516 257.527 343.352C257.608 343.254 257.459 343.269 257.077 343.366M356.48 221.403C356.964 219.476 357.418 217.553 357.826 215.618C358.246 213.502 358.744 210.657 358.861 209.578C358.991 208.317 359.033 207.231 359.103 205.976C359.11 204.697 358.772 205.377 358.322 207.496C357.856 209.601 357.374 211.693 356.873 213.606C356.245 216.044 355.774 218.856 355.767 220.135C355.741 221.235 355.7 222.322 355.598 223.414C355.561 223.794 355.589 223.926 355.67 223.828C355.804 223.665 356.105 222.763 356.464 221.39M279.508 322.694C278.173 322.584 276.956 322.297 275.55 322.073C274.084 321.691 270.463 323.233 267.659 325.416C265.228 327.278 262.609 329.203 260.126 330.995C257.298 332.94 256.592 334.603 258.252 334.817C259.838 334.887 261.262 334.988 262.65 335.033C264.068 335.075 267.453 333.586 269.915 331.886C272.36 330.174 274.63 328.508 277.007 326.712C277.997 325.939 278.782 325.215 279.292 324.594C280.136 323.564 280.286 322.813 279.521 322.677M343.152 246.177C344.448 243.494 345.695 240.771 346.853 238.222C348.095 235.304 348.834 231.864 348.573 230.311C348.258 228.958 347.879 227.582 347.455 226.195C346.965 224.454 345.444 225.64 344.074 228.781C342.79 231.583 341.474 234.358 340.05 237.264C338.428 240.445 337.7 244.14 338.288 245.661C338.841 246.825 339.286 248.119 339.73 249.248C340.013 249.973 340.75 249.675 341.608 248.629C342.104 248.024 342.636 247.175 343.149 246.147M277.664 331.023C276.736 331.219 275.792 331.402 274.828 331.541C273.826 331.594 270.961 333.017 268.593 334.602C266.362 336.053 264.254 337.387 262.128 338.677C259.828 340.045 258.918 341.021 260.203 340.79C261.294 340.563 262.367 340.323 263.279 340.113C264.33 339.8 267.069 338.465 269.242 337.185C271.226 335.968 273.206 334.722 275.154 333.449C276.536 332.532 277.51 331.745 277.846 331.336C278.06 331.075 278.018 330.958 277.65 331.04M349.355 243.09C350.222 240.93 351.114 238.572 351.918 236.389C352.748 234.007 353.493 231.228 353.594 230.135C353.665 229.046 353.704 227.929 353.713 226.816C353.688 225.51 352.909 226.594 352.018 229.117C351.111 231.626 350.2 233.941 349.288 236.255C348.198 238.888 347.378 241.96 347.451 243.141C347.503 244.113 347.583 244.917 347.556 245.852C347.549 246.228 347.658 246.263 347.885 245.985C348.207 245.593 348.751 244.562 349.355 243.09ZM301.513 302.438C300.53 301.933 299.372 301.475 298.288 300.859C296.943 300.194 293.552 301.924 290.767 304.753C288.166 307.322 285.517 309.852 282.832 312.325C279.977 314.905 278.904 317.415 280.467 317.849C281.782 318.216 283.061 318.527 284.318 318.765C285.591 319.016 288.828 317.241 291.422 314.913C293.86 312.674 296.249 310.396 298.591 308.107C299.083 307.608 299.544 307.112 299.947 306.621C301.595 304.61 302.322 302.855 301.513 302.438ZM329.094 271.008C330.893 268.246 332.659 265.457 334.376 262.627C336.226 259.47 337.332 255.948 336.853 254.762C336.299 253.734 335.743 252.54 335.2 251.165C334.468 249.718 332.217 251.261 330.172 254.724C328.334 257.701 326.373 260.794 324.362 263.848C322.134 267.133 321.011 270.941 322.018 271.986C322.743 273.072 323.51 273.975 324.198 274.839C324.766 275.551 326.323 274.587 327.972 272.576C328.347 272.118 328.747 271.598 329.126 271.035M318.394 286.127C320.709 283.105 322.08 279.828 321.34 278.893C320.616 277.971 319.736 277.14 318.868 276.128C317.806 274.984 314.822 276.719 312.122 280.246C309.664 283.343 307.171 286.383 304.616 289.4C301.81 292.621 300.569 296.005 301.899 296.822C303.062 297.476 304.173 298.058 305.095 298.705C306.157 299.248 309.101 297.261 311.612 294.399C312.781 293.006 313.924 291.647 315.05 290.274C316.175 288.901 317.301 287.527 318.421 286.095M297.826 314.888C297.118 314.882 296.395 314.862 295.759 314.669C294.791 314.613 292.055 316.279 289.568 318.477C287.295 320.413 284.99 322.323 282.805 324.085C280.307 326.028 279.073 327.668 280.248 327.538C281.088 327.516 282.065 327.36 282.869 327.281C283.81 327.069 286.403 325.477 288.661 323.693C290.749 322.015 292.817 320.294 294.993 318.442C296.015 317.531 296.864 316.696 297.4 316.042C297.99 315.323 298.186 314.882 297.809 314.874M338.601 265.326C339.916 262.988 341.198 260.622 342.435 258.246C343.817 255.524 344.87 252.67 344.819 251.863C344.826 250.885 344.716 250.084 344.645 249.068C344.467 248.048 343.19 249.406 341.76 252.252C340.372 254.914 338.948 257.519 337.495 260.127C335.917 262.853 334.729 266.006 335.048 266.787C335.271 267.517 335.448 268.236 335.667 268.771C335.733 269.125 336.129 268.876 336.719 268.157C337.241 267.519 337.91 266.537 338.615 265.31M293.812 321.219C293.359 321.504 292.861 321.778 292.372 322.007C291.694 322.298 289.332 323.943 287.042 325.7C285.028 327.221 282.995 328.697 280.943 330.131C278.565 331.762 277.437 332.669 278.255 332.273C278.787 331.981 279.315 331.694 279.838 331.412C284.596 328.315 289.209 324.962 293.692 321.366C293.759 321.285 293.826 321.203 293.852 321.17C293.866 321.154 293.852 321.17 293.796 321.206M341.227 263.461C343.875 258.36 346.259 253.181 348.363 247.908C348.546 247.329 348.724 246.755 348.898 246.187C349.068 245.478 348.383 246.748 347.324 249.242C346.29 251.539 345.24 253.821 344.086 256.265C342.795 258.842 341.659 261.464 341.58 262.028C341.438 262.568 341.28 263.095 341.09 263.595C341.053 263.673 341.042 263.719 341.056 263.703C341.069 263.687 341.136 263.605 341.197 263.464M316.667 295.318C316.15 295.113 315.705 294.72 315.213 294.317C314.5 293.951 312.063 295.753 309.646 298.5C307.424 300.943 305.28 303.258 302.992 305.647C300.411 308.26 299.111 310.447 299.988 310.647C300.794 310.733 301.427 310.897 302.011 311.02C302.732 311.01 305.149 309.164 307.415 306.868C309.405 304.809 311.469 302.592 313.501 300.349C313.769 300.022 314.023 299.711 314.278 299.4C315.954 297.357 317.011 295.6 316.651 295.304M324.465 286.977C326.267 284.545 327.929 282.218 329.665 279.732C331.46 277.076 332.809 274.328 332.574 273.78C332.427 273.057 332.142 272.469 331.886 271.712C331.444 271.048 329.537 272.738 327.571 275.637C325.677 278.348 323.737 281.049 321.777 283.707C319.663 286.484 318.253 289.374 318.856 289.841C319.348 290.244 319.712 290.735 320.122 291.071C320.466 291.353 322.012 289.969 323.687 287.925C323.929 287.631 324.183 287.32 324.451 286.993M311.165 305.268C310.96 305.318 310.598 305.459 310.327 305.455C310.02 305.395 307.831 307.263 305.548 309.546C303.493 311.552 301.418 313.514 299.434 315.332C297.017 317.478 295.675 318.947 296.229 318.773C296.748 318.541 297.233 318.283 297.562 318.116C297.856 317.892 298.413 317.446 299.23 316.75C302.178 314.191 305.053 311.519 307.861 308.764C309.486 307.116 310.753 305.805 311.088 305.396C311.168 305.298 311.195 305.265 311.165 305.268ZM331.548 279.909C333.716 276.63 335.773 273.286 337.691 269.911C338.214 268.973 338.632 268.195 338.691 268.024C338.895 267.508 339.052 266.981 339.164 266.444C339.227 265.867 337.958 267.615 336.418 270.261C334.933 272.707 333.402 275.142 331.838 277.55C330.151 280.076 328.732 282.575 328.747 283.025C328.803 283.29 328.827 283.528 328.818 283.74C328.781 283.818 328.824 283.799 328.918 283.685C329.239 283.292 330.278 281.793 331.551 279.939M321.666 293.43C322.203 292.777 322.752 292.106 323.256 291.426C325.08 289.067 326.493 287.109 326.535 286.925C326.544 286.714 326.504 286.462 326.447 286.197C326.325 285.878 324.569 287.719 322.506 290.401C320.609 292.782 318.572 295.267 316.609 297.594C314.369 300.158 312.905 302.211 313.258 302.282C313.545 302.299 313.784 302.276 313.882 302.356C314.055 302.279 315.805 300.379 317.747 298.144C318.283 297.49 318.849 296.833 319.385 296.18C319.76 295.722 320.149 295.248 320.524 294.79C320.899 294.332 321.288 293.858 321.663 293.401" fill="#EDEDED"/>
</svg>
