<svg width="270" height="272" viewBox="0 0 270 272" fill="none" xmlns="http://www.w3.org/2000/svg">
<path opacity="0.5" d="M54.3455 243.862C54.4859 244.127 54.6343 244.378 54.8065 244.587C54.8926 244.692 55.8522 245.411 57.0237 246.271C58.4759 247.312 59.9521 248.311 61.4499 249.305C61.7719 249.509 62.0584 249.711 62.5454 250.011C63.0244 250.324 63.5251 250.631 64.0258 250.939C65.4318 251.806 66.4904 252.417 66.5142 252.375C66.554 252.307 66.6176 252.196 66.5792 252.009C66.6827 251.83 65.056 250.615 63.1081 249.417C61.1841 248.177 59.3997 246.982 57.6233 245.773C56.6891 245.105 55.8331 244.555 55.2282 244.206C54.6233 243.857 54.2832 243.716 54.3375 243.876M79.8558 258.572C77.9124 257.652 75.9928 256.691 74.0674 255.707C71.9379 254.57 70.0726 253.769 69.9692 253.948C69.8976 254.072 69.834 254.182 69.6842 254.187C69.6603 254.229 70.7052 254.832 72.1451 255.608C72.648 255.88 73.1371 256.144 73.6479 256.402C74.1588 256.66 74.4692 256.821 74.7933 256.99C76.4358 257.828 78.1022 258.625 79.7707 259.386C81.1288 259.986 82.1273 260.416 82.387 260.474C82.6547 260.518 82.8283 260.472 83.1279 260.461C83.2935 260.428 83.0012 260.204 82.41 259.863C81.8189 259.521 80.9289 259.063 79.8421 258.564M73.6315 251.414C71.3392 250.146 69.0708 248.836 66.84 247.493C64.3994 245.974 62.2107 245.225 62.0929 245.873C61.9209 246.362 61.7944 246.803 61.67 247.209C61.6694 247.686 63.3207 249.08 65.5964 250.504C67.5464 251.667 69.6361 252.874 71.6317 253.989C73.9949 255.261 76.036 255.981 76.3311 255.692C76.7521 255.439 77.0711 255.109 77.4081 254.715C77.8652 254.336 76.4636 253.049 74.2914 251.795C74.0852 251.676 73.8652 251.549 73.6452 251.422M41.1329 232.743C41.3753 233.085 41.7277 233.491 42.002 233.778C42.002 233.778 42.0961 233.869 42.0881 233.882C44.9458 236.616 47.938 239.244 51.0727 241.752C51.5966 242.146 51.9027 242.378 51.7145 242.196C51.5423 241.986 51.386 241.749 51.2455 241.484C51.1427 241.186 49.5529 239.717 47.8777 238.364C46.3342 237.069 44.9087 235.823 43.397 234.473C42.3051 233.475 41.5127 232.815 41.2102 232.641C41.0728 232.561 41.0431 232.581 41.1408 232.729M96.739 265.27C94.9533 264.68 93.036 264.032 91.2684 263.379C89.1332 262.569 87.184 261.976 86.7564 261.986C86.4569 261.997 86.1733 261.98 85.9056 261.936C85.7718 261.914 86.0294 262.008 86.7428 262.328C90.427 263.757 94.1576 265.01 97.9047 266.108C97.9939 266.123 98.0386 266.13 98.0386 266.13C98.5718 266.254 98.9733 266.321 99.5167 266.396C99.6802 266.398 99.6823 266.363 99.5586 266.291C99.2562 266.117 98.1983 265.727 96.7527 265.278M46.1396 234.072C46.2562 234.727 46.4025 235.363 46.4707 235.88C46.6546 236.482 48.2553 238.123 50.1266 239.644C51.8177 240.969 53.6267 242.345 55.3634 243.623C57.3279 245.014 59.0334 245.87 59.026 245.407C59.0187 244.943 59.1509 244.524 59.2188 243.993C59.3265 243.394 57.6693 241.629 55.4319 240.043C53.5245 238.648 51.6409 237.212 49.6713 235.67C48.9317 235.078 48.2704 234.604 47.7067 234.279C46.7168 233.707 46.0968 233.607 46.1396 234.072ZM92.5728 260.421C90.371 259.536 88.0672 258.573 85.9053 257.619C83.3916 256.48 81.0562 255.921 80.5911 256.314C80.2699 256.68 79.8547 256.955 79.4634 257.188C79.19 257.471 80.6524 258.462 82.8397 259.468C84.9329 260.382 86.9104 261.212 88.9037 262.014C91.1568 262.874 93.5039 263.476 93.9915 263.298C94.6129 263.142 95.0968 262.907 95.7226 262.681C96.1335 262.477 95.7499 261.998 94.7601 261.427C94.2101 261.109 93.4634 260.752 92.5728 260.421ZM32.525 221.142C32.7241 221.844 33.047 222.619 33.3054 223.282C33.6579 224.037 35.0923 225.839 36.5852 227.38C37.9196 228.72 39.3561 230.137 40.7144 231.436C42.3845 232.988 43.5488 233.734 43.3569 233.145C43.1788 232.565 43.0245 231.943 42.892 231.315C42.7326 230.544 41.2476 228.639 39.5029 227.026C37.8761 225.462 36.3652 223.983 34.9504 222.56C34.1276 221.699 33.451 221.125 33.0248 220.879C32.5987 220.633 32.3954 220.699 32.5192 221.12M111.407 266.629C109.347 266.101 107.297 265.524 105.269 264.941C103 264.237 100.482 263.867 99.7339 264.115C99.1161 264.328 98.5221 264.499 98.0425 264.663C97.4508 264.799 98.6649 265.426 100.718 266.061C102.648 266.624 104.468 267.123 106.429 267.631C108.519 268.139 110.796 268.481 111.492 268.387C112.33 268.301 113.036 268.157 113.736 267.992C114.233 267.893 114.189 267.684 113.763 267.438C113.337 267.192 112.501 266.893 111.407 266.629ZM54.9326 233.638C54.6854 234.542 54.5561 235.496 54.3841 236.334C54.2042 237.185 55.9251 239.189 58.1625 240.775C60.1979 242.17 62.3731 243.61 64.4404 244.95C66.7573 246.398 69.0783 247.077 69.3957 246.305C69.7935 245.616 70.1405 244.825 70.6157 244.033C71.1703 243.104 69.4363 240.964 66.7895 239.326C64.4885 237.85 62.1151 236.278 59.8539 234.734C59.4986 234.492 59.157 234.258 58.8133 234.06C56.8061 232.901 55.1682 232.69 54.9463 233.646M88.3063 251.142C85.8382 249.956 83.3861 248.743 80.8616 247.432C78.243 246.03 75.5089 245.591 74.8717 246.472C74.432 247.265 74.0162 248.017 73.5143 248.665C73.1086 249.367 74.7607 250.982 77.1651 252.279C79.4834 253.47 81.6939 254.563 83.9203 255.628C86.4122 256.772 89.0081 257.261 89.7734 256.729C90.3991 256.153 91.0486 255.536 91.8204 254.898C92.5155 254.234 91.4451 252.881 89.4379 251.722C89.0805 251.516 88.7151 251.323 88.3063 251.142ZM26.3416 215.881C25.8842 215.213 25.2625 214.322 24.6329 213.444C24.5547 213.325 24.5547 213.325 24.4607 213.234C25.0823 214.126 25.6903 215.009 26.3416 215.881ZM124.343 270.956C123.402 270.872 122.327 270.766 121.377 270.695C122.452 270.802 123.528 270.908 124.611 271C124.527 270.977 124.438 270.962 124.343 270.956ZM38.1142 219.684C38.1086 220.709 38.1407 221.702 38.2162 222.682C38.2837 223.676 39.8187 225.812 41.6575 227.516C43.332 228.998 45.1165 230.542 46.8148 231.982C48.7469 233.557 50.4378 234.184 50.5193 233.312C50.6949 232.532 50.7924 231.633 50.9412 230.709C51.087 229.599 49.4782 227.274 47.3145 225.529C45.3709 223.91 43.5452 222.342 41.7274 220.76C41.1275 220.211 40.5486 219.785 40.0537 219.499C38.9126 218.841 38.1284 218.865 38.1062 219.698M109.586 259.846C107.299 259.076 104.902 258.244 102.528 257.37C99.949 256.376 97.1093 256.151 96.3469 256.869C95.6207 257.46 94.9046 258.001 94.1849 258.486C93.4709 258.992 94.8596 260.143 97.1894 261.029C99.4034 261.83 101.515 262.553 103.635 263.263C106.023 264.016 108.648 264.264 109.543 263.826C110.429 263.401 111.305 262.933 112.19 262.415C112.914 261.988 112.586 261.284 111.445 260.625C110.964 260.348 110.333 260.075 109.586 259.846ZM21.7043 207.785C22.0778 208.662 22.3949 209.414 22.8198 210.266C23.1803 211.007 24.4367 212.926 25.4752 214.334C26.4493 215.631 27.5392 217.014 28.6154 218.388C29.8073 219.848 30.5447 220.476 30.1842 219.735C29.9178 219.085 29.587 218.325 29.372 217.649C29.044 216.725 27.7152 214.709 26.4429 213.166C25.2727 211.7 24.1966 210.326 23.1501 208.932C22.4872 208.016 22.0074 207.482 21.7737 207.347C21.5949 207.244 21.5508 207.384 21.7043 207.785ZM129.126 270.007C127.261 269.775 125.525 269.544 123.67 269.264C121.684 268.925 119.28 268.804 118.457 268.991C117.631 269.12 116.933 269.25 116.111 269.308C115.423 269.388 116.322 269.705 118.195 270.015C119.796 270.26 121.546 270.499 123.156 270.694C125.037 270.897 127.193 271.004 128.149 270.968C128.957 270.901 129.781 270.808 130.735 270.679C131.159 270.611 131.259 270.503 131.08 270.4C130.846 270.265 130.193 270.127 129.161 270.009M24.565 205.211C24.7382 206.34 24.9331 207.463 25.1149 208.45C25.3532 209.561 26.63 211.731 27.9963 213.365C29.22 214.769 30.5458 216.251 31.8795 217.719C33.337 219.259 34.512 219.827 34.4206 218.874C34.2489 217.838 34.193 216.887 34.1667 215.917C34.0709 214.686 32.7203 212.326 31.108 210.642C29.6273 209.016 28.227 207.472 26.9288 206.006C26.3513 205.324 25.8179 204.851 25.4055 204.613C24.8006 204.263 24.449 204.428 24.5512 205.203M129.748 265.277C127.709 264.872 125.665 264.444 123.644 263.976C121.379 263.422 118.54 263.417 117.546 263.964C116.573 264.412 115.721 264.839 114.85 265.237C113.859 265.62 114.939 266.353 117.121 266.86C119.059 267.281 120.885 267.674 122.834 268.046C124.932 268.412 127.458 268.419 128.411 268.069C129.493 267.72 130.426 267.341 131.499 266.913C132.221 266.613 132.231 266.215 131.613 265.858C131.228 265.636 130.592 265.434 129.734 265.269M68.4475 229.977C67.7208 231.395 67.1358 232.821 66.5161 234.116C65.9609 235.522 67.7933 238.032 70.6052 239.765C73.1247 241.275 75.7643 242.799 78.4415 244.29C81.3488 245.858 84.3281 246.127 85.2821 244.951C86.0942 243.766 87.0286 242.561 87.9008 241.209C88.969 239.676 87.3521 237.016 84.1069 235.271C81.1822 233.637 78.3776 232.018 75.5007 230.302C75.3907 230.238 75.2945 230.183 75.1845 230.119C72.1462 228.365 69.2089 228.341 68.4395 229.991M13.7544 194.726L13.8897 194.841L13.6415 194.477C13.6415 194.477 13.7233 194.653 13.7682 194.734M145.839 270.967L145.992 271.018C145.992 271.018 146.185 271.001 146.278 271L145.839 270.967ZM13.8897 194.841C14.257 195.665 14.6341 196.483 15.0211 197.294C16.0113 199.262 17.0666 201.213 18.1516 203.143C18.5174 203.759 18.885 204.381 19.2547 205.011C20.1022 206.401 20.4952 206.958 20.0565 206.099C19.7098 205.366 19.3066 204.508 18.9896 203.756C18.6377 202.873 17.573 200.844 16.7255 199.454C15.964 198.17 15.2381 196.887 14.5063 195.583C14.0793 194.767 13.8057 194.352 13.737 194.312C13.682 194.28 13.7283 194.454 13.8897 194.841ZM144.866 270.809C143.385 270.836 142.025 270.841 140.404 270.823C138.777 270.784 136.623 270.863 135.547 271.013C134.736 271.115 133.934 271.203 133.112 271.261C132.17 271.305 132.7 271.372 134.327 271.411C135.401 271.425 135.401 271.425 136.482 271.425C138.746 271.409 141.014 271.322 143.284 271.2C144.479 271.1 144.492 271.108 145.825 270.959C146.276 270.907 146.472 270.854 146.417 270.823C146.348 270.783 145.808 270.765 144.874 270.796M48.165 215.42C47.8412 216.996 47.5103 218.459 47.2307 219.895C46.9351 221.36 48.607 224.052 50.9356 225.892C53.1918 227.636 55.3561 229.253 57.6521 230.927C60.1702 232.694 62.6366 233.089 63.1796 231.767C63.6908 230.501 64.1672 229.104 64.7992 227.724C65.4817 226.097 63.7758 223.147 60.9849 221.186C58.4826 219.393 56.0709 217.633 53.6909 215.818C53.277 215.487 52.8667 215.213 52.4681 214.983C50.3234 213.745 48.5278 213.902 48.1729 215.406M11.7956 190.435L11.8521 190.56C11.8521 190.56 11.8152 190.465 11.7898 190.414M14.4987 191.151C14.7037 192.225 14.9442 193.3 15.1926 194.362C15.5112 195.557 16.4891 197.609 17.409 199.096C18.2942 200.452 19.1952 201.78 20.118 203.103C21.1992 204.627 21.8809 205.003 21.6266 203.919C21.4368 202.946 21.2181 201.864 21.0152 200.755C20.8775 199.629 19.7555 197.254 18.6663 195.743C17.6849 194.332 16.7195 192.892 15.8184 191.564C15.3769 190.868 15.0187 190.441 14.7712 190.298C14.4688 190.123 14.3451 190.401 14.485 191.143M147.835 267.637C146.111 267.542 144.51 267.426 142.783 267.274C140.802 267.085 138.313 267.301 137.132 267.759C136.084 268.146 135.152 268.489 134.215 268.811C133.149 269.133 133.801 269.528 135.548 269.71C137.283 269.848 138.892 269.95 140.509 270.039C142.12 270.105 144.522 269.913 145.58 269.605C146.624 269.289 147.676 268.959 148.844 268.587C149.5 268.341 149.635 268.106 149.332 267.932C149.099 267.797 148.579 267.681 147.827 267.65M11.7819 190.427C11.4083 189.55 10.6323 187.688 10.1249 186.44C10.0257 186.199 9.98876 186.104 9.93446 185.944C10.5331 187.447 11.1398 188.936 11.7898 190.414M154.983 270.018C153.635 270.195 151.77 270.441 150.687 270.569L150.551 270.583C152.199 270.395 153.842 270.186 155.486 269.941L154.991 270.005L154.983 270.018ZM31.14 199.951C30.982 201.494 30.889 203.02 30.775 204.424C30.7096 205.966 32.1956 208.79 33.9845 210.613C35.6952 212.317 37.4435 213.988 39.194 215.623C41.2289 217.496 42.9985 217.764 43.2601 216.391C43.4254 214.961 43.7361 213.598 44.0121 212.104C44.3778 210.422 42.8085 207.33 40.6478 205.421C38.6932 203.632 36.8212 201.89 34.973 200.106C34.5026 199.651 34.0475 199.296 33.635 199.058C32.2877 198.28 31.2598 198.568 31.1263 199.943M130.702 255.338C128.233 254.63 125.802 253.887 123.261 253.082C120.528 252.165 117.177 252.38 115.904 253.537C114.762 254.531 113.611 255.446 112.581 256.34C111.402 257.239 112.64 258.651 115.159 259.463C117.584 260.184 119.9 260.841 122.111 261.456C124.704 262.108 127.758 261.961 129.075 261.141C130.362 260.341 131.637 259.497 132.895 258.589C134.01 257.8 133.752 256.787 132.418 256.017C131.965 255.755 131.389 255.514 130.702 255.338ZM7.69405 177.982C7.92871 179.036 8.17714 180.098 8.45521 181.14C8.78975 182.307 9.48475 184.215 10.0356 185.451C10.5944 186.674 11.1323 187.774 11.7128 188.991C12.3932 190.321 12.6899 190.474 12.4118 189.432C12.1417 188.376 11.9497 187.438 11.715 186.384C11.4753 185.18 10.6948 183.039 10.0202 181.731C9.41799 180.52 8.83746 179.303 8.27864 178.081C8.02166 177.51 7.8342 177.199 7.72422 177.136C7.58674 177.057 7.56944 177.34 7.70779 177.99M163.159 267.446C161.943 267.552 160.599 267.658 159.249 267.742C157.765 267.804 155.535 268.206 154.372 268.6C153.334 268.938 152.29 269.254 151.241 269.548C150.191 269.842 150.616 269.995 151.971 269.933C153.321 269.849 154.673 269.729 155.876 269.615C157.222 269.474 159.352 269.087 160.407 268.815C161.457 268.521 162.493 268.219 163.523 267.895C164.163 267.676 164.435 267.521 164.298 267.442C164.188 267.378 163.812 267.363 163.159 267.446ZM18.1267 184.74C18.1264 186.265 18.1615 187.791 18.1836 189.182C18.2541 190.711 19.353 193.347 20.6166 195.032C21.8238 196.593 23.1112 198.236 24.3502 199.741C25.7773 201.429 27.0268 201.709 27.0525 200.236C27.0564 198.769 27.1096 197.311 27.1924 195.834C27.2983 194.095 26.1278 191.233 24.5458 189.401C23.2027 187.854 21.8834 186.266 20.6017 184.644C20.1791 184.106 19.789 183.734 19.4453 183.536C18.6617 183.083 18.1177 183.486 18.1209 184.718M9.08921 170.612C9.16988 172.092 9.26431 173.579 9.34568 174.931C9.47555 176.42 10.2329 178.823 11.0718 180.355C11.8195 181.631 12.6315 183.019 13.4516 184.392C14.3794 185.865 15.1196 185.98 14.9977 184.477C14.9322 183.098 14.8942 181.735 14.857 180.244C14.85 178.605 14.0036 175.911 12.9954 174.356C12.1457 173.002 11.304 171.634 10.4999 170.233C10.2364 169.768 9.98385 169.476 9.76388 169.349C9.3377 169.103 9.0694 169.536 9.08921 170.612ZM42.9447 190.839C42.3896 192.943 41.8685 194.957 41.3539 196.864C40.8719 198.937 42.3297 202.222 44.5614 204.136C46.6932 205.936 48.8351 207.687 51.0595 209.485C53.5589 211.443 56.1554 211.454 56.8321 209.456C57.5551 207.633 58.1963 205.633 58.9989 203.671C59.8976 201.416 58.4136 197.859 55.6921 195.81C53.2926 193.966 50.964 192.125 48.6318 190.228C48.3061 189.966 47.9784 189.74 47.6622 189.558C45.5312 188.327 43.5172 188.799 42.9505 190.86M26.1866 174.844C25.8449 176.833 25.5017 178.729 25.2294 180.629C24.9196 182.563 26.02 185.641 27.6924 187.507C29.236 189.152 30.8404 190.849 32.4823 192.514C34.3226 194.311 36.2101 194.28 36.6285 192.317C37.0151 190.41 37.4508 188.512 37.9713 186.626C38.535 184.38 37.3397 180.989 35.3461 179.14C33.5529 177.388 31.8422 175.684 30.1785 174.026C29.8572 173.693 29.5236 173.445 29.2074 173.263C27.8051 172.453 26.5529 173.035 26.2003 174.852M3.60219 158.241C3.68356 159.592 3.78664 160.938 3.91141 162.277C4.04993 163.625 4.51926 165.733 4.92686 166.868C5.34821 168.012 5.79127 169.149 6.26397 170.267C6.79314 171.51 7.14038 171.416 7.02356 170.063C6.90674 168.709 6.81742 167.372 6.7498 166.029C6.70457 164.551 6.1773 162.226 5.63439 160.976C5.14793 159.85 4.70488 158.712 4.29659 157.705C4.12574 157.239 3.9911 156.996 3.86737 156.924C3.6749 156.813 3.56795 157.284 3.61015 158.227M14.14 160.118C13.9155 161.936 13.7112 163.655 13.5633 165.498C13.4075 167.356 14.1548 170.157 15.2144 171.687C16.2175 173.093 17.2871 174.574 18.3922 176.057C19.6153 177.59 20.8357 177.413 21.0646 175.524C21.2986 173.785 21.5607 171.934 21.8504 170.099C22.2333 168.134 21.4107 165.051 20.0718 163.433C18.9074 161.989 17.7669 160.504 16.6987 159.115C16.4425 158.765 16.1798 158.522 15.9186 158.371C15.08 157.887 14.3436 158.527 14.14 160.118ZM1.03484 147.702C1.1169 148.925 1.19385 149.998 1.31932 151.21C1.44478 152.421 1.69269 154.309 1.83544 155.237C1.99195 156.172 2.1571 156.966 2.34906 157.903C2.58373 158.957 2.67123 158.806 2.53271 157.458C2.421 156.255 2.32519 155.024 2.24892 153.822C2.1813 152.479 1.92612 150.476 1.69872 149.536C1.49881 148.613 1.34162 147.806 1.16342 146.876C1.10981 146.588 1.07504 146.458 1.04175 146.42C0.986759 146.388 0.982528 146.808 1.02109 147.694M6.43543 147.238C6.28827 148.953 6.16351 150.534 6.05249 152.124C5.96828 153.857 6.3675 156.182 6.99654 157.537C7.56981 158.639 8.17999 159.837 8.82563 161.036C9.55739 162.34 10.2858 162.063 10.4055 160.332C10.531 158.622 10.6912 157.043 10.8658 155.343C11.0983 153.512 10.6165 150.791 9.85659 149.599C9.17551 148.397 8.53134 147.29 7.92262 146.186C7.75687 145.87 7.59837 145.668 7.4334 145.573C6.96597 145.303 6.55664 145.948 6.40793 147.222M2.2728 136.604C2.15452 138.079 2.05864 139.42 1.97581 140.897C1.90673 142.382 2.06929 144.386 2.34806 145.3C2.61887 146.228 2.90559 147.129 3.21981 148.045C3.57674 149.078 3.95865 148.765 4.03421 147.174C4.13079 145.705 4.22737 144.236 4.35144 142.783C4.5196 141.19 4.33457 138.97 3.94945 138.05C3.62148 137.126 3.32897 136.204 3.05747 135.404C2.98 135.157 2.90399 135.003 2.82151 134.955C2.60154 134.828 2.38753 135.421 2.2728 136.604ZM24.3425 146.003C23.6955 148.33 23.0609 150.572 22.4892 152.832C21.8929 155.262 22.6549 158.641 24.2035 160.435C25.6473 161.967 27.1575 163.574 28.7207 165.248C30.49 167.041 32.5554 166.543 33.2507 164.005C33.9353 161.645 34.6748 159.316 35.4461 156.933C36.3411 154.271 35.4886 150.509 33.579 148.8C31.903 147.227 30.2821 145.684 28.7204 144.103C28.5127 143.891 28.2812 143.721 28.0612 143.594C26.5764 142.737 25.0089 143.705 24.3425 146.003ZM0.863479 127.965C0.768286 129.177 0.686849 130.398 0.613359 131.605C0.544971 132.961 0.5461 134.579 0.575933 135.257C0.627468 135.93 0.692741 136.611 0.76598 137.278C0.866023 138.088 1.01207 137.677 1.0725 136.334C1.14599 135.127 1.22813 133.778 1.32332 132.566C1.4633 131.085 1.46286 129.34 1.36213 128.657C1.27514 127.982 1.20916 127.43 1.15763 126.757C1.15469 126.571 1.11777 126.477 1.10402 126.469C1.03528 126.429 0.951496 126.987 0.863479 127.965ZM13.4995 133.129C12.9957 135.208 12.5195 137.303 12.0852 139.293C11.6422 141.426 12.0242 144.384 12.9549 145.693C13.8444 146.978 14.7715 148.229 15.7413 149.598C16.8565 151.031 18.2187 150.514 18.7376 148.186C19.2471 146.129 19.7906 143.981 20.3536 141.863C21.015 139.416 20.5707 136.312 19.3607 134.915C18.3157 133.614 17.3076 132.407 16.3582 131.289C16.1801 131.058 16.0057 130.884 15.827 130.78C14.9471 130.273 13.9786 131.22 13.4778 133.135M7.05217 122.738C6.64459 124.524 6.27245 126.311 5.9285 127.987C5.57521 129.932 5.66696 132.281 6.14399 133.328C6.60727 134.367 7.1067 135.28 7.62714 136.315C8.23369 137.456 9.06262 136.814 9.45568 134.799C9.84805 132.913 10.2535 131.163 10.6871 129.301C11.1988 127.208 11.0831 124.551 10.4368 123.48C9.8679 122.656 9.33519 121.705 8.83723 120.885C8.74169 120.701 8.64182 120.588 8.53184 120.525C8.05066 120.247 7.43737 121.087 7.05797 122.76M3.99492 114.635C3.67985 116.07 3.35613 117.647 3.06856 119.097C2.77234 120.69 2.66504 122.685 2.85042 123.38C3.02206 124.067 3.20675 124.89 3.42179 125.566C3.67738 126.393 4.1359 125.757 4.46031 124.053C4.77607 122.49 5.10628 120.807 5.45749 119.246C5.87303 117.447 5.97238 115.465 5.6886 114.75C5.45402 114.045 5.26284 113.328 5.06302 112.754C5.02826 112.623 4.98338 112.542 4.94214 112.518C4.70842 112.384 4.33749 113.217 4.01083 114.608M3.40737 108.509C3.14288 109.698 2.86974 111.028 2.6407 112.219C2.40302 113.551 2.15599 115.154 2.11561 115.7C2.11933 116.106 2.0927 116.66 2.09573 117.195C2.12626 117.745 2.35037 117.103 2.61045 115.636C2.86189 114.312 3.14877 112.989 3.43565 111.667C3.77243 110.227 4.00571 108.616 3.97518 108.066C3.94397 107.643 3.9265 107.229 3.93073 106.809C3.93722 106.703 3.93359 106.645 3.91984 106.638C3.86485 106.606 3.66391 107.335 3.39363 108.501M25.996 115.93C25.085 118.269 24.2073 120.647 23.3773 122.942C22.4968 125.483 22.8347 128.58 24.1416 129.904C25.3798 131.189 26.6693 132.448 28.0038 133.788C29.5263 135.31 31.6039 134.378 32.5994 131.701C33.5227 129.277 34.4995 126.791 35.5095 124.343C36.6491 121.639 36.212 118.301 34.5845 116.865C33.1308 115.732 31.7479 114.603 30.4165 113.448C30.3224 113.357 30.1987 113.286 30.0887 113.222C28.7139 112.428 26.9424 113.592 25.996 115.93ZM16.3656 106.163C15.6397 108.15 14.9276 110.145 14.243 112.157C13.536 114.302 13.546 116.825 14.2972 117.809C14.9992 118.784 15.7446 119.747 16.5335 120.699C17.4496 121.779 18.8356 120.871 19.6142 118.601C20.3567 116.458 21.1404 114.339 21.9299 112.241C22.8387 109.937 22.7866 107.169 21.7649 106.304C20.9406 105.35 20.0954 104.623 19.3276 103.794C19.261 103.719 19.1727 103.65 19.0902 103.602C18.2791 103.134 17.1131 104.169 16.3576 106.176M10.8878 99.0135C10.3138 100.611 9.71737 102.343 9.17083 103.956C8.56576 105.829 8.38177 107.799 8.72054 108.546C9.06796 109.151 9.45083 109.757 9.8113 110.498C10.2644 111.237 11.1417 110.385 11.7728 108.434C12.3815 106.618 12.9896 104.93 13.6395 103.137C14.3892 101.109 14.558 99.0383 14.0514 98.36C13.6071 97.8279 13.2061 97.2841 12.811 96.7621C12.7661 96.681 12.7191 96.6355 12.6641 96.6038C12.2379 96.3577 11.4778 97.3885 10.8799 99.0273M8.54176 93.838C8.0516 95.2267 7.56723 96.6371 7.09081 98.0338C6.62814 99.4384 6.31818 101.023 6.41234 101.463C6.5065 101.903 6.61441 102.351 6.74402 102.794C6.88669 103.372 7.41317 102.555 7.94017 100.912C8.44477 99.4034 8.91323 98.0205 9.45328 96.5136C10.0432 94.8885 10.3452 93.3177 10.1823 92.8379C10.0108 92.5 9.86095 92.1563 9.73065 91.8423C9.72701 91.785 9.69373 91.7475 9.67998 91.7395C9.50126 91.6363 9.0059 92.5261 8.53381 93.8517M8.44612 90.3842C8.08995 91.4033 7.74317 92.3849 7.40579 93.3291C7.21565 93.8806 7.05301 94.4481 6.86288 94.9997C6.63012 95.7838 6.4776 96.302 6.40532 96.5542C6.34678 96.8143 6.30199 97.0824 6.27095 97.3584C6.25366 97.6423 6.54937 96.8762 6.97589 95.5976C7.36627 94.4452 7.75666 93.2928 8.21864 92.0164C8.68061 90.74 9.09339 89.4536 9.11068 89.1696C9.10558 89.0197 9.15037 88.7516 9.15902 88.6097C9.17493 88.5821 9.18288 88.5683 9.16913 88.5604C9.15538 88.5525 8.83581 89.36 8.46782 90.3783M25.7991 78.2664C25.0907 77.7471 23.6419 78.9866 22.5312 81.1009C21.5535 83.0165 20.6612 84.816 19.7248 86.7554C18.7523 88.8209 18.4902 91.021 19.1408 91.6722C19.7501 92.2995 20.4086 92.9369 21.0946 93.5902C21.9203 94.2873 23.4118 93.1644 24.4841 90.8626C25.4842 88.813 26.5059 86.7575 27.4915 84.8281C28.6659 82.6036 28.8852 80.2869 28.0039 79.6863C27.3621 79.2422 26.7557 78.8003 26.137 78.4431C26.027 78.3796 25.9033 78.3082 25.7933 78.2447M31.2361 87.137C30.0733 89.405 28.9243 91.6809 27.8584 93.8762C26.6726 96.4064 26.6436 99.2188 27.8202 100.229C28.9361 101.185 30.1293 102.04 31.3233 103.115C32.7141 104.23 34.9572 102.916 36.2523 100.229C37.4432 97.8485 38.6819 95.3856 39.9062 93.0429C41.3372 90.3419 41.2706 87.3458 39.7388 86.4431C38.4074 85.6376 37.1527 84.8581 35.9255 84.0945L35.8843 84.0707C34.592 83.3246 32.5297 84.7058 31.2361 87.137ZM17.6403 77.2851C16.8637 78.8207 16.0509 80.4825 15.3018 82.034C14.5165 83.7116 14.1075 85.4044 14.4027 85.8137C14.6843 86.215 14.9796 86.6243 15.3103 87.0357C15.696 87.4789 16.7325 86.3504 17.6074 84.4857C18.4462 82.7472 19.243 81.113 20.0594 79.5085C21.011 77.6697 21.4345 75.8567 21.009 75.4824C20.8028 75.3634 20.5966 75.2443 20.42 75.1056C20.2355 74.9807 20.059 74.8421 19.8723 74.7527C19.8723 74.7527 19.8448 74.7368 19.831 74.7288C19.4736 74.5225 18.4683 75.724 17.6381 77.3206M12.6671 79.9618C12.6671 79.9618 13.0815 79.1171 13.6115 78.0086C14.1335 76.9138 14.6773 75.8132 15.2348 74.7206C15.7186 73.7874 16.1228 72.9921 16.3022 72.618C15.0164 75.0354 13.7994 77.4925 12.6751 79.948M51.3181 92.8344C49.3369 91.5988 46.447 93.0165 44.8829 95.9162C43.4974 98.5699 42.1235 101.267 40.819 103.876C39.4025 106.806 39.7419 110.345 41.606 111.752C43.394 113.005 45.2008 114.415 47.1147 115.704C49.2595 117.291 52.326 116.012 53.8633 112.968C55.311 110.112 56.776 107.32 58.2866 104.482C59.9701 101.375 59.47 97.6695 57.182 96.3302C55.4599 95.2808 53.779 94.2552 52.1155 93.2948C51.8543 93.144 51.5931 92.9932 51.3181 92.8344ZM17.0177 72.9025C16.8803 72.8231 16.2128 73.8523 15.528 75.1654C14.8569 76.4864 14.2632 77.7052 13.6197 79.0421C12.9899 80.3869 12.478 81.7815 12.5519 81.9711C12.6337 82.1469 12.735 82.3524 12.8443 82.5441C12.9449 82.8777 13.6262 81.8565 14.2979 80.4073C14.9914 78.9522 15.6407 77.637 16.3118 76.316C17.1101 74.7745 17.5583 73.4902 17.4157 73.2609C17.3332 73.2133 17.2667 73.1381 17.2138 73.0708C17.161 73.0036 17.1082 72.9363 17.0394 72.8967M26.2879 57.0366C26.1418 57.0992 26.0231 57.1777 25.9045 57.2561C25.7996 57.3426 25.0714 58.3182 24.299 59.4338C23.604 60.4471 22.9444 61.4625 22.2769 62.4916C21.5458 63.631 21.0049 64.5679 21.1097 64.4815C21.1647 64.5132 21.2197 64.545 21.3521 64.4744C21.4346 64.5221 22.1629 63.5464 22.894 62.407C23.6389 61.2756 24.3758 60.1579 25.0571 59.1367C25.8533 57.9798 26.3921 57.0784 26.3096 57.0308M29.7959 56.4533C29.4095 56.4874 29.1064 56.441 28.8249 56.3887C28.4582 56.4525 27.4456 57.5396 26.5264 58.846C25.6267 60.182 24.8124 61.402 24.0039 62.6436C23.1455 64.0035 22.6068 65.254 22.8405 65.3889C23.1379 65.4136 23.3774 65.5702 23.6306 65.7348C24.0105 65.8072 25.0288 64.7418 26.0203 63.1832C26.8766 61.8589 27.7545 60.5287 28.652 59.2282C29.6667 57.7565 30.1121 56.6359 29.8371 56.4771L29.8096 56.4612M36.3717 57.2554C35.7285 57.0678 35.0274 57.0121 34.4312 56.8699C33.8076 56.7119 32.3964 57.918 31.211 59.6218C30.1942 61.129 29.1911 62.6441 28.2018 64.1672C27.099 65.9186 26.6689 67.489 27.1971 67.8123C27.7615 68.0096 28.2817 68.3467 28.9011 68.5757C29.5313 68.9763 31.0669 67.7135 32.2573 65.8105C33.3421 64.1221 34.377 62.5519 35.5167 60.8952C36.6724 59.211 37.0808 57.6465 36.4896 57.3052C36.4621 57.2893 36.4346 57.2734 36.4071 57.2575M47.0241 60.1724C45.9626 59.7249 44.8433 59.4093 43.821 59.0211C42.7574 58.6091 40.7544 59.9511 39.3724 61.9639C38.0815 63.8823 36.8737 65.7202 35.6877 67.5522C34.3325 69.7091 34.053 71.8441 35.0689 72.3387C36.0298 72.8016 37.0377 73.3101 38.0174 73.9308C39.2041 74.5425 41.3488 73.2089 42.7916 70.9005C44.081 68.8893 45.3922 66.8724 46.7366 64.893C48.0572 62.9549 48.3323 60.8909 47.3012 60.2956C47.2187 60.248 47.1362 60.2004 47.0378 60.1803M62.9693 65.7961C61.2176 65.1154 59.5607 64.3976 57.9349 63.7529C56.2266 63.0605 53.532 64.4257 51.86 66.8773C50.41 69.0713 48.9817 71.2595 47.5331 73.5461C45.987 76.0337 45.9797 78.8402 47.6381 79.6507C49.1526 80.4883 50.714 81.3715 52.3305 82.2864C54.2067 83.2594 57.0981 81.9343 58.7635 79.2401C60.3075 76.7881 61.8175 74.4266 63.363 72.0673C65.0452 69.5665 64.9099 66.8798 63.2052 65.8955C63.1365 65.8558 63.0677 65.8162 62.9852 65.7685M31.0958 50.2965C31.4408 49.8894 31.9702 49.2582 32.4838 48.6545C33.1817 47.8266 33.9845 46.9124 34.7953 45.9843C34.7953 45.9843 34.8727 45.882 34.8669 45.8603C33.5766 47.3014 32.3333 48.7881 31.0958 50.2965ZM39.7052 41.8933C39.324 42.0774 39.0397 42.1888 38.678 42.4025C38.3163 42.6162 37.2567 43.6578 36.2499 44.7666C35.3559 45.7752 34.4678 46.8056 33.6013 47.8301C32.6495 48.9707 32.0536 49.8758 32.3242 49.7564C32.6084 49.645 32.8927 49.5336 33.1908 49.4301C33.5084 49.3563 34.5817 48.3227 35.6109 47.0798C36.5548 45.953 37.5341 44.8283 38.5054 43.7174C39.429 42.6891 39.9512 41.9435 39.8137 41.8641C39.7862 41.8482 39.7645 41.8541 39.6994 41.8716M46.1943 40.147C45.5417 40.2295 45.0078 40.2335 44.4023 40.3616C43.7693 40.4737 42.3111 41.6342 41.0526 43.0203C39.998 44.2117 38.8719 45.5272 37.837 46.7484C36.661 48.182 36.1367 49.3123 36.6092 49.383C37.167 49.3376 37.7305 49.3139 38.2305 49.4005C38.8686 49.4382 40.5069 48.1245 41.7581 46.6241C42.8408 45.3203 44.0422 43.938 45.2493 42.5774C46.2879 41.4135 46.8057 40.3897 46.462 40.1913C46.407 40.1596 46.3086 40.1395 46.2001 40.1687M56.3242 39.8414C55.2824 39.7726 54.2543 39.7118 53.3348 39.6218C52.3046 39.5965 50.3356 40.8479 48.871 42.4639C47.5033 44.0074 46.2759 45.4665 44.9495 47.0337C43.4899 48.7997 43.0895 50.3505 44.0185 50.5194C44.92 50.6724 45.841 50.8552 46.7816 51.0675C47.8994 51.2904 50.0362 49.9705 51.5753 48.0668C52.8981 46.4423 54.3453 44.7611 55.7231 43.1684C56.9997 41.7194 57.403 40.354 56.7156 39.9571C56.6057 39.8936 56.4798 39.8577 56.3105 39.8334M70.9157 41.8728C69.3948 41.4907 67.8776 41.1659 66.372 40.8845C64.8252 40.5793 62.2196 41.8856 60.5445 43.8027C58.9743 45.6334 57.4179 47.472 55.9106 49.3206C54.284 51.3759 54.056 53.4854 55.5963 53.8971C56.9848 54.3497 58.4065 54.8399 59.9288 55.3146C61.6595 55.8729 64.5255 54.4965 66.2179 52.2955C67.8206 50.2815 69.4725 48.2776 71.0629 46.3484C72.5521 44.5628 72.7036 42.7764 71.5075 42.0859C71.3425 41.9906 71.1479 41.915 70.9236 41.859M55.689 28.3053C55.158 28.4947 54.6328 28.7059 54.1351 28.9329C53.5188 29.2384 52.2016 30.1864 51.0754 31.1528C50.0679 32.0407 49.0523 32.9424 48.0506 33.8521C46.9714 34.864 46.4753 35.5328 46.9947 35.3C47.415 35.1752 47.9481 34.9503 48.3742 34.8473C48.9464 34.6816 50.4437 33.5804 51.6278 32.4821C52.6078 31.5783 53.7065 30.596 54.7141 29.7081C55.6602 28.8949 56.1202 28.3522 55.969 28.2648C55.9277 28.241 55.8272 28.2565 55.689 28.3053ZM90.6619 47.0089C88.4653 46.2734 86.3591 45.5718 84.2131 44.939C81.9846 44.2586 78.6679 45.5586 76.7346 47.8593C75.0784 49.9342 73.2934 52.1369 71.5793 54.3438C69.7004 56.8045 69.8964 59.5447 72.0649 60.3925C74.1371 61.1847 76.2108 62.0697 78.3554 62.9588C80.7829 63.9929 84.3934 62.6605 86.3858 59.9714C88.1382 57.6029 89.8725 55.2975 91.7074 52.9767C93.4352 50.7778 93.2472 48.3729 91.3912 47.3014C91.1713 47.1744 90.9354 47.0749 90.6778 46.9813M65.2338 25.8064C64.2615 25.9983 63.3999 26.1254 62.5578 26.2822C61.702 26.4311 59.8857 27.5134 58.5576 28.6388C57.362 29.6937 56.1801 30.7566 55.004 31.8411C53.7506 33.028 53.324 33.9574 54.1103 33.897C54.891 33.815 55.6556 33.7605 56.5665 33.6434C57.5084 33.5993 59.4195 32.4799 60.7345 31.2183C61.9721 30.059 63.2292 28.9294 64.508 27.7939C65.6342 26.8275 66.0066 26.0872 65.6216 25.865C65.5391 25.8173 65.4053 25.7952 65.2338 25.8064ZM78.5498 25.0623C77.1412 25.0574 75.9576 24.9802 74.6691 24.9895C73.3531 24.9829 71.0383 26.0714 69.4687 27.4247C68.1284 28.635 66.697 29.9395 65.2931 31.26C63.8255 32.6906 63.5249 34.0051 64.7932 34.0943C66.0419 34.1539 67.1915 34.3217 68.4714 34.4544C70.0015 34.5662 72.4386 33.4565 74.0429 31.8843C75.4866 30.495 76.944 29.1136 78.4348 27.7698C79.6405 26.6657 79.9159 25.6489 79.2285 25.2521C79.0635 25.1568 78.8392 25.1008 78.5636 25.0702M74.3125 16.5903C73.5233 16.8144 72.7456 17.0818 71.9759 17.3355C71.0876 17.6677 69.418 18.5592 68.1666 19.3615C67.0396 20.107 65.9264 20.8604 64.819 21.6356C63.6066 22.4971 63.1604 23.0478 63.9518 22.7883C64.7295 22.5208 65.416 22.3477 66.2132 22.1099C67.1544 21.845 68.9187 20.9163 70.2279 19.9821C71.446 19.1422 72.6562 18.3162 73.7832 17.5707C74.6353 17.0155 75.0729 16.6068 74.9079 16.5116C74.8392 16.4719 74.646 16.4889 74.3263 16.5983M96.1704 26.8953C94.3045 26.5712 92.5449 26.2534 90.7753 25.9849C88.8558 25.7217 86.0252 26.7512 84.2632 28.3425C82.7226 29.8045 81.2094 31.2823 79.6348 32.8349C77.8244 34.6371 77.8958 36.3868 79.8167 36.7426C81.4772 37.1685 83.2382 37.579 85.0976 38.0096C87.1951 38.5041 90.292 37.4263 92.0792 35.5372C93.6386 33.884 95.2609 32.2488 96.8218 30.6883C98.2792 29.3069 98.3201 27.9343 97.1515 27.2597C96.8903 27.1089 96.556 26.9894 96.1625 26.9091M86.6253 14.0913C85.4071 14.233 84.311 14.3534 83.1043 14.5385C81.8759 14.7294 79.7947 15.6037 78.3357 16.5433C77.1118 17.3615 75.7968 18.2739 74.4817 19.1864C73.0893 20.2012 72.7639 20.987 74.0061 20.804C75.1238 20.6778 76.2474 20.5732 77.3825 20.5121C78.6594 20.4594 81.0328 19.4599 82.5222 18.3725C83.796 17.4362 85.2137 16.4728 86.5425 15.5683C87.5509 14.9012 87.8669 14.3856 87.4957 14.1713C87.3445 14.084 87.0551 14.0455 86.647 14.0855M118.342 32.0537C115.96 31.3215 113.525 30.6503 111.274 29.9758C108.746 29.3062 105.244 30.2603 103.497 32.0805C101.775 33.8238 100.131 35.5931 98.4325 37.4233C96.4529 39.5504 96.978 41.9111 99.4756 42.7285C101.79 43.5137 104.166 44.3523 106.582 45.2148C109.355 46.191 113.153 45.1689 114.946 42.9524C116.682 40.9606 118.314 39.0552 119.9 37.197C121.499 35.4749 121.07 33.5189 119.256 32.4711C118.981 32.3124 118.676 32.1733 118.32 32.0596M102.529 13.6285C100.92 13.5262 99.3141 13.4811 97.7008 13.4498C96.0737 13.4105 93.3739 14.2768 91.8238 15.3107C90.4118 16.2958 89.0273 17.2968 87.5242 18.3763C85.9575 19.566 85.8826 20.68 87.5646 20.751C89.2113 20.8199 90.7393 20.9673 92.3816 21.1072C94.2778 21.2835 97.1729 20.3647 98.8171 19.0727C100.273 17.9477 101.64 16.8816 103.135 15.8159C104.229 15.0328 104.402 14.2879 103.715 13.891C103.454 13.7402 103.055 13.6382 102.523 13.6068M267.384 109.212C267.487 110.429 267.564 111.63 267.632 112.846C267.713 114.325 268.041 116.297 268.398 117.329C268.711 118.374 268.99 119.288 269.255 120.194C269.525 121.25 269.692 120.961 269.62 119.468C269.551 118.252 269.461 117.043 269.371 115.962C269.232 114.614 268.911 112.757 268.641 111.701C268.384 110.781 268.084 109.745 267.797 108.844C267.648 108.373 267.535 108.124 267.453 108.076C267.329 108.005 267.305 108.395 267.378 109.19M93.4707 8.01317C92.4095 8.26386 91.4922 8.48745 90.4367 8.75986C89.387 9.05398 87.6183 9.70454 86.5064 10.2016C85.4004 10.7204 84.3081 11.2471 83.2078 11.7875C82.0106 12.4007 81.8436 12.69 82.7609 12.4664C83.6861 12.229 84.7337 11.9704 85.6705 11.7765C86.7434 11.5692 88.745 10.8327 89.9364 10.1979C91.1394 9.60646 92.2397 9.06597 93.3378 8.56098C94.0112 8.25173 94.302 8.03384 94.1783 7.9624C94.0958 7.91478 93.8534 7.92181 93.449 8.019M267.603 105.021C267.824 106.068 268.218 107.893 268.467 108.955C268.171 107.499 267.854 106.048 267.515 104.603L267.617 105.029L267.603 105.021ZM267.44 104.321C267.405 104.19 267.384 104.068 267.343 103.916C267.378 104.046 267.405 104.19 267.44 104.321ZM267.343 103.916C267.343 103.916 267.314 103.808 267.303 103.764C267.32 103.829 267.332 103.873 267.343 103.916ZM93.0756 7.49109C94.1057 7.16732 95.7457 6.64451 96.8923 6.27775C97.4942 6.0925 97.6244 6.05745 97.9579 5.95607C96.3201 6.44338 94.7018 6.96035 93.0893 7.49903M122.225 15.9618C120.101 15.5441 117.96 15.1895 115.925 14.8411C113.74 14.4982 110.615 15.211 108.991 16.4045C107.506 17.5491 105.917 18.7446 104.376 19.9857C102.66 21.4017 102.979 22.9451 105.287 23.3595C107.324 23.8005 109.459 24.2617 111.671 24.7487C114.111 25.3489 117.517 24.5602 119.226 23.0298C120.774 21.6822 122.246 20.4015 123.644 19.1875C124.892 18.1999 124.78 17.1246 123.611 16.4499C123.24 16.2356 122.774 16.0584 122.211 15.9539M261.306 95.6725C261.409 97.0179 261.469 98.3751 261.515 99.7243C261.538 101.207 262.167 103.61 262.885 104.906C263.53 106.234 264.12 107.309 264.7 108.526C265.307 109.887 265.713 109.533 265.676 108.042C265.608 106.699 265.527 105.347 265.402 104.008C265.285 102.654 264.7 100.461 264.107 99.1082C263.583 98.0156 262.988 96.7908 262.378 95.5934C262.086 95.0204 261.843 94.6784 261.651 94.5672C261.362 94.4006 261.226 94.763 261.3 95.6508M107.64 6.10841C106.298 6.17865 104.954 6.28437 103.602 6.40388C102.25 6.52338 100.058 7.11328 98.7108 7.73178C97.4803 8.30731 96.2773 8.89871 95.0801 9.51182C93.778 10.2114 93.7912 10.6966 95.1491 10.5988C96.4933 10.4931 97.8433 10.4091 99.1911 10.3605C100.673 10.3342 103.068 9.67794 104.494 8.92166C105.686 8.28682 106.897 7.68165 108.121 7.08441C108.862 6.72214 109.073 6.42112 108.784 6.25443C108.605 6.15125 108.217 6.09269 107.632 6.12219M145.096 21.7815C142.514 20.9519 140 20.1621 137.591 19.414C134.792 18.6429 131.288 19.1552 129.73 20.552C128.204 21.8937 126.589 23.2943 125.034 24.7483C123.216 26.4361 124.097 28.5613 126.882 29.4527C129.506 30.3061 132.168 31.2187 134.807 32.1727C137.786 33.2679 141.729 32.6605 143.313 30.8378C144.811 29.2593 146.256 27.7418 147.611 26.2831C148.861 25.0391 148.31 23.4534 146.468 22.3898C146.069 22.1596 145.619 21.9549 145.11 21.7894M262.481 89.3515C262.751 90.4077 262.986 91.4617 263.22 92.5157C263.46 93.7196 264.097 95.7592 264.626 97.0016C265.126 98.2637 265.555 99.3933 265.942 100.406C266.39 101.694 266.528 101.645 266.246 100.325C266.011 99.2707 265.762 98.2087 265.484 97.1664C265.158 95.9858 264.584 94.1851 264.15 92.9055C263.785 91.8865 263.342 90.749 262.891 89.6252C262.625 88.9753 262.434 88.6078 262.365 88.5681C262.296 88.5285 262.324 88.7652 262.489 89.3378M112.574 2.67427C111.375 2.84559 110.161 3.04447 108.96 3.25129C107.765 3.47982 105.774 3.91067 104.603 4.22606C103.553 4.52019 102.517 4.82225 101.487 5.14603C100.332 5.52657 100.359 5.67063 101.568 5.45004C102.769 5.24323 103.975 5.05813 105.174 4.88681C106.515 4.72387 108.621 4.25004 109.776 3.8695C110.936 3.51068 111.98 3.19484 113.03 2.90071C113.551 2.76054 113.77 2.66664 113.701 2.62695C113.632 2.58727 113.254 2.60763 112.58 2.69599M251.423 80.469C251.459 81.8675 251.459 83.2639 251.473 84.7964C251.386 86.3443 252.366 89.0596 253.608 90.7503C254.635 92.1147 255.688 93.6233 256.67 95.0349C257.708 96.571 258.534 96.4418 258.519 94.8166C258.482 93.3254 258.444 91.9625 258.336 90.4671C258.227 88.9717 257.381 86.6277 256.381 85.0582C255.429 83.6269 254.456 82.2015 253.453 80.7957C253.026 80.2005 252.636 79.8284 252.306 79.6379C251.743 79.3124 251.398 79.5913 251.407 80.4966M124.954 6.4414C123.112 6.29687 121.399 6.1528 119.798 6.03673C117.939 5.95525 115.35 6.40767 114 7.06167C112.782 7.68062 111.452 8.36427 110.142 9.07758C108.727 9.87729 109.02 10.6712 110.877 10.7881C112.591 10.9322 114.424 11.0905 116.241 11.2764C118.182 11.5337 121.032 11.0112 122.457 10.1622C123.655 9.42088 124.864 8.723 126.107 8.06271C126.909 7.62571 126.959 7.15846 126.382 6.82509C126.079 6.65047 125.576 6.5067 124.94 6.43346M169.996 31.326C167.172 30.0262 164.31 28.7598 161.417 27.5485C158.384 26.2934 154.604 26.5542 153.101 28.2037C151.647 29.7705 150.237 31.4183 148.744 33.1467C146.967 35.1147 148.232 37.9395 151.603 39.3713C154.616 40.725 157.676 42.1243 160.676 43.5627C164.07 45.2096 168.054 44.7542 169.543 42.6196C170.859 40.7525 172.078 38.9581 173.384 37.2685C174.545 35.606 173.325 33.2113 170.699 31.6953C170.479 31.5683 170.259 31.4413 170.01 31.3339M254.936 75.3693C255.12 76.3205 255.403 77.5128 255.6 78.6002C255.788 79.8296 256.757 82.1524 257.685 83.625C258.505 84.9986 259.309 86.3998 260.035 87.6823C260.809 89.1031 261.25 89.2289 260.984 87.8809C260.779 86.8072 260.487 85.6288 260.239 84.5668C259.926 83.3942 259.045 81.2689 258.279 79.8344C257.561 78.5381 256.821 77.2476 256.052 75.9767C255.598 75.2375 255.242 74.7747 255.036 74.6557C254.83 74.5366 254.782 74.7474 254.93 75.3475M127.798 1.80078C126.177 1.78325 124.703 1.79582 123.207 1.81424C121.582 1.8677 119.445 2.14025 118.273 2.45564C117.093 2.78481 116.063 3.10859 114.894 3.48119C113.615 3.91849 113.923 4.24302 115.541 4.20334C117.15 4.17744 118.63 4.18658 120.229 4.20995C121.977 4.26342 124.459 3.93291 125.76 3.48977C126.8 3.11672 127.838 2.77917 128.903 2.45748C129.432 2.30353 129.555 2.15407 129.349 2.03501C129.143 1.91595 128.607 1.82729 127.798 1.80078ZM144.942 9.69683C142.823 9.20815 140.808 8.76125 138.657 8.32769C136.498 7.9079 133.552 8.15395 132.297 8.899C131.05 9.63028 129.708 10.3987 128.492 11.2031C126.932 12.1581 127.629 13.332 129.983 13.8275C132.195 14.3145 134.39 14.8291 136.691 15.3855C139.085 16.0329 142.341 15.7268 143.613 14.6978C144.776 13.8262 145.937 12.9901 147.124 12.2053C147.962 11.6422 147.714 10.9294 146.71 10.3499C146.27 10.0959 145.659 9.85318 144.937 9.67511M219.29 48.433C218.907 49.6998 218.545 51.089 218.137 52.5254C217.646 54.1705 219.237 57.1286 221.607 58.9928C223.79 60.7676 225.869 62.5007 227.932 64.2613C230.168 66.2315 232.21 66.3452 232.462 64.5434C232.705 63.0118 232.947 61.6084 233.073 60.1198C233.288 58.7005 231.718 55.9575 229.676 54.0983C227.791 52.4409 225.897 50.8328 223.892 49.1612C223.451 48.8145 223.035 48.5191 222.622 48.281C220.931 47.3047 219.55 47.3157 219.29 48.433ZM166.984 16.2867C164.646 15.4146 162.18 14.5421 159.817 13.7469C157.193 12.8935 154.167 12.9282 152.903 13.8153C151.797 14.6831 150.583 15.5802 149.364 16.5482C148.05 17.6816 149.155 19.3856 151.873 20.33C154.443 21.2443 157.096 22.2062 159.598 23.1735C162.51 24.3218 165.867 24.2211 167.038 22.9867C168.078 21.9154 168.98 20.893 170.006 19.9421C170.844 19.1581 170.1 17.9386 168.395 16.9543C167.969 16.7083 167.491 16.4877 166.97 16.2787M243.893 60.5246C244.045 61.531 244.167 62.557 244.26 63.6027C244.409 64.9009 245.67 67.3194 247.095 69.0423C248.34 70.5693 249.555 72.1158 250.746 73.7038C251.938 75.2917 252.795 75.5846 252.58 74.2111C252.412 73.1041 252.202 72.0088 251.913 70.7948C251.68 69.7053 250.5 67.4626 249.311 65.8392C248.257 64.4589 247.108 62.9875 245.938 61.5219C245.316 60.7584 244.771 60.2417 244.4 60.0274C243.96 59.7734 243.744 59.9245 243.871 60.5305M145.4 3.34772C143.554 3.05329 141.697 2.80812 139.847 2.58467C137.846 2.36661 135.442 2.46664 134.254 2.80959C133.195 3.15299 132.154 3.52604 130.962 3.93997C129.665 4.44032 130.334 5.02843 132.446 5.2745C134.281 5.5255 136.228 5.80451 138.173 6.11902C140.369 6.50541 143.095 6.38875 144.293 5.86834C145.245 5.42595 146.315 5.03328 147.277 4.66982C147.794 4.47244 147.781 4.20811 147.341 3.95411C146.97 3.7398 146.3 3.53628 145.384 3.37528M197.925 33.7829C197.301 35.0213 196.55 36.2592 195.855 37.6216C195.027 39.1827 196.728 41.9833 199.573 43.7546C202.21 45.4422 204.844 47.1654 207.469 48.9378C210.254 50.8765 213.027 51.0262 213.541 49.2471C214.057 47.7815 214.52 46.3769 214.923 45.0116C215.35 43.6049 213.656 41.0468 211.152 39.2886C208.822 37.7046 206.388 36.0788 204.018 34.5636C203.894 34.4922 203.77 34.4207 203.647 34.3493C201.09 32.873 198.628 32.6276 197.917 33.7967M189.555 26.2135C187.058 24.9188 184.551 23.6734 182.014 22.4476C179.121 21.1081 176.073 20.9278 175.054 21.9932C174.073 23.0252 173.075 24.1202 172.063 25.3C170.892 26.6627 172.408 28.9894 175.472 30.4458C178.201 31.7828 181.01 33.2028 183.804 34.6504C186.849 36.2981 190.125 36.3707 190.966 34.8176C191.799 33.5346 192.592 32.3205 193.256 31.1059C194.009 29.9607 192.483 27.9042 189.912 26.4199C189.789 26.3484 189.665 26.277 189.541 26.2056M247.276 59.649C247.55 60.285 247.868 61.0376 248.177 61.8039C248.52 62.7005 249.666 64.6847 250.683 66.0985C251.598 67.4349 252.491 68.7772 253.298 70.0147C254.232 71.509 254.657 71.8833 254.249 70.876C253.932 70.1234 253.55 69.2602 253.19 68.5193C252.757 67.6816 251.74 65.9188 250.877 64.5568C250.064 63.2976 249.235 62.066 248.398 60.8481C247.749 59.9406 247.327 59.4026 247.189 59.3233C247.107 59.2756 247.136 59.3842 247.254 59.6548M144.754 0.880115C143.267 0.756557 141.786 0.654713 140.303 0.588363C138.684 0.535341 136.515 0.51392 135.701 0.558396C134.751 0.6162 133.941 0.717881 133.002 0.819116C132.054 0.969621 132.599 1.13721 134.224 1.21194C135.841 1.30046 137.45 1.40275 138.928 1.54009C140.811 1.70843 142.952 1.71397 143.901 1.56347C144.719 1.44801 145.529 1.34632 146.351 1.28807C146.637 1.26935 146.732 1.23221 146.649 1.18459C146.512 1.10521 145.807 0.99229 144.746 0.893893M229.2 45.5568C229.281 46.5589 229.217 47.4956 229.223 48.5645C229.118 49.6982 230.702 52.1928 232.663 54.0043C234.339 55.5782 236.085 57.2844 237.715 58.9054C239.502 60.7636 240.82 61.0838 240.776 59.8273C240.634 58.6435 240.536 57.5761 240.399 56.5422C240.257 55.4865 238.741 53.1598 237.182 51.543C235.614 49.94 234.103 48.4614 232.482 46.9193C231.788 46.2798 231.157 45.7865 230.634 45.4849C229.768 44.9848 229.193 44.965 229.186 45.5488M164.737 7.73294C162.591 7.1002 160.421 6.50878 158.391 5.96125C156.077 5.39694 153.438 5.26933 152.319 5.65197C151.355 6.05093 150.381 6.49916 149.406 6.98288C148.175 7.55841 149.24 8.54039 151.734 9.17239C153.967 9.78178 156.184 10.4187 158.511 11.1192C161.066 11.9328 163.892 12.0216 164.948 11.4001C165.742 10.8487 166.647 10.3608 167.43 9.89415C167.932 9.59613 167.622 9.08619 166.742 8.5782C166.233 8.28452 165.539 7.99413 164.715 7.73878M235.597 45.9066C235.855 46.5702 236.105 47.2476 236.326 47.9446C236.488 48.6808 237.892 50.6304 239.355 52.1916C240.703 53.6677 241.948 55.0665 243.164 56.4848C244.458 58.0218 245.292 58.577 244.964 57.6528C244.663 56.8727 244.354 56.1064 244.087 55.4566C243.727 54.7157 242.403 52.8492 241.19 51.3954C240.046 50.0739 238.881 48.7582 237.7 47.4701C236.852 46.5579 236.15 45.9322 235.806 45.7338C235.586 45.6068 235.505 45.6519 235.61 45.9146M161.692 3.51342C159.986 3.13467 158.13 2.76131 156.414 2.43183C154.548 2.10774 152.398 1.89507 151.576 1.95333C150.76 2.0333 149.928 2.14082 149.102 2.27006C148.138 2.44812 149.036 2.89306 151.014 3.24516C152.984 3.61103 154.81 4.00401 156.636 4.39699C158.72 4.88357 161.096 5.11676 161.962 4.91863C162.676 4.76138 163.262 4.60369 163.958 4.50949C164.238 4.46906 164.251 4.38429 164.017 4.24936C163.687 4.05886 162.857 3.7818 161.692 3.51342ZM211.506 31.7222C211.251 32.5122 211.053 33.4267 210.729 34.3052C210.4 35.3828 212.096 37.6845 214.532 39.403C216.753 41.0163 218.951 42.6708 221.111 44.3588C223.371 46.1595 225.362 46.6477 225.492 45.4372C225.604 44.418 225.679 43.4321 225.701 42.4717C225.732 41.4975 224.022 39.3161 221.98 37.6778C220.024 36.1444 218.044 34.6523 216.063 33.1958C215.633 32.8925 215.209 32.6109 214.796 32.3728C213.105 31.3965 211.716 31.0721 211.506 31.7222ZM184.851 15.1207C182.585 14.1247 180.303 13.1561 177.997 12.229C175.431 11.2437 172.687 10.8534 171.867 11.3534C171.172 11.8894 170.356 12.4467 169.403 13.0173C168.42 13.7357 169.838 15.2159 172.654 16.3086C175.083 17.3072 177.615 18.3831 180.123 19.5003C182.829 20.7504 185.788 21.1177 186.439 20.2443C187.156 19.5743 187.731 18.8959 188.288 18.2805C188.746 17.7733 187.841 16.7366 186.15 15.7603C185.765 15.5381 185.331 15.3058 184.867 15.0932M197.36 21.2037C194.838 19.8577 192.242 19.2411 191.64 19.9037C191.045 20.5524 190.537 21.306 189.893 22.0729C189.174 22.9993 190.824 24.9991 193.767 26.5695C196.362 28.0125 198.919 29.4888 201.466 31.0144C204.195 32.7004 206.854 33.2068 207.297 32.1216C207.639 31.1801 207.936 30.2857 208.302 29.5237C208.575 28.6707 206.743 26.7314 204.316 25.2201C203.142 24.5237 201.995 23.8431 200.84 23.1764C199.686 22.5097 198.531 21.8429 197.333 21.1879M221.18 32.9356C221.262 33.4606 221.336 33.9992 221.27 34.494C221.347 35.2181 222.915 37.0421 224.848 38.6168C226.56 40.0646 228.256 41.5399 229.828 42.9437C231.573 44.5573 232.938 45.2721 232.699 44.4172C232.58 43.7975 232.345 43.0926 232.189 42.5063C231.917 41.8348 230.421 40.1077 228.823 38.6525C227.325 37.31 225.798 35.9872 224.16 34.6008C223.36 33.9551 222.637 33.4279 222.088 33.1104C221.483 32.7612 221.132 32.6692 221.172 32.9494M179.481 8.7689C177.588 8.07984 175.678 7.41834 173.767 6.79233C171.582 6.10028 169.338 5.66836 168.747 5.80434C168.021 5.91816 167.441 6.09757 166.697 6.27443C165.963 6.53022 167.125 7.31138 169.408 8.0235C171.55 8.72723 173.654 9.46436 175.764 10.2232C177.976 11.0593 180.457 11.5552 180.997 11.2238C181.511 10.9692 182.022 10.7501 182.392 10.5226C182.646 10.4308 182.413 10.1677 181.808 9.81843C181.272 9.50887 180.462 9.13327 179.468 8.76096M226.362 35.1371C226.628 35.4379 226.892 35.7741 227.121 36.1082C227.42 36.5747 228.926 38.1243 230.508 39.6071C231.88 40.9136 233.223 42.2397 234.535 43.5855C236.034 45.1488 236.844 45.8735 236.451 45.316C236.169 44.9573 235.892 44.6014 235.619 44.248C232.744 41.1 229.697 38.0915 226.485 35.2086C226.417 35.1689 226.348 35.1292 226.32 35.1133C226.307 35.1054 226.32 35.1133 226.354 35.1509M177.779 7.05099C173.676 5.71121 169.547 4.57646 165.383 3.6605C164.932 3.59581 164.485 3.53375 164.043 3.47434C163.497 3.43496 164.522 3.78765 166.499 4.26794C168.327 4.75362 170.146 5.25307 172.098 5.81019C174.165 6.45252 176.246 6.9746 176.674 6.96427C177.091 7.00321 177.501 7.05592 177.894 7.1362C177.957 7.15417 177.993 7.15627 177.979 7.14833C177.965 7.14039 177.897 7.1007 177.784 7.0727M204.381 21.3625C204.292 21.7705 204.055 22.1483 203.817 22.5616C203.632 23.1349 205.265 24.7205 207.595 26.1763C209.677 27.5247 211.653 28.8314 213.703 30.235C215.954 31.8286 217.733 32.5251 217.774 31.8508C217.74 31.2432 217.784 30.7542 217.804 30.3066C217.708 29.7737 216.046 28.2078 214.068 26.8085C212.299 25.5853 210.405 24.3263 208.495 23.0948C208.22 22.9361 207.959 22.7853 207.697 22.6344C205.979 21.6423 204.548 21.0732 204.373 21.3763M197.249 16.602C195.227 15.5634 193.3 14.6159 191.246 13.6324C189.059 12.6268 186.858 11.9623 186.48 12.2035C185.963 12.4009 185.562 12.6835 185.032 12.9657C184.595 13.3744 186.079 14.5807 188.467 15.6837C190.707 16.7566 192.945 17.865 195.154 18.993C197.47 20.22 199.783 20.9125 200.055 20.4085C200.294 19.9952 200.613 19.665 200.812 19.3205C200.979 19.0312 199.765 18.0546 198.046 17.0624C197.799 16.9195 197.538 16.7687 197.263 16.61M212.425 24.2249C212.487 24.3711 212.635 24.6221 212.666 24.8234C212.659 25.058 214.31 26.4523 216.28 27.8655C218.017 29.1437 219.724 30.4415 221.313 31.6896C223.198 33.2188 224.451 34.0338 224.254 33.6446C224.019 33.2888 223.769 32.9605 223.605 32.7371C223.403 32.547 223.005 32.1886 222.389 31.6678C220.133 29.7961 217.803 27.9911 215.418 26.2472C213.999 25.2442 212.873 24.4651 212.529 24.2667C212.447 24.2191 212.419 24.2032 212.425 24.2249ZM191.147 12.216C188.453 11.0094 185.724 9.89332 182.99 8.88378C182.231 8.61091 181.603 8.3957 181.469 8.37354C181.062 8.28533 180.653 8.23261 180.241 8.21538C179.805 8.23949 181.255 8.96644 183.404 9.78459C185.398 10.5864 187.389 11.4237 189.364 12.2886C191.441 13.2308 193.467 13.9775 193.798 13.9116C193.988 13.8373 194.161 13.7906 194.319 13.7714C194.382 13.7894 194.362 13.7597 194.266 13.7042C193.936 13.5137 192.698 12.9275 191.169 12.2101M202.372 17.8882C201.822 17.5707 201.259 17.2453 200.693 16.9553C198.722 15.8913 197.099 15.0829 196.958 15.0745C196.8 15.0937 196.618 15.1542 196.429 15.2284C196.207 15.3578 197.786 16.4343 200.025 17.6354C202.021 18.7508 204.11 19.9573 206.074 21.1278C208.248 22.4747 209.947 23.309 209.957 23.0388C209.934 22.8238 209.888 22.65 209.936 22.5674C209.858 22.4488 208.236 21.3839 206.343 20.2176C205.793 19.9001 205.237 19.5609 204.688 19.2434C204.303 19.0212 203.904 18.791 203.519 18.5687C203.134 18.3465 202.735 18.1163 202.35 17.8941" fill="#EDEDED"/>
</svg>
