<svg width="134" height="61" viewBox="0 0 134 61" fill="none" xmlns="http://www.w3.org/2000/svg">
<g clip-path="url(#clip0_1_1243)">
<path d="M18.9645 2.19189H7.17725V55.0004H18.9645V2.19189Z" fill="#020302"/>
<path d="M25.1771 1.979H0.964355V3.12794H25.1771V1.979Z" fill="#020302"/>
<path d="M42.1132 26.4907H17.9004V27.6397H42.1132V26.4907Z" fill="#020302"/>
<path d="M25.1771 53.8501H0.964355V54.999H25.1771V53.8501Z" fill="#020302"/>
<path d="M51.1349 2.19189H39.3477V55.0004H51.1349V2.19189Z" fill="#020302"/>
<path d="M57.3475 1.979H33.1348V3.12794H57.3475V1.979Z" fill="#020302"/>
<path d="M57.3475 53.8501H33.1348V54.999H57.3475V53.8501Z" fill="#020302"/>
<path d="M1.81543 57.1286H2.41117V58.4477H3.73032V57.1286H4.32607V60.4052H3.73032V58.9584H2.41117V60.4052H1.81543V57.1286ZM4.96437 58.7456C4.96437 57.6818 5.56011 57.0435 6.41117 57.0435C7.26224 57.0435 7.85798 57.6818 7.85798 58.7456C7.85798 59.8094 7.26224 60.4477 6.41117 60.4477C5.56011 60.4903 4.96437 59.8094 4.96437 58.7456ZM7.30479 58.7456C7.30479 58.0222 6.96437 57.5541 6.45373 57.5541C5.94309 57.5541 5.60266 58.0222 5.60266 58.7456C5.60266 59.469 5.94309 59.9796 6.45373 59.9796C6.96437 59.9796 7.30479 59.5115 7.30479 58.7456ZM8.36862 58.7881C8.36862 57.7243 9.04947 57.086 9.85798 57.086C10.2835 57.086 10.5814 57.2988 10.7942 57.5115L10.4963 57.8945C10.3261 57.7243 10.1133 57.5966 9.85798 57.5966C9.30479 57.5966 8.92181 58.0647 8.92181 58.7881C8.92181 59.5541 9.26224 59.9796 9.81543 59.9796C10.1133 59.9796 10.3261 59.852 10.5388 59.6392L10.8367 60.0222C10.5814 60.3201 10.241 60.4903 9.81543 60.4903C9.04947 60.4903 8.36862 59.852 8.36862 58.7881ZM11.475 57.1286H12.0282V58.4477H13.3473V57.1286H13.9431V60.4052H13.3473V58.9584H12.0282V60.4052H11.4325V57.1286H11.475ZM14.7942 57.1286H15.3899V60.4052H14.7942V57.1286ZM16.1984 57.1286H16.8793L17.475 58.7456C17.5601 58.9584 17.6027 59.1711 17.6878 59.3839C17.7729 59.1711 17.8154 58.9584 17.9005 58.7456L18.4537 57.1286H19.1346V60.4052H18.5814V58.9158C18.5814 58.6179 18.6239 58.1924 18.6665 57.852L18.4112 58.6179L17.858 60.1073H17.5176L16.9644 58.6179L16.709 57.852C16.7516 58.1498 16.7942 58.5754 16.7942 58.9158V60.4052H16.2835V57.1286H16.1984ZM19.9856 57.1286H20.5388V60.4052H19.9431V57.1286H19.9856ZM21.3899 57.1286H21.9856L23.0069 59.0009L23.3473 59.7243C23.3048 59.3839 23.2622 58.9584 23.2622 58.6179V57.1711H23.8154V60.4477H23.2197L22.1984 58.5754L21.858 57.8945C21.9005 58.2349 21.9431 58.6605 21.9431 59.0009V60.4477H21.3899V57.1286ZM24.709 57.1286H25.3048V58.4477H26.6239V57.1286H27.2197V60.4052H26.6239V58.9584H25.3048V60.4052H24.709V57.1286ZM28.8793 58.7881C28.8793 57.7243 29.5601 57.086 30.3686 57.086C30.7942 57.086 31.092 57.2988 31.3048 57.5115L31.0069 57.8945C30.8367 57.7243 30.6239 57.5966 30.3686 57.5966C29.8154 57.5966 29.4325 58.0647 29.4325 58.7881C29.4325 59.5541 29.7729 59.9796 30.3261 59.9796C30.6239 59.9796 30.8367 59.852 31.0495 59.6392L31.3473 60.0222C31.092 60.3201 30.7516 60.4903 30.3261 60.4903C29.5176 60.4903 28.8793 59.852 28.8793 58.7881ZM31.9431 57.1286H32.5388V60.4052H31.9431V57.1286ZM34.0282 57.5966H33.092V57.086H35.5601V57.5966H34.6239V60.4052H34.0282V57.5966ZM36.5814 59.1711L35.6027 57.086H36.241L36.5814 57.9371C36.6665 58.1924 36.7516 58.4052 36.8793 58.6605C36.9644 58.4052 37.092 58.1924 37.1771 57.9371L37.5176 57.086H38.1133L37.1346 59.1711V60.4052H36.5388V59.1711H36.5814ZM40.3261 58.7881C40.3261 57.7243 41.0069 57.086 41.8154 57.086C42.241 57.086 42.5388 57.2988 42.7516 57.5115L42.4537 57.8945C42.2835 57.7243 42.0708 57.5966 41.8154 57.5966C41.2622 57.5966 40.8793 58.0647 40.8793 58.7881C40.8793 59.5541 41.2197 59.9796 41.7729 59.9796C42.0708 59.9796 42.2835 59.852 42.4963 59.6392L42.7942 60.0222C42.5388 60.3201 42.1984 60.4903 41.7729 60.4903C40.9644 60.4903 40.3261 59.852 40.3261 58.7881ZM43.0495 58.7456C43.0495 57.6818 43.6452 57.0435 44.4963 57.0435C45.3474 57.0435 45.9431 57.6818 45.9431 58.7456C45.9431 59.8094 45.3474 60.4477 44.4963 60.4477C43.6452 60.4903 43.0495 59.8094 43.0495 58.7456ZM45.3474 58.7456C45.3474 58.0222 45.0069 57.5541 44.4963 57.5541C43.9856 57.5541 43.6452 58.0222 43.6452 58.7456C43.6452 59.469 43.9856 59.9796 44.4963 59.9796C45.0069 59.9796 45.3474 59.5115 45.3474 58.7456ZM46.6239 57.1286H47.3048L47.9005 58.7456C47.9856 58.9584 48.0282 59.1711 48.1133 59.3839C48.1984 59.1711 48.241 58.9584 48.3261 58.7456L48.8793 57.1286H49.5601V60.4052H49.0069V58.9158C49.0069 58.6179 49.0495 58.1924 49.092 57.852L48.8367 58.6179L48.2835 60.1073H47.9431L47.3899 58.6179L47.1346 57.852C47.1771 58.1498 47.2197 58.5754 47.2197 58.9158V60.4052H46.709V57.1286H46.6239ZM50.3686 57.1286H51.3899C52.1133 57.1286 52.6665 57.3839 52.6665 58.1498C52.6665 58.8732 52.1133 59.2137 51.4325 59.2137H50.9644V60.4052H50.3686V57.1286ZM51.3899 58.7456C51.9005 58.7456 52.1133 58.5328 52.1133 58.1498C52.1133 57.7243 51.858 57.5966 51.3474 57.5966H50.9218V58.7456H51.3899ZM53.2622 58.9584V57.1286H53.858V59.0435C53.858 59.7669 54.1133 59.9796 54.5388 59.9796C54.9218 59.9796 55.2197 59.7243 55.2197 59.0435V57.1286H55.7729V58.9584C55.7729 60.0222 55.3048 60.4477 54.5388 60.4477C53.7729 60.4903 53.2622 60.0647 53.2622 58.9584ZM57.2622 57.5966H56.3261V57.086H58.7942V57.5966H57.858V60.4052H57.2622V57.5966ZM59.3473 57.1286H61.3473V57.6392H59.9431V58.4903H61.1346V59.0009H59.9431V59.9796H61.3899V60.4903H59.3473V57.1286ZM63.1346 59.1286H62.6239V60.4052H62.0282V57.1286H63.1346C63.8154 57.1286 64.3686 57.3839 64.3686 58.1073C64.3686 58.6179 64.1133 58.9158 63.7303 59.0435L64.5388 60.4052H63.9005L63.1346 59.1286ZM63.092 58.6605C63.5601 58.6605 63.7729 58.4903 63.7729 58.1073C63.7729 57.7243 63.5176 57.5966 63.092 57.5966H62.6239V58.6605H63.092ZM67.6878 57.1286H68.3686L69.4325 60.4052H68.7942L68.5388 59.5115H67.4325L67.1771 60.4052H66.5814L67.6878 57.1286ZM68.4537 59.0435L68.3261 58.6605C68.241 58.3201 68.1133 57.9371 68.0282 57.5541C67.9431 57.9371 67.858 58.2775 67.7303 58.6605L67.6027 59.0435H68.4537ZM69.6452 59.9796L69.9856 59.5966C70.241 59.8094 70.5388 59.9796 70.8367 59.9796C71.2197 59.9796 71.3899 59.8094 71.3899 59.5541C71.3899 59.2988 71.1771 59.2137 70.8793 59.086L70.4112 58.8732C70.0708 58.7456 69.7303 58.4903 69.7303 57.9796C69.7303 57.469 70.1984 57.0435 70.8367 57.0435C71.2197 57.0435 71.6027 57.2137 71.858 57.469L71.5601 57.852C71.3474 57.6818 71.1346 57.5541 70.8367 57.5541C70.5388 57.5541 70.3261 57.6818 70.3261 57.9371C70.3261 58.1924 70.5814 58.2775 70.8367 58.4052L71.2622 58.5754C71.6452 58.7456 71.9431 59.0009 71.9431 59.469C71.9431 60.0222 71.5176 60.4477 70.7516 60.4477C70.3686 60.4903 69.9431 60.2775 69.6452 59.9796ZM72.3261 59.9796L72.6665 59.5966C72.9218 59.8094 73.2197 59.9796 73.5176 59.9796C73.9005 59.9796 74.0708 59.8094 74.0708 59.5541C74.0708 59.2988 73.858 59.2137 73.5601 59.086L73.092 58.8732C72.7516 58.7456 72.4112 58.4903 72.4112 57.9796C72.4112 57.469 72.8793 57.0435 73.5176 57.0435C73.9005 57.0435 74.2835 57.2137 74.5388 57.469L74.241 57.852C74.0282 57.6818 73.8154 57.5541 73.5176 57.5541C73.2197 57.5541 73.0069 57.6818 73.0069 57.9371C73.0069 58.1924 73.2622 58.2775 73.5176 58.4052L73.9431 58.5754C74.3261 58.7456 74.6239 59.0009 74.6239 59.469C74.6239 60.0222 74.1984 60.4477 73.4325 60.4477C73.0495 60.4903 72.6239 60.2775 72.3261 59.9796ZM75.092 58.7456C75.092 57.6818 75.6878 57.0435 76.5388 57.0435C77.3899 57.0435 77.9856 57.6818 77.9856 58.7456C77.9856 59.8094 77.3899 60.4477 76.5388 60.4477C75.6878 60.4903 75.092 59.8094 75.092 58.7456ZM77.4325 58.7456C77.4325 58.0222 77.092 57.5541 76.5814 57.5541C76.0708 57.5541 75.7303 58.0222 75.7303 58.7456C75.7303 59.469 76.0708 59.9796 76.5814 59.9796C77.092 59.9796 77.4325 59.5115 77.4325 58.7456ZM78.4963 58.7881C78.4963 57.7243 79.1771 57.086 79.9856 57.086C80.4112 57.086 80.7091 57.2988 80.9218 57.5115L80.6239 57.8945C80.4537 57.7243 80.241 57.5966 79.9856 57.5966C79.4325 57.5966 79.0495 58.0647 79.0495 58.7881C79.0495 59.5541 79.3899 59.9796 79.9431 59.9796C80.241 59.9796 80.4537 59.852 80.6665 59.6392L80.9644 60.0222C80.7091 60.3201 80.3686 60.4903 79.9431 60.4903C79.1771 60.4903 78.4963 59.852 78.4963 58.7881ZM81.5601 57.1286H82.1559V60.4052H81.5601V57.1286ZM83.6452 57.1286H84.3261L85.3899 60.4052H84.7942L84.5388 59.5115H83.4325L83.1771 60.4052H82.5814L83.6452 57.1286ZM84.4112 59.0435L84.2835 58.6605C84.1984 58.3201 84.0708 57.9371 83.9856 57.5541C83.9005 57.9371 83.8154 58.2775 83.6878 58.6605L83.5601 59.0435H84.4112ZM86.1559 57.5966H85.2197V57.086H87.6878V57.5966H86.7516V60.4052H86.1559V57.5966ZM88.241 57.1286H88.8367V60.4052H88.241V57.1286ZM89.475 58.7456C89.475 57.6818 90.0708 57.0435 90.9218 57.0435C91.7729 57.0435 92.3686 57.6818 92.3686 58.7456C92.3686 59.8094 91.7729 60.4477 90.9218 60.4477C90.0708 60.4903 89.475 59.8094 89.475 58.7456ZM91.7729 58.7456C91.7729 58.0222 91.4325 57.5541 90.9218 57.5541C90.4112 57.5541 90.0708 58.0222 90.0708 58.7456C90.0708 59.469 90.4112 59.9796 90.9218 59.9796C91.4325 59.9796 91.7729 59.5115 91.7729 58.7456ZM93.0495 57.1286H93.6452L94.6665 59.0009L95.0069 59.7243C94.9644 59.3839 94.9218 58.9584 94.9218 58.6179V57.1711H95.475V60.4477H94.8793L93.858 58.5754L93.5176 57.8945C93.5601 58.2349 93.6027 58.6605 93.6027 59.0009V60.4477H93.0495V57.1286Z" fill="#020302"/>
<path d="M108.879 59.9796L109.22 59.5966C109.475 59.8094 109.773 59.9796 110.071 59.9796C110.454 59.9796 110.624 59.8094 110.624 59.5541C110.624 59.2988 110.411 59.2137 110.113 59.086L109.645 58.8732C109.305 58.7456 108.964 58.4903 108.964 57.9796C108.964 57.469 109.433 57.0435 110.071 57.0435C110.454 57.0435 110.837 57.2137 111.092 57.469L110.794 57.852C110.582 57.6818 110.369 57.5541 110.071 57.5541C109.773 57.5541 109.56 57.6818 109.56 57.9371C109.56 58.1924 109.816 58.2775 110.071 58.4052L110.496 58.5754C110.879 58.7456 111.177 59.0009 111.177 59.469C111.177 60.0222 110.752 60.4477 109.986 60.4477C109.603 60.4903 109.177 60.2775 108.879 59.9796ZM111.858 57.1286H112.454V60.4052H111.858V57.1286ZM113.262 57.1286H113.858L114.879 59.0009L115.22 59.7243C115.177 59.3839 115.135 58.9584 115.135 58.6179V57.1711H115.688V60.4477H115.092L114.071 58.5754L113.73 57.8945C113.773 58.2349 113.816 58.6605 113.816 59.0009V60.4477H113.262V57.1286ZM116.411 58.7881C116.411 57.7243 117.092 57.086 117.901 57.086C118.326 57.086 118.624 57.2988 118.837 57.5115L118.539 57.8945C118.369 57.7243 118.156 57.5966 117.901 57.5966C117.347 57.5966 116.965 58.0647 116.965 58.7881C116.965 59.5541 117.305 59.9796 117.858 59.9796C118.156 59.9796 118.369 59.852 118.582 59.6392L118.879 60.0222C118.624 60.3201 118.284 60.4903 117.858 60.4903C117.05 60.4903 116.411 59.852 116.411 58.7881ZM119.475 57.1286H121.475V57.6392H120.071V58.4903H121.262V59.0009H120.071V59.9796H121.518V60.4903H119.475V57.1286ZM123.135 59.9371H123.858V57.852H123.262V57.469C123.56 57.4264 123.816 57.3413 123.986 57.2137H124.411V59.9371H125.05V60.4052H123.135V59.9371ZM125.603 60.1073L125.901 59.7669C126.028 59.8945 126.199 60.0222 126.411 60.0222C126.794 60.0222 127.135 59.7243 127.177 58.8307C127.007 59.086 126.709 59.2137 126.496 59.2137C125.943 59.2137 125.56 58.8732 125.56 58.2349C125.56 57.5966 126.028 57.1711 126.582 57.1711C127.22 57.1711 127.73 57.6392 127.73 58.7456C127.73 59.9796 127.135 60.4903 126.454 60.4903C126.071 60.4903 125.773 60.3201 125.603 60.1073ZM126.582 57.5966C126.326 57.5966 126.113 57.8094 126.113 58.1924C126.113 58.5754 126.284 58.7456 126.624 58.7456C126.794 58.7456 127.007 58.6605 127.22 58.3626C127.092 57.8094 126.879 57.5966 126.582 57.5966ZM128.156 59.5966C128.156 59.2137 128.411 58.9158 128.752 58.7881C128.496 58.6179 128.326 58.3626 128.326 58.0222C128.326 57.5115 128.752 57.1711 129.305 57.1711C129.858 57.1711 130.241 57.5115 130.241 58.0222C130.241 58.3626 130.028 58.6179 129.816 58.7456C130.113 58.9158 130.369 59.1286 130.369 59.5966C130.369 60.1073 129.943 60.4903 129.305 60.4903C128.624 60.4903 128.156 60.1073 128.156 59.5966ZM129.773 59.5966C129.773 59.2562 129.433 59.1286 129.007 58.9584C128.794 59.086 128.667 59.2988 128.667 59.5541C128.667 59.852 128.922 60.0647 129.262 60.0647C129.56 60.0647 129.773 59.8945 129.773 59.5966ZM129.73 58.0647C129.73 57.7669 129.56 57.5541 129.262 57.5541C129.007 57.5541 128.837 57.7243 128.837 57.9796C128.837 58.3201 129.135 58.4477 129.475 58.5754C129.603 58.4477 129.73 58.235 129.73 58.0647ZM130.752 59.5966C130.752 59.2137 131.007 58.9158 131.347 58.7881C131.092 58.6179 130.922 58.3626 130.922 58.0222C130.922 57.5115 131.347 57.1711 131.901 57.1711C132.454 57.1711 132.837 57.5115 132.837 58.0222C132.837 58.3626 132.624 58.6179 132.411 58.7456C132.709 58.9158 132.965 59.1286 132.965 59.5966C132.965 60.1073 132.539 60.4903 131.901 60.4903C131.22 60.4903 130.752 60.1073 130.752 59.5966ZM132.369 59.5966C132.369 59.2562 132.028 59.1286 131.603 58.9584C131.39 59.086 131.262 59.2988 131.262 59.5541C131.262 59.852 131.518 60.0647 131.858 60.0647C132.156 60.0647 132.369 59.8945 132.369 59.5966ZM132.284 58.0647C132.284 57.7669 132.113 57.5541 131.816 57.5541C131.56 57.5541 131.39 57.7243 131.39 57.9796C131.39 58.3201 131.688 58.4477 132.028 58.5754C132.199 58.4477 132.284 58.235 132.284 58.0647Z" fill="#D02127"/>
<path d="M95.0496 1.97943V20.405H93.3475C93.3475 17.5965 88.7943 1.5539 76.6241 1.5539C64.4964 1.5539 65.3049 22.9582 65.3475 28.4901C65.3475 28.5752 65.3475 28.6177 65.3475 28.7028V28.7879C65.3475 34.022 65.0071 53.4688 77.1347 53.4688C77.5177 53.4688 77.9007 53.4688 78.2836 53.4262C78.2836 53.5539 78.2836 55.0007 78.2836 55.0007H79.1773C79.1773 55.0007 79.1773 55.0007 79.1347 55.0007H75.4326C62.7943 53.9369 52.8794 42.9156 52.8794 29.4262C52.8794 29.1709 52.8794 28.873 52.8794 28.6177C52.8794 28.3199 52.8794 28.0645 52.8794 27.7667C52.8794 13.5539 62.5815 1.21347 75.2198 0.575175C80.4964 0.319856 82.0709 1.00071 84.0709 1.59645C84.0709 1.59645 89.3475 4.02198 91.0496 4.02198C93.3049 4.02198 93.3049 1.97943 93.3049 1.97943H95.0496Z" fill="#D02127"/>
<path d="M118.198 36.2349H93.8579V37.3838H118.198V36.2349Z" fill="#D02127"/>
<path d="M133.007 53.8081H108.667V54.9996H133.007V53.8081Z" fill="#D02127"/>
<path d="M128.071 54.8302H115.262L114.88 53.8089L108.965 37.3834L108.539 36.2344L101.816 17.6387C101.816 17.6387 98.3689 27.3408 95.2625 36.2344C95.1774 36.4897 95.0923 36.7451 95.0072 37.0004C94.9646 37.128 94.9221 37.2557 94.8795 37.3834C92.5816 43.9791 90.5816 49.8089 90.454 50.5749C90.3689 51.128 90.4114 51.5536 90.5391 51.9366C90.9221 53.0429 92.071 53.5961 93.1774 53.7238C93.3901 53.7663 93.6029 53.7663 93.8157 53.7663H95.0072H95.4753V54.9153H78.2412C78.2412 54.9153 78.2412 53.4685 78.2412 53.3408C78.2838 53.3408 78.2838 53.3408 78.3263 53.3408C78.6242 53.3408 79.1348 53.2983 79.7306 53.1706C81.305 52.8302 83.6029 52.0642 85.7731 50.3621C85.8157 50.3195 85.8582 50.277 85.9008 50.277C86.454 49.8514 86.9646 49.3834 87.4327 48.8302C88.1135 48.1068 88.7518 47.2557 89.305 46.277C90.071 44.9578 91.5178 41.2983 93.2625 36.5749C93.2625 36.5323 93.305 36.4897 93.305 36.4472C98.4965 22.7451 106.028 0.489746 106.028 0.489746H107.092L127.688 53.8089L128.071 54.8302Z" fill="#D02127"/>
</g>
<defs>
<clipPath id="clip0_1_1243">
<rect width="132.085" height="60" fill="white" transform="translate(0.964355 0.48877)"/>
</clipPath>
</defs>
</svg>
