<svg width="74" height="72" viewBox="0 0 74 72" fill="none" xmlns="http://www.w3.org/2000/svg">
<g clip-path="url(#clip0_1_1287)">
<path fill-rule="evenodd" clip-rule="evenodd" d="M37.3743 0.763184L73.7842 19.9383V52.2774L37.3743 71.4905L0.964355 52.2774V19.9383L37.3743 0.763184Z" fill="#ED1C24"/>
<path fill-rule="evenodd" clip-rule="evenodd" d="M37.3742 2.20703L72.5666 20.5071V51.7048L37.3742 70.157L2.21973 51.7048V20.5071L37.3742 2.20703Z" fill="white"/>
<path d="M37.4884 4.41455L70.8166 21.2689V50.7925L37.4884 68.3697L4.16016 50.7925V21.2689L37.4884 4.41455Z" stroke="#254E7C" stroke-width="1.52184" stroke-miterlimit="2.6131"/>
<path fill-rule="evenodd" clip-rule="evenodd" d="M6.0625 29.9441V22.2208L37.5265 6.5459L68.9905 22.411V29.9441H6.0625Z" fill="#ED1C24"/>
<path fill-rule="evenodd" clip-rule="evenodd" d="M6.0625 42.3462V50.2217L37.5265 66.3532L68.9905 50.2217V42.3462H6.0625Z" fill="#ED1C24" stroke="#ED1C24" stroke-width="0.06464" stroke-miterlimit="2.6131"/>
<path fill-rule="evenodd" clip-rule="evenodd" d="M48.027 12.7466V20.7362H46.8856V12.7466H41.0265L40.9504 20.6601H27.1398V13.0509L27.1017 12.9749L25.8843 12.8988C25.1994 12.8988 56.1308 12.7466 48.027 12.7466Z" fill="white" stroke="white" stroke-width="0.06464" stroke-miterlimit="2.6131"/>
<path fill-rule="evenodd" clip-rule="evenodd" d="M32.3901 14.1543H36.5752V17.1599H32.3901V14.1543Z" fill="#ED1C24"/>
<path fill-rule="evenodd" clip-rule="evenodd" d="M67.2403 43.9434H46.4292V60.9499L67.2403 43.9434Z" fill="white"/>
<path fill-rule="evenodd" clip-rule="evenodd" d="M7.39404 43.9434H28.2052V60.9499L7.39404 43.9434Z" fill="white"/>
<path fill-rule="evenodd" clip-rule="evenodd" d="M34.0643 52.9613H34.8252C34.4828 51.4776 34.2545 50.184 34.2165 48.9285C34.1404 47.711 34.2165 46.5696 34.3687 45.4283C33.9502 45.6946 33.6458 46.075 33.4936 46.6077C33.2653 47.2925 33.2273 48.1676 33.3034 49.0807C33.4175 50.4884 33.7599 51.9341 34.0643 52.9613ZM33.9121 55.3202H36.8036V53.6842H33.9121V55.3202ZM37.6406 55.3202H38.82V53.6842H37.6406V55.3202ZM39.6951 55.3202H41.9779V53.6842H39.6951V55.3202ZM41.9779 55.6626H39.6951V60.7608H38.82V55.6626H37.6406V60.7608H36.7656V55.6626H33.8741V60.7608H32.961C32.961 56.6518 32.8849 53.1896 32.5805 49.1948C32.5044 48.2056 32.5425 47.2545 32.8088 46.4555C33.0751 45.6185 33.6078 44.9717 34.4828 44.6673C34.7111 44.5912 34.9394 44.5532 35.1676 44.5532C37.9069 44.363 38.744 46.3414 38.9342 48.6622C39.0483 50.0318 38.8961 51.5156 38.782 52.6189C38.782 52.695 38.782 52.8092 38.744 52.9994H43.1953V53.7223H42.6627V60.7608H41.9779V55.6626ZM35.5861 52.9613H36.3851C36.7656 51.4395 36.8417 50.1079 36.8036 48.8524C36.7656 47.6349 36.5753 46.4555 36.3851 45.3141C36.0807 45.2 35.7003 45.1619 35.2818 45.2C35.2437 45.2 35.2057 45.2 35.1676 45.2C34.9774 46.4175 34.9013 47.5969 34.9774 48.8904C35.0155 50.146 35.2057 51.4776 35.5861 52.9613ZM37.108 52.9613H38.0972C38.0972 52.8472 38.1352 52.695 38.1352 52.5428C38.2494 51.4395 38.3635 50.0318 38.2874 48.7002C38.2113 47.5208 37.9069 46.4175 37.1841 45.7707C37.3363 46.7599 37.4884 47.7871 37.5265 48.8524C37.5645 50.1079 37.4504 51.4395 37.108 52.9613Z" fill="white" stroke="white" stroke-width="0.06464" stroke-miterlimit="2.6131"/>
<path fill-rule="evenodd" clip-rule="evenodd" d="M9.4105 26.6717H9.86705V26.8619C9.86705 27.1663 9.82901 27.3945 9.71487 27.5467C9.60073 27.737 9.4105 27.813 9.18223 27.813C8.95395 27.813 8.76372 27.737 8.61154 27.6228C8.4974 27.5087 8.42131 27.3565 8.38326 27.1282C8.34521 26.976 8.34521 26.7097 8.34521 26.4053V25.9488C8.34521 25.4922 8.38326 25.1879 8.45935 24.9976C8.57349 24.7313 8.80177 24.6172 9.14418 24.6172C9.37245 24.6172 9.52464 24.6933 9.63878 24.8074C9.75291 24.9596 9.82901 25.1498 9.82901 25.3781V25.5303V25.6064H9.37246C9.33441 25.3781 9.33441 25.264 9.33441 25.264C9.29636 25.1118 9.22027 25.0357 9.14418 25.0357C9.03004 25.0357 8.9159 25.1118 8.83981 25.264C8.80177 25.3781 8.80177 25.4922 8.80177 25.6825V25.7966V26.6336C8.80177 26.8239 8.80177 26.976 8.83981 27.0521C8.87786 27.2043 8.992 27.2804 9.14418 27.2804C9.25832 27.2804 9.33441 27.2043 9.37246 27.0141C9.4105 27.0141 9.4105 26.8619 9.4105 26.6717Z" fill="white"/>
<path fill-rule="evenodd" clip-rule="evenodd" d="M10.1713 26.4053V25.9488C10.1713 25.4922 10.2094 25.1879 10.2855 24.9976C10.3996 24.7313 10.6279 24.6172 10.9703 24.6172C11.3127 24.6172 11.541 24.7313 11.6551 24.9976C11.7312 25.1879 11.7693 25.4922 11.7693 25.9488V26.4053C11.7693 26.7478 11.7693 26.976 11.7312 27.1282C11.6932 27.3565 11.6171 27.5087 11.503 27.6228C11.3888 27.737 11.1986 27.813 10.9323 27.813C10.704 27.813 10.5138 27.737 10.3616 27.6228C10.2474 27.5087 10.1713 27.3565 10.1333 27.1282C10.1713 26.976 10.1713 26.7478 10.1713 26.4053ZM10.6659 25.8347V26.6717C10.6659 26.8619 10.6659 27.0141 10.704 27.0902C10.742 27.2424 10.8562 27.3184 11.0084 27.3184C11.1605 27.3184 11.2366 27.2424 11.3127 27.0902C11.3508 26.976 11.3508 26.8239 11.3508 26.6336V25.8347C11.3508 25.6064 11.3508 25.4542 11.3127 25.3781C11.2747 25.1879 11.1605 25.0737 11.0084 25.0737C10.8562 25.0737 10.7801 25.1498 10.742 25.302C10.704 25.4162 10.6659 25.5303 10.6659 25.7205V25.8347Z" fill="white"/>
<path fill-rule="evenodd" clip-rule="evenodd" d="M13.2912 25.3016V24.6929H13.7478V27.7365H13.2532L12.8727 26.6332C12.7586 26.3288 12.6445 25.9103 12.5303 25.4157C12.5303 25.7201 12.5684 25.9864 12.5684 26.2908C12.5684 26.4049 12.5684 26.5571 12.5684 26.7474C12.5684 26.9376 12.5684 27.0898 12.5684 27.1659V27.7365H12.1118V24.6929H12.6064L12.9488 25.7962C13.0249 25.9864 13.063 26.1767 13.1391 26.3288C13.1771 26.5191 13.2532 26.7093 13.2912 26.9756L13.2532 26.1006C13.2532 25.9484 13.2532 25.8342 13.2532 25.6821C13.3293 25.606 13.3293 25.4538 13.2912 25.3016Z" fill="white"/>
<path fill-rule="evenodd" clip-rule="evenodd" d="M15.6879 25.6064H15.2313V25.5303C15.2313 25.3781 15.2313 25.264 15.1933 25.1879C15.1552 25.0738 15.0791 25.0357 14.965 25.0357C14.8889 25.0357 14.8128 25.0738 14.7747 25.1118C14.7367 25.1499 14.6987 25.226 14.6987 25.3401C14.6987 25.4542 14.7367 25.5303 14.7747 25.6064C14.8128 25.6445 14.8889 25.7206 14.965 25.7967C15.0791 25.8727 15.1552 25.9488 15.2693 26.0249C15.3835 26.1391 15.4976 26.2152 15.5357 26.2912C15.6118 26.4054 15.6498 26.4815 15.6879 26.5956C15.7259 26.7098 15.7259 26.8239 15.7259 26.938C15.7259 27.2044 15.6498 27.4326 15.4976 27.5848C15.3454 27.737 15.1552 27.8131 14.9269 27.8131C14.6606 27.8131 14.4704 27.737 14.3182 27.5468C14.2041 27.3946 14.166 27.1663 14.166 26.8619V26.6337H14.6226V26.8239V26.9C14.6226 27.0522 14.6606 27.1283 14.6987 27.2424C14.7367 27.3185 14.8128 27.3565 14.9269 27.3565C15.1172 27.3565 15.2313 27.2424 15.2313 27.0141C15.2313 26.938 15.2313 26.8619 15.1933 26.7858C15.1552 26.7098 15.1172 26.6717 15.0411 26.5956C15.003 26.5576 14.8889 26.4434 14.7367 26.3673C14.5084 26.1771 14.3562 26.0249 14.2802 25.9108C14.2041 25.7586 14.166 25.6064 14.166 25.4542C14.166 24.9216 14.3943 24.6553 14.8889 24.6553C15.1552 24.6553 15.3074 24.7314 15.4596 24.8835C15.6118 24.9977 15.6879 25.264 15.6879 25.6064Z" fill="white"/>
<path fill-rule="evenodd" clip-rule="evenodd" d="M15.9922 25.1494V24.6929H17.5521V25.1494H17.0194V27.7365H16.5629V25.1494H15.9922Z" fill="white"/>
<path fill-rule="evenodd" clip-rule="evenodd" d="M18.4272 26.442H18.3511V27.7737H17.8945V24.73H18.7696C18.9979 24.73 19.15 24.768 19.2642 24.8822C19.4164 24.9963 19.4544 25.1865 19.4544 25.4529C19.4544 25.6431 19.4164 25.7953 19.3783 25.9094C19.3022 26.0616 19.2261 26.1377 19.074 26.1757C19.1881 26.2138 19.3022 26.2518 19.3783 26.366C19.4164 26.442 19.4544 26.5562 19.4544 26.7464V26.8986C19.4544 27.0888 19.4544 27.241 19.4925 27.4312C19.4925 27.6215 19.5305 27.6976 19.5686 27.7356V27.8117H19.0359C18.9979 27.7356 18.9979 27.6595 18.9979 27.5454C18.9979 27.4312 18.9979 27.3171 18.9979 27.1649V27.0508C18.9979 26.8986 18.9979 26.8225 18.9598 26.7464C18.9218 26.6323 18.8837 26.5562 18.8076 26.5562C18.7696 26.5562 18.7315 26.5181 18.6554 26.5181C18.5794 26.442 18.5033 26.442 18.4272 26.442ZM18.313 25.1485V25.9855H18.6935C18.7696 25.9855 18.8457 25.9474 18.8837 25.8714C18.9218 25.7953 18.9598 25.6811 18.9598 25.5289C18.9598 25.3768 18.9218 25.2626 18.8837 25.2246C18.8457 25.1865 18.7696 25.1485 18.6554 25.1485H18.313Z" fill="white"/>
<path fill-rule="evenodd" clip-rule="evenodd" d="M20.9764 26.7854V24.6929H21.4329V26.8234C21.4329 27.1659 21.3949 27.4322 21.2807 27.5844C21.1666 27.7365 20.9383 27.8507 20.672 27.8507C20.3676 27.8507 20.1394 27.7746 20.0252 27.6224C19.9111 27.4702 19.873 27.2039 19.873 26.8615V24.7309H20.3296V26.8234C20.3296 27.0517 20.3676 27.2039 20.4057 27.28C20.4437 27.3561 20.5579 27.3941 20.672 27.3941C20.8242 27.3941 20.9003 27.318 20.9383 27.2039C20.9764 27.0898 20.9764 26.9756 20.9764 26.7854Z" fill="white"/>
<path fill-rule="evenodd" clip-rule="evenodd" d="M22.8788 26.6717H23.3353V26.8619C23.3353 27.1663 23.2973 27.3945 23.1831 27.5467C23.069 27.737 22.8788 27.813 22.6505 27.813C22.4222 27.813 22.232 27.737 22.0798 27.6228C21.9657 27.5087 21.8896 27.3565 21.8515 27.1282C21.8135 26.976 21.8135 26.7097 21.8135 26.4053V25.9488C21.8135 25.4922 21.8515 25.1879 21.9276 24.9976C22.0418 24.7313 22.27 24.6172 22.6124 24.6172C22.8407 24.6172 22.9929 24.6933 23.107 24.8074C23.2212 24.9596 23.2973 25.1498 23.2973 25.3781V25.5303V25.6064H22.8407C22.8027 25.3781 22.8027 25.264 22.8027 25.264C22.7646 25.1118 22.6885 25.0357 22.6124 25.0357C22.4603 25.0357 22.3842 25.1118 22.3461 25.264C22.3081 25.3781 22.3081 25.4922 22.3081 25.6825V25.7966V26.6336C22.3081 26.8239 22.3081 26.976 22.3461 27.0521C22.3842 27.2043 22.4983 27.2804 22.6505 27.2804C22.7646 27.2804 22.8407 27.2043 22.8788 27.0141C22.8407 27.0141 22.8788 26.8619 22.8788 26.6717Z" fill="white"/>
<path fill-rule="evenodd" clip-rule="evenodd" d="M23.564 25.1494V24.6929H25.1238V25.1494H24.5912V27.7365H24.1347V25.1494H23.564Z" fill="white"/>
<path fill-rule="evenodd" clip-rule="evenodd" d="M25.9228 27.7365H25.4282V24.6929H25.9228V27.7365Z" fill="white"/>
<path fill-rule="evenodd" clip-rule="evenodd" d="M26.2651 26.4053V25.9488C26.2651 25.4922 26.3031 25.1879 26.3792 24.9976C26.4934 24.7313 26.7216 24.6172 27.0641 24.6172C27.4065 24.6172 27.6347 24.7313 27.7489 24.9976C27.825 25.1879 27.863 25.4922 27.863 25.9488V26.4053C27.863 26.7478 27.863 26.976 27.825 27.1282C27.7869 27.3565 27.7108 27.5087 27.5967 27.6228C27.4826 27.737 27.2923 27.813 27.026 27.813C26.7977 27.813 26.6075 27.737 26.4553 27.6228C26.3412 27.5087 26.2651 27.3565 26.2271 27.1282C26.2651 26.976 26.2651 26.7478 26.2651 26.4053ZM26.7597 25.8347V26.6717C26.7597 26.8619 26.7597 27.0141 26.7977 27.0902C26.8358 27.2424 26.9499 27.3184 27.1021 27.3184C27.2543 27.3184 27.3304 27.2424 27.4065 27.0902C27.4445 26.976 27.4445 26.8239 27.4445 26.6336V25.8347C27.4445 25.6064 27.4445 25.4542 27.4065 25.3781C27.3684 25.1879 27.2543 25.0737 27.1021 25.0737C26.9499 25.0737 26.8738 25.1498 26.8358 25.302C26.7977 25.4162 26.7977 25.5303 26.7977 25.7205V25.8347H26.7597Z" fill="white"/>
<path fill-rule="evenodd" clip-rule="evenodd" d="M29.3845 25.3016V24.6929H29.8791V27.7365H29.3845L29.0041 26.6332C28.8899 26.3288 28.7758 25.9103 28.6617 25.4157C28.6617 25.7201 28.6997 25.9864 28.6997 26.2908C28.6997 26.4049 28.6997 26.5571 28.6997 26.7474C28.6997 26.9376 28.6997 27.0898 28.6997 27.1659V27.7365H28.2432V24.6929H28.7378L29.1182 25.7962C29.1943 25.9864 29.2324 26.1767 29.3085 26.3288C29.3465 26.5191 29.4226 26.7093 29.4606 26.9756L29.4226 26.1006C29.4226 25.9484 29.4226 25.8342 29.4226 25.6821C29.4226 25.606 29.3845 25.4538 29.3845 25.3016Z" fill="white"/>
<path fill-rule="evenodd" clip-rule="evenodd" d="M31.0968 26.7095H30.2979V26.2529H31.0968V26.7095Z" fill="white"/>
<path fill-rule="evenodd" clip-rule="evenodd" d="M32.0097 27.7365H31.5151V24.6929H32.8467V25.1494H32.0097V25.9103H32.8087V26.3669H32.0097V27.7365Z" fill="white"/>
<path fill-rule="evenodd" clip-rule="evenodd" d="M34.2166 26.7854V24.6929H34.6731V26.8234C34.6731 27.1659 34.6351 27.4322 34.5209 27.5844C34.4068 27.7365 34.1785 27.8507 33.8742 27.8507C33.5698 27.8507 33.3415 27.7746 33.2274 27.6224C33.1132 27.4702 33.0752 27.2039 33.0752 26.8615V24.7309H33.5317V26.8234C33.5317 27.0517 33.5698 27.2039 33.6078 27.28C33.6459 27.3561 33.76 27.3941 33.8742 27.3941C34.0263 27.3941 34.1024 27.318 34.1405 27.2039C34.2166 27.0898 34.2166 26.9756 34.2166 26.7854Z" fill="white"/>
<path fill-rule="evenodd" clip-rule="evenodd" d="M35.662 26.442H35.5859V27.7737H35.1294V24.73H35.9664C36.1947 24.73 36.3469 24.768 36.461 24.8822C36.6132 24.9963 36.6512 25.1865 36.6512 25.4529C36.6512 25.6431 36.6132 25.7953 36.5751 25.9094C36.499 26.0616 36.423 26.1377 36.2708 26.1757C36.3849 26.2138 36.499 26.2518 36.5751 26.366C36.6132 26.442 36.6512 26.5562 36.6512 26.7464V26.8986C36.6512 27.0888 36.6512 27.241 36.6893 27.4312C36.6893 27.6215 36.7273 27.6976 36.7654 27.7356V27.8117H36.2327C36.1947 27.7356 36.1947 27.6595 36.1947 27.5454C36.1947 27.4312 36.1947 27.3171 36.1947 27.1649V27.0508C36.1947 26.8986 36.1947 26.8225 36.1947 26.7464C36.1566 26.6323 36.1186 26.5562 36.0425 26.5562C36.0044 26.5562 35.9664 26.5181 35.8903 26.5181C35.8523 26.442 35.7381 26.442 35.662 26.442ZM35.5479 25.1485V25.9855H35.9284C36.0045 25.9855 36.0805 25.9474 36.1186 25.8714C36.1566 25.7953 36.1947 25.6811 36.1947 25.5289C36.1947 25.3768 36.1566 25.2626 36.1186 25.2246C36.0805 25.1865 36.0045 25.1485 35.8903 25.1485H35.5479Z" fill="white"/>
<path fill-rule="evenodd" clip-rule="evenodd" d="M38.3254 25.3016V24.6929H38.782V27.7365H38.2874L37.9069 26.6332C37.7928 26.3288 37.6786 25.9103 37.5645 25.4157C37.5645 25.7201 37.6025 25.9864 37.6025 26.2908C37.6025 26.4049 37.6025 26.5571 37.6025 26.7474C37.6025 26.9376 37.6025 27.0898 37.6025 27.1659V27.7365H37.146V24.6929H37.6406L37.983 25.7962C38.0591 25.9864 38.0971 26.1767 38.1732 26.3288C38.2113 26.5191 38.2874 26.7093 38.3254 26.9756L38.2874 26.1006C38.2874 25.9484 38.2874 25.8342 38.2874 25.6821C38.3254 25.606 38.3254 25.4538 38.3254 25.3016Z" fill="white"/>
<path fill-rule="evenodd" clip-rule="evenodd" d="M39.771 27.7365H39.2764V24.6929H39.771V27.7365Z" fill="white"/>
<path fill-rule="evenodd" clip-rule="evenodd" d="M40.0752 25.1494V24.6929H41.6351V25.1494H41.0644V27.7365H40.6078V25.1494H40.0752Z" fill="white"/>
<path fill-rule="evenodd" clip-rule="evenodd" d="M42.9671 26.7854V24.6929H43.4237V26.8234C43.4237 27.1659 43.3856 27.4322 43.2715 27.5844C43.1573 27.7365 42.9291 27.8507 42.6627 27.8507C42.3584 27.8507 42.1301 27.7746 42.016 27.6224C41.9018 27.4702 41.8638 27.2039 41.8638 26.8615V24.7309H42.3203V26.8234C42.3203 27.0517 42.3584 27.2039 42.3964 27.28C42.4345 27.3561 42.5486 27.3941 42.6627 27.3941C42.8149 27.3941 42.891 27.318 42.9291 27.2039C42.9291 27.0898 42.9671 26.9756 42.9671 26.7854Z" fill="white"/>
<path fill-rule="evenodd" clip-rule="evenodd" d="M44.3749 26.442H44.2988V27.7737H43.8423V24.73H44.7173C44.9456 24.73 45.0978 24.768 45.2119 24.8822C45.3641 24.9963 45.4022 25.1865 45.4022 25.4529C45.4022 25.6431 45.3641 25.7953 45.3261 25.9094C45.25 26.0616 45.1739 26.1377 45.0217 26.1757C45.1358 26.2138 45.25 26.2518 45.288 26.366C45.3261 26.442 45.3641 26.5562 45.3641 26.7464V26.8986C45.3641 27.0888 45.3641 27.241 45.4022 27.4312C45.4022 27.6215 45.4402 27.6976 45.4783 27.7356V27.8117H44.9456C44.9456 27.7356 44.9076 27.6595 44.9076 27.5454C44.9076 27.4312 44.9076 27.3171 44.9076 27.1649V27.0508C44.9076 26.8986 44.9076 26.8225 44.8695 26.7464C44.8315 26.6323 44.7934 26.5562 44.7173 26.5562C44.6793 26.5562 44.6413 26.5181 44.5652 26.5181C44.5652 26.442 44.4891 26.442 44.3749 26.442ZM44.2988 25.1485V25.9855H44.6793C44.7554 25.9855 44.8315 25.9474 44.8695 25.8714C44.9076 25.7953 44.9456 25.6811 44.9456 25.5289C44.9456 25.3768 44.9076 25.2626 44.8695 25.2246C44.8315 25.1865 44.7554 25.1485 44.6413 25.1485H44.2988Z" fill="white"/>
<path fill-rule="evenodd" clip-rule="evenodd" d="M46.353 27.28H47.4183V27.7365H45.8965V24.6929H47.4183V25.1494H46.353V25.9103H47.3422V26.3669H46.353V27.28Z" fill="white"/>
<path fill-rule="evenodd" clip-rule="evenodd" d="M49.4351 27.28H49.6253C49.8155 27.28 49.9297 27.2039 50.0058 27.0517C50.0438 26.8995 50.0819 26.5952 50.0819 26.1386C50.0819 25.7582 50.0438 25.4918 50.0058 25.3777C49.9677 25.2255 49.8536 25.1494 49.7394 25.1494H49.4351V27.28ZM49.8536 27.7365H48.9785V24.6929H49.9677C50.0438 24.6929 50.1199 24.7309 50.196 24.769C50.3101 24.8451 50.3862 24.9211 50.4623 25.0353C50.5004 25.1494 50.5384 25.2636 50.5764 25.4538C50.5764 25.606 50.6145 25.8342 50.6145 26.1006C50.6145 26.5191 50.6145 26.8234 50.5764 27.0137C50.5384 27.318 50.4243 27.5463 50.234 27.6605C50.196 27.6985 50.1579 27.6985 50.0819 27.7365C50.0058 27.7365 49.9297 27.7365 49.8536 27.7365Z" fill="white"/>
<path fill-rule="evenodd" clip-rule="evenodd" d="M51.4893 27.28H52.5546V27.7365H51.0327V24.6929H52.5546V25.1494H51.4893V25.9103H52.4785V26.3669H51.4893V27.28Z" fill="white"/>
<path fill-rule="evenodd" clip-rule="evenodd" d="M53.9623 26.6717H54.4188V26.8619C54.4188 27.1663 54.3808 27.3945 54.2666 27.5467C54.1525 27.737 53.9623 27.813 53.734 27.813C53.5057 27.813 53.3155 27.737 53.1633 27.6228C53.0492 27.5087 52.9731 27.3565 52.935 27.1282C52.897 26.976 52.897 26.7097 52.897 26.4053V25.9488C52.897 25.4922 52.935 25.1879 53.0111 24.9976C53.1252 24.7313 53.3535 24.6172 53.6959 24.6172C53.9242 24.6172 54.0764 24.6933 54.1905 24.8074C54.3047 24.9596 54.3808 25.1498 54.3808 25.3781V25.5303V25.6064H53.9242C53.8862 25.3781 53.8862 25.264 53.8862 25.264C53.8481 25.1118 53.772 25.0357 53.6959 25.0357C53.5818 25.0357 53.4677 25.1118 53.4296 25.264C53.3916 25.3781 53.3535 25.4922 53.3535 25.6825V25.7966V26.6336C53.3535 26.8239 53.3535 26.976 53.3916 27.0521C53.4296 27.2043 53.5438 27.2804 53.6959 27.2804C53.8101 27.2804 53.8862 27.2043 53.9242 27.0141C53.9623 27.0141 53.9623 26.8619 53.9623 26.6717Z" fill="white"/>
<path fill-rule="evenodd" clip-rule="evenodd" d="M54.7231 26.4053V25.9488C54.7231 25.4922 54.7612 25.1879 54.8372 24.9976C54.9514 24.7313 55.1797 24.6172 55.5221 24.6172C55.8645 24.6172 56.0928 24.7313 56.2069 24.9976C56.283 25.1879 56.321 25.4922 56.321 25.9488V26.4053C56.321 26.7478 56.321 26.976 56.283 27.1282C56.2449 27.3565 56.1689 27.5087 56.0547 27.6228C55.9406 27.737 55.7503 27.813 55.484 27.813C55.2557 27.813 55.0655 27.737 54.9133 27.6228C54.7992 27.5087 54.7231 27.3565 54.6851 27.1282C54.7231 26.976 54.7231 26.7478 54.7231 26.4053ZM55.1797 25.8347V26.6717C55.1797 26.8619 55.1797 27.0141 55.2177 27.0902C55.2558 27.2424 55.3699 27.3184 55.5221 27.3184C55.6743 27.3184 55.7503 27.2424 55.8264 27.0902C55.8645 26.976 55.8645 26.8239 55.8645 26.6336V25.8347C55.8645 25.6064 55.8645 25.4542 55.8264 25.3781C55.7884 25.1879 55.6743 25.0737 55.5221 25.0737C55.4079 25.0737 55.2938 25.1498 55.2557 25.302C55.2177 25.4162 55.1797 25.5303 55.1797 25.7205V25.8347Z" fill="white"/>
<path fill-rule="evenodd" clip-rule="evenodd" d="M57.2724 26.442H57.1963V27.7737H56.7397V24.73H57.6148C57.8431 24.73 57.9953 24.768 58.1094 24.8822C58.2616 24.9963 58.2996 25.1865 58.2996 25.4529C58.2996 25.6431 58.2616 25.7953 58.2235 25.9094C58.1474 26.0616 58.0713 26.1377 57.9192 26.1757C58.0333 26.2138 58.1474 26.2518 58.1855 26.366C58.2235 26.442 58.2616 26.5562 58.2616 26.7464V26.8986C58.2616 27.0888 58.2616 27.241 58.2996 27.4312C58.2996 27.6215 58.3377 27.6976 58.3757 27.7356V27.8117H57.8431C57.805 27.7356 57.805 27.6595 57.805 27.5454C57.805 27.4312 57.805 27.3171 57.805 27.1649V27.0508C57.805 26.8986 57.805 26.8225 57.767 26.7464C57.7289 26.6323 57.6909 26.5562 57.6148 26.5562C57.5768 26.5562 57.5387 26.5181 57.4626 26.5181C57.4626 26.442 57.3865 26.442 57.2724 26.442ZM57.1963 25.1485V25.9855H57.5768C57.6528 25.9855 57.7289 25.9474 57.767 25.8714C57.805 25.7953 57.8431 25.6811 57.8431 25.5289C57.8431 25.3768 57.805 25.2626 57.767 25.2246C57.7289 25.1865 57.6528 25.1485 57.5387 25.1485H57.1963Z" fill="white"/>
<path fill-rule="evenodd" clip-rule="evenodd" d="M59.1367 27.7365H58.6421L59.2508 24.6929H59.8976L60.4683 27.7365H59.9737L59.8596 26.9756H59.3269L59.1367 27.7365ZM59.4411 25.644L59.2889 26.5191H59.7074L59.5932 25.644C59.5932 25.5679 59.5552 25.5299 59.5552 25.4918C59.5552 25.4538 59.5552 25.3777 59.5171 25.2255C59.5171 25.1875 59.5171 25.1494 59.5171 25.1114C59.5171 25.0733 59.5171 25.0353 59.5171 25.0353L59.4791 25.2255C59.4791 25.3016 59.4791 25.3777 59.4411 25.4538C59.4791 25.5299 59.4791 25.5679 59.4411 25.644Z" fill="white"/>
<path fill-rule="evenodd" clip-rule="evenodd" d="M60.5444 25.1494V24.6929H62.1043V25.1494H61.5717V27.7365H61.0771V25.1494H60.5444Z" fill="white"/>
<path fill-rule="evenodd" clip-rule="evenodd" d="M62.8652 27.7365H62.4087V24.6929H62.8652V27.7365Z" fill="white"/>
<path fill-rule="evenodd" clip-rule="evenodd" d="M63.2075 26.4053V25.9488C63.2075 25.4922 63.2455 25.1879 63.3216 24.9976C63.4358 24.7313 63.664 24.6172 64.0064 24.6172C64.3489 24.6172 64.5771 24.7313 64.6913 24.9976C64.7674 25.1879 64.8054 25.4922 64.8054 25.9488V26.4053C64.8054 26.7478 64.8054 26.976 64.7674 27.1282C64.7293 27.3565 64.6532 27.5087 64.5391 27.6228C64.425 27.737 64.2347 27.813 63.9684 27.813C63.7401 27.813 63.5499 27.737 63.3977 27.6228C63.2836 27.5087 63.2075 27.3565 63.1694 27.1282C63.2455 26.976 63.2075 26.7478 63.2075 26.4053ZM63.7021 25.8347V26.6717C63.7021 26.8619 63.7021 27.0141 63.7401 27.0902C63.7782 27.2424 63.8923 27.3184 64.0445 27.3184C64.1967 27.3184 64.2728 27.2424 64.3489 27.0902C64.3869 26.976 64.3869 26.8239 64.3869 26.6336V25.8347C64.3869 25.6064 64.3869 25.4542 64.3489 25.3781C64.3108 25.1879 64.1967 25.0737 64.0445 25.0737C63.9304 25.0737 63.8162 25.1498 63.7782 25.302C63.7401 25.4162 63.7401 25.5303 63.7401 25.7205V25.8347H63.7021Z" fill="white"/>
<path fill-rule="evenodd" clip-rule="evenodd" d="M66.3655 25.3016V24.6929H66.822V27.7365H66.3274L65.947 26.6332C65.8328 26.3288 65.7187 25.9103 65.6045 25.4157C65.6045 25.7201 65.6426 25.9864 65.6426 26.2908C65.6426 26.4049 65.6426 26.5571 65.6426 26.7474C65.6426 26.9376 65.6426 27.0898 65.6426 27.1659V27.7365H65.186V24.6929H65.6806L66.0611 25.7962C66.1372 25.9864 66.1752 26.1767 66.2133 26.3288C66.2513 26.5191 66.3274 26.7093 66.3655 26.9756L66.3274 26.1006C66.3274 25.9484 66.3274 25.8342 66.3274 25.6821C66.3655 25.606 66.3655 25.4538 66.3655 25.3016Z" fill="white"/>
<path fill-rule="evenodd" clip-rule="evenodd" d="M7.08984 27.6982H68.0774V28.2689H7.08984V27.6982Z" fill="white"/>
<path fill-rule="evenodd" clip-rule="evenodd" d="M5.83447 28.8022H69.219V29.3729H5.83447V28.8022Z" fill="white"/>
<path fill-rule="evenodd" clip-rule="evenodd" d="M6.82324 21.3442H7.47002V28.2686H6.82324V21.3442Z" fill="white"/>
<path fill-rule="evenodd" clip-rule="evenodd" d="M68.2673 21.3442H67.5825V28.2686H68.2673V21.3442Z" fill="white"/>
<path fill-rule="evenodd" clip-rule="evenodd" d="M24.0962 13.0122L37.5264 8.37061L50.5001 12.86L24.0962 13.0122Z" fill="white"/>
<path fill-rule="evenodd" clip-rule="evenodd" d="M64.5012 33.368V39.1891C64.9197 39.1891 65.186 39.113 65.2621 38.9988C65.3762 38.8466 65.4142 38.5042 65.4142 37.8955V34.4714C65.4142 34.0529 65.4143 33.7865 65.3762 33.7104C65.3382 33.5963 65.2621 33.5202 65.1479 33.4822C65.0338 33.4061 64.8436 33.368 64.5012 33.368ZM61.5716 31.8462H63.7402C65.1479 31.8462 66.0991 31.8842 66.5937 31.9984C67.0883 32.1125 67.4687 32.2647 67.697 32.493C67.9633 32.7212 68.1155 32.9876 68.1916 33.2919C68.2677 33.5963 68.3057 34.167 68.3057 34.966V38.0477C68.3057 38.8466 68.2677 39.3793 68.1536 39.6456C68.0775 39.9119 67.8872 40.1402 67.659 40.2543C67.4307 40.4065 67.1263 40.5207 66.7839 40.5968C66.5937 40.6348 66.5176 40.6348 66.4795 40.6348C66.3654 40.6348 66.2513 40.6348 66.1371 40.6348L65.2621 40.7109H61.5716V31.8462ZM58.4138 31.8462V38.9227H60.202V40.7109H55.5223V31.8462H58.4138ZM53.6581 31.8462V40.7109H50.7285V31.8462H53.6581ZM48.9404 31.8462V37.7814C48.9404 38.4281 48.9023 38.9227 48.8643 39.1891C48.7882 39.4554 48.636 39.7597 48.3697 40.0261C48.1034 40.2924 47.7229 40.5207 47.2663 40.6728C47.0381 40.7489 46.8098 40.787 46.5054 40.825C46.2391 40.8631 45.9728 40.8631 45.6684 40.8631C45.0216 40.8631 44.4129 40.787 43.9183 40.5968C43.3857 40.4065 43.0052 40.1782 42.7769 39.9119C42.5106 39.6456 42.3584 39.3412 42.3204 39.0369L42.2823 38.314L42.2443 37.0965V31.8462H45.1738V38.5042C45.1738 38.8847 45.2119 39.151 45.2499 39.2651C45.288 39.3793 45.4021 39.4173 45.5543 39.4173C45.7445 39.4173 45.8586 39.3412 45.8967 39.2271C45.9347 39.113 45.9728 38.8466 45.9728 38.3901V31.8462H48.9404ZM36.6896 36.7161V39.1891C36.9179 39.1891 37.07 39.1891 37.1842 39.151C37.2983 39.113 37.4125 39.0749 37.4505 39.0369C37.5646 38.9608 37.6407 38.7325 37.6407 38.352V37.515C37.6407 37.1346 37.6027 36.9063 37.4885 36.8302C37.4505 36.7922 37.3364 36.7541 37.2603 36.7541C37.1461 36.7541 37.07 36.7161 36.9939 36.7161C36.9179 36.7161 36.8037 36.7161 36.6896 36.7161ZM36.6896 33.368V35.3464H36.9939C37.2603 35.3464 37.4505 35.3084 37.5266 35.1942C37.6027 35.0801 37.6407 34.7757 37.6407 34.2431C37.6407 34.0909 37.6407 33.9768 37.6027 33.9007C37.6027 33.8246 37.5646 33.7485 37.5266 33.6724C37.4505 33.5583 37.3744 33.4822 37.2603 33.4441C37.1842 33.4061 36.9939 33.368 36.6896 33.368ZM33.7981 31.8462H36.6896C37.6027 31.8462 38.3256 31.8842 38.7821 31.9984C39.2387 32.1125 39.6191 32.3408 39.9235 32.6832C40.2278 33.0256 40.38 33.5963 40.38 34.3572C40.38 34.8899 40.2659 35.2323 40.0757 35.4225C39.8854 35.6127 39.4669 35.7649 38.8582 35.9171C39.543 36.0312 39.9996 36.2215 40.2278 36.5258C40.4561 36.7922 40.5703 37.2487 40.5703 37.8194V38.6564C40.5703 39.2651 40.4942 39.7217 40.3039 39.988C40.1518 40.2543 39.8474 40.4446 39.4669 40.5587C39.0865 40.6728 38.2875 40.7109 37.1081 40.7109H33.722V31.8462H33.7981ZM32.4284 31.8462V33.6344H30.7164V40.7109H27.7868V33.6344H26.0748V31.8462H32.4284ZM20.1776 31.8462H25.0475V33.6344H23.1072V35.3084H24.9334V36.9824H23.1072V38.9227H25.2378V40.7109H20.1776V31.8462ZM18.3134 31.8462V40.7109H15.4219V31.8462H18.3134ZM14.2425 31.8462L12.7587 40.7109H8.30732L6.6333 31.8462H9.71502L10.0574 34.167C10.2096 35.0801 10.2857 35.7649 10.3618 36.2215C10.4379 36.9443 10.4759 37.515 10.4759 38.0477C10.4759 37.8574 10.4759 37.6672 10.514 37.4389C10.552 36.8302 10.5901 36.4878 10.5901 36.4117C10.5901 36.2595 10.6281 36.0312 10.6662 35.7269C10.7042 35.4225 10.7423 35.1562 10.7803 34.8899L10.9705 33.4822L11.1608 31.8462H14.2425Z" fill="#254E7C"/>
<path d="M60.6587 5.7079C60.6587 4.26215 61.1533 3.04468 62.1425 2.01744C63.1317 0.990202 64.3491 0.495605 65.7568 0.495605C67.1645 0.495605 68.382 0.990202 69.3712 2.01744C70.3604 3.04468 70.855 4.26215 70.855 5.7079C70.855 7.15364 70.3604 8.37111 69.3712 9.39835C68.382 10.4256 67.1645 10.9202 65.7568 10.9202C64.3491 10.9202 63.1317 10.4256 62.1425 9.39835C61.1533 8.37111 60.6587 7.15364 60.6587 5.7079Z" stroke="#ED1C24" stroke-width="0.989194" stroke-miterlimit="2.6131"/>
<path fill-rule="evenodd" clip-rule="evenodd" d="M63.626 8.6754V2.74023H66.5555C67.2403 2.74023 67.7349 2.96851 68.0393 3.38701C68.2676 3.69138 68.3817 4.0338 68.3817 4.41426C68.3817 4.75667 68.3056 5.06104 68.1534 5.28931C68.0013 5.55563 67.773 5.70782 67.4686 5.82195C67.7349 5.93609 67.9252 6.08828 68.0013 6.24046C68.1154 6.46873 68.1915 6.81115 68.1915 7.34379C68.1915 7.7623 68.1915 8.02862 68.2295 8.1808C68.2295 8.33298 68.3056 8.44712 68.4578 8.48517V8.63735H67.1642C67.1262 8.48517 67.0882 8.33298 67.0501 8.14275C67.0121 7.99057 67.0121 7.72425 67.0121 7.41988C67.0121 6.96333 66.974 6.69701 66.8599 6.54483C66.7457 6.3546 66.4794 6.2785 66.0609 6.2785H64.8054V8.59931H63.626V8.6754ZM64.8434 5.3654H66.2511C66.5555 5.3654 66.8218 5.28931 66.974 5.17517C67.1262 5.06104 67.2023 4.83276 67.2023 4.56644C67.2023 4.37621 67.1642 4.18598 67.0501 4.07184C66.8979 3.88161 66.6696 3.80552 66.3653 3.80552H64.8434V5.3654Z" fill="#ED1C24"/>
</g>
<defs>
<clipPath id="clip0_1_1287">
<rect width="72.8199" height="71.4883" fill="white" transform="translate(0.964355 0.000488281)"/>
</clipPath>
</defs>
</svg>
