<svg width="94" height="94" viewBox="0 0 94 94" fill="none" xmlns="http://www.w3.org/2000/svg">
<path opacity="0.5" d="M15.7625 81.7424C15.8027 81.8378 15.846 81.9287 15.8988 82.0061C15.9252 82.0448 16.2332 82.3216 16.6098 82.6533C17.0774 83.0558 17.5545 83.4447 18.0392 83.8323C18.1437 83.9124 18.236 83.9907 18.3943 84.1087C18.5495 84.2311 18.7123 84.3522 18.8751 84.4733C19.3321 84.8146 19.6774 85.0572 19.6869 85.0437C19.7027 85.0213 19.728 84.9853 19.7205 84.9196C19.7616 84.8612 19.2393 84.3935 18.6061 83.9217C17.9823 83.4365 17.4052 82.9706 16.8313 82.5002C16.5305 82.2418 16.2529 82.0266 16.0556 81.8879C15.8582 81.7493 15.7456 81.6903 15.7593 81.7469M24.0857 87.584C23.4455 87.208 22.8147 86.8185 22.1826 86.4213C21.4851 85.9648 20.8681 85.632 20.827 85.6904C20.7986 85.7309 20.7733 85.7668 20.7217 85.7641C20.7122 85.7776 21.0531 86.0171 21.5245 86.3282C21.6891 86.4372 21.8493 86.543 22.0171 86.6474C22.1848 86.7519 22.2867 86.8167 22.393 86.8847C22.9322 87.2233 23.4809 87.5485 24.0315 87.8614C24.4802 88.1096 24.8104 88.2879 24.898 88.3159C24.9887 88.3393 25.0499 88.3286 25.1532 88.3341C25.2112 88.3278 25.1175 88.2418 24.9247 88.1063C24.7318 87.9708 24.4397 87.7857 24.0812 87.5808M22.1643 84.9314C21.4148 84.4248 20.6747 83.9048 19.9486 83.3745C19.1558 82.7771 18.4259 82.4523 18.3655 82.6717C18.2914 82.8345 18.2343 82.9824 18.1791 83.1182C18.1643 83.2823 18.6895 83.8125 19.4286 84.3721C20.0636 84.8317 20.7454 85.3108 21.3976 85.7556C22.1714 86.2657 22.8514 86.5757 22.9617 86.4853C23.1143 86.4113 23.2341 86.3075 23.3621 86.1825C23.5309 86.0662 23.0883 85.5806 22.3796 85.0826C22.3123 85.0354 22.2406 84.9849 22.1688 84.9345M11.5589 77.5131C11.6318 77.6382 11.7406 77.7885 11.8262 77.8956C11.8262 77.8956 11.8557 77.9298 11.8526 77.9343C12.7516 78.9622 13.7002 79.9577 14.7015 80.9164C14.8696 81.0681 14.9678 81.1572 14.9087 81.0888C14.8559 81.0114 14.8094 80.925 14.7692 80.8296C14.743 80.7239 14.2412 80.1699 13.7065 79.6532C13.2153 79.1604 12.7632 78.6883 12.2847 78.1775C11.9397 77.8008 11.6874 77.5497 11.5887 77.4803C11.5438 77.4488 11.533 77.4546 11.5621 77.5086M29.6873 90.4053C29.0912 90.1476 28.4516 89.8661 27.8637 89.5872C27.1541 89.2431 26.5019 88.9795 26.3545 88.97C26.2511 88.9645 26.1541 88.95 26.0634 88.9266C26.018 88.9149 26.1038 88.955 26.3393 89.0869C27.5627 89.6914 28.8074 90.2369 30.0625 90.7294C30.0928 90.7372 30.1079 90.7411 30.1079 90.7411C30.2875 90.8002 30.4236 90.8354 30.6081 90.8778C30.6643 90.8837 30.6661 90.8715 30.6258 90.8432C30.5271 90.7738 30.1752 90.6072 29.6918 90.4085M13.2402 78.1238C13.2603 78.3527 13.2911 78.5758 13.2987 78.7557C13.3435 78.9685 13.8438 79.5818 14.4407 80.1624C14.9817 80.6701 15.5618 81.1986 16.1199 81.6914C16.753 82.2302 17.3133 82.577 17.325 82.4173C17.3367 82.2577 17.395 82.1174 17.4346 81.9371C17.49 81.7343 16.9742 81.0764 16.2532 80.4624C15.64 79.9241 15.0362 79.3722 14.406 78.7817C14.1697 78.5553 13.9568 78.3721 13.7729 78.2429C13.45 78.016 13.2398 77.9623 13.2402 78.1238ZM28.403 88.6099C27.6728 88.2379 26.91 87.8362 26.1956 87.4417C25.366 86.9729 24.5798 86.7092 24.4078 86.83C24.2862 86.946 24.1349 87.0277 23.9932 87.096C23.8905 87.1849 24.3631 87.5707 25.0845 87.9837C25.7765 88.3624 26.4312 88.7083 27.0922 89.0452C27.8408 89.41 28.6296 89.689 28.8027 89.6428C29.0213 89.6084 29.1949 89.5424 29.4171 89.4836C29.5646 89.4262 29.4474 89.2498 29.1245 89.0229C28.945 88.8968 28.6992 88.7509 28.403 88.6099ZM8.95397 73.2589C9.00091 73.5068 9.08822 73.783 9.15677 74.0191C9.25488 74.2895 9.69299 74.9532 10.1592 75.5292C10.5771 76.031 11.0277 76.5624 11.4551 77.0507C11.9819 77.6358 12.3595 77.9279 12.3116 77.7197C12.2681 77.5146 12.2341 77.296 12.2078 77.076C12.1766 76.8057 11.7242 76.1051 11.1736 75.4967C10.662 74.9089 10.1877 74.3541 9.74469 73.8212C9.48809 73.4999 9.27298 73.2816 9.13394 73.1839C8.9949 73.0863 8.92294 73.1028 8.95264 73.2513M34.6906 91.3225C33.9983 91.0778 33.311 90.8164 32.6314 90.5537C31.8723 90.2419 31.0176 90.0375 30.7528 90.0999C30.5338 90.1541 30.3242 90.1949 30.1542 90.2366C29.9465 90.2652 30.3449 90.5183 31.0317 90.7994C31.6781 91.0522 32.2887 91.2798 32.9477 91.5146C33.6508 91.7535 34.4237 91.9407 34.666 91.9296C34.9568 91.9258 35.204 91.8981 35.4499 91.8627C35.6239 91.844 35.6151 91.7707 35.4761 91.673C35.337 91.5753 35.0588 91.4469 34.6906 91.3225ZM16.2779 78.2439C16.1651 78.5474 16.0914 78.8716 16.0066 79.1544C15.9186 79.4417 16.4491 80.1837 17.17 80.7977C17.8273 81.3401 18.5313 81.9019 19.2012 82.4264C19.9537 82.9954 20.7312 83.3 20.8641 83.0442C21.022 82.8194 21.1656 82.5578 21.3533 82.3002C21.5726 81.9977 21.0418 81.2085 20.1816 80.5638C19.4354 79.9858 18.6673 79.3723 17.9369 78.7718C17.8222 78.6777 17.7119 78.5868 17.5997 78.508C16.9449 78.0478 16.388 77.9251 16.2824 78.247M27.22 85.2877C26.4075 84.8041 25.6013 84.3115 24.7732 83.7833C23.9155 83.221 22.9886 82.986 22.7424 83.2696C22.5669 83.5289 22.4008 83.7748 22.2083 83.982C22.0472 84.2112 22.566 84.8174 23.3532 85.337C24.114 85.8179 24.8408 86.2614 25.5739 86.696C26.3959 87.1661 27.2738 87.4137 27.5533 87.2542C27.7862 87.0754 28.0285 86.8831 28.3135 86.6872C28.573 86.4801 28.2463 85.982 27.5914 85.5219C27.4748 85.4399 27.3551 85.3625 27.22 85.2877ZM6.98848 71.2602C6.85164 71.0163 6.66516 70.6906 6.47551 70.3693C6.45226 70.3261 6.45226 70.3261 6.42269 70.2919C6.60918 70.6177 6.79119 70.9403 6.98848 71.2602ZM39.0072 93.2074C38.6861 93.1496 38.3196 93.0801 37.9952 93.0268C38.3618 93.0963 38.7283 93.1658 39.098 93.2309C39.0698 93.22 39.0396 93.2122 39.0072 93.2074ZM10.921 72.9289C10.8877 73.2815 10.8683 73.6237 10.8642 73.9633C10.857 74.3073 11.3194 75.0889 11.8996 75.7315C12.4302 76.2923 12.9966 76.8783 13.5366 77.4256C14.1528 78.0264 14.7152 78.294 14.7699 77.9967C14.8542 77.7337 14.9153 77.4275 14.9948 77.1141C15.079 76.7368 14.597 75.8878 13.9063 75.2212C13.2874 74.6051 12.7075 74.0096 12.1308 73.4097C11.9413 73.2027 11.7553 73.0384 11.5938 72.9249C11.2215 72.6634 10.951 72.6479 10.9179 72.9334M34.2722 88.9336C33.5091 88.5989 32.7102 88.239 31.9207 87.8655C31.064 87.4448 30.0942 87.2804 29.81 87.5037C29.5421 87.6848 29.2792 87.8492 29.0168 87.9938C28.7557 88.1461 29.198 88.5844 29.9722 88.9605C30.7092 89.3038 31.4134 89.6173 32.1208 89.9264C32.9189 90.2589 33.8141 90.4246 34.1353 90.3012C34.4534 90.1822 34.7688 90.048 35.0892 89.8971C35.3511 89.7723 35.2601 89.5204 34.8878 89.2588C34.7308 89.1485 34.5222 89.0354 34.2722 88.9336ZM5.64171 68.3332C5.7433 68.6463 5.82929 68.9148 5.94932 69.2207C6.05059 69.4866 6.42389 70.1853 6.73793 70.7014C7.0332 71.1775 7.36569 71.6864 7.69368 72.1921C8.05889 72.7307 8.29326 72.9692 8.19199 72.7034C8.12028 72.4717 8.02981 72.2 7.97655 71.9612C7.89208 71.6332 7.49686 70.899 7.10658 70.3293C6.74901 69.7894 6.42102 69.2836 6.10382 68.772C5.90388 68.4368 5.75523 68.2384 5.67898 68.1848C5.62068 68.1438 5.60122 68.1906 5.64171 68.3332ZM40.6813 93.0274C40.0471 92.8907 39.457 92.758 38.8278 92.6046C38.1551 92.4274 37.3317 92.3121 37.0431 92.351C36.7549 92.3701 36.5108 92.3933 36.2264 92.3882C35.9873 92.3947 36.2867 92.5312 36.9217 92.6954C37.4646 92.8285 38.0592 92.9643 38.6072 93.0807C39.2477 93.2085 39.9862 93.3111 40.316 93.328C40.596 93.33 40.8823 93.323 41.2144 93.308C41.3623 93.2978 41.3997 93.2636 41.3414 93.2226C41.2652 93.1691 41.0447 93.1014 40.6935 93.0292M6.70454 67.5357C6.7295 67.9292 6.76211 68.3214 6.7944 68.6664C6.8423 69.0559 7.2149 69.8414 7.63475 70.4453C8.01259 70.9659 8.42316 71.5162 8.83688 72.0621C9.29097 72.6363 9.6777 72.8677 9.67548 72.5372C9.64818 72.1756 9.65809 71.8468 9.6788 71.5122C9.68358 71.0859 9.29139 70.2329 8.78847 69.6042C8.32908 68.9994 7.89476 68.4257 7.49317 67.8817C7.31546 67.6292 7.14654 67.4501 7.01198 67.3556C6.81463 67.2169 6.68867 67.2627 6.70005 67.5325M41.0404 91.4199C40.3516 91.2179 39.6614 91.0082 38.9808 90.7851C38.2189 90.525 37.2426 90.4366 36.8839 90.5942C36.5353 90.7185 36.2294 90.8393 35.9176 90.9492C35.565 91.0506 35.9138 91.336 36.6488 91.5771C37.3026 91.7814 37.9187 91.9725 38.5774 92.1601C39.2878 92.3504 40.1563 92.4302 40.4949 92.3392C40.8776 92.2522 41.2105 92.1504 41.5923 92.036C41.8501 91.9552 41.8657 91.8185 41.6639 91.6767C41.5383 91.5884 41.326 91.4997 41.0359 91.4167M21.0385 77.3992C20.7451 77.8645 20.5002 78.337 20.2473 78.7636C20.0132 79.2302 20.5666 80.1495 21.4806 80.832C22.3008 81.4285 23.162 82.0336 24.0371 82.6283C24.989 83.2569 26.0055 83.4407 26.3697 83.0654C26.6853 82.6829 27.0437 82.2969 27.3851 81.8586C27.7995 81.3642 27.3249 80.3996 26.2622 79.6999C25.3064 79.0485 24.3914 78.4055 23.4545 77.7271C23.4186 77.7019 23.3872 77.6798 23.3513 77.6546C22.3601 76.9581 21.3506 76.8598 21.0353 77.4037M3.30773 63.598L3.35075 63.6416L3.27652 63.5089C3.27652 63.5089 3.29926 63.5719 3.31221 63.6011M46.4003 93.87L46.4515 93.8925C46.4515 93.8925 46.5184 93.8926 46.5503 93.8948L46.4003 93.87ZM3.35075 63.6416C3.45179 63.9364 3.55643 64.2293 3.66467 64.5202C3.94492 65.2274 4.2481 65.9305 4.56208 66.6279C4.66901 66.8507 4.77639 67.0761 4.88421 67.3041C5.13311 67.808 5.25119 68.0118 5.12667 67.7027C5.02988 67.44 4.91749 67.1327 4.83151 66.8642C4.73757 66.5497 4.43356 65.8192 4.18465 65.3153C3.96215 64.8501 3.75178 64.3867 3.54008 63.9156C3.41822 63.6219 3.33685 63.4707 3.31442 63.455C3.29648 63.4423 3.3071 63.5035 3.35075 63.6416ZM46.0707 93.7861C45.5603 93.7497 45.0926 93.7098 44.5354 93.6541C43.977 93.5907 43.2338 93.5519 42.859 93.5705C42.5772 93.5807 42.2985 93.5863 42.014 93.5811C41.6887 93.5674 41.8688 93.6067 42.4273 93.67C42.7961 93.7076 42.7961 93.7076 43.1681 93.7408C43.9472 93.8047 44.73 93.8445 45.5145 93.872C45.9284 93.8741 45.9329 93.8773 46.3958 93.8668C46.5527 93.8629 46.6215 93.8508 46.6035 93.8382C46.5811 93.8225 46.396 93.7998 46.0738 93.7816M14.5087 71.7704C14.349 72.3028 14.1904 72.7956 14.0501 73.2812C13.9036 73.7758 14.3961 74.753 15.1406 75.4574C15.8632 76.1262 16.558 76.7487 17.2963 77.3951C18.1083 78.0797 18.9445 78.2913 19.1718 77.8534C19.3864 77.4335 19.5931 76.9678 19.8528 76.5124C20.1374 75.9738 19.6411 74.9066 18.7413 74.1468C17.9356 73.4532 17.1601 72.7739 16.3971 72.0767C16.2649 71.9503 16.1322 71.8436 16.0021 71.7522C15.3024 71.2605 14.68 71.2596 14.5119 71.7659M2.76555 62.0622L2.78116 62.1067C2.78116 62.1067 2.77137 62.0729 2.76423 62.0545M3.67333 62.3911C3.71092 62.7667 3.76065 63.1441 3.81354 63.5169C3.88651 63.9375 4.15994 64.6735 4.43077 65.2129C4.69363 65.7065 4.96282 66.191 5.23965 66.6743C5.5648 67.2317 5.78774 67.3817 5.73352 67.0011C5.69808 66.6607 5.65599 66.2819 5.62022 65.8942C5.60739 65.5025 5.29429 64.6514 4.96597 64.0984C4.67171 63.5828 4.38376 63.0582 4.11458 62.5736C3.98406 62.3208 3.87395 62.1628 3.79321 62.1061C3.69454 62.0368 3.6435 62.1285 3.66884 62.388M47.1889 92.7858C46.5991 92.7004 46.0519 92.6114 45.4626 92.5061C44.7871 92.3806 43.9242 92.3786 43.5042 92.4997C43.1318 92.6006 42.8007 92.6903 42.4684 92.7724C42.092 92.8504 42.3042 93.0061 42.8993 93.1222C43.4918 93.2229 44.0421 93.3074 44.5955 93.3874C45.1476 93.4598 45.9799 93.4672 46.3531 93.3937C46.7218 93.3171 47.0937 93.2359 47.507 93.1436C47.7399 93.079 47.7936 93.0026 47.695 92.9333C47.6187 92.8797 47.4436 92.8238 47.1857 92.7903M2.76107 62.059C2.65948 61.7459 2.44967 61.0815 2.3134 60.6366C2.28667 60.5507 2.27688 60.5169 2.26311 60.4603C2.42294 60.9956 2.58594 61.5264 2.76423 62.0545M49.5746 93.8242C49.1053 93.8437 48.4563 93.8711 48.0801 93.882L48.033 93.8825C48.6055 93.8685 49.1768 93.8469 49.7499 93.8131L49.5777 93.8197L49.5746 93.8242ZM9.12727 65.9279C9.02558 66.454 8.94682 66.9761 8.86459 67.4555C8.7948 67.9838 9.21934 69.0006 9.77874 69.6823C10.3149 70.3209 10.865 70.9492 11.4169 71.5653C12.0594 72.2718 12.6598 72.4184 12.7919 71.954C12.8926 71.4674 13.0413 71.0079 13.182 70.5025C13.3593 69.9355 12.9144 68.8239 12.2297 68.1011C11.6123 67.4256 11.0218 66.769 10.4408 66.0989C10.293 65.9279 10.1473 65.7919 10.0128 65.6974C9.57323 65.3885 9.21083 65.4562 9.12279 65.9247M41.6732 88.0307C40.8458 87.7112 40.0325 87.3814 39.1832 87.0264C38.2711 86.6272 37.1122 86.5985 36.6389 86.9574C36.2156 87.2643 35.7914 87.5437 35.41 87.8196C34.9769 88.0927 35.3593 88.6165 36.2009 88.9728C37.013 89.295 37.7891 89.592 38.5308 89.8713C39.4027 90.1751 40.4577 90.2182 40.9357 89.9766C41.4028 89.7408 41.8673 89.4898 42.3278 89.2158C42.7356 88.9786 42.6778 88.6224 42.2427 88.3167C42.0947 88.2127 41.904 88.1123 41.6732 88.0307ZM1.73662 57.6531C1.78502 58.0228 1.83791 58.3957 1.90159 58.7627C1.98089 59.1743 2.16145 59.8517 2.31301 60.2939C2.46772 60.7316 2.61897 61.1266 2.78133 61.563C2.97459 62.0412 3.07193 62.1029 3.00824 61.7358C2.94772 61.3643 2.91044 61.036 2.86204 60.6662C2.81648 60.2448 2.61368 59.4846 2.42175 59.014C2.25174 58.579 2.08938 58.1426 1.93466 57.7049C1.86378 57.5007 1.80882 57.3882 1.77293 57.363C1.72808 57.3315 1.71343 57.4286 1.7411 57.6562M52.4656 93.19C52.044 93.1893 51.5785 93.1844 51.1116 93.1719C50.5993 93.1477 49.8198 93.2177 49.4079 93.3177C49.0405 93.402 48.6718 93.4786 48.3017 93.5476C47.9317 93.6166 48.0731 93.6824 48.5413 93.7025C49.0082 93.715 49.4769 93.7153 49.894 93.7129C50.3614 93.7056 51.1058 93.6378 51.4771 93.5765C51.8472 93.5075 52.2128 93.4354 52.577 93.3556C52.8036 93.3 52.9022 93.2551 52.8573 93.2236C52.8215 93.1984 52.6925 93.1816 52.4656 93.19ZM5.11772 60.2974C5.07086 60.8217 5.03613 61.3479 5.00109 61.8268C4.97849 62.3548 5.27561 63.2954 5.65857 63.9136C6.02593 64.4873 6.41836 65.0921 6.79835 65.6478C7.23747 66.2719 7.65863 66.4067 7.71263 65.9008C7.75898 65.3962 7.82194 64.8966 7.89571 64.3911C7.98546 63.7962 7.67058 62.776 7.18263 62.0974C6.76809 61.5241 6.36302 60.9374 5.97191 60.3403C5.84304 60.1423 5.72029 60.0023 5.60816 59.9235C5.35251 59.7439 5.15308 59.8656 5.11639 60.2897M2.44241 55.1612C2.4248 55.6725 2.41167 56.187 2.39823 56.6543C2.39724 57.1705 2.58407 58.0202 2.82565 58.5727C3.04366 59.0347 3.28044 59.5368 3.52038 60.0344C3.79436 60.5694 4.04541 60.6316 4.04956 60.1108C4.06932 59.6346 4.09805 59.1646 4.13094 58.6506C4.17881 58.0866 3.97025 57.1344 3.67118 56.5684C3.42045 56.0767 3.17286 55.5804 2.93924 55.0738C2.86286 54.906 2.78497 54.7976 2.71321 54.7472C2.57416 54.6495 2.46861 54.7901 2.44241 55.1612ZM13.4668 63.1558C13.2114 63.8626 12.9704 64.5393 12.7349 65.1795C12.5056 65.8778 12.9063 67.0524 13.6152 67.7788C14.2932 68.4633 14.9763 69.1312 15.6862 69.8181C16.4858 70.5679 17.3786 70.6513 17.6725 69.9851C17.9771 69.3799 18.259 68.7118 18.5952 68.0618C18.9734 67.3137 18.572 66.0447 17.6988 65.2565C16.9301 64.5485 16.1856 63.8441 15.4416 63.12C15.3376 63.02 15.2318 62.9323 15.1286 62.8598C14.4334 62.3713 13.7262 62.472 13.4681 63.1635M8.19327 57.1407C8.01477 57.8143 7.8386 58.4559 7.6867 59.1012C7.52083 59.7568 7.80495 60.8494 8.32297 61.5424C8.80346 62.1553 9.30323 62.7884 9.81695 63.4112C10.3948 64.0858 11.0449 64.1331 11.249 63.4708C11.4405 62.8264 11.6485 62.1871 11.8853 61.5545C12.1481 60.7991 11.8409 59.5963 11.2119 58.8992C10.6489 58.2417 10.1127 57.6031 9.59136 56.9816C9.49104 56.8574 9.3839 56.762 9.28074 56.6895C8.82325 56.3681 8.37474 56.5296 8.19776 57.1438M0.934449 50.7378C0.921008 51.205 0.915214 51.671 0.917061 52.1355C0.923393 52.6033 1.02019 53.3427 1.12557 53.7458C1.23544 54.1519 1.35295 54.5568 1.48126 54.9558C1.62518 55.3994 1.74747 55.3779 1.74879 54.9088C1.7501 54.4397 1.76038 53.9769 1.77831 53.5128C1.80804 53.0033 1.69798 52.1874 1.54958 51.7407C1.41678 51.3385 1.29927 50.9337 1.18972 50.5747C1.14524 50.4092 1.10639 50.3214 1.06602 50.2931C1.00323 50.249 0.952003 50.4077 0.937611 50.7333M4.50135 51.7065C4.36839 52.3248 4.24542 52.9098 4.13805 53.5393C4.02752 54.1734 4.19868 55.1598 4.51619 55.7186C4.8181 56.2329 5.1406 56.775 5.47524 57.319C5.84891 57.8837 6.2741 57.8602 6.41072 57.2176C6.5445 56.6268 6.69141 55.9981 6.8473 55.3758C7.03925 54.7117 6.85085 53.6259 6.43997 53.0283C6.08373 52.496 5.73697 51.9503 5.41213 51.44C5.33474 51.3118 5.25186 51.22 5.16664 51.1601C4.89304 50.9678 4.62015 51.1655 4.50135 51.7065ZM0.374517 47.0342C0.365245 47.4574 0.358811 47.8289 0.364825 48.2494C0.370839 48.6699 0.398214 49.327 0.41888 49.6504C0.444033 49.9769 0.476513 50.2549 0.513794 50.5832C0.562194 50.9529 0.596937 50.9035 0.590606 50.4357C0.589077 50.0184 0.593864 49.592 0.604463 49.1765C0.622389 48.7124 0.596022 48.0157 0.546612 47.6856C0.506173 47.3617 0.476857 47.0793 0.444062 46.7541C0.434457 46.6533 0.426493 46.6075 0.416195 46.5935C0.398255 46.5809 0.383921 46.7253 0.370033 47.0311M2.24626 47.0401C2.14306 47.6256 2.05167 48.1657 1.96476 48.7089C1.88266 49.3025 1.9487 50.1143 2.12351 50.5997C2.28688 50.9965 2.46004 51.427 2.64534 51.8593C2.85704 52.3304 3.11609 52.2573 3.21032 51.6655C3.30588 51.0813 3.4094 50.5431 3.52158 49.9639C3.65769 49.3411 3.57542 48.3903 3.35058 47.9571C3.15316 47.5229 2.96553 47.1225 2.79003 46.7239C2.74271 46.6101 2.69438 46.5358 2.64056 46.498C2.48806 46.3909 2.32749 46.6003 2.23729 47.0338M1.14053 43.2552C1.05464 43.7588 0.980551 44.2171 0.906784 44.7225C0.837502 45.2311 0.831965 45.9255 0.89982 46.2485C0.964517 46.5759 1.03553 46.8944 1.11551 47.2192C1.20662 47.5853 1.34755 47.4896 1.42232 46.9446C1.50058 46.4423 1.57883 45.94 1.66605 45.444C1.77273 44.9013 1.77713 44.1322 1.67289 43.8038C1.58842 43.4759 1.51608 43.1498 1.44722 42.8664C1.42814 42.7791 1.40672 42.7238 1.37981 42.7049C1.30804 42.6545 1.21626 42.8518 1.14053 43.2552ZM8.44318 47.1644C8.14933 47.9449 7.86231 48.6966 7.59638 49.4565C7.31681 50.2739 7.47528 51.4595 7.95294 52.1242C8.40254 52.6952 8.87274 53.2942 9.35904 53.9179C9.91263 54.5888 10.6383 54.481 10.9552 53.6294C11.263 52.8386 11.5888 52.0603 11.9272 51.2641C12.3166 50.3761 12.1387 49.056 11.5343 48.4098C11.0061 47.8171 10.4958 47.237 10.0072 46.6452C9.94226 46.566 9.86784 46.5003 9.79608 46.4499C9.31168 46.1095 8.74284 46.3946 8.44318 47.1644ZM0.920668 40.2405C0.850751 40.6546 0.785323 41.0719 0.72305 41.4847C0.657935 41.9493 0.608742 42.5055 0.5982 42.7398C0.595302 42.9728 0.596884 43.2089 0.601629 43.4405C0.611177 43.7225 0.674029 43.5854 0.735985 43.1254C0.798259 42.7126 0.86786 42.2512 0.937777 41.837C1.03132 41.332 1.08468 40.7317 1.07096 40.4938C1.06173 40.259 1.05597 40.067 1.05887 39.834C1.06355 39.7701 1.05376 39.7364 1.04927 39.7332C1.02684 39.7175 0.980923 39.9068 0.920668 40.2405ZM5.10844 42.4041C4.87145 43.1037 4.64343 43.8096 4.43303 44.4809C4.2153 45.2008 4.25601 46.2298 4.536 46.7086C4.80253 47.1778 5.08302 47.6368 5.37463 48.1371C5.71425 48.6645 6.19864 48.5281 6.44846 47.7435C6.68678 47.0515 6.93957 46.3294 7.19816 45.6181C7.50066 44.7967 7.44302 43.7155 7.06966 43.198C6.75013 42.7184 6.44039 42.2724 6.14809 41.8589C6.09395 41.7739 6.0393 41.7086 5.981 41.6677C5.69394 41.466 5.33179 41.7621 5.1008 42.4055M3.20948 38.6326C3.01455 39.2342 2.83176 39.8376 2.6621 40.4032C2.48095 41.0615 2.44048 41.8723 2.57245 42.2471C2.69994 42.6186 2.84373 42.948 2.99099 43.32C3.16466 43.7307 3.46945 43.5353 3.6664 42.8546C3.85917 42.2179 4.05227 41.6284 4.2585 41.0012C4.49865 40.2971 4.54032 39.3797 4.35086 38.9914C4.18048 38.6904 4.02639 38.3471 3.88027 38.0498C3.85304 37.9836 3.82215 37.9418 3.78627 37.9166C3.62929 37.8063 3.39259 38.0764 3.21081 38.6402M2.40637 35.7518C2.25401 36.2356 2.09433 36.768 1.95095 37.2581C1.80024 37.7968 1.70216 38.4799 1.74462 38.7246C1.78259 38.9661 1.82088 39.2549 1.87414 39.4937C1.93669 39.7861 2.11388 39.5816 2.27772 39.0051C2.43424 38.4773 2.59942 37.9085 2.76807 37.3824C2.96615 36.7763 3.06108 36.0977 2.98539 35.8431C2.92632 35.5935 2.88253 35.3411 2.83142 35.1374C2.82346 35.0915 2.81051 35.0623 2.79705 35.0528C2.7208 34.9992 2.56769 35.2743 2.41268 35.7429M2.39209 33.6268C2.26468 34.0274 2.12995 34.4766 2.01468 34.8791C1.89208 35.3301 1.75798 35.8737 1.72735 36.0603C1.71618 36.2002 1.69003 36.3899 1.67468 36.5739C1.66831 36.7641 1.76508 36.5501 1.89949 36.0537C2.02658 35.6058 2.16579 35.1598 2.30501 34.7138C2.465 34.2286 2.59461 33.6818 2.60099 33.4916C2.60319 33.3455 2.60988 33.2024 2.62422 33.0581C2.62971 33.0217 2.63022 33.0019 2.62573 32.9987C2.60779 32.9861 2.51633 33.2307 2.3876 33.6237M9.93387 36.8715C9.54881 37.6483 9.17404 38.4391 8.81823 39.203C8.43746 40.05 8.45872 41.1258 8.86764 41.6212C9.25413 42.1009 9.65907 42.5735 10.077 43.0752C10.554 43.6454 11.2971 43.3887 11.7216 42.4986C12.1135 41.6929 12.5256 40.868 12.9481 40.057C13.4229 39.1619 13.3749 38.0002 12.8592 37.4565C12.3939 37.0222 11.9529 36.5914 11.5304 36.1535C11.5008 36.1193 11.4604 36.091 11.4245 36.0658C10.976 35.7506 10.3311 36.0964 9.93387 36.8715ZM6.92096 33.2169C6.61037 33.8782 6.30427 34.5427 6.00714 35.2135C5.69819 35.9297 5.62431 36.7976 5.85249 37.1594C6.06406 37.5162 6.29092 37.8703 6.53306 38.2217C6.81507 38.6213 7.3196 38.3514 7.65697 37.5947C7.97805 36.8803 8.31258 36.1754 8.64843 35.4781C9.03166 34.7134 9.09859 33.76 8.7737 33.431C8.51943 33.0778 8.25101 32.8019 8.01234 32.4932C7.99174 32.4653 7.96351 32.4387 7.93659 32.4198C7.67197 32.2339 7.23919 32.5542 6.9178 33.2214M5.25608 30.5901C5.00967 31.122 4.75145 31.6992 4.514 32.2374C4.24845 32.8632 4.12479 33.535 4.21841 33.8022C4.31937 34.0209 4.43245 34.2413 4.53372 34.5072C4.66689 34.7754 4.9948 34.5089 5.27166 33.8574C5.53671 33.2514 5.79758 32.6894 6.07608 32.0928C6.39615 31.418 6.51766 30.7111 6.36422 30.4623C6.2277 30.2657 6.10647 30.0663 5.98656 29.8747C5.97361 29.8454 5.95883 29.8283 5.94089 29.8157C5.80185 29.718 5.50881 30.0493 5.25292 30.5946M4.60783 28.738C4.39667 29.2007 4.18683 29.6709 3.98015 30.1367C3.77795 30.6056 3.62276 31.1412 3.64165 31.2954C3.66055 31.4497 3.68392 31.6071 3.71495 31.7632C3.74628 31.9665 3.9524 31.7018 4.18403 31.1528C4.40385 30.6493 4.60737 30.188 4.83932 29.6863C5.09204 29.1454 5.24408 28.6144 5.20276 28.4444C5.15412 28.3229 5.11312 28.2001 5.07793 28.0881C5.07843 28.0683 5.06813 28.0543 5.06365 28.0512C5.00534 28.0102 4.80769 28.3011 4.60467 28.7425M4.68082 27.5472C4.52707 27.8868 4.3777 28.2138 4.23272 28.5282C4.15041 28.7121 4.07708 28.9023 3.99477 29.0861C3.89067 29.3487 3.82233 29.5223 3.78973 29.6068C3.76163 29.6945 3.738 29.7853 3.71886 29.8793C3.70421 29.9764 3.82941 29.7219 4.01531 29.2953C4.18491 28.9109 4.35451 28.5265 4.55254 28.1016C4.75056 27.6768 4.93198 27.247 4.94663 27.1498C4.94947 27.0981 4.97309 27.0073 4.98042 26.9587C4.98674 26.9497 4.98989 26.9452 4.98541 26.9421C4.98092 26.9389 4.84625 27.2069 4.68846 27.5459M11.0208 23.9113C10.7931 23.711 10.2568 24.0929 9.80993 24.7861C9.41494 25.4149 9.05287 26.0065 8.67134 26.6449C8.27351 27.3255 8.11592 28.0742 8.31972 28.3181C8.51006 28.5525 8.71701 28.7919 8.93294 29.0377C9.19555 29.3027 9.74298 28.9623 10.1824 28.2034C10.5892 27.5291 11.0036 26.8535 11.4018 26.2201C11.8739 25.491 12.0203 24.7009 11.7356 24.4673C11.5285 24.2949 11.3335 24.1243 11.1316 23.9825C11.0957 23.9572 11.0554 23.9289 11.0195 23.9037M12.6189 27.129C12.1494 27.8734 11.6844 28.621 11.2506 29.3434C10.7651 30.1773 10.6689 31.1437 11.0427 31.5272C11.3971 31.8904 11.7813 32.2208 12.1591 32.6272C12.6032 33.0534 13.415 32.6704 13.9428 31.7857C14.4254 31.0035 14.927 30.1944 15.4199 29.4261C15.9949 28.541 16.0638 27.5085 15.5647 27.151C15.1314 26.8332 14.7238 26.5266 14.3251 26.2263L14.3116 26.2169C13.89 25.9206 13.1384 26.3325 12.6189 27.129ZM8.24471 23.3237C7.93051 23.8281 7.60002 24.3747 7.2948 24.8854C6.97328 25.4383 6.78069 26.008 6.8697 26.1578C6.95423 26.3045 7.04324 26.4543 7.14438 26.6059C7.26346 26.7702 7.65454 26.4138 8.01263 25.7993C8.35443 25.2271 8.67861 24.6894 9.00859 24.1626C9.39227 23.5593 9.59351 22.9487 9.45864 22.8069C9.39136 22.7597 9.32409 22.7124 9.26761 22.6593C9.20797 22.6107 9.1515 22.5576 9.09003 22.5211C9.09003 22.5211 9.08106 22.5148 9.07658 22.5116C8.95996 22.4297 8.57735 22.8121 8.24288 23.3358M6.45214 24.0918C6.45214 24.0918 6.62054 23.814 6.83683 23.449C7.04996 23.0885 7.27072 22.7266 7.49598 22.3679C7.69098 22.0618 7.85439 21.8006 7.92754 21.6774C7.41121 22.4695 6.9173 23.2773 6.4553 24.0874M19.3514 29.7043C18.7078 29.2186 17.6704 29.6176 17.0435 30.567C16.4856 31.4372 15.9304 32.3228 15.4017 33.1801C14.8247 34.1443 14.833 35.3721 15.4309 35.9131C16.0075 36.3988 16.5857 36.9394 17.2045 37.4413C17.8935 38.053 18.9874 37.7071 19.6095 36.7073C20.195 35.7692 20.7845 34.854 21.3911 33.9239C22.0653 32.9071 22.0069 31.6172 21.2611 31.0864C20.7009 30.6727 20.1542 30.2684 19.6115 29.8871C19.5263 29.8272 19.4411 29.7673 19.3514 29.7043ZM8.16494 21.7972C8.12009 21.7657 7.85895 22.0992 7.58316 22.5299C7.31186 22.9637 7.07031 23.3646 6.80797 23.8047C6.55012 24.248 6.33131 24.7119 6.3509 24.7794C6.37364 24.8424 6.4022 24.9162 6.43391 24.9855C6.4583 25.1033 6.72392 24.773 6.99939 24.2951C7.28251 23.8159 7.54617 23.3834 7.81747 22.9496C8.13931 22.4439 8.33285 22.0159 8.29084 21.9327C8.26393 21.9138 8.24334 21.8859 8.22723 21.8611C8.21112 21.8364 8.19501 21.8116 8.17258 21.7959M11.8398 16.6244C11.7876 16.6415 11.7444 16.6648 11.7012 16.6882C11.6625 16.7147 11.3821 17.0279 11.0822 17.3879C10.8121 17.7151 10.5541 18.0442 10.293 18.3777C10.0066 18.7471 9.79181 19.0528 9.83053 19.0263C9.84848 19.0389 9.86641 19.0515 9.91411 19.0313C9.94102 19.0502 10.2214 18.737 10.5078 18.3675C10.7987 18.0012 11.0864 17.6393 11.3521 17.309C11.6614 16.9355 11.8743 16.642 11.8474 16.6231M13.0642 16.5313C12.9303 16.5312 12.8275 16.506 12.7323 16.4794C12.6041 16.4901 12.2225 16.8329 11.8663 17.2541C11.5159 17.686 11.1985 18.0806 10.8823 18.4829C10.5454 18.9243 10.3218 19.3379 10.398 19.3915C10.4995 19.4091 10.5771 19.4703 10.6592 19.5347C10.7876 19.5712 11.1705 19.236 11.5593 18.7303C11.8944 18.3011 12.2372 17.8705 12.5857 17.4507C12.9798 16.9756 13.1674 16.6038 13.0777 16.5408L13.0687 16.5345M15.3014 17.0088C15.0859 16.9246 14.8465 16.8839 14.6458 16.8167C14.4361 16.7433 13.9138 17.1148 13.4538 17.6645C13.0579 18.1517 12.6664 18.6421 12.2795 19.1356C11.8465 19.7042 11.6504 20.2311 11.8222 20.3585C12.0102 20.4437 12.1788 20.5756 12.3848 20.6733C12.5893 20.8304 13.1562 20.4432 13.624 19.8252C14.0488 19.2777 14.4529 18.7693 14.8957 18.2345C15.3448 17.6906 15.5333 17.165 15.3404 17.0295C15.3314 17.0232 15.3225 17.0169 15.3135 17.0106M18.8758 18.3387C18.5244 18.1522 18.1491 18.0094 17.8094 17.8445C17.4562 17.6702 16.7261 18.0704 16.1891 18.7203C15.6863 19.3405 15.2145 19.9356 14.7504 20.5294C14.2182 21.2297 14.0566 21.9554 14.3909 22.1567C14.7072 22.3454 15.0382 22.5512 15.3562 22.7947C15.7456 23.0415 16.5241 22.6485 17.0911 21.8988C17.5963 21.2466 18.1091 20.5931 18.6322 19.9535C19.1458 19.3274 19.3037 18.6259 18.9673 18.3895C18.9404 18.3706 18.9135 18.3517 18.8803 18.3418M24.1877 20.7618C23.6061 20.4739 23.0582 20.1763 22.5188 19.9047C21.9524 19.6142 20.9838 20.0011 20.3335 20.7931C19.7675 21.5032 19.2092 22.212 18.6409 22.9541C18.0328 23.7623 17.9443 24.7274 18.4898 25.057C18.985 25.3915 19.495 25.7431 20.023 26.1074C20.6384 26.4995 21.6735 26.1324 22.329 25.2568C22.9352 24.4608 23.5269 23.6949 24.1308 22.9308C24.7861 22.1222 24.8219 21.194 24.2658 20.8032C24.2433 20.7874 24.2209 20.7717 24.194 20.7528M13.7001 14.4536C13.8312 14.3241 14.0327 14.1233 14.2278 13.9314C14.4932 13.668 14.7974 13.3782 15.1047 13.0838C15.1047 13.0838 15.1345 13.051 15.1331 13.0434C14.6452 13.4995 14.172 13.9727 13.7001 14.4536ZM16.9189 11.8273C16.7821 11.8789 16.6809 11.9085 16.55 11.9709C16.419 12.0333 16.0226 12.3591 15.6423 12.7096C15.304 13.0291 14.9669 13.3563 14.6375 13.6821C14.2751 14.0452 14.0424 14.3382 14.1391 14.3055C14.2403 14.2759 14.3415 14.2463 14.4472 14.2198C14.5587 14.2042 14.9596 13.8815 15.3517 13.4856C15.7108 13.127 16.0821 12.7702 16.4503 12.4179C16.7995 12.0925 17.0019 11.8521 16.9571 11.8205C16.9481 11.8142 16.9405 11.8156 16.9175 11.8196M19.2043 11.4256C18.9773 11.4339 18.7936 11.4189 18.5814 11.4444C18.3602 11.4636 17.8231 11.818 17.3477 12.2562C16.9485 12.6337 16.5209 13.0516 16.1275 13.4399C15.679 13.8969 15.4641 14.2696 15.6244 14.3084C15.8176 14.3099 16.0122 14.319 16.1815 14.3641C16.3998 14.3967 17.0036 13.9951 17.4799 13.5173C17.8923 13.1021 18.3479 12.6635 18.8048 12.2325C19.1977 11.864 19.4071 11.5278 19.295 11.449C19.2771 11.4364 19.2439 11.4265 19.2056 11.4332M22.6978 11.631C22.3416 11.5754 21.9899 11.523 21.6764 11.4638C21.3228 11.4235 20.6072 11.7936 20.0539 12.3045C19.5362 12.7934 19.0693 13.2577 18.565 13.7561C18.0089 14.3187 17.8236 14.8398 18.138 14.9264C18.4433 15.0067 18.7545 15.0978 19.0715 15.1996C19.4492 15.3106 20.2246 14.9221 20.8123 14.3145C21.3171 13.7963 21.8664 13.2625 22.3891 12.7569C22.8726 12.2976 23.0532 11.8404 22.8289 11.6828C22.793 11.6576 22.7508 11.6414 22.6934 11.6278M27.6542 12.777C27.1429 12.599 26.631 12.4408 26.1218 12.2978C25.5991 12.1454 24.6628 12.5148 24.0279 13.1229C23.4318 13.7044 22.8401 14.289 22.265 14.8787C21.6425 15.5357 21.4994 16.2543 22.0166 16.4431C22.4802 16.6413 22.9542 16.8535 23.4633 17.0635C24.0414 17.3086 25.0694 16.923 25.7189 16.2179C26.3319 15.5743 26.9615 14.9357 27.5677 14.3209C28.1346 13.7524 28.2415 13.1427 27.8513 12.8685C27.7974 12.8307 27.7328 12.7987 27.6574 12.7725M22.833 7.64373C22.6446 7.69261 22.4575 7.74914 22.2793 7.81197C22.058 7.89815 21.5759 8.18382 21.1589 8.48169C20.7851 8.7562 20.4082 9.0352 20.0358 9.31736C19.6336 9.63232 19.4424 9.84716 19.6282 9.78298C19.7766 9.75296 19.9668 9.69194 20.1166 9.66956C20.3185 9.63014 20.8672 9.29729 21.3081 8.95582C21.6729 8.67501 22.0809 8.37084 22.4547 8.09633C22.805 7.84564 22.9799 7.67307 22.9306 7.63841C22.9171 7.62895 22.882 7.63117 22.833 7.64373ZM34.2884 15.1489C33.5554 14.8286 32.8525 14.5227 32.1338 14.2393C31.3882 13.937 30.2076 14.2824 29.4721 15.0145C28.8388 15.6774 28.1574 16.3802 27.5002 17.0867C26.7785 17.8755 26.7619 18.824 27.4817 19.182C28.1702 19.5181 28.8563 19.886 29.5666 20.2576C30.3699 20.6877 31.6525 20.3401 32.4203 19.4763C33.0956 18.7154 33.7628 17.9756 34.4651 17.2336C35.1267 16.5303 35.1358 15.6974 34.5303 15.2719C34.4585 15.2215 34.3805 15.18 34.2947 15.14M26.1925 7.07687C25.8522 7.11305 25.552 7.13036 25.2576 7.15848C24.9586 7.18344 24.3007 7.50001 23.8095 7.84639C23.3659 8.17257 22.9268 8.5019 22.489 8.83887C22.0215 9.20866 21.8463 9.51525 22.1186 9.5186C22.3896 9.5143 22.6543 9.519 22.9712 9.50664C23.2965 9.52038 23.9881 9.19394 24.4791 8.80033C24.9403 8.43954 25.4073 8.08954 25.882 7.73821C26.2989 7.44034 26.4497 7.19715 26.3241 7.1089C26.2972 7.08999 26.2519 7.07827 26.1925 7.07687ZM30.7953 7.22918C30.311 7.18429 29.9063 7.12147 29.4628 7.08516C29.0104 7.04255 28.1808 7.34595 27.5995 7.76332C27.1014 8.13848 26.5691 8.5433 26.0457 8.95441C25.4971 9.40149 25.3534 9.84438 25.7869 9.91396C26.2146 9.97274 26.6048 10.0657 27.041 10.1506C27.5638 10.2359 28.4361 9.92898 29.0361 9.43742C29.5752 9.00382 30.1188 8.57338 30.6728 8.15689C31.1213 7.81408 31.2472 7.47282 31.023 7.31524C30.9691 7.27743 30.8937 7.25129 30.7998 7.23233M29.5977 4.18536C29.3193 4.23822 29.0437 4.30638 28.7711 4.37004C28.4554 4.45705 27.8539 4.7125 27.3988 4.95007C26.9884 5.17193 26.5824 5.39695 26.1777 5.62961C25.7343 5.88878 25.564 6.0645 25.8441 5.9995C26.1198 5.93134 26.3612 5.89284 26.6427 5.83549C26.9746 5.77322 27.6099 5.5079 28.0888 5.22673C28.5335 4.97521 28.9751 4.72818 29.3855 4.50632C29.6956 4.3415 29.8587 4.21434 29.8049 4.17652C29.7824 4.16077 29.7155 4.16072 29.6022 4.18852M36.7997 8.39983C36.1679 8.23116 35.5724 8.06791 34.972 7.92129C34.3198 7.77194 33.3147 8.03924 32.6599 8.53256C32.0852 8.98816 31.5194 9.45007 30.9302 9.93579C30.2523 10.5002 30.2232 11.1041 30.873 11.2854C31.431 11.4828 32.0242 11.678 32.6505 11.8831C33.3568 12.1175 34.455 11.8417 35.1276 11.2468C35.7146 10.726 36.3227 10.2133 36.9074 9.72438C37.4511 9.29394 37.5072 8.82311 37.126 8.55523C37.0407 8.49535 36.9294 8.444 36.7965 8.40432M33.9092 3.70332C33.4859 3.7147 33.1052 3.72251 32.6845 3.74918C32.2561 3.77719 31.5135 4.0141 30.9829 4.29254C30.5368 4.53641 30.0566 4.80994 29.5763 5.08347C29.0662 5.38981 28.9303 5.65011 29.3631 5.62524C29.7514 5.61609 30.141 5.61458 30.5333 5.62837C30.9741 5.64938 31.8211 5.37838 32.3667 5.05003C32.8335 4.76704 33.3507 4.47915 33.8355 4.20877C34.2027 4.01026 34.3272 3.8426 34.2061 3.75751C34.1568 3.72284 34.0584 3.70073 33.9169 3.70198M44.2673 10.8538C43.4705 10.5289 42.6534 10.2234 41.9002 9.9224C41.0512 9.6146 39.8175 9.83539 39.1606 10.4079C38.5151 10.9547 37.8952 11.5128 37.2549 12.0903C36.5089 12.7612 36.6171 13.5892 37.4511 13.9469C38.2231 14.2879 39.0144 14.6492 39.8191 15.02C40.7428 15.4407 42.0805 15.2056 42.7651 14.4982C43.4234 13.8664 44.043 13.261 44.6455 12.6705C45.2484 12.1273 45.1609 11.4413 44.5688 11.0253C44.4791 10.9623 44.3786 10.9051 44.2596 10.8551M39.3933 4.03168C38.843 3.94716 38.2922 3.88244 37.7383 3.82221C37.1798 3.75883 36.2247 3.97399 35.6598 4.28209C35.144 4.57763 34.6371 4.87947 34.087 5.20467C33.5117 5.56583 33.4518 5.94671 34.0281 6.0227C34.5924 6.09688 35.1134 6.19441 35.674 6.29287C36.3208 6.41164 37.3447 6.18438 37.9498 5.79042C38.4851 5.44812 38.988 5.12333 39.5349 4.80263C39.9351 4.56682 40.0176 4.31593 39.7933 4.15835C39.7081 4.09847 39.5739 4.05115 39.3919 4.02403M93.1643 41.9613C93.1626 42.3831 93.152 42.7987 93.1383 43.2187C93.1207 43.73 93.1731 44.4182 93.2642 44.7843C93.34 45.1532 93.4079 45.4761 93.4713 45.7959C93.5318 46.1675 93.5981 46.0731 93.6189 45.5572C93.6326 45.1372 93.6388 44.7185 93.6407 44.3439C93.6344 43.8761 93.5809 43.2276 93.5204 42.856C93.4602 42.5317 93.3888 42.1661 93.3178 41.8476C93.281 41.6807 93.2498 41.5916 93.2229 41.5727C93.1825 41.5444 93.1624 41.6779 93.1629 41.9536M36.45 1.82262C36.0773 1.87631 35.755 1.92509 35.3836 1.98643C35.0135 2.05541 34.3852 2.22494 33.9876 2.36181C33.5913 2.50633 33.1994 2.654 32.8044 2.80617C32.3738 2.98034 32.3075 3.07474 32.6299 3.02596C32.9554 2.97268 33.3236 2.91584 33.6518 2.87786C34.0271 2.83946 34.7382 2.64751 35.1674 2.46569C35.5993 2.29916 35.9943 2.14699 36.3875 2.00696C36.6286 1.92125 36.7353 1.85522 36.6949 1.82685C36.668 1.80794 36.5844 1.80293 36.4424 1.82396M93.3683 40.5267C93.4122 40.8933 93.4917 41.5333 93.5446 41.9062C93.4876 41.3962 93.423 40.8875 93.3507 40.3801L93.3727 40.5299L93.3683 40.5267ZM93.3334 40.2807C93.3255 40.2348 93.322 40.1921 93.3127 40.1386C93.3207 40.1845 93.3255 40.2348 93.3334 40.2807ZM93.3127 40.1386C93.3127 40.1386 93.3061 40.1004 93.3034 40.0851C93.3074 40.108 93.3101 40.1233 93.3127 40.1386ZM36.3301 1.63094C36.6944 1.55116 37.2744 1.42162 37.6801 1.33063C37.8928 1.28536 37.9386 1.2773 38.0564 1.25265C37.4782 1.37005 36.9057 1.49825 36.3346 1.63409M46.0962 5.43806C45.3787 5.2293 44.653 5.04167 43.9636 4.85946C43.2226 4.67451 42.1261 4.82391 41.531 5.1846C40.9849 5.53274 40.4019 5.89524 39.8337 6.27484C39.2002 6.70926 39.2625 7.24989 40.0438 7.4632C40.7308 7.67734 41.451 7.9014 42.1968 8.13672C43.0176 8.41797 44.2134 8.25111 44.848 7.77711C45.4217 7.36108 45.9675 6.96572 46.4853 6.59103C46.945 6.2896 46.9393 5.91631 46.5581 5.64844C46.437 5.56335 46.2821 5.48812 46.0917 5.43491M91.489 37.1181C91.4832 37.5841 91.4621 38.0527 91.4365 38.5181C91.3991 39.029 91.5419 39.8746 91.7491 40.3425C91.9303 40.8189 92.0999 41.2067 92.2623 41.6431C92.4295 42.1298 92.5799 42.0206 92.6128 41.5066C92.6307 41.0425 92.6441 40.5752 92.6423 40.1106C92.6436 39.6416 92.5096 38.8693 92.3469 38.3857C92.2002 37.9939 92.0333 37.5543 91.8601 37.1238C91.7771 36.9178 91.7042 36.7927 91.6414 36.7486C91.5472 36.6824 91.4894 36.8029 91.4876 37.1105M41.3819 1.60189C40.9182 1.5849 40.4526 1.58005 39.9839 1.5797C39.5152 1.57935 38.7432 1.71505 38.2609 1.88649C37.8201 2.04671 37.3882 2.21324 36.9576 2.38742C36.4883 2.5881 36.478 2.75539 36.948 2.76339C37.4136 2.76824 37.8805 2.78073 38.3455 2.80536C38.856 2.84172 39.6999 2.68944 40.2137 2.47305C40.643 2.29123 41.078 2.12021 41.5176 1.95233C41.7835 1.85044 41.8651 1.75336 41.7709 1.68718C41.7126 1.64621 41.581 1.61418 41.3788 1.60638M53.7842 8.14088C52.9215 7.7764 52.0812 7.42767 51.2754 7.09651C50.3363 6.74547 49.1155 6.81426 48.5368 7.24693C47.9708 7.66161 47.3723 8.09381 46.7931 8.54626C46.1162 9.07105 46.354 9.82903 47.2845 10.221C48.1607 10.5949 49.0485 10.9905 49.9269 11.3995C50.9179 11.8675 52.2928 11.7795 52.8935 11.2011C53.4571 10.7041 54.0004 10.2265 54.5113 9.76632C54.9793 9.37675 54.8384 8.81447 54.2374 8.39217C54.1074 8.30078 53.9588 8.21656 53.7887 8.14403M92.0868 34.9801C92.1473 35.3516 92.1957 35.7213 92.2441 36.0911C92.2897 36.5125 92.4463 37.2335 92.5902 37.6771C92.7233 38.1265 92.8364 38.5282 92.9383 38.8885C93.0529 39.3451 93.102 39.3325 93.0453 38.8697C92.9969 38.5 92.944 38.1271 92.8803 37.7601C92.8042 37.344 92.6621 36.7071 92.552 36.2536C92.4577 35.892 92.3402 35.4871 92.2195 35.0868C92.1478 34.8551 92.0934 34.7228 92.0709 34.7071C92.0485 34.6913 92.051 34.7736 92.09 34.9756M43.1842 0.571987C42.7667 0.594162 42.3428 0.625327 41.9234 0.659644C41.5053 0.701606 40.8076 0.788784 40.3949 0.861333C40.0248 0.930316 39.6593 1.00245 39.295 1.08223C38.8862 1.17772 38.891 1.22809 39.3136 1.18928C39.733 1.15497 40.1537 1.1283 40.5712 1.10612C41.0373 1.09118 41.7764 0.992788 42.1852 0.8973C42.5953 0.809458 42.964 0.732828 43.3341 0.663845C43.5175 0.631601 43.5958 0.606025 43.5734 0.590267C43.5509 0.57451 43.4202 0.569915 43.1855 0.579633M88.5559 31.586C88.5253 32.0681 88.4826 32.5484 88.4403 33.0759C88.3628 33.6056 88.6168 34.5696 88.9921 35.1892C89.3035 35.6899 89.6196 36.2411 89.9139 36.7567C90.2238 37.3169 90.5119 37.2978 90.5566 36.7383C90.5895 36.2243 90.6182 35.7543 90.6269 35.2367C90.6355 34.7191 90.4163 33.8869 90.1204 33.3164C89.8369 32.7949 89.5458 32.2748 89.2439 31.7605C89.1155 31.5428 88.9928 31.4028 88.8851 31.3272C88.7012 31.198 88.5743 31.2833 88.5496 31.595M47.3266 2.2472C46.6978 2.14104 46.1129 2.03897 45.5658 1.94996C44.9288 1.86493 44.0244 1.94116 43.5403 2.12474C43.1021 2.30026 42.6238 2.49464 42.1514 2.69982C41.6402 2.9315 41.7167 3.21354 42.3519 3.31071C42.9367 3.41279 43.5625 3.52344 44.1818 3.64308C44.8416 3.79109 45.8377 3.69874 46.3539 3.45042C46.7886 3.23217 47.226 3.02922 47.6737 2.84021C47.963 2.7145 47.9945 2.55532 47.8061 2.42296C47.7074 2.35363 47.5386 2.28874 47.3221 2.24405M62.0559 12.187C61.1244 11.6534 60.179 11.1301 59.2209 10.6248C58.2162 10.1001 56.908 10.0739 56.3408 10.5952C55.7925 11.0895 55.2571 11.613 54.6907 12.1617C54.0189 12.7841 54.3675 13.7945 55.483 14.3903C56.4778 14.9483 57.4873 15.5234 58.4753 16.1101C59.592 16.7806 60.9762 16.7461 61.5538 16.0575C62.0638 15.4557 62.5382 14.8759 63.039 14.3348C63.4894 13.7986 63.1431 12.9376 62.2864 12.3356C62.2147 12.2852 62.1429 12.2348 62.0603 12.1902M89.9204 29.9396C89.9545 30.2725 90.0154 30.6912 90.0498 31.0713C90.0769 31.4999 90.3388 32.3285 90.6128 32.8634C90.8528 33.361 91.0864 33.8676 91.2968 34.331C91.5196 34.8434 91.6673 34.9002 91.6169 34.4284C91.5793 34.0528 91.5153 33.6385 91.4624 33.2657C91.3908 32.8528 91.1529 32.0948 90.9333 31.5779C90.726 31.11 90.5112 30.6435 90.2855 30.1828C90.1524 29.9146 90.0441 29.7445 89.9768 29.6973C89.9095 29.65 89.8864 29.721 89.9191 29.932M48.4472 0.738274C47.8901 0.68254 47.3828 0.641685 46.8679 0.602173C46.3071 0.570723 45.5637 0.59895 45.151 0.671498C44.7351 0.748542 44.3708 0.828324 43.9576 0.920661C43.5043 1.03186 43.6001 1.15291 44.1577 1.18885C44.7121 1.22929 45.2207 1.2778 45.7702 1.33487C46.3695 1.40683 47.2334 1.36925 47.6943 1.25671C48.0635 1.16029 48.4309 1.07601 48.8073 0.998041C48.9939 0.961302 49.0408 0.913665 48.9735 0.866393C48.9062 0.81912 48.7248 0.772212 48.4472 0.738274ZM54.1019 3.9797C53.388 3.74666 52.7087 3.53117 51.9821 3.31611C51.2524 3.10553 50.2314 3.09982 49.7769 3.31761C49.3256 3.53089 48.8405 3.75405 48.3976 3.99343C47.8319 4.27409 48.0357 4.69925 48.83 4.9418C49.5758 5.17712 50.3153 5.42143 51.0893 5.6833C51.8929 5.97938 53.0223 5.97393 53.4914 5.65901C53.9182 5.39489 54.3431 5.1429 54.7752 4.90936C55.0808 4.74139 55.0173 4.48859 54.6898 4.25853C54.5463 4.15768 54.3435 4.05544 54.1006 3.97206M78.486 19.5822C78.3154 20.0062 78.1483 20.4729 77.964 20.9544C77.7445 21.5052 78.2013 22.5714 78.9592 23.2852C79.6557 23.9626 80.3176 24.6224 80.9732 25.2912C81.6816 26.0374 82.3806 26.1391 82.5225 25.5271C82.653 25.0078 82.7792 24.5325 82.8683 24.0244C82.9856 23.5428 82.53 22.5512 81.8843 21.8492C81.287 21.2213 80.6847 20.6101 80.0466 19.9737C79.9054 19.841 79.7713 19.7266 79.6368 19.6321C79.0851 19.2444 78.6097 19.2059 78.486 19.5822ZM61.481 6.92199C60.7036 6.55038 59.8823 6.17469 59.0936 5.8287C58.2175 5.45477 57.1755 5.37393 56.7137 5.64028C56.3067 5.90487 55.8615 6.17618 55.4126 6.47177C54.9258 6.8213 55.2539 7.44129 56.1597 7.84942C57.0156 8.24268 57.8984 8.65485 58.7296 9.06428C59.6958 9.54847 60.8537 9.6168 61.2943 9.2281C61.6849 8.89154 62.0264 8.56754 62.4083 8.2719C62.7205 8.02792 62.5019 7.58567 61.9458 7.19488C61.8067 7.09719 61.6493 7.00667 61.4765 6.91884M86.5772 24.4953C86.5987 24.8461 86.6094 25.2028 86.6093 25.5653C86.6206 26.0164 86.9804 26.8869 87.4177 27.5231C87.799 28.0865 88.1695 28.6557 88.5306 29.2383C88.8916 29.821 89.1775 29.9481 89.1456 29.4691C89.1219 29.0832 89.083 28.7 89.0209 28.2736C88.9743 27.8917 88.6372 27.0842 88.278 26.4894C87.9577 25.9823 87.6078 25.441 87.2502 24.901C87.0595 24.6193 86.888 24.4249 86.7669 24.3398C86.6233 24.239 86.5446 24.2844 86.5696 24.4967M54.454 1.80999C53.828 1.65211 53.197 1.51087 52.5673 1.37728C51.8859 1.24095 51.056 1.20165 50.6369 1.28319C50.2619 1.36881 49.8927 1.46523 49.4699 1.57105C49.0085 1.70338 49.2204 1.92616 49.9395 2.07556C50.5629 2.21814 51.2239 2.37379 51.8832 2.54159C52.6268 2.74183 53.5678 2.78525 53.996 2.64301C54.337 2.52003 54.717 2.41778 55.0588 2.32224C55.2428 2.27021 55.2466 2.17891 55.1031 2.07806C54.982 1.99297 54.7576 1.90241 54.4477 1.81898M71.5865 13.8883C71.3342 14.2951 71.0378 14.6979 70.757 15.1452C70.4244 15.6567 70.9235 16.6721 71.8478 17.3686C72.7029 18.0299 73.5563 18.7033 74.4046 19.3934C75.3031 20.1456 76.2523 20.2821 76.4836 19.6859C76.7061 19.1977 76.9083 18.7288 77.0889 18.2715C77.2789 17.8008 76.7746 16.869 75.9672 16.1875C75.2143 15.5712 74.427 14.9374 73.6583 14.3437C73.618 14.3153 73.5776 14.2869 73.5372 14.2586C72.703 13.6724 71.864 13.5125 71.5834 13.8928M68.9399 11.0283C68.1207 10.5064 67.2966 10.0012 66.4617 9.50181C65.5078 8.95242 64.4647 8.79693 64.0818 9.13215C63.7128 9.45703 63.3357 9.80304 62.9517 10.1778C62.507 10.6106 62.9571 11.4573 63.9662 12.0522C64.8639 12.5957 65.7867 13.1703 66.7032 13.7538C67.7 14.4139 68.8245 14.5393 69.1616 14.0309C69.4872 13.6151 69.7971 13.2218 70.0629 12.8245C70.3569 12.4536 69.8952 11.6995 69.0565 11.1102C69.0161 11.0818 68.9758 11.0535 68.9354 11.0251M87.7678 24.2979C87.8427 24.525 87.9287 24.7936 88.0115 25.0667C88.1023 25.3856 88.4355 26.1032 88.7419 26.6206C89.0156 27.1083 89.2816 27.5974 89.5212 28.0477C89.7965 28.5903 89.9314 28.7321 89.8219 28.3731C89.7359 28.1046 89.6311 27.796 89.5299 27.5301C89.4067 27.2287 89.1109 26.5912 88.8557 26.0963C88.6148 25.6383 88.3675 25.1892 88.1171 24.7447C87.9216 24.4127 87.7928 24.2147 87.7479 24.1832C87.721 24.1643 87.7276 24.2025 87.7602 24.2992M54.3072 0.941435C53.7997 0.853358 53.2934 0.772926 52.7853 0.704636C52.2301 0.636761 51.4847 0.562898 51.2034 0.553243C50.8749 0.544003 50.5931 0.554136 50.2673 0.560188C49.9365 0.582878 50.1187 0.657221 50.6753 0.732743C51.2288 0.812759 51.779 0.897272 52.2835 0.989845C52.9258 1.10546 53.6622 1.17302 53.993 1.15033C54.2779 1.1357 54.5597 1.12557 54.8442 1.13073C54.9431 1.13305 54.9768 1.12318 54.9499 1.10427C54.905 1.07276 54.6661 1.01231 54.3041 0.94593M81.9825 18.8967C81.9797 19.2439 81.9289 19.5641 81.8982 19.9319C81.8275 20.3187 82.2959 21.2252 82.9146 21.9084C83.4428 22.5011 83.9911 23.1415 84.5022 23.749C85.0597 24.4429 85.5033 24.5935 85.5266 24.1599C85.5142 23.7484 85.513 23.3783 85.4979 23.0185C85.4814 22.651 85.0312 21.8043 84.5444 21.2004C84.0544 20.601 83.58 20.0461 83.0698 19.466C82.8507 19.2248 82.6485 19.0357 82.4781 18.916C82.1955 18.7174 81.9983 18.693 81.978 18.8936M60.9703 3.91108C60.2516 3.62766 59.5234 3.35772 58.842 3.10716C58.0634 2.84213 57.1596 2.71733 56.7629 2.81462C56.4193 2.9223 56.0707 3.04662 55.7202 3.18308C55.2793 3.34331 55.6153 3.71369 56.454 4.00754C57.2033 4.28559 57.9462 4.57263 58.7251 4.88488C59.5788 5.24306 60.5483 5.36026 60.9304 5.17885C61.2207 5.01357 61.5469 4.87349 61.8304 4.73699C62.0122 4.64987 61.9211 4.46496 61.634 4.26327C61.4681 4.14666 61.2383 4.02551 60.9627 3.91242M84.172 19.2132C84.2405 19.4493 84.3059 19.69 84.3605 19.9365C84.3935 20.1946 84.8166 20.9082 85.272 21.4901C85.6902 22.0391 86.0757 22.5584 86.4504 23.0835C86.8483 23.6518 87.1183 23.8683 87.0338 23.5404C86.9541 23.2629 86.8713 22.9898 86.7996 22.7581C86.6983 22.4923 86.3003 21.8097 85.9274 21.2725C85.5747 20.7829 85.2143 20.2947 84.8475 19.8154C84.5838 19.4757 84.3615 19.2389 84.2494 19.1601C84.1777 19.1097 84.1484 19.1227 84.1765 19.2163M60.0525 2.36645C59.4773 2.18387 58.8504 1.99856 58.2703 1.83263C57.6384 1.66395 56.9054 1.52489 56.621 1.51973C56.3378 1.52221 56.0484 1.53369 55.7603 1.55281C55.4231 1.58449 55.7183 1.76506 56.3879 1.9468C57.0543 2.13304 57.6703 2.32419 58.2864 2.51534C58.9881 2.74658 59.7984 2.89964 60.1023 2.85804C60.3527 2.82585 60.5591 2.78958 60.8014 2.77851C60.8989 2.77319 60.9057 2.74441 60.8295 2.69084C60.7218 2.6152 60.4449 2.49446 60.0525 2.36645ZM76.3209 13.5959C76.2092 13.8598 76.113 14.1683 75.9747 14.4605C75.8285 14.8211 76.3412 15.6647 77.1262 16.3305C77.8408 16.9534 78.5459 17.5899 79.2371 18.2367C79.9592 18.9253 80.629 19.1543 80.7111 18.7419C80.7808 18.3948 80.8366 18.058 80.8739 17.7284C80.9144 17.3942 80.3931 16.5915 79.741 15.9654C79.1152 15.3781 78.48 14.8042 77.843 14.2424C77.7045 14.125 77.5673 14.0151 77.4327 13.9206C76.881 13.5329 76.4132 13.3788 76.3209 13.5959ZM67.6621 7.06873C66.9132 6.65666 66.158 6.25358 65.3933 5.86399C64.541 5.44645 63.6091 5.22808 63.3117 5.37492C63.0564 5.53798 62.7584 5.70461 62.4133 5.87166C62.0531 6.08861 62.4956 6.64122 63.4304 7.10335C64.2355 7.5213 65.0733 7.96897 65.9016 8.43012C66.794 8.94303 67.8005 9.16011 68.0511 8.87966C68.3182 8.67118 68.5368 8.45547 68.7472 8.26089C68.9202 8.10047 68.6409 7.71618 68.0892 7.32855C67.9636 7.2403 67.8214 7.1471 67.6684 7.05974M71.778 9.54446C70.9517 9.00416 70.078 8.71252 69.8504 8.92193C69.6261 9.12684 69.4281 9.37045 69.1829 9.61448C68.9075 9.9111 69.4137 10.6495 70.3777 11.2798C71.2259 11.8557 72.0602 12.4419 72.8894 13.0447C73.7765 13.7083 74.6755 13.9639 74.8612 13.6043C75.0077 13.2909 75.1371 12.9924 75.2865 12.7416C75.4064 12.4565 74.8359 11.7334 74.0475 11.1391C73.6649 10.8636 73.2913 10.5944 72.9146 10.3296C72.5378 10.0649 72.1611 9.80019 71.769 9.53815M79.6112 14.3099C79.6233 14.4929 79.6322 14.6805 79.5944 14.8486C79.5987 15.1 80.0821 15.7755 80.6984 16.3763C81.2429 16.9268 81.781 17.4862 82.2788 18.0172C82.8295 18.6257 83.2772 18.9134 83.2209 18.612C83.1991 18.3953 83.14 18.1456 83.1042 17.9392C83.0311 17.6998 82.5696 17.06 82.0646 16.5105C81.5906 16.0028 81.1057 15.501 80.585 14.974C80.3295 14.7273 80.0973 14.5239 79.9179 14.3978C79.7206 14.2591 79.6029 14.2168 79.6081 14.3144M66.0099 4.71942C65.3798 4.42437 64.7433 4.13831 64.105 3.8644C63.3747 3.55938 62.6163 3.34204 62.4086 3.37067C62.1555 3.38757 61.9505 3.43149 61.6893 3.46952C61.4289 3.53499 61.8046 3.83929 62.5682 4.15423C63.2832 4.46193 63.9843 4.77997 64.6867 5.10566C65.4218 5.46105 66.2602 5.70768 66.4559 5.61023C66.6404 5.53841 66.823 5.47873 66.9571 5.41182C67.0475 5.38806 66.9754 5.29041 66.7781 5.15174C66.6032 5.02883 66.3362 4.87482 66.0054 4.71627M81.3258 15.2259C81.4082 15.3375 81.4887 15.4613 81.5572 15.5832C81.6457 15.7528 82.1164 16.332 82.615 16.8905C83.0468 17.3819 83.4679 17.8792 83.8781 18.3823C84.3457 18.9659 84.602 19.24 84.4839 19.0362C84.398 18.9042 84.3136 18.7733 84.2306 18.6434C83.3383 17.4725 82.3824 16.3443 81.3662 15.2543C81.3438 15.2385 81.3213 15.2228 81.3124 15.2165C81.3079 15.2133 81.3124 15.2165 81.3227 15.2304M65.4769 4.07635C64.107 3.48977 62.7216 2.97289 61.3175 2.5302C61.1642 2.4941 61.0124 2.45906 60.8621 2.42507C60.6757 2.39479 61.0173 2.54751 61.6827 2.77333C62.2964 2.99641 62.9069 3.22398 63.561 3.47542C64.2523 3.75972 64.9522 4.0031 65.0996 4.01265C65.242 4.03884 65.3812 4.06953 65.5141 4.10921C65.5352 4.11732 65.5474 4.11913 65.5429 4.11598C65.5384 4.11282 65.516 4.09707 65.4782 4.08399M74.1878 9.8143C74.1447 9.95189 74.0518 10.0746 73.9571 10.2094C73.8761 10.401 74.389 10.9964 75.146 11.5685C75.8204 12.0961 76.4603 12.6062 77.1221 13.1517C77.8475 13.7689 78.4381 14.063 78.4729 13.8323C78.4797 13.6223 78.5099 13.4554 78.5305 13.3021C78.514 13.1159 77.9903 12.5264 77.3527 11.9844C76.782 11.5095 76.169 11.0184 75.5497 10.5362C75.46 10.4732 75.3748 10.4133 75.2896 10.3535C74.7289 9.95952 74.2541 9.7199 74.1847 9.81879M71.8808 7.95831C71.2173 7.53911 70.5834 7.15411 69.9073 6.75289C69.1858 6.33995 68.4492 6.04392 68.3119 6.11532C68.1279 6.16736 67.9812 6.25225 67.7904 6.33306C67.6274 6.46021 68.1011 6.92064 68.8885 7.37322C69.6261 7.81091 70.3619 8.26075 71.0869 8.71643C71.8459 9.20945 72.6202 9.51855 72.7294 9.35358C72.8242 9.21873 72.944 9.11493 73.023 9.00256C73.0893 8.90816 72.7016 8.53504 72.141 8.1411C72.0602 8.08437 71.975 8.02449 71.8853 7.96146M76.8669 11.0454C76.8838 11.0976 76.9271 11.1885 76.9314 11.2587C76.9218 11.3392 77.447 11.8693 78.0814 12.4158C78.6395 12.9087 79.1868 13.4074 79.6951 13.8854C80.2966 14.4691 80.7024 14.7879 80.6466 14.6479C80.5768 14.5184 80.5008 14.3978 80.4511 14.3159C80.3875 14.2443 80.2616 14.1089 80.0658 13.9108C79.3474 13.1979 78.6011 12.5057 77.8345 11.8327C77.3772 11.4443 77.0135 11.1418 76.9014 11.063C76.8745 11.0441 76.8655 11.0378 76.8669 11.0454ZM69.9167 6.26269C69.027 5.76506 68.1227 5.29756 67.213 4.86648C66.9603 4.74936 66.7512 4.65611 66.7058 4.64439C66.5684 4.60156 66.4292 4.57087 66.2881 4.55233C66.1376 4.54727 66.614 4.84175 67.328 5.18903C67.9891 5.52593 68.6483 5.87497 69.3011 6.233C69.9867 6.62073 70.6604 6.93965 70.7764 6.92714C70.8439 6.9074 70.905 6.89666 70.9598 6.8949C70.9809 6.90301 70.9751 6.89221 70.9437 6.87015C70.8361 6.79451 70.4282 6.55495 69.9244 6.26134M73.6035 8.55775C73.4241 8.43169 73.2402 8.30248 73.0545 8.18541C72.4094 7.75902 71.876 7.43122 71.8275 7.42399C71.7727 7.42574 71.7084 7.44099 71.6409 7.46073C71.5608 7.49844 72.0706 7.91708 72.804 8.39885C73.4562 8.84367 74.138 9.3227 74.7775 9.78551C75.4838 10.3154 76.0428 10.6544 76.0543 10.5618C76.0532 10.4872 76.0426 10.426 76.0615 10.399C76.0383 10.3558 75.5132 9.93987 74.8979 9.48068C74.7185 9.35462 74.5378 9.22091 74.3584 9.09485C74.2328 9.00661 74.1027 8.91521 73.9771 8.82697C73.8515 8.73873 73.7215 8.64734 73.5959 8.55909" fill="#F4B686"/>
</svg>
