<svg width="554" height="554" viewBox="0 0 554 554" fill="none" xmlns="http://www.w3.org/2000/svg">
<path opacity="0.15" d="M448.197 496.29C448.795 496.153 449.37 495.993 449.876 495.763C450.129 495.648 452.06 494.132 454.382 492.27C457.21 489.949 459.969 487.559 462.727 485.123C463.302 484.595 463.854 484.135 464.704 483.331C465.578 482.549 466.451 481.722 467.325 480.894C469.784 478.573 471.554 476.803 471.485 476.734C471.37 476.619 471.185 476.435 470.794 476.411C470.495 476.112 467.23 478.685 463.828 481.903C460.357 485.052 457.047 487.947 453.713 490.82C451.897 492.314 450.357 493.716 449.346 494.727C448.334 495.738 447.875 496.336 448.22 496.314M490.811 453.63C487.962 456.986 485.043 460.273 482.078 463.561C478.7 467.17 476.126 470.434 476.426 470.734C476.633 470.941 476.817 471.125 476.748 471.424C476.818 471.494 478.564 469.747 480.863 467.31C481.667 466.46 482.449 465.632 483.23 464.759C484.012 463.885 484.494 463.356 485 462.805C487.528 460 489.987 457.126 492.377 454.23C494.284 451.862 495.663 450.115 495.915 449.632C496.145 449.126 496.144 448.757 496.282 448.159C496.305 447.814 495.707 448.274 494.718 449.262C493.73 450.25 492.351 451.768 490.788 453.653M473.356 462.148C469.632 466.009 465.84 469.802 462.001 473.502C457.703 477.524 455.061 481.456 456.281 482.033C457.156 482.632 457.962 483.116 458.699 483.577C459.642 483.831 463.275 481.304 467.298 477.558C470.631 474.317 474.125 470.823 477.388 467.467C481.158 463.468 483.662 459.812 483.247 459.075C482.97 458.108 482.486 457.302 481.886 456.427C481.379 455.322 478.091 457.413 474.459 461.044C474.114 461.389 473.747 461.757 473.379 462.125M419.203 516.531C420.008 516.233 420.997 515.751 421.71 515.36C421.71 515.36 421.94 515.222 421.963 515.245C428.884 511.042 435.667 506.516 442.289 501.645C443.347 500.818 443.967 500.336 443.507 500.611C443.001 500.841 442.449 501.024 441.851 501.162C441.207 501.207 437.459 503.573 433.895 506.169C430.515 508.536 427.296 510.695 423.824 512.969C421.272 514.6 419.547 515.818 419.042 516.324C418.812 516.554 418.835 516.623 419.18 516.508M513.007 423.787C510.893 427.006 508.596 430.455 506.368 433.605C503.633 437.399 501.428 440.94 501.222 441.791C501.085 442.389 500.901 442.941 500.672 443.447C500.557 443.7 500.879 443.24 501.89 441.999C506.669 435.469 511.125 428.755 515.283 421.925C515.359 421.757 515.398 421.672 515.398 421.672C515.926 420.683 516.27 419.924 516.706 418.889C516.798 418.567 516.729 418.544 516.522 418.751C516.016 419.257 514.684 421.142 513.03 423.764M424.485 507.333C425.843 507.449 427.178 507.497 428.236 507.636C429.525 507.591 433.618 505.295 437.619 502.4C441.136 499.757 444.815 496.908 448.263 494.151C452.057 491.002 454.654 488.083 453.733 487.852C452.812 487.621 452.053 487.137 451.04 486.721C449.912 486.191 445.542 488.533 441.22 492.118C437.45 495.151 433.61 498.115 429.518 501.194C427.954 502.343 426.667 503.4 425.725 504.343C424.07 505.998 423.542 507.17 424.485 507.333ZM501.209 429.457C498.291 433.343 495.166 437.389 492.132 441.16C488.548 445.528 486.205 449.851 486.736 450.979C487.289 451.808 487.612 452.775 487.866 453.673C488.281 454.363 491.017 451.996 494.165 448.203C497.083 444.548 499.772 441.076 502.414 437.558C505.309 433.558 507.743 429.234 507.65 428.176C507.672 426.864 507.463 425.782 507.347 424.425C507.162 423.504 506.012 424.009 504.357 425.664C503.438 426.583 502.334 427.871 501.209 429.457ZM391.694 527.408C393.19 527.386 394.893 527.158 396.342 526.999C398.021 526.701 402.345 524.819 406.186 522.684C409.543 520.754 413.107 518.664 416.396 516.666C420.351 514.185 422.443 512.278 421.177 512.345C419.935 512.39 418.623 512.365 417.311 512.295C415.701 512.201 411.147 514.129 407.031 516.725C403.075 519.114 399.35 521.318 395.786 523.362C393.647 524.534 392.153 525.568 391.44 526.28C390.727 526.993 390.751 527.43 391.648 527.408M523.469 395.495C521.333 399.29 519.105 403.038 516.877 406.74C514.281 410.856 512.216 415.64 512.309 417.251C512.403 418.586 512.427 419.851 512.497 420.887C512.453 422.129 514.337 420.06 516.68 416.335C518.816 412.817 520.769 409.483 522.813 405.872C524.925 402.009 526.808 397.685 526.99 396.258C527.264 394.556 527.355 393.083 527.399 391.611C527.467 390.575 527.03 390.552 526.317 391.265C525.605 391.977 524.571 393.472 523.469 395.495ZM428.286 489.711C429.943 490.679 431.762 491.44 433.328 492.224C434.916 493.032 439.792 490.69 444.114 487.105C447.953 483.819 451.953 480.279 455.7 476.901C459.792 473.086 462.364 468.855 461.005 467.818C459.854 466.666 458.472 465.56 457.159 464.201C455.615 462.611 450.464 464.907 445.82 469.274C441.683 473.043 437.315 476.904 433.062 480.558C432.395 481.132 431.752 481.684 431.177 482.259C427.821 485.615 426.536 488.742 428.309 489.688M480.595 432.978C476.941 437.231 473.241 441.438 469.311 445.737C465.151 450.173 462.833 455.348 464.238 457.075C465.574 458.365 466.841 459.586 467.855 460.922C469.03 462.097 473.1 459.685 476.938 455.617C480.524 451.663 483.856 447.87 487.142 444.031C490.727 439.708 493.069 434.833 492.423 433.037C491.616 431.495 490.739 429.883 489.886 428.018C488.941 426.292 485.698 427.692 482.342 431.047C481.744 431.645 481.17 432.266 480.595 432.978ZM378.014 536.85C376.449 537.401 374.356 538.158 372.286 538.938C372.01 539.03 372.01 539.03 371.78 539.167C373.873 538.41 375.944 537.676 378.014 536.85ZM538.883 372.203C538.218 374.02 537.438 376.09 536.795 377.93C537.576 375.86 538.356 373.79 539.113 371.697C539.021 371.85 538.944 372.019 538.883 372.203ZM391.774 515.581C393.799 516.135 395.778 516.597 397.758 516.968C399.76 517.361 404.797 515.457 409.143 512.723C412.96 510.196 416.961 507.485 420.709 504.889C424.847 501.903 426.984 498.891 425.304 498.267C423.853 497.507 422.127 496.837 420.377 496.053C418.259 495.176 412.808 497.126 408.209 500.481C403.979 503.468 399.909 506.247 395.816 509.004C394.413 509.9 393.264 510.819 392.437 511.647C390.529 513.554 390.162 515.119 391.797 515.604M509.087 395.503C506.353 399.619 503.436 403.918 500.449 408.149C497.118 412.724 495.168 418.222 496.182 420.11C496.966 421.859 497.659 423.563 498.236 425.243C498.859 426.924 501.871 424.787 504.858 420.648C507.615 416.694 510.165 412.9 512.692 409.083C515.448 404.76 517.329 399.7 516.936 397.697C516.566 395.718 516.103 393.738 515.549 391.713C515.087 390.056 513.523 390.33 511.615 392.238C510.81 393.042 509.937 394.146 509.087 395.503ZM359.542 541.731C361.474 541.457 363.131 541.229 365.04 540.84C366.696 540.52 371.159 539.052 374.494 537.744C377.576 536.505 380.888 535.082 384.177 533.681C387.696 532.098 389.328 530.972 387.672 531.292C386.245 531.475 384.566 531.726 383.116 531.793C381.115 531.952 376.422 533.512 372.696 535.211C369.177 536.749 365.889 538.149 362.576 539.48C360.414 540.306 359.104 540.971 358.713 541.362C358.414 541.661 358.667 541.822 359.542 541.731ZM539.54 362.24C538.094 365.805 536.717 369.117 535.179 372.636C533.457 376.385 531.944 381.077 531.877 382.803C531.694 384.505 531.581 385.955 531.261 387.611C531.055 389.015 532.158 387.405 533.765 383.863C535.096 380.827 536.496 377.492 537.735 374.41C539.135 370.799 540.488 366.59 540.923 364.681C541.22 363.047 541.472 361.368 541.722 359.412C541.814 358.538 541.652 358.284 541.353 358.583C540.963 358.974 540.343 360.193 539.563 362.171M355.967 534.709C358.292 534.965 360.616 535.174 362.664 535.338C364.988 535.455 369.957 534.08 373.913 532.244C377.339 530.568 380.973 528.731 384.584 526.871C388.401 524.804 390.148 522.781 388.214 522.457C386.074 522.247 384.164 521.854 382.231 521.392C379.745 520.929 374.362 522.35 370.177 524.646C366.175 526.713 362.381 528.664 358.793 530.455C357.137 531.236 355.918 532.04 355.229 532.73C354.217 533.741 354.356 534.523 355.944 534.732M530.515 358.502C528.633 362.32 526.704 366.138 524.706 369.886C522.41 374.072 520.897 379.684 521.452 381.94C521.822 384.103 522.216 386.014 522.54 387.947C522.772 390.11 524.795 388.364 526.954 384.316C528.814 380.706 530.559 377.302 532.327 373.645C534.163 369.689 535.515 364.698 535.329 362.627C535.212 360.302 534.956 358.254 534.677 355.907C534.469 354.319 533.686 354.088 532.652 355.122C532.008 355.766 531.273 356.916 530.492 358.525M428.208 461.04C430.627 463.229 433.137 465.141 435.371 467.053C437.858 468.897 443.792 466.602 448.712 461.96C453.033 457.776 457.446 453.363 461.813 448.858C466.456 443.939 468.567 438.189 466.746 435.679C464.834 433.444 462.944 430.957 460.733 428.516C458.267 425.591 452.148 427.379 446.977 432.873C442.196 437.792 437.507 442.481 432.588 447.261C432.404 447.445 432.244 447.606 432.06 447.79C426.98 452.87 425.376 458.667 428.231 461.063M329.5 550.534L329.799 550.328L328.948 550.626C328.948 550.626 329.339 550.557 329.523 550.511M550.296 329.692L550.48 329.416C550.48 329.416 550.548 329.025 550.594 328.841L550.296 329.692ZM329.799 550.328C331.624 550.038 333.441 549.726 335.251 549.39C339.668 548.475 344.085 547.421 348.479 546.298C349.889 545.901 351.316 545.504 352.757 545.106C355.955 544.166 357.266 543.685 355.333 544.097C353.7 544.394 351.79 544.737 350.134 544.965C348.201 545.193 343.623 546.224 340.426 547.164C337.482 547.989 334.56 548.745 331.593 549.501C329.752 549.913 328.786 550.235 328.671 550.349C328.579 550.441 328.947 550.442 329.799 550.328ZM549.47 331.532C548.736 334.477 548.026 337.168 547.132 340.365C546.192 343.563 545.207 347.865 544.934 350.073C544.705 351.73 544.454 353.363 544.134 355.02C543.722 356.906 544.135 355.894 545.075 352.697C545.671 350.58 545.671 350.58 546.244 348.441C547.412 343.955 548.443 339.423 549.404 334.868C549.839 332.453 549.862 332.43 550.273 329.715C550.41 328.795 550.41 328.381 550.318 328.473C550.203 328.587 549.882 329.646 549.447 331.509M388.666 493.441C391.613 494.917 394.33 496.347 397.023 497.661C399.763 499.022 405.974 497.142 410.848 493.512C415.492 489.973 419.837 486.549 424.366 482.896C429.194 478.851 431.283 474.182 428.957 472.408C426.723 470.726 424.213 469.043 421.818 467.062C418.962 464.85 412.222 466.66 406.866 471.141C401.992 475.14 397.233 478.977 392.382 482.723C391.508 483.366 390.75 484.032 390.083 484.699C386.497 488.285 385.857 491.92 388.643 493.418M319.975 552.135L320.251 552.089C320.251 552.089 320.044 552.112 319.929 552.135M322.823 547.168C325.055 547.331 327.31 547.426 329.542 547.497C332.074 547.5 336.652 546.653 340.079 545.622C343.23 544.59 346.336 543.512 349.441 542.388C353.029 541.057 354.132 539.908 351.854 539.836C349.829 539.696 347.574 539.555 345.273 539.369C342.971 539.044 337.68 540.005 334.115 541.358C330.803 542.551 327.444 543.698 324.339 544.776C322.729 545.281 321.694 545.763 321.28 546.177C320.775 546.682 321.258 547.074 322.8 547.191M544.767 323.979C543.666 327.338 542.588 330.443 541.372 333.778C539.95 337.596 539.058 342.635 539.337 345.212C539.547 347.49 539.733 349.515 539.873 351.541C539.945 353.819 541.071 352.738 542.356 349.38C543.549 346.022 544.604 342.894 545.636 339.742C546.622 336.591 547.514 331.737 547.465 329.482C547.394 327.25 547.299 324.995 547.182 322.486C547.042 321.06 546.65 320.668 546.145 321.174C545.754 321.564 545.249 322.53 544.79 324.003M319.952 552.158C318.02 552.432 313.924 552.98 311.187 553.322C310.657 553.39 310.45 553.413 310.105 553.436C313.395 553.048 316.662 552.637 319.929 552.135M553.267 311.103C552.902 313.864 552.4 317.683 552.08 319.892L552.034 320.168C552.537 316.809 552.993 313.45 553.381 310.068L553.244 311.08L553.267 311.103ZM349.047 518.917C352.017 520.047 354.986 521.04 357.702 522.009C360.718 522.956 367.09 521.513 371.643 518.941C375.92 516.461 380.151 513.888 384.313 511.293C389.096 508.26 390.565 504.903 387.987 503.657C385.247 502.573 382.715 501.235 379.906 499.898C376.775 498.284 369.827 499.749 364.907 503.011C360.331 505.928 355.893 508.707 351.386 511.418C350.236 512.107 349.293 512.819 348.604 513.509C346.351 515.761 346.377 517.947 349.024 518.94M511.363 351.348C508.653 355.855 505.896 360.27 502.956 364.869C499.694 369.79 498.344 376.53 499.958 379.662C501.318 382.447 502.518 385.21 503.74 387.719C504.894 390.528 508.344 388.829 511.284 384.276C513.994 379.861 516.521 375.63 518.91 371.583C521.573 366.799 522.901 360.68 521.978 357.642C521.077 354.672 520.084 351.703 518.954 348.733C517.984 346.109 515.844 346.084 513.615 348.313C512.856 349.072 512.075 350.084 511.363 351.348ZM293.17 553.647C295.379 553.742 297.611 553.813 299.82 553.816C302.305 553.772 306.446 553.409 309.184 552.974C311.899 552.517 314.361 552.037 317.075 551.533C320.066 550.892 320.526 550.387 318.317 550.384C316.084 550.359 314.128 550.242 311.919 550.147C309.411 549.983 304.763 550.392 301.819 551.033C299.104 551.583 296.39 552.086 293.675 552.543C292.409 552.749 291.696 552.955 291.512 553.139C291.283 553.369 291.835 553.554 293.193 553.624M552.512 293.568C552.077 296.03 551.574 298.745 551.024 301.459C550.36 304.427 549.974 309.051 550.138 311.56C550.256 313.792 550.327 316.024 550.352 318.256C550.378 320.488 550.906 319.729 551.502 317.015C552.051 314.3 552.531 311.562 552.943 309.124C553.377 306.386 553.74 301.968 553.761 299.736C553.735 297.504 553.687 295.295 553.593 293.086C553.499 291.706 553.337 291.084 553.107 291.314C552.923 291.498 552.694 292.234 552.512 293.568ZM312.066 536.594C315.081 537.403 318.119 538.142 320.881 538.836C323.942 539.506 329.74 538.73 333.742 537.124C337.468 535.563 341.401 533.888 345.035 532.235C349.128 530.307 350.345 527.984 347.445 527.153C344.545 526.367 341.691 525.489 338.814 524.543C335.43 523.412 329.149 524.21 324.687 526.368C320.915 528.205 317.075 529.973 313.188 531.648C311.9 532.199 310.957 532.773 310.382 533.348C309.072 534.658 309.58 535.947 312.02 536.594M279.333 546.982C282.302 547.607 285.294 548.208 288.01 548.763C291.025 549.296 296.179 549.071 299.653 548.224C302.574 547.422 305.749 546.551 308.9 545.657C312.305 544.602 312.924 543.199 309.886 542.644C307.124 542.042 304.408 541.395 301.439 540.678C298.194 539.823 292.419 540.07 288.807 541.24C285.679 542.203 282.528 543.143 279.33 543.991C278.272 544.266 277.559 544.61 277.191 544.978C276.479 545.69 277.193 546.451 279.333 546.982ZM337.281 490.739C341.149 492.952 344.856 495.05 348.356 497.079C352.201 499.131 359.471 497.989 364.437 494.588C369.128 491.326 373.726 488.018 378.463 484.571C383.659 480.665 385.057 475.535 381.465 473.138C378.241 470.742 374.625 468.414 371.171 465.787C367.187 462.814 359.365 463.864 353.87 468.161C348.95 471.929 344.075 475.56 339.086 479.167C338.396 479.672 337.776 480.201 337.247 480.73C333.684 484.292 333.551 488.526 337.327 490.739M296.764 515.408C300.516 517.138 304.085 518.822 307.699 520.367C311.359 522.005 318.032 521.46 322.608 519.141C326.679 516.959 330.887 514.686 335.05 512.32C339.58 509.633 340.519 505.883 336.858 504.016C333.29 502.24 329.767 500.372 326.313 498.344C322.169 496.038 314.829 496.605 310.115 499.568C305.7 502.187 301.423 504.667 297.261 507.079C296.433 507.538 295.766 508.067 295.238 508.595C292.893 510.94 293.379 513.725 296.787 515.385M251.956 551.278C254.672 551.833 257.387 552.343 260.103 552.806C262.842 553.246 267.26 553.435 269.722 553.23C272.207 553.003 274.692 552.73 277.153 552.387C279.891 551.999 279.89 551.263 277.152 550.777C274.413 550.29 271.72 549.758 269.027 549.18C266.081 548.486 261.203 548.297 258.442 548.708C255.957 549.074 253.472 549.347 251.264 549.621C250.251 549.712 249.699 549.849 249.492 550.056C249.171 550.378 250.045 550.839 251.933 551.255M261.253 531.43C264.729 532.838 268.021 534.153 271.589 535.423C275.18 536.715 281.117 536.722 284.705 535.437C288.017 534.198 291.513 532.867 295.032 531.467C298.712 529.861 299.009 527.353 295.395 525.899C292.08 524.515 288.557 523.015 285.081 521.47C281.397 519.671 274.863 519.664 270.953 521.455C267.48 522.992 263.938 524.461 260.626 525.838C259.798 526.16 259.177 526.55 258.74 526.987C257.338 528.389 258.215 530.185 261.253 531.43ZM229.75 550.771C232.213 551.257 234.376 551.673 236.839 552.067C239.301 552.461 243.168 552.971 245.078 553.181C247.011 553.367 248.668 553.461 250.624 553.578C252.833 553.672 252.579 553.419 249.841 552.979C247.401 552.562 244.915 552.099 242.499 551.613C239.806 551.035 235.71 550.478 233.731 550.43C231.798 550.336 230.118 550.219 228.185 550.079C227.586 550.032 227.31 550.032 227.218 550.078C227.126 550.17 227.955 550.401 229.727 550.794M231.694 539.843C235.009 541.043 238.071 542.128 241.155 543.19C244.539 544.275 249.348 544.717 252.362 544.191C254.847 543.642 257.538 543.07 260.253 542.428C263.22 541.672 263.058 540.084 259.697 538.93C256.382 537.776 253.343 536.622 250.075 535.376C246.575 533.946 240.937 533.456 238.177 534.328C235.44 535.038 232.909 535.725 230.402 536.344C229.689 536.504 229.206 536.711 228.93 536.987C228.148 537.768 229.208 538.92 231.648 539.889M208.457 542.441C211.311 543.456 213.912 544.357 216.789 545.303C219.69 546.227 223.74 546.968 225.696 546.901C227.675 546.857 229.608 546.767 231.587 546.631C233.818 546.472 233.403 545.551 230.296 544.559C227.441 543.589 224.587 542.62 221.779 541.604C218.717 540.427 214.229 539.617 212.204 539.891C210.203 540.05 208.224 540.14 206.498 540.253C205.969 540.275 205.624 540.344 205.486 540.482C205.118 540.849 206.178 541.587 208.457 542.441ZM238.742 503.771C243.002 506.283 247.1 508.727 251.268 511.055C255.757 513.522 262.845 513.806 267.214 511.694C271.009 509.65 274.987 507.515 279.127 505.31C283.611 502.761 283.721 498.412 279.07 495.692C274.765 493.087 270.551 490.39 266.245 487.601C261.455 484.421 253.562 484.113 249.17 486.984C245.169 489.465 241.26 491.854 237.305 494.105C236.776 494.403 236.316 494.771 235.948 495.139C233.466 497.621 234.551 501.235 238.742 503.771ZM190.622 540.65C192.97 541.481 195.341 542.288 197.688 543.073C200.336 543.928 203.535 544.783 204.893 545.083C206.251 545.338 207.632 545.569 208.989 545.778C210.646 546.01 209.91 545.503 207.285 544.672C204.938 543.887 202.313 543.009 199.965 542.178C197.111 541.117 193.658 540.193 192.255 540.03C190.874 539.845 189.746 539.682 188.388 539.428C188.02 539.335 187.813 539.358 187.79 539.381C187.675 539.496 188.734 539.957 190.622 540.65ZM207.533 518.394C211.378 520.492 215.269 522.544 218.976 524.458C222.959 526.464 229.011 527.276 232.093 526.129C235.107 525.051 238.074 523.881 241.294 522.688C244.721 521.242 244.418 518.273 240.09 516.013C236.291 513.915 232.331 511.702 228.44 509.466C223.95 506.861 217.575 506.094 214.171 507.748C211.043 509.125 208.123 510.479 205.409 511.765C204.857 511.994 204.42 512.247 204.121 512.546C202.65 514.017 204.01 516.434 207.533 518.44M183.564 525.639C186.879 527.392 190.218 529.075 193.349 530.643C197.009 532.373 201.705 533.436 204.028 533.048C206.329 532.682 208.399 532.178 210.723 531.697C213.299 531.102 212.469 529.122 208.693 527.277C205.171 525.502 201.924 523.772 198.471 521.928C194.603 519.807 189.286 518.627 186.825 519.338C184.893 520.026 182.73 520.576 180.844 521.126C180.43 521.218 180.154 521.356 179.97 521.539C179.166 522.344 180.502 524.002 183.61 525.639M165.917 527.392C168.588 528.775 171.535 530.251 174.251 531.589C177.244 533.019 181.134 534.288 182.607 534.29C184.057 534.315 185.783 534.386 187.232 534.318C189.004 534.251 187.99 533.007 184.79 531.462C181.866 530.009 178.712 528.464 175.811 526.942C172.473 525.167 168.605 523.92 167.041 524.102C165.522 524.193 164.004 524.191 162.761 524.282C162.485 524.282 162.301 524.327 162.232 524.396C161.841 524.787 163.292 525.962 165.871 527.346M153.489 525.307C155.699 526.46 158.186 527.705 160.419 528.789C162.929 529.966 165.967 531.304 167.026 531.673C167.832 531.881 168.914 532.227 169.972 532.504C171.077 532.736 169.926 531.952 167.163 530.661C164.677 529.461 162.213 528.193 159.75 526.925C157.079 525.495 154.017 524.18 152.912 523.949C152.061 523.787 151.232 523.602 150.404 523.371C150.197 523.302 150.082 523.279 150.059 523.302C149.967 523.394 151.302 524.177 153.466 525.33M180.137 484.562C184.282 487.604 188.519 490.6 192.618 493.458C197.177 496.546 203.483 497.519 206.795 495.636C209.991 493.868 213.165 491.984 216.522 490.055C220.339 487.85 219.598 483.247 214.831 479.86C210.525 476.749 206.126 473.499 201.82 470.204C197.076 466.517 190.241 465.613 186.539 468.071C183.527 470.345 180.561 472.482 177.572 474.504C177.342 474.642 177.135 474.848 176.951 475.032C174.652 477.331 176.015 481.451 180.137 484.562ZM155.715 498.434C159.261 500.923 162.831 503.389 166.446 505.809C170.314 508.344 175.309 509.661 177.655 508.697C179.955 507.825 182.255 506.861 184.555 505.805C187.177 504.566 186.115 501.343 182.039 498.6C178.193 495.996 174.417 493.323 170.686 490.649C166.61 487.631 161.109 486.267 158.856 487.829C156.533 488.954 154.648 490.241 152.601 491.32C152.417 491.412 152.233 491.55 152.095 491.688C150.739 493.044 152.169 495.899 155.738 498.457M138.672 505.479C141.527 507.461 144.636 509.559 147.538 511.495C150.922 513.684 154.721 515.092 156.377 514.818C157.757 514.451 159.16 514.015 160.817 513.695C162.519 513.191 161.297 511.003 157.774 508.721C154.504 506.555 151.488 504.458 148.287 502.222C144.671 499.664 140.666 498.233 139.056 498.876C137.768 499.473 136.48 499.977 135.238 500.482C135.054 500.528 134.939 500.597 134.847 500.689C134.134 501.401 135.77 503.451 138.695 505.502M127.192 507.377C129.679 509.082 132.212 510.788 134.722 512.47C137.255 514.13 140.225 515.582 141.145 515.629C142.066 515.676 143.009 515.701 143.952 515.679C145.172 515.703 143.836 514.229 140.865 512.316C138.148 510.518 135.661 508.858 132.967 506.992C130.066 504.964 127.119 503.534 126.083 503.602C125.324 503.762 124.565 503.876 123.875 503.967C123.76 503.944 123.668 503.99 123.645 504.013C123.346 504.312 124.843 505.763 127.215 507.4M120.31 505.735C122.137 506.98 123.895 508.186 125.583 509.354C126.573 510.022 127.61 510.644 128.6 511.313C130.027 512.189 130.971 512.765 131.432 513.042C131.915 513.295 132.422 513.526 132.951 513.734C133.504 513.918 132.145 512.927 129.842 511.406C127.77 510.023 125.698 508.64 123.418 507.05C121.138 505.46 118.812 503.962 118.26 503.777C117.961 503.708 117.454 503.477 117.178 503.385C117.132 503.339 117.109 503.316 117.086 503.339C117.063 503.362 118.491 504.422 120.31 505.689M105.539 464.991C104.137 466.117 105.82 469.639 109.413 472.957C112.684 475.906 115.77 478.624 119.11 481.504C122.68 484.522 126.893 486.207 128.525 485.265C130.089 484.392 131.699 483.428 133.354 482.417C135.171 481.153 133.74 477.608 129.756 474.267C126.232 471.203 122.708 468.093 119.414 465.121C115.637 461.619 111.171 459.958 109.516 461.383C108.297 462.417 107.102 463.382 106.068 464.416C105.884 464.6 105.677 464.807 105.493 464.991M125.966 458.938C129.835 462.44 133.728 465.919 137.505 469.191C141.881 472.877 147.428 474.425 150.049 472.633C152.533 470.933 154.854 469.025 157.614 467.234C160.557 465.074 159.147 459.941 154.518 455.955C150.441 452.338 146.226 448.583 142.242 444.92C137.658 440.658 131.697 439.202 129.099 441.753C126.801 443.96 124.594 446.028 122.433 448.051L122.364 448.12C120.203 450.28 121.842 455.091 125.966 458.938ZM99.2742 480.608C101.9 482.958 104.756 485.446 107.428 487.75C110.33 490.192 113.461 491.899 114.427 491.532C115.37 491.187 116.336 490.82 117.325 490.384C118.406 489.856 116.723 487.208 113.499 484.489C110.505 481.909 107.695 479.467 104.954 477.002C101.821 474.145 98.4598 472.347 97.4941 472.99C97.1493 473.335 96.8045 473.679 96.4366 473.955C96.0918 474.254 95.724 474.53 95.4482 474.851C95.4482 474.851 95.4022 474.897 95.3792 474.92C94.7816 475.518 96.6253 478.143 99.3432 480.631M101.933 491.863C101.933 491.863 100.482 490.596 98.57 488.96C96.6814 487.347 94.7927 485.689 92.927 484.007C91.3377 482.555 89.9788 481.334 89.3339 480.781C93.4339 484.606 97.6488 488.315 101.91 491.84M147.877 422.238C144.383 425.502 145.656 431.969 150.562 436.599C155.077 440.746 159.683 444.893 164.152 448.856C169.196 453.21 176.376 454.414 180.147 451.473C183.572 448.601 187.32 445.774 190.883 442.672C195.159 439.271 194.254 432.528 189.049 427.874C184.166 423.497 179.421 419.12 174.607 414.628C169.355 409.652 161.761 408.677 157.899 412.492C154.911 415.342 151.992 418.124 149.21 420.905C148.774 421.341 148.337 421.778 147.877 422.238ZM90.2759 479.517C90.0461 479.747 91.7279 481.612 93.9621 483.663C96.2193 485.69 98.3153 487.51 100.618 489.492C102.945 491.45 105.432 493.201 105.846 493.156C106.237 493.087 106.697 492.996 107.134 492.881C107.847 492.859 106.189 490.97 103.678 488.874C101.168 486.731 98.9105 484.75 96.6533 482.722C94.0275 480.326 91.7248 478.759 91.1957 478.92C91.0578 479.057 90.8738 479.149 90.7128 479.218C90.5518 479.287 90.3908 479.356 90.2759 479.471M63.8079 452.773C63.8543 453.095 63.9466 453.371 64.039 453.648C64.1543 453.901 65.6981 455.858 67.4952 457.977C69.1311 459.889 70.7898 461.732 72.4716 463.597C74.3377 465.647 75.9041 467.214 75.7888 466.96C75.8807 466.868 75.9726 466.777 75.9033 466.477C76.0412 466.339 74.4974 464.382 72.6313 462.332C70.7882 460.259 68.9682 458.209 67.3094 456.32C65.4431 454.132 63.9458 452.589 63.8079 452.727M64.5133 445.525C64.3761 446.308 64.1236 446.883 63.8711 447.412C63.8029 448.171 65.4164 450.75 67.5131 453.26C69.6788 455.748 71.6601 458.005 73.6875 460.262C75.9222 462.681 78.11 464.409 78.5008 464.018C78.7072 463.443 79.144 463.052 79.6038 462.639C79.9481 461.926 78.3806 459.347 75.8234 456.56C73.6578 454.164 71.4922 451.723 69.3956 449.258C67.0225 446.472 65.042 444.997 64.5823 445.457L64.5363 445.502M69.5849 432.944C68.8729 434.117 68.3911 435.474 67.7941 436.578C67.151 437.728 68.7885 441.158 71.5303 444.406C73.9724 447.216 76.4376 450.002 78.9257 452.766C81.8054 455.876 84.6835 457.559 85.603 456.685C86.2922 455.674 87.2347 454.823 88.0158 453.72C89.1422 452.686 87.4584 448.979 84.3253 445.616C81.5608 442.576 79.0035 439.697 76.3309 436.564C73.6122 433.386 70.7341 431.749 69.7457 432.737C69.6998 432.783 69.6538 432.829 69.6078 432.875M80.9997 413.421C79.5521 415.283 78.3348 417.33 77.0252 419.146C75.6466 421.032 77.2394 425.704 80.488 429.505C83.5983 433.075 86.5933 436.437 89.5883 439.754C93.136 443.578 97.2107 445.262 98.7275 443.515C100.152 441.86 101.692 440.136 103.439 438.527C105.278 436.504 103.777 431.555 99.9756 427.478C96.6811 423.862 93.3867 420.2 90.1842 416.491C87.0508 412.852 83.1143 411.214 81.3904 412.938C81.2525 413.076 81.1145 413.214 81.0227 413.398M100.573 384.864C98.2987 387.967 96.0008 390.864 93.864 393.738C91.5893 396.75 92.8615 402.803 96.8243 407.41C100.395 411.44 103.966 415.425 107.721 419.502C111.822 423.878 117.369 425.38 119.851 422.529C122.31 419.978 124.885 417.358 127.551 414.645C130.47 411.45 129.381 405.029 124.935 400.307C120.904 395.954 117.033 391.716 113.186 387.408C109.131 382.756 103.745 381.6 100.895 384.45C100.78 384.565 100.665 384.68 100.527 384.817M53.0248 439.691C52.4026 438.793 51.4346 437.412 50.5128 436.076C49.2452 434.257 47.8623 432.184 46.4564 430.089C46.4564 430.089 46.2951 429.882 46.2491 429.882C48.4157 433.197 50.6972 436.444 53.0248 439.691ZM40.967 418.21C41.129 419.061 41.1987 419.682 41.4297 420.511C41.6607 421.34 43.1593 423.988 44.8188 426.567C46.34 428.869 47.9072 431.172 49.4744 433.429C51.2259 435.916 52.7004 437.574 52.6077 436.976C52.538 436.354 52.4682 435.733 52.4215 435.089C52.4438 434.421 50.9682 431.751 49.0554 429.056C47.327 426.592 45.6215 424.059 43.939 421.549C42.3947 419.178 41.1966 417.75 40.9667 417.979C40.9208 418.025 40.9208 418.071 40.921 418.21M40.952 404.449C40.7694 405.784 40.4944 406.842 40.4267 408.107C40.3131 409.419 41.8356 412.918 43.9101 416.142C45.7078 418.859 47.7129 421.784 49.5797 424.478C51.792 427.564 53.7497 429.199 54.1399 428.302C54.3458 427.175 54.5976 426.048 55.0338 425.105C55.4466 423.863 53.7166 419.926 51.412 416.656C49.407 413.824 47.3097 410.715 45.2584 407.606C43.5067 404.935 41.7562 403.369 41.1815 403.943C41.0896 404.035 40.9978 404.219 40.998 404.449M45.7161 384.252C45.028 386.276 44.3629 388.277 43.6975 390.048C43.1015 392.072 44.5331 396.63 46.9532 400.383C49.2811 403.906 51.5166 407.107 53.9135 410.561C56.6328 414.384 59.4879 415.998 60.3143 414.25C61.0948 412.548 61.9443 410.823 62.8629 409.075C63.896 406.983 62.418 402.057 59.4683 398.004C56.9563 394.526 54.3981 390.773 51.9781 387.204C49.7886 383.911 47.3018 382.389 46.1525 383.539C45.9686 383.723 45.8308 383.953 45.6931 384.275M57.4671 356.468C55.9054 359.273 54.4589 362.102 53.1043 364.931C51.6809 367.829 52.8838 373.675 55.7878 378.004C58.5765 382.08 61.3882 386.132 64.2458 390.093C67.4489 394.4 71.5004 395.969 73.1311 393.14C74.7621 390.634 76.4851 388.082 78.2308 385.322C80.2523 382.195 79.0488 375.797 75.5924 371.283C72.4583 367.046 69.3702 362.717 66.3973 358.549C63.6549 354.657 60.202 353.41 58.2022 355.41C57.9264 355.686 57.6737 356.031 57.444 356.445M22.5624 379.394C22.6557 380.545 22.795 381.695 22.9803 382.8C23.258 384.181 24.4349 387.289 25.7494 390.028C26.9717 392.492 28.2169 394.978 29.4852 397.442C30.9147 400.112 31.9747 401.448 31.7893 400.298C31.7654 399.4 31.603 398.226 31.625 397.329C31.6007 396.109 30.2162 392.564 28.6713 389.64C27.4031 387.223 26.0426 384.529 24.8203 382.066C23.7133 379.764 22.8837 378.566 22.6308 378.819C22.5619 378.888 22.5391 379.095 22.5624 379.394ZM78.0907 320.134C75.4718 324.089 72.9679 327.883 70.5791 331.792C68.0523 335.839 68.8656 343.088 72.3917 348.131C75.6179 352.507 79.0285 357.205 82.4851 361.765C86.3563 366.785 91.8799 367.849 94.706 364.01C97.3712 360.331 100.22 356.699 103.116 352.928C106.448 348.675 105.726 340.827 101.463 335.461C97.7071 330.74 94.0664 326.088 90.4484 321.229C87.0149 316.646 82.1587 315.744 79.0557 318.847C78.688 319.214 78.3663 319.628 78.0446 320.088M22.6784 359.191C22.5426 361.216 22.3374 362.987 22.2013 364.736C22.0421 366.508 23.2202 370.674 24.7424 373.897C26.1952 376.821 27.6711 379.722 29.1929 382.623C30.8761 385.731 32.4882 387.067 32.7856 385.48C33.037 383.893 33.3345 382.351 33.5856 380.488C33.9977 378.601 32.7964 374.228 30.998 370.959C29.3609 367.896 27.7929 364.811 26.2247 361.68C24.9102 358.94 23.6434 357.812 22.9998 358.455C22.8619 358.593 22.7471 358.846 22.6784 359.191ZM28.2638 332.459C27.5075 335.243 26.7276 337.543 26.0631 340.096C25.3526 342.696 26.2787 347.851 28.1237 351.673C29.807 354.965 31.6287 358.488 33.4963 361.964C35.5482 365.625 37.9887 366.916 38.8374 364.455C39.6171 362.017 40.5582 359.832 41.4989 357.371C42.5311 354.404 41.6278 348.995 39.3684 344.989C37.3856 341.397 35.4258 337.782 33.558 334.122C32.0131 331.152 30.148 330.068 28.9988 331.218C28.7229 331.493 28.4933 331.907 28.2868 332.436M9.26151 336.35C9.28636 338.03 9.40324 339.71 9.49709 341.367C9.68328 343.3 10.5618 347.075 11.4854 349.975C12.3626 352.599 13.2629 355.2 14.2091 357.801C15.2707 360.656 16.1234 361.83 16.0295 360.127C15.9126 358.447 15.934 356.998 15.8861 355.295C15.8609 353.293 14.9592 349.311 13.8053 346.227C12.7898 343.372 11.7972 340.541 10.92 337.917C10.2735 335.937 9.69708 334.855 9.42126 335.131C9.30633 335.246 9.23773 335.637 9.2845 336.327M41.2277 298.579C39.5978 302.098 38.0367 305.41 36.5677 308.768C35.03 312.425 35.5659 318.569 37.7796 322.897C39.8547 326.719 41.9758 330.495 44.2121 334.433C46.8172 338.968 50.3156 339.755 52.0375 336.144C53.7599 333.085 55.5051 329.82 57.3422 326.37C59.4319 322.484 58.9414 315.787 56.1522 311.251C53.7088 307.291 51.3343 303.215 49.075 299.301C47.1152 295.686 44.4221 294.878 42.4683 296.832C42.0316 297.268 41.6181 297.866 41.2507 298.602M10.8442 310.673C10.4788 313.157 10.1361 315.389 9.86264 317.874C9.58928 320.404 10.2155 324.984 11.3007 328.368C12.2703 331.222 13.3781 334.307 14.486 337.391C15.7552 340.683 17.1369 341.743 17.4333 339.189C17.7759 336.912 18.1646 334.634 18.6454 332.357C19.2178 329.803 18.4988 324.579 17.1374 321.057C15.9606 318.041 14.8064 314.727 13.7215 311.619C12.9366 309.271 12.0843 308.373 11.4637 308.993C11.2108 309.246 10.9813 309.798 10.8442 310.626M63.1807 257.461C60.4702 261.784 57.8519 266.245 55.3252 270.338C52.6611 274.983 52.6922 282.415 55.3662 286.836C57.9021 291.165 60.5298 295.356 63.2497 299.685C66.4077 304.727 71.3551 304.94 74.2955 300.433C77.0752 296.271 79.9929 292.018 82.9795 287.695C86.3796 282.728 86.3708 274.675 82.9372 269.954C79.9179 265.464 77.014 261.226 74.1792 257.105C71.6206 253.029 67.5246 252.84 64.4905 255.874C64.0308 256.334 63.5942 256.863 63.1807 257.507M18.357 278.972C17.302 282.101 16.362 285.252 15.445 288.427C14.5051 291.624 14.7875 297.423 16.011 301.037C17.2112 304.352 18.4573 307.62 19.7958 311.165C21.3185 314.895 23.4823 315.633 24.5142 312.344C25.5231 309.124 26.6244 306.18 27.7715 303.006C29.1251 299.348 28.8422 293.135 27.1581 289.199C25.7047 285.722 24.3205 282.454 23.0051 278.932C22.0358 276.353 20.6544 275.615 19.5051 276.765C19.0684 277.201 18.655 277.937 18.311 278.972M294.779 3.56425C297.241 4.00414 299.658 4.48999 302.098 4.99888C305.067 5.6234 309.14 6.01901 311.372 5.86037C313.604 5.79378 315.559 5.72689 317.492 5.68298C319.724 5.70842 319.24 5.22467 316.248 4.57712C313.809 4.06823 311.369 3.60535 309.183 3.21179C306.444 2.77161 302.601 2.42227 300.369 2.39683C298.413 2.41771 296.204 2.46132 294.271 2.55125C293.259 2.59617 292.707 2.68759 292.569 2.8255C292.362 3.03236 293.122 3.28631 294.733 3.5642M2.45019 293.912C2.38359 296.144 2.33967 298.077 2.3191 300.309C2.34454 302.541 2.69389 306.384 3.08776 308.846C3.52764 311.309 3.99051 313.748 4.47641 316.211C5.05461 318.904 5.53835 319.388 5.58226 317.455C5.60314 315.499 5.64675 313.29 5.75967 311.334C5.91831 309.102 5.52239 304.753 4.89817 302.06C4.366 299.367 3.88009 296.905 3.46324 294.465C3.20849 292.969 2.93163 292.279 2.72476 292.485C2.58685 292.623 2.47232 293.106 2.45023 293.958M286.607 0.909152C288.793 1.02659 292.613 1.21485 294.845 1.28632C291.808 1.09892 288.77 0.957548 285.733 0.862194L286.63 0.88618L286.607 0.909152ZM285.134 0.86152C284.858 0.861219 284.605 0.83795 284.283 0.837598C284.559 0.837899 284.858 0.861219 285.134 0.86152ZM284.283 0.837598C284.283 0.837598 284.053 0.83733 283.961 0.837229C284.099 0.83738 284.191 0.837498 284.283 0.837598ZM1.20818 294.417C1.11372 292.208 0.948812 288.687 0.831074 286.225C0.783648 284.936 0.783349 284.66 0.759561 283.947C0.855417 287.444 1.02028 290.919 1.23116 294.394M33.4107 241.252C31.4591 245.231 29.6227 249.278 27.8551 253.119C26.0188 257.259 25.7728 263.817 27.2727 267.661C28.7492 271.206 30.272 274.982 31.9098 278.688C33.8012 282.832 37.0228 283.02 39.066 278.673C41.0177 274.878 43.0613 270.9 45.1968 266.783C47.677 262.276 47.9223 255.12 45.8008 250.93C43.9558 247.154 42.2031 243.563 40.5427 240.155C39.2508 237.162 37.0645 236.815 35.1107 238.769C34.4901 239.389 33.8927 240.217 33.3877 241.275M264.779 8.40973C267.494 8.91892 270.21 9.52016 272.903 10.1444C275.849 10.8839 280.935 10.9125 283.879 10.1793C286.847 9.60732 289.285 9.0117 292 8.50843C295.014 8.0285 294.529 7.03855 291.56 6.32199C288.867 5.7438 286.152 5.18858 283.436 4.72542C280.697 4.23921 276.049 4.23415 273.058 4.69109C270.62 5.14864 267.882 5.6749 265.19 6.24722C263.902 6.52194 263.097 6.8202 262.775 7.14199C262.293 7.62468 262.937 8.08557 264.733 8.40967M6.19221 264.877C5.61988 267.568 5.11662 270.283 4.63639 273.021C4.15616 275.759 4.16123 280.407 4.67072 283.399C5.15692 286.137 5.6891 288.83 6.26729 291.523C6.96081 294.469 7.9275 294.7 8.45375 291.962C8.95702 289.248 9.50631 286.533 10.1247 283.842C10.8578 280.897 10.8292 275.812 10.0894 272.59C9.46514 269.897 8.90993 267.181 8.37771 264.442C8.05376 262.785 7.56991 262.209 7.08722 262.692C6.78841 262.991 6.46708 263.727 6.21524 264.9M57.0423 199.1C54.033 203.768 51.1387 208.321 48.3822 212.689C45.3735 217.817 44.5299 225.019 46.467 228.841C48.3119 232.57 50.226 236.507 52.2781 240.352C54.6531 244.842 59.3235 244.226 62.5625 239.19C65.6407 234.453 68.8569 229.67 72.1423 224.957C75.8871 219.646 76.7757 211.524 74.01 207.425C71.6818 203.626 69.4458 199.965 67.2791 196.511C65.4808 193.379 62.0526 193.629 58.9726 196.709C58.306 197.375 57.6625 198.157 57.0653 199.077M252.899 2.73622C255.131 2.76166 257.34 2.85613 259.549 2.95058C262.058 3.11438 266.429 2.93509 269.167 2.5469C271.928 2.22776 274.39 1.97732 276.599 1.74962C279.383 1.54556 279.359 1.24641 276.598 1.10533C274.389 1.01088 272.157 0.939424 269.948 0.937015C267.44 0.95729 263.574 1.13714 260.813 1.31821C258.604 1.49988 256.119 1.7733 253.658 2.06975C252.231 2.25228 251.403 2.43548 251.288 2.55041C251.173 2.66534 251.656 2.73486 252.876 2.71318M2.01471 253.298C1.71826 255.76 1.46788 258.268 1.24049 260.753C1.05912 263.238 0.856567 267.402 0.859278 269.887C0.884723 272.119 0.933153 274.328 1.0276 276.537C1.16838 279.023 1.46753 279.046 1.67189 276.538C1.89928 274.053 2.1727 271.569 2.46915 269.107C2.85734 266.369 3.0366 261.951 2.89583 259.466C2.80107 256.981 2.72961 254.749 2.70416 252.517C2.70296 251.412 2.6334 250.929 2.51847 251.044C2.40355 251.159 2.2433 251.918 2.06073 253.298M229.47 19.8994C232.255 20.5697 235.017 21.3091 238.055 22.0947C241.071 23.0875 246.961 22.5877 250.963 21.0273C254.206 19.7193 257.748 18.4346 261.061 17.2416C264.649 16.003 264.831 14.3004 261.609 13.4685C258.64 12.752 255.924 12.1047 252.909 11.5262C249.894 10.9476 244.809 11.3793 241.174 12.5258C237.839 13.6497 234.504 14.8196 231.192 16.0586C229.789 16.5863 228.846 17.1605 228.294 17.7121C227.352 18.6545 227.721 19.4833 229.516 19.9455M16.0265 230.809C14.7648 234.375 13.5719 237.687 12.4938 240.792C11.3472 244.426 10.8699 249.787 11.4484 252.802C12.0266 255.541 12.6742 258.533 13.3908 261.502C14.2226 264.725 15.9482 264.565 17.1638 260.954C18.3568 257.642 19.6415 254.1 20.9723 250.604C22.5099 246.901 22.9867 240.987 22.0627 237.719C21.2313 234.957 20.492 232.195 19.8446 229.387C19.4054 227.569 18.5077 227.222 17.5423 228.188C17.0366 228.693 16.4854 229.613 16.0035 230.832M89.1165 154.909C85.049 159.806 81.0276 164.795 77.0984 169.876C73.0084 175.21 71.521 182.824 73.9873 186.67C76.3154 190.377 78.8275 194.038 81.4549 197.907C84.4052 202.466 90.6629 201.461 95.2816 195.552C99.5558 190.31 103.945 185 108.38 179.827C113.436 173.988 114.647 165.867 111.214 161.79C108.219 158.197 105.316 154.835 102.666 151.357C99.993 148.179 94.6099 149.323 90.2197 153.714C89.8519 154.081 89.4841 154.449 89.1395 154.886M221.245 10.2491C223.224 10.3893 225.732 10.4611 227.987 10.6476C230.519 10.9265 235.626 10.2418 239.031 9.18702C242.182 8.29306 245.38 7.44514 248.301 6.68898C251.522 5.91014 252.004 5.10534 249.197 4.91819C246.965 4.75469 244.479 4.70595 242.247 4.63448C239.762 4.63177 235.092 5.24795 231.848 6.00376C228.904 6.73687 225.959 7.516 223.038 8.36419C221.336 8.86857 220.232 9.32757 219.887 9.67235C219.542 10.0171 219.933 10.2247 221.199 10.2491M8.35521 222.724C7.4613 225.922 6.70515 228.843 5.94904 231.811C5.19324 235.054 4.59974 239.426 4.60245 241.911C4.62819 244.419 4.72265 246.628 4.84044 249.136C5.02753 251.898 5.83241 251.461 6.61125 248.241C7.41312 245.043 8.2153 242.122 9.10927 238.97C10.141 235.543 10.8027 230.458 10.6156 227.651C10.4291 225.396 10.3116 223.164 10.2401 220.886C10.2158 219.758 9.98536 219.436 9.64058 219.78C9.2958 220.125 8.8367 221.137 8.35521 222.724ZM33.0589 192.999C30.9692 196.931 29.0174 200.68 27.0199 204.705C25.0455 208.752 23.9705 214.711 24.779 217.588C25.5644 220.442 26.3731 223.503 27.3197 226.335C28.382 229.925 31.0734 229.169 33.3006 224.776C35.4361 220.66 37.6177 216.589 39.9371 212.335C42.4864 207.943 43.6067 201.34 42.2458 198.278C41.1382 195.516 40.0998 192.777 39.1764 190.014C38.5069 188.058 36.9654 188.171 35.2874 189.849C34.5519 190.584 33.7477 191.665 33.0129 192.999M149.077 66.4766C151.38 67.9058 153.935 69.3582 156.56 70.9258C159.554 72.7699 166.248 71.1895 171.191 67.4902C175.858 64.1128 180.388 60.9193 184.964 57.7719C190.045 54.3949 191.352 50.4155 187.922 48.9621C185.022 47.6704 182.374 46.448 179.497 45.4094C176.803 44.2329 170.546 45.8828 165.786 48.938C161.51 51.7866 157.325 54.6814 152.956 57.76C152.037 58.4493 151.232 59.1157 150.542 59.8053C147.715 62.6324 147.005 65.3699 149.077 66.4766ZM57.7742 152.896C54.8104 157.058 51.7779 161.472 48.9523 165.726C45.8741 170.463 44.3389 176.467 45.4236 179.436C46.554 182.084 47.6847 184.961 48.9534 187.885C50.4986 191.085 54.455 189.801 57.7632 184.926C60.9336 180.328 64.2419 175.591 67.4815 171.154C71.2956 166.004 72.876 159.309 71.0549 156.339C69.4874 153.714 67.9432 151.388 66.6058 148.856C65.499 146.784 62.6927 147.609 59.8425 150.459C59.13 151.172 58.4405 151.999 57.7512 152.919M186.031 24.224C188.103 24.4563 190.197 24.7578 192.314 25.1282C194.961 25.5223 200.413 24.3087 204.576 22.4034C208.256 20.7507 211.959 19.167 215.731 17.6524C219.503 16.1378 220.536 14.5973 217.706 14.2951C215.428 14.0395 213.149 13.8759 210.595 13.8041C208.317 13.6865 203.256 14.8316 199.415 16.323C196.126 17.6771 192.607 19.1689 189.088 20.7067C187.248 21.5331 185.937 22.337 185.317 22.9576C184.581 23.6932 184.766 24.1996 186.032 24.27M20.7437 188.729C19.1828 192.224 17.714 195.766 16.2912 199.308C14.7998 203.15 13.7235 207.958 13.7723 210.489C13.8898 212.767 14.0764 215.022 14.2633 217.599C14.5655 220.43 16.0831 219.419 17.6894 215.371C19.1582 211.875 20.7419 208.172 22.3946 204.492C24.323 200.353 25.5366 194.901 25.1425 192.254C24.772 190.137 24.5624 187.812 24.353 185.718C24.2368 184.591 23.7074 184.475 22.9719 185.21C22.3513 185.831 21.5932 187.05 20.7898 188.775M108.777 100.971C110.896 102.86 112.947 105.003 115.273 107.099C117.922 109.564 124.363 107.684 129.374 102.996C134.109 98.6748 138.914 94.3771 143.81 90.1255C149.121 85.6443 150.887 80.2388 147.64 78.2794C145.015 76.4817 142.482 74.8222 139.995 73.3008C137.439 71.7103 131.482 73.7057 126.677 77.7273C122.309 81.4962 117.804 85.4491 113.551 89.3332C113.344 89.54 113.137 89.7469 112.93 89.9538C108.655 94.229 106.865 98.9672 108.801 100.994M89.3705 113.514C85.4864 117.766 81.6943 122.065 77.9254 126.433C73.743 131.445 71.7706 137.379 73.3381 139.958C74.8595 142.445 76.496 145.001 78.2937 147.626C80.3679 150.666 85.7734 148.9 90.2777 143.612C94.3684 138.923 98.6661 134.118 103.01 129.36C107.882 124.211 109.762 117.77 107.136 115.282C105.04 112.956 103.059 110.744 101.009 108.786C99.1424 106.69 94.2663 108.618 89.9681 112.916C89.7612 113.123 89.5543 113.33 89.3475 113.537M186.093 17.0678C187.496 16.8623 189.153 16.634 190.832 16.4287C192.788 16.2238 197.319 15.0092 200.655 13.7472C203.783 12.6461 206.911 11.5911 209.786 10.6508C213.237 9.59608 214.202 8.95286 211.994 9.22657C210.337 9.45487 208.428 9.7519 206.771 10.0722C204.885 10.4844 200.859 11.5614 197.708 12.5475C194.787 13.4877 191.911 14.474 189.059 15.4834C186.92 16.2864 185.632 16.8372 185.402 17.0671C185.264 17.205 185.495 17.2052 186.093 17.1139M15.5203 188.7C14.488 191.575 13.5017 194.45 12.5844 197.349C11.6215 200.523 10.4296 204.802 10.0862 206.435C9.69714 208.344 9.46883 210.001 9.17178 211.91C8.96682 213.866 9.58703 212.877 10.596 209.703C11.628 206.552 12.6831 203.423 13.7385 200.571C15.0691 196.937 16.215 192.704 16.42 190.749C16.6252 189.069 16.8535 187.413 17.1739 185.756C17.2883 185.181 17.265 184.974 17.1271 185.112C16.8973 185.342 16.3005 186.676 15.5434 188.723M148.64 45.3527C150.665 45.7231 152.484 46.3463 154.601 46.9009C156.788 47.7086 162.562 45.8971 167.183 42.9799C171.185 40.4991 175.485 37.9496 179.555 35.584C184.177 33.0349 185.509 30.5973 183 30.0193C180.584 29.6715 178.421 29.301 176.303 29.0225C174.14 28.744 168.735 30.5099 164.71 32.7376C160.709 34.9882 156.984 37.1931 153.074 39.5819C151.442 40.6156 150.131 41.6037 149.258 42.4771C147.81 43.9252 147.466 45.0523 148.617 45.3757M39.665 152.807C37.2762 156.716 34.9565 160.695 32.7976 164.42C30.4552 168.697 28.8041 173.85 28.9678 176.266C29.2462 178.383 29.6168 180.547 30.0563 182.733C30.5425 185.472 33.0489 183.887 35.6211 179.288C38.0097 175.194 40.4444 171.147 43.0629 166.916C46.0262 162.294 47.6999 156.751 47.03 154.334C46.3606 152.469 45.8752 150.421 45.367 148.625C45.0436 147.475 43.8705 147.818 42.3994 149.29C41.549 150.14 40.6069 151.358 39.6651 152.853M152.722 32.8856C154.171 32.7261 155.644 32.5896 157.14 32.5222C158.681 32.5929 163.281 30.8492 167.145 28.7824C170.779 26.8996 174.205 25.1775 177.655 23.5245C181.381 21.7798 182.921 20.4239 180.919 20.5828C179.217 20.765 177.537 20.9703 176.111 21.1528C174.454 21.4731 170.061 23.1021 166.542 24.732C163.323 26.2932 160.103 27.9004 156.929 29.5536C154.676 30.7477 153.066 31.8045 152.491 32.3791C152.124 32.7468 152.17 32.931 152.745 32.8626M29.7057 156.593C28.0524 159.767 26.3304 163.239 24.7692 166.459C23.1393 169.978 21.5791 174.118 21.2588 175.774C20.9845 177.431 20.7562 179.133 20.574 180.836C20.4151 182.838 21.7711 181.297 23.5158 177.572C25.2835 173.869 27.0286 170.465 28.7737 167.062C30.8404 163.198 32.5612 158.621 32.6282 156.803C32.6956 155.308 32.6943 154.065 32.8768 152.639C32.9452 152.063 32.784 151.994 32.3933 152.385C31.8416 152.937 30.8538 154.431 29.7057 156.593ZM111.899 73.0171C113.327 73.939 115.031 74.8153 116.597 75.9215C118.554 77.1432 124.005 75.0091 128.695 71.1025C133.063 67.5637 137.5 64.094 141.983 60.7163C146.743 57.2009 148.764 53.5215 146.439 52.6216C144.482 51.8601 142.571 51.1907 140.684 50.6364C138.773 50.0591 133.553 52.2854 129.23 55.4561C125.161 58.512 121.16 61.6371 117.229 64.7852C116.401 65.4746 115.62 66.164 114.93 66.8536C112.103 69.6808 110.725 72.2564 111.899 73.0171ZM64.9372 116.939C61.7661 120.893 58.6411 124.893 55.5852 128.963C52.2766 133.515 50.0503 138.736 50.6046 140.624C51.2968 142.281 51.9661 144.192 52.5898 146.378C53.4897 148.703 57.1692 146.682 60.8224 141.693C64.0852 137.417 67.5549 132.98 71.0937 128.612C75.0004 123.922 77.2952 118.264 75.9127 116.513C74.9673 114.741 73.9302 113.244 73.0083 111.816C72.2477 110.642 69.7179 111.882 66.8907 114.709C66.2471 115.352 65.5576 116.088 64.8912 116.892M83.5982 95.4213C79.599 99.6968 77.0041 104.503 77.9952 106.046C78.9633 107.566 80.1844 108.971 81.3597 110.652C82.8115 112.563 87.6412 110.359 92.3069 105.371C96.536 101.004 100.811 96.7286 105.179 92.4995C109.96 87.9947 112.371 83.004 110.459 81.5523C108.778 80.377 107.166 79.3167 105.853 78.1878C104.311 77.1967 99.5042 79.7916 95.2287 83.7907C93.2289 85.7444 91.2751 87.6521 89.3444 89.5829C87.4136 91.5137 85.4828 93.4444 83.5522 95.4672M119.427 54.525C120.508 54.6412 121.613 54.7805 122.557 55.1727C124.03 55.4044 128.468 53.2693 132.607 50.2824C136.378 47.6634 140.195 45.0904 143.805 42.7243C147.921 40.1286 150.058 37.8069 148.24 37.8279C146.952 37.7344 145.433 37.8248 144.191 37.8235C142.718 38.0059 138.509 40.0493 134.784 42.4383C131.335 44.6895 127.909 47.0099 124.299 49.514C122.598 50.7547 121.173 51.9037 120.253 52.8231C119.242 53.8345 118.874 54.4783 119.45 54.548M49.5282 124.193C47.1619 127.573 44.8416 130.999 42.5903 134.448C40.0635 138.403 38.0202 142.612 37.9755 143.854C37.8161 145.35 37.8634 146.592 37.8191 148.157C37.9359 149.745 40.0968 147.86 42.7155 143.721C45.2424 139.858 47.8154 136.087 50.4345 132.317C53.2605 128.385 55.5565 123.739 55.1869 122.496C54.9556 121.346 54.7933 120.218 54.5392 119.366C54.4926 118.814 53.8487 119.135 52.8373 120.147C51.9409 121.043 50.7689 122.446 49.5053 124.216M126.527 45.4436C127.263 45.0763 128.068 44.732 128.85 44.4567C129.931 44.1127 133.794 41.954 137.565 39.6111C140.877 37.5898 144.211 35.6375 147.569 33.7543C151.455 31.6186 153.318 30.4011 152.006 30.8829C151.148 31.2501 150.297 31.6097 149.453 31.9616C141.703 35.9799 134.138 40.4127 126.734 45.2368C126.619 45.3517 126.504 45.4666 126.458 45.5126C126.435 45.5356 126.458 45.5126 126.55 45.4667M45.228 126.65C40.4039 134.054 35.9712 141.62 31.9528 149.37C31.5856 150.229 31.226 151.08 30.8741 151.923C30.5071 152.981 31.7477 151.142 33.7456 147.485C35.6748 144.128 37.627 140.794 39.7631 137.229C42.129 133.481 44.2648 129.641 44.471 128.79C44.7692 127.985 45.0905 127.203 45.4579 126.467C45.5268 126.352 45.5497 126.283 45.5268 126.306C45.5038 126.329 45.3888 126.444 45.274 126.65M87.6329 81.6195C88.3927 82.0115 89.0147 82.6795 89.7057 83.3705C90.7419 84.0389 94.7431 81.6502 98.8578 77.812C102.628 74.4106 106.26 71.1931 110.122 67.8838C114.467 64.2759 116.788 61.1261 115.476 60.6874C114.256 60.433 113.312 60.0868 112.437 59.8097C111.333 59.7165 107.355 62.1742 103.538 65.3455C100.182 68.1951 96.6877 71.2747 93.2396 74.4003C92.7798 74.86 92.3431 75.2968 91.9064 75.7335C89.0332 78.6066 87.1492 81.1357 87.6559 81.6425M74.4376 93.2023C71.312 96.6504 68.4163 99.9607 65.3828 103.501C62.2345 107.294 59.7538 111.295 60.0308 112.17C60.1471 113.298 60.4933 114.242 60.7707 115.438C61.3472 116.52 64.5201 114.223 67.9671 110.085C71.2764 106.223 74.6547 102.384 78.0561 98.6136C81.7105 94.6829 84.3061 90.4748 83.4538 89.6685C82.7628 88.9775 82.2787 88.1716 81.7028 87.5957C81.219 87.1119 78.6439 88.996 75.7708 91.8691C75.357 92.2829 74.9203 92.7196 74.4606 93.1793M97.5577 67.2258C97.8798 67.1802 98.4548 67.0197 98.8691 67.0662C99.3294 67.2048 102.962 64.6776 106.802 61.5294C110.25 58.7719 113.722 56.0835 117.033 53.602C121.056 50.684 123.332 48.6386 122.458 48.8217C121.63 49.0969 120.848 49.4182 120.319 49.6247C119.836 49.9234 118.916 50.5206 117.559 51.4626C112.662 54.9318 107.857 58.5852 103.144 62.3767C100.408 64.6518 98.2702 66.4673 97.6955 67.0419C97.5576 67.1798 97.5116 67.2258 97.5577 67.2258ZM62.5289 102.946C58.7143 107.636 55.0609 112.441 51.6147 117.315C50.6727 118.672 49.9146 119.798 49.7999 120.051C49.4095 120.81 49.0882 121.592 48.836 122.397C48.6528 123.272 50.8591 120.789 53.6162 116.972C56.2586 113.455 58.97 109.96 61.7274 106.511C64.6918 102.902 67.242 99.2922 67.2873 98.6019C67.2408 98.1877 67.2404 97.8195 67.2861 97.4974C67.355 97.3824 67.286 97.4054 67.1251 97.5663C66.5734 98.1179 64.758 100.256 62.5289 102.9M79.6967 83.7508C78.7773 84.6702 77.8349 85.6126 76.9615 86.5781C73.8127 89.9111 71.3537 92.6927 71.2619 92.9687C71.2163 93.2908 71.2397 93.682 71.2862 94.0962C71.4248 94.6026 74.3904 92.0517 77.9528 88.2589C81.2166 84.9029 84.7104 81.4092 88.0663 78.1454C91.8821 74.5599 94.4331 71.6404 93.9037 71.4788C93.4664 71.4092 93.0982 71.4088 92.96 71.2706C92.684 71.3624 89.7185 74.0053 86.4085 77.1311C85.4891 78.0505 84.5236 78.9699 83.6042 79.8893C82.9606 80.5329 82.2941 81.1995 81.6505 81.843C81.0069 82.4866 80.3403 83.1532 79.6967 83.7968" fill="white"/>
</svg>
