<svg width="555" height="552" viewBox="0 0 555 552" fill="none" xmlns="http://www.w3.org/2000/svg">
<path opacity="0.15" d="M57.8822 108.683C57.3378 108.966 56.8215 109.266 56.3894 109.616C56.1734 109.79 54.6853 111.743 52.9055 114.129C50.7517 117.086 48.6822 120.092 46.6243 123.143C46.2009 123.799 45.7824 124.383 45.1613 125.375C44.5121 126.351 43.8746 127.371 43.237 128.392C41.4397 131.257 40.1714 133.415 40.2557 133.464C40.3961 133.547 40.6208 133.679 41.0053 133.603C41.3704 133.818 43.8836 130.506 46.3679 126.537C48.9364 122.617 51.4128 118.982 53.9173 115.364C55.2999 113.462 56.4384 111.718 57.1631 110.485C57.8879 109.252 58.1825 108.558 57.8541 108.667M27.3553 160.684C29.27 156.719 31.269 152.803 33.3126 148.877C35.6759 144.535 37.3465 140.728 36.9814 140.513C36.7286 140.365 36.5039 140.233 36.4953 139.926C36.411 139.876 35.1592 142.006 33.5468 144.942C32.982 145.968 32.4335 146.965 31.8967 148.007C31.3599 149.049 31.0256 149.682 30.6748 150.343C28.9326 153.693 27.2747 157.092 25.6894 160.496C24.4383 163.267 23.5429 165.305 23.4198 165.836C23.3248 166.383 23.4177 166.74 23.435 167.353C23.4998 167.693 23.9629 167.098 24.6712 165.893C25.3795 164.688 26.3329 162.873 27.3717 160.656M42.1102 148.053C44.7438 143.379 47.4616 138.755 50.2473 134.209C53.3971 129.236 54.9662 124.766 53.6403 124.515C52.6428 124.155 51.7411 123.888 50.9121 123.627C49.9348 123.619 47.0535 126.978 44.1013 131.615C41.6897 135.589 39.186 139.848 36.8702 143.917C34.2269 148.735 32.7218 152.903 33.3087 153.512C33.8199 154.378 34.4909 155.037 35.2908 155.733C36.0597 156.675 38.7171 153.826 41.3196 149.398C41.5667 148.977 41.8302 148.529 42.0938 148.081M80.8595 81.8062C80.1552 82.2972 79.3192 83.0124 78.7273 83.5694C78.7273 83.5694 78.5394 83.7606 78.5113 83.7441C72.8681 89.5518 67.4399 95.6368 62.2548 102.015C61.439 103.082 60.9594 103.705 61.3353 103.323C61.7674 102.973 62.2556 102.657 62.8 102.374C63.4122 102.168 66.4454 98.9359 69.2424 95.5274C71.9193 92.3876 74.4924 89.4885 77.2816 86.4148C79.3422 84.1947 80.7053 82.5828 81.0677 81.9663C81.2324 81.686 81.1927 81.625 80.8876 81.8227M13.3714 195.147C14.6081 191.5 15.9649 187.584 17.3304 183.975C19.0234 179.616 20.2679 175.634 20.2536 174.759C20.2363 174.145 20.2752 173.565 20.3702 173.017C20.4177 172.744 20.2219 173.27 19.5552 174.725C16.5704 182.246 13.944 189.865 11.6362 197.52C11.6045 197.703 11.5887 197.794 11.5887 197.794C11.3259 198.884 11.1834 199.705 11.0214 200.816C11.0135 201.151 11.0862 201.156 11.2345 200.904C11.5968 200.287 12.4128 198.127 13.3549 195.175M78.0582 92.0368C76.7147 92.2652 75.4109 92.5546 74.3513 92.6859C73.1153 93.0529 69.7305 96.3044 66.5857 100.112C63.8448 103.553 61.0003 107.235 58.3554 110.771C55.475 114.772 53.6949 118.25 54.6441 118.242C55.5933 118.235 56.4504 118.512 57.5352 118.66C58.7604 118.89 62.401 115.524 65.6835 110.969C68.5707 107.085 71.5421 103.251 74.7295 99.2427C75.9541 97.7379 76.9346 96.3913 77.6099 95.2423C78.7959 93.2246 79.0122 91.9566 78.0582 92.0368ZM23.3659 186.693C25.214 182.199 27.2218 177.497 29.2103 173.085C31.5824 167.957 32.7632 163.184 31.9663 162.225C31.2226 161.562 30.6668 160.707 30.1953 159.902C29.6201 159.338 27.567 162.316 25.473 166.779C23.5669 171.05 21.8371 175.086 20.1635 179.155C18.3668 183.755 17.0969 188.551 17.4531 189.552C17.7618 190.827 18.2353 191.822 18.6892 193.107C19.0997 193.951 20.0859 193.174 21.2719 191.156C21.9307 190.035 22.6749 188.512 23.3659 186.693ZM104.752 64.3657C103.31 64.7622 101.719 65.411 100.356 65.9296C98.8055 66.6394 95.0933 69.5477 91.9129 72.58C89.148 75.291 86.2232 78.2096 83.5426 80.9701C80.3379 84.3652 78.7925 86.7372 80.0004 86.3537C81.1918 85.9983 82.4675 85.6923 83.7547 85.4309C85.3374 85.1169 89.2608 82.1065 92.5925 78.5598C95.8205 75.2538 98.8721 72.1835 101.808 69.3094C103.584 67.6384 104.771 66.2621 105.282 65.3934C105.792 64.5247 105.66 64.1073 104.797 64.3542M10.3546 225.159C11.4684 220.95 12.6829 216.762 13.909 212.619C15.3871 207.982 16.1844 202.833 15.6888 201.297C15.2629 200.029 14.9212 198.81 14.5931 197.825C14.3241 196.612 13.0199 199.088 11.6882 203.282C10.5047 207.224 9.453 210.942 8.38187 214.95C7.30777 219.221 6.57261 223.879 6.75439 225.305C6.91674 227.022 7.19925 228.47 7.52631 229.907C7.72077 230.926 8.14987 230.839 8.66049 229.97C9.17111 229.101 9.7962 227.395 10.3546 225.159ZM78.8078 110.048C76.9599 109.528 75.0083 109.248 73.2959 108.882C71.5555 108.5 67.4247 111.992 64.1422 116.548C61.2521 120.694 58.2699 125.124 55.4922 129.336C52.4905 134.057 51.0637 138.799 52.6395 139.461C54.0437 140.286 55.6591 141.01 57.2715 141.995C59.1648 143.146 63.5745 139.629 66.9715 134.236C70.0293 129.548 73.2867 124.713 76.4849 120.108C76.9858 119.384 77.4702 118.688 77.882 117.988C80.2869 113.896 80.7448 110.546 78.7913 110.076M42.433 178.105C44.9011 173.07 47.4253 168.069 50.149 162.92C53.0607 157.581 54.0044 151.99 52.2099 150.671C50.5926 149.758 49.0595 148.895 47.7425 147.857C46.3101 147.015 42.9766 150.372 40.2839 155.274C37.8072 160.002 35.535 164.511 33.3189 169.053C30.9351 174.137 29.8937 179.445 30.9704 181.02C32.1392 182.31 33.3922 183.65 34.6868 185.241C36.0357 186.675 38.8228 184.504 41.2277 180.413C41.6559 179.684 42.0561 178.939 42.433 178.105ZM115.621 51.7885C116.997 50.8626 118.832 49.6038 120.64 48.3286C120.884 48.1704 120.884 48.1704 121.072 47.9793C119.236 49.238 117.417 50.4687 115.621 51.7885ZM1.28793 251.578C1.47528 249.652 1.71013 247.452 1.86939 245.51C1.63452 247.709 1.39967 249.909 1.19289 252.125C1.24329 251.954 1.27497 251.771 1.28793 251.578ZM107.647 75.8333C105.548 75.8056 103.516 75.8555 101.507 75.9944C99.4698 76.1169 95.0728 79.2259 91.5532 82.9638C88.4937 86.3688 85.3025 89.9981 82.3273 93.4527C79.072 97.3836 77.7608 100.836 79.5439 101.017C81.1391 101.389 82.9783 101.603 84.8689 101.922C87.1391 102.238 91.9255 98.9812 95.5334 94.5788C98.8778 90.6248 102.118 86.9115 105.387 83.2147C106.52 81.9951 107.401 80.8165 107.994 79.8077C109.361 77.4817 109.323 75.8755 107.619 75.8168M24.2727 221.538C25.8844 216.867 27.6279 211.972 29.4557 207.127C31.5305 201.861 32.0364 196.05 30.5801 194.478C29.3813 192.981 28.2833 191.506 27.3024 190.025C26.277 188.555 23.8986 191.38 22.0476 196.136C20.3729 200.657 18.8581 204.97 17.3714 209.3C15.7896 214.176 15.2403 219.547 16.1242 221.386C16.98 223.209 17.9249 225.009 18.9706 226.83C19.8342 228.318 21.2795 227.659 22.6466 225.333C23.2231 224.352 23.791 223.065 24.2727 221.538ZM132.274 42.4222C130.472 43.1731 128.926 43.8103 127.176 44.6667C125.653 45.393 121.703 47.9351 118.803 50.0392C116.131 52.0131 113.283 54.2227 110.452 56.4043C107.444 58.8216 106.147 60.3214 107.669 59.5951C109.004 59.06 110.567 58.3948 111.953 57.9652C113.85 57.3084 118 54.6197 121.18 52.0392C124.199 49.6665 127.031 47.4849 129.902 45.3643C131.787 44.0215 132.889 43.0476 133.169 42.5712C133.383 42.2069 133.097 42.1144 132.274 42.4222ZM3.15608 261.386C3.65959 257.572 4.16015 254.02 4.76438 250.228C5.48878 246.167 5.77463 241.244 5.40597 239.557C5.15451 237.863 4.90008 236.432 4.7939 234.748C4.64021 233.338 3.97732 235.173 3.31205 239.005C2.78638 242.278 2.26933 245.858 1.84438 249.152C1.39704 252.999 1.14523 257.414 1.20389 259.371C1.32653 261.027 1.50536 262.716 1.75386 264.671C1.88539 265.541 2.10523 265.745 2.31936 265.381C2.59938 264.905 2.89316 263.569 3.15125 261.458M137.498 48.3208C135.184 48.6574 132.882 49.0386 130.858 49.3952C128.579 49.8654 124.115 52.4451 120.748 55.2167C117.852 57.7 114.797 60.3911 111.77 63.0986C108.594 66.0583 107.412 68.4553 109.364 68.2834C111.489 67.9483 113.436 67.8489 115.424 67.8105C117.946 67.634 122.799 64.9061 126.273 61.6316C129.627 58.6258 132.809 55.7831 135.832 53.1482C137.238 51.9765 138.216 50.8921 138.71 50.0514C139.435 48.8183 139.104 48.0958 137.514 48.2928M12.8299 262.736C13.6928 258.567 14.6003 254.388 15.592 250.257C16.763 245.629 16.8166 239.816 15.7129 237.773C14.8106 235.772 13.9499 234.022 13.1503 232.232C12.3817 230.196 10.8625 232.395 9.79027 236.855C8.89736 240.817 8.06362 244.55 7.27143 248.534C6.4879 252.824 6.43348 257.996 7.1343 259.954C7.83216 262.174 8.59403 264.092 9.45365 266.294C10.0548 267.778 10.8703 267.805 11.6115 266.544C12.0727 265.76 12.4953 264.462 12.8463 262.708M86.0873 137.78C83.1965 136.269 80.2862 135.049 77.6433 133.759C74.7727 132.6 69.6056 136.312 66.0109 142.042C62.8794 147.177 59.7168 152.557 56.6221 158.015C53.3645 163.943 52.7665 170.039 55.1594 172.011C57.5717 173.693 60.0256 175.626 62.7799 177.433C65.9011 179.645 71.3742 176.376 74.9991 169.759C78.3903 163.797 81.7506 158.08 85.3103 152.217C85.4421 151.992 85.5574 151.796 85.6892 151.572C89.3294 145.379 89.4256 139.365 86.0593 137.763M159.139 26.3523L158.902 26.6275L159.651 26.125C159.651 26.125 159.29 26.2897 159.123 26.3803M0.923914 295.592L0.815326 295.905C0.815326 295.905 0.84723 296.301 0.849126 296.491L0.923914 295.592ZM158.902 26.6275C157.208 27.3664 155.528 28.1255 153.86 28.905C149.815 30.9012 145.805 33.031 141.834 35.2218C140.568 35.9609 139.288 36.7038 137.992 37.4506C135.134 39.1638 133.986 39.9596 135.753 39.0752C137.259 38.3769 139.021 37.565 140.567 36.9278C142.38 36.2214 146.552 34.0736 149.411 32.3604C152.053 30.8218 154.691 29.3557 157.373 27.8782C159.051 27.0168 159.906 26.4632 159.988 26.3231C160.054 26.211 159.697 26.3031 158.902 26.6275ZM1.26141 293.604C1.23107 290.569 1.2423 287.786 1.30404 284.466C1.41033 281.135 1.28247 276.724 0.992382 274.517C0.797091 272.857 0.629902 271.213 0.523724 269.529C0.448593 267.599 0.303071 268.683 0.196776 272.014C0.151747 274.212 0.151728 274.212 0.134784 276.427C0.130875 281.062 0.272235 285.707 0.486251 290.358C0.672655 292.805 0.656209 292.833 0.940377 295.564C1.03897 296.489 1.14348 296.89 1.20936 296.778C1.29172 296.638 1.33652 295.533 1.28947 293.62M116.219 96.4813C112.995 95.7933 110.007 95.0923 107.069 94.4968C104.075 93.8684 98.5364 97.2488 94.7308 101.987C91.1248 106.579 87.7794 110.985 84.3139 115.66C80.6574 120.788 79.8088 125.832 82.506 126.965C85.0909 128.032 87.9431 129.029 90.7594 130.345C94.0793 131.769 100.148 128.323 104.207 122.639C107.919 117.544 111.561 112.634 115.316 107.79C115.999 106.948 116.566 106.112 117.044 105.299C119.614 100.928 119.32 97.2483 116.247 96.4978M167.956 22.4099L167.7 22.5235C167.7 22.5235 167.895 22.4494 168.001 22.3984M166.448 27.9332C164.246 28.3359 162.04 28.8111 159.861 29.3029C157.411 29.9362 153.192 31.9059 150.134 33.7658C147.343 35.5566 144.609 37.3804 141.886 39.2488C138.747 41.4384 137.968 42.8281 140.191 42.3248C142.186 41.9517 144.404 41.521 146.679 41.1234C148.988 40.8593 153.868 38.5998 156.978 36.3936C159.884 34.4067 162.847 32.4527 165.581 30.6289C167.013 29.736 167.894 29.0093 168.19 28.5049C168.553 27.8884 167.986 27.6308 166.464 27.9052M7.71069 299.732C7.93228 296.205 8.19549 292.929 8.53429 289.395C8.95165 285.342 8.54887 280.241 7.63119 277.816C6.85583 275.664 6.16663 273.751 5.52198 271.826C4.88029 269.639 4.06157 270.967 3.66175 274.541C3.35104 278.091 3.11595 281.384 2.90893 284.693C2.74647 287.991 3.10276 292.914 3.71636 295.084C4.34643 297.227 5.00461 299.386 5.74892 301.784C6.2426 303.13 6.72007 303.411 7.08245 302.794C7.36247 302.318 7.60867 301.256 7.68262 299.716M167.973 22.3818C169.774 21.631 173.601 20.0717 176.165 19.0525C176.66 18.8533 176.854 18.7792 177.183 18.6705C174.096 19.8724 171.037 21.0909 168.001 22.3984M2.71945 314.331C2.37911 311.567 1.90531 307.745 1.65978 305.527L1.63466 305.248C1.9923 308.625 2.39451 311.991 2.86935 315.362L2.74752 314.348L2.71945 314.331ZM148.165 61.8676C145.006 61.5194 141.883 61.3048 139.01 61.049C135.853 60.8904 130.048 63.8882 126.287 67.522C122.771 70.9977 119.322 74.5509 115.946 78.1091C112.078 82.2459 111.5 85.8652 114.309 86.4226C117.233 86.7839 120.02 87.4419 123.075 88.0308C126.511 88.8064 132.868 85.6424 136.811 81.2485C140.507 77.2749 144.104 73.4695 147.785 69.7136C148.725 68.7577 149.458 67.8314 149.953 66.9906C151.567 64.2443 150.993 62.1349 148.181 61.8396M33.1654 264.847C34.6562 259.804 36.2147 254.838 37.905 249.648C39.8259 244.065 39.439 237.202 37.0899 234.577C35.0728 232.222 33.2176 229.85 31.4039 227.728C29.5816 225.299 26.6695 227.811 24.9676 232.956C23.4536 237.911 22.0714 242.641 20.7765 247.159C19.4 252.458 19.6524 258.715 21.31 261.423C22.9279 264.071 24.6349 266.696 26.4756 269.286C28.0732 271.582 30.1509 271.069 31.7486 268.351C32.2922 267.426 32.7942 266.251 33.1654 264.847ZM193.521 14.21C191.359 14.6737 189.181 15.1654 187.042 15.7182C184.648 16.3846 180.731 17.7773 178.19 18.8855C175.677 20.0103 173.415 21.094 170.914 22.2633C168.181 23.6353 167.863 24.2403 170.002 23.6875C172.168 23.1512 174.091 22.7731 176.253 22.3094C178.722 21.8377 183.118 20.2738 185.807 18.9133C188.296 17.6995 190.797 16.5302 193.31 15.4054C194.483 14.8883 195.121 14.5095 195.253 14.2853C195.418 14.005 194.837 13.9651 193.505 14.238M7.85699 331.114C7.65897 328.622 7.46391 325.868 7.31341 323.102C7.21043 320.063 6.42204 315.49 5.63317 313.103C4.95854 310.972 4.32847 308.83 3.74296 306.676C3.15744 304.522 2.83662 305.389 2.94256 308.166C3.09306 310.931 3.31622 313.702 3.53071 316.166C3.79841 318.925 4.55682 323.292 5.09778 325.457C5.6833 327.611 6.28527 329.737 6.93181 331.852C7.36932 333.165 7.68207 333.726 7.84678 333.445C7.97856 333.221 8.01554 332.451 7.85699 331.114ZM179.517 35.4642C176.395 35.4392 173.269 35.4868 170.421 35.5097C167.29 35.6299 161.873 37.8379 158.403 40.3984C155.189 42.8452 151.803 45.4553 148.701 47.9682C145.224 50.8634 144.629 53.4174 147.645 53.4935C150.65 53.525 153.633 53.6571 156.656 53.8502C160.215 54.0948 166.094 51.7436 169.87 48.5336C173.059 45.808 176.333 43.1319 179.674 40.5335C180.782 39.6766 181.55 38.8839 181.962 38.1833C182.901 36.586 182.086 35.4658 179.562 35.4527M208.589 17.1842C205.558 17.3258 202.511 17.4954 199.743 17.6405C196.691 17.8827 191.758 19.3952 188.609 21.0885C185.983 22.599 183.129 24.2397 180.304 25.8969C177.274 27.7733 177.026 29.287 180.106 29.0613C182.931 28.9493 185.722 28.8933 188.776 28.8407C192.132 28.8527 197.66 27.1625 200.862 25.1229C203.648 23.4047 206.462 21.7029 209.344 20.0787C210.299 19.5467 210.902 19.0342 211.166 18.5858C211.676 17.7171 210.794 17.1608 208.589 17.1842ZM166.634 86.1842C162.334 85.0141 158.219 83.9149 154.321 82.8308C150.084 81.8107 143.334 84.7435 139.382 89.2826C135.661 93.6189 132.042 97.9768 128.324 102.503C124.276 107.589 124.212 112.906 128.291 114.323C132.014 115.833 136.098 117.177 140.102 118.852C144.705 120.728 152.012 117.746 156.251 112.206C160.066 107.323 163.872 102.584 167.795 97.8388C168.335 97.1762 168.803 96.5086 169.182 95.864C171.735 91.5204 170.8 87.3889 166.589 86.1957M199.652 52.1253C195.585 51.3939 191.708 50.661 187.821 50.0732C183.867 49.4079 177.545 51.6121 173.699 55.0068C170.307 58.1412 166.805 61.3992 163.371 64.7348C159.661 68.4742 159.694 72.3395 163.707 73.2275C167.607 74.0495 171.486 74.9721 175.339 76.0677C179.929 77.2579 186.891 74.8644 190.709 70.8118C194.324 67.1679 197.841 63.6923 201.264 60.3122C201.95 59.6596 202.462 58.9805 202.841 58.3359C204.521 55.4775 203.351 52.9043 199.636 52.1533M234.008 6.14623C231.24 6.2913 228.483 6.48092 225.739 6.71505C222.977 6.9772 218.653 7.9046 216.322 8.7211C213.974 9.56562 211.637 10.4547 209.341 11.4048C206.788 12.4685 206.974 13.181 209.747 12.9634C212.52 12.7457 215.26 12.5842 218.012 12.4671C221.038 12.3981 225.807 11.3555 228.376 10.2638C230.689 9.28564 233.026 8.39659 235.095 7.57663C236.052 7.23422 236.552 6.96242 236.7 6.71021C236.93 6.31788 235.968 6.09138 234.036 6.16276M229.997 27.6935C226.278 27.2048 222.762 26.759 218.989 26.4269C215.189 26.0783 209.441 27.5638 206.291 29.7089C203.396 31.7404 200.347 33.9071 197.292 36.1463C194.134 38.6261 194.477 41.1279 198.341 41.6267C201.897 42.1335 205.683 42.6997 209.436 43.3221C213.454 44.1375 219.781 42.5023 223.115 39.7867C226.09 37.4254 229.149 35.1137 232.009 32.9486C232.73 32.4296 233.233 31.8956 233.546 31.3632C234.55 29.6537 233.251 28.1358 229.997 27.6935ZM255.629 1.05735C253.123 1.20588 250.924 1.34634 248.442 1.58393C245.959 1.82152 242.089 2.29902 240.188 2.57654C238.27 2.88209 236.642 3.20761 234.72 3.58571C232.558 4.04942 232.867 4.23101 235.628 3.96886C238.094 3.75929 240.616 3.58274 243.078 3.44572C245.829 3.32868 249.934 2.83811 251.862 2.38746C253.756 1.99285 255.412 1.68387 257.318 1.33379C257.909 1.22861 258.176 1.1595 258.254 1.09194C258.319 0.979843 257.459 0.964482 255.645 1.02933M256.493 12.123C252.983 11.7943 249.747 11.5136 246.495 11.261C242.947 11.0609 238.181 11.8413 235.396 13.1077C233.129 14.264 230.668 15.4943 228.201 16.7972C225.519 18.2747 226.076 19.7707 229.619 20.0433C233.117 20.3275 236.348 20.6807 239.825 21.0654C243.571 21.5707 249.152 20.6276 251.604 19.0905C254.075 17.7151 256.352 16.4137 258.623 15.1849C259.273 14.8506 259.689 14.5292 259.887 14.193C260.447 13.2402 259.132 12.3917 256.526 12.0669M278.332 3.76911C275.314 3.50341 272.57 3.28571 269.548 3.09256C266.508 2.92745 262.401 3.22835 260.525 3.78458C258.621 4.3243 256.773 4.89703 254.892 5.52582C252.771 6.2402 253.405 7.02718 256.662 7.20727C259.668 7.42844 262.675 7.64961 265.648 7.92682C268.907 8.29656 273.455 7.95306 275.346 7.17917C277.243 6.52236 279.136 5.93812 280.778 5.39494C281.284 5.24024 281.601 5.08707 281.7 4.91893C281.963 4.47055 280.753 4.0229 278.332 3.76911ZM258.736 48.809C253.982 47.4473 249.401 46.112 244.782 44.9054C239.816 43.6458 232.885 45.1521 229.186 48.2945C226.027 51.2262 222.713 54.2931 219.26 57.467C215.561 61.0613 216.547 65.2983 221.732 66.7626C226.554 68.2019 231.311 69.7532 236.179 71.3706C241.614 73.2456 249.331 71.5601 252.861 67.6771C256.11 64.2705 259.293 60.976 262.556 57.8036C262.993 57.3817 263.346 56.9103 263.609 56.4619C265.388 53.4354 263.43 50.2103 258.736 48.809ZM296.045 1.02112C293.564 0.806873 291.066 0.620666 288.596 0.450949C285.819 0.289289 282.508 0.265819 281.118 0.316087C279.739 0.410887 278.345 0.533688 276.978 0.673019C275.316 0.864938 276.157 1.17054 278.905 1.31569C281.375 1.48541 284.136 1.6751 286.617 1.88935C289.647 2.19958 293.221 2.2265 294.62 2.03112C296.003 1.86377 297.136 1.73748 298.514 1.64268C298.894 1.63961 299.088 1.56553 299.105 1.53751C299.187 1.39739 298.046 1.21694 296.045 1.02112ZM285.269 26.8122C281.02 25.7476 276.738 24.7391 272.67 23.8181C268.31 22.8771 262.248 23.6121 259.553 25.497C256.907 27.2977 254.33 29.1761 251.513 31.14C248.559 33.4007 249.598 36.1981 254.355 37.2977C258.559 38.3738 262.949 39.5209 267.277 40.7076C272.277 42.1008 278.64 41.2406 281.519 38.7853C284.201 36.6662 286.687 34.6213 288.991 32.695C289.468 32.3341 289.827 31.9798 290.041 31.6155C291.095 29.822 289.171 27.8238 285.257 26.7677M306.648 13.7764C302.999 12.9134 299.345 12.1229 295.92 11.3919C291.942 10.6375 287.13 10.7879 284.979 11.748C282.844 12.68 280.967 13.6881 278.839 14.7372C276.494 15.961 277.796 17.6686 281.914 18.5055C285.77 19.339 289.346 20.1971 293.153 21.1146C297.429 22.1957 302.872 22.0012 305.076 20.6948C306.773 19.5432 308.728 18.4676 310.415 17.461C310.793 17.2683 311.025 17.0656 311.157 16.8414C311.734 15.8606 310.023 14.5915 306.604 13.7879M323.289 7.64556C320.356 6.97755 317.133 6.28957 314.167 5.6776C310.911 5.04567 306.826 4.79415 305.401 5.16267C303.991 5.50315 302.303 5.8682 300.917 6.29776C299.219 6.80792 300.513 7.75692 303.998 8.44835C307.194 9.11983 310.635 9.82278 313.825 10.5668C317.502 11.4464 321.559 11.6814 323.027 11.1117C324.474 10.6426 325.945 10.2626 327.125 9.86258C327.392 9.79348 327.559 9.70288 327.608 9.61881C327.888 9.14241 326.188 8.36961 323.345 7.67857M335.841 6.54015C333.412 5.97964 330.693 5.39915 328.259 4.91119C325.534 4.40326 322.257 3.8719 321.139 3.78052C320.307 3.78166 319.173 3.7183 318.078 3.71598C316.951 3.76971 318.262 4.23884 321.261 4.79476C323.969 5.33071 326.672 5.93921 329.375 6.54772C332.32 7.26026 335.614 7.7636 336.741 7.70987C337.606 7.65269 338.454 7.62352 339.314 7.63889C339.532 7.65387 339.65 7.64734 339.666 7.61931C339.732 7.50722 338.242 7.08416 335.858 6.51213M320.288 52.6742C315.511 50.7716 310.657 48.9365 305.972 47.2005C300.783 45.357 294.434 45.9995 291.702 48.6544C289.053 51.1693 286.455 53.7897 283.69 56.5006C280.549 59.594 282.423 63.8628 287.888 65.944C292.838 67.8731 297.912 69.9128 302.909 72.02C308.427 74.3964 315.27 73.5546 318.236 70.2452C320.579 67.2866 322.913 64.4731 325.298 61.7652C325.486 61.574 325.634 61.3218 325.766 61.0976C327.413 58.2952 325.06 54.6494 320.288 52.6742ZM340.44 33.1107C336.382 31.5928 332.308 30.1028 328.2 28.669C323.819 27.1871 318.654 27.1674 316.625 28.6899C314.618 30.1118 312.634 31.6227 310.673 33.2228C308.447 35.0815 310.285 37.9339 314.919 39.5643C319.296 41.1187 323.623 42.7572 327.905 44.4073C332.609 46.3049 338.277 46.2424 340.065 44.1641C342.031 42.4915 343.532 40.7725 345.242 39.2135C345.397 39.0784 345.54 38.8987 345.639 38.7306C346.611 37.0772 344.51 34.6732 340.412 33.0942M355.166 22.0085C351.904 20.8076 348.368 19.5588 345.073 18.414C341.247 17.1452 337.217 16.737 335.682 17.4188C334.438 18.1205 333.19 18.8948 331.667 19.6211C330.146 20.537 331.878 22.3471 335.862 23.6704C339.571 24.9458 343.018 26.2177 346.678 27.5771C350.82 29.1446 355.057 29.5231 356.454 28.4966C357.55 27.5953 358.67 26.783 359.745 25.9822C359.912 25.8916 360.006 25.796 360.072 25.6839C360.582 24.8152 358.484 23.2424 355.138 21.992M365.801 17.2872C362.965 16.2614 360.085 15.2471 357.232 14.2494C354.364 13.2796 351.124 12.6197 350.221 12.8054C349.319 12.9912 348.399 13.205 347.492 13.4634C346.305 13.7463 347.969 14.8373 351.325 15.9426C354.407 16.9999 357.231 17.9811 360.308 19.111C363.626 20.3448 366.837 20.9883 367.822 20.6624C368.517 20.3165 369.223 20.0152 369.868 19.7534C369.985 19.7469 370.063 19.6793 370.079 19.6513C370.293 19.287 368.48 18.2585 365.773 17.2707M372.874 17.1464C370.793 16.4009 368.789 15.6752 366.861 14.9693C365.735 14.5712 364.575 14.2291 363.449 13.831C361.847 13.3419 360.788 13.0214 360.273 12.8693C359.741 12.7453 359.193 12.6493 358.629 12.5814C358.047 12.5414 359.612 13.1591 362.223 14.0529C364.576 14.8706 366.929 15.6883 369.536 16.6546C372.142 17.6209 374.769 18.4866 375.351 18.5266C375.658 18.5185 376.206 18.6145 376.496 18.6344C376.553 18.6675 376.581 18.684 376.597 18.6559C376.614 18.6279 374.965 17.9607 372.886 17.191M397.41 52.8716C398.484 51.4293 395.97 48.443 391.658 46.135C387.751 44.1026 384.081 42.2468 380.125 40.2985C375.911 38.2742 371.41 37.7025 370.066 39.0242C368.772 40.2619 367.457 41.6001 366.108 42.9944C364.667 44.6739 366.943 47.7458 371.639 49.9782C375.82 52.0585 380.012 54.1834 383.947 56.2323C388.483 58.6724 393.223 59.1584 394.467 57.3634C395.387 56.0563 396.302 54.8217 397.043 53.5606C397.175 53.3364 397.323 53.0842 397.455 52.86M379.16 63.8628C374.534 61.4458 369.893 59.0567 365.414 56.8393C360.253 54.3708 354.494 54.2667 352.408 56.6598C350.431 58.9294 348.663 61.359 346.443 63.7867C344.137 66.6167 346.791 71.2307 352.273 73.9253C357.128 76.4018 362.151 78.9774 366.929 81.5215C372.436 84.4948 378.572 84.4062 380.445 81.2841C382.116 78.5708 383.732 76.0141 385.315 73.5135L385.364 73.4294C386.913 70.7952 384.117 66.5505 379.16 63.8628ZM399.549 36.1812C396.417 34.5665 393.028 32.8758 389.863 31.3172C386.44 29.6825 382.981 28.818 382.138 29.4161C381.312 29.9861 380.469 30.5842 379.621 31.2548C378.708 32.0376 381.002 34.1778 384.806 35.999C388.352 37.7442 391.686 39.4019 394.958 41.0992C398.708 43.077 402.414 43.9731 403.187 43.1078C403.434 42.6874 403.681 42.2671 403.968 41.9078C404.226 41.5319 404.513 41.1726 404.699 40.7918C404.699 40.7918 404.732 40.7358 404.749 40.7077C405.177 39.9791 402.733 37.9015 399.477 36.1762M394.148 25.9555C394.148 25.9555 395.871 26.8173 398.132 27.9203C400.365 29.0067 402.61 30.1377 404.839 31.2967C406.742 32.3021 408.364 33.1425 409.127 33.5156C404.198 30.8445 399.186 28.3134 394.176 25.972M367.174 104.892C369.735 100.855 366.878 94.915 360.966 91.6661C355.554 88.7868 350.053 85.9306 344.733 83.218C338.756 80.2708 331.504 80.9094 328.593 84.7038C326 88.3449 323.082 92.0222 320.413 95.9205C317.129 100.287 319.699 106.586 325.907 109.782C331.733 112.792 337.426 115.837 343.214 118.975C349.548 122.472 357.143 121.507 359.922 116.843C362.098 113.334 364.225 109.908 366.218 106.517C366.531 105.985 366.844 105.452 367.174 104.892ZM408.533 34.9763C408.698 34.6961 406.601 33.3129 403.923 31.8898C401.229 30.4947 398.743 29.2597 396.016 27.9206C393.272 26.6096 390.425 25.5393 390.035 25.6875C389.674 25.8521 389.252 26.0564 388.857 26.2771C388.173 26.4779 390.253 27.8891 393.21 29.2876C396.178 30.7307 398.861 32.0813 401.555 33.4764C404.698 35.1356 407.321 36.0739 407.793 35.7856C407.892 35.6174 408.047 35.4823 408.185 35.3752C408.324 35.2681 408.462 35.161 408.545 35.0209M440.872 54.2108C440.746 53.9106 440.588 53.6665 440.429 53.4223C440.253 53.2062 438.267 51.6994 435.995 50.1001C433.932 48.6608 431.863 47.2942 429.766 45.911C427.445 44.3957 425.535 43.2732 425.711 43.4893C425.645 43.6014 425.579 43.7135 425.721 43.9857C425.622 44.1538 427.609 45.6606 429.93 47.1759C432.235 48.7192 434.512 50.2459 436.592 51.6571C438.948 53.306 440.785 54.4235 440.884 54.2554M442.011 61.403C441.947 60.6114 442.047 59.9915 442.158 59.416C442.034 58.664 439.824 56.5733 437.163 54.6703C434.442 52.8069 431.957 51.12 429.428 49.4447C426.657 47.6653 424.105 46.5424 423.825 47.0188C423.77 47.6273 423.445 48.1152 423.104 48.6311C422.95 49.4077 425.115 51.5099 428.291 53.5649C430.989 55.3393 433.698 57.1582 436.347 59.0167C439.344 61.1177 441.632 62.0476 441.961 61.4871L441.994 61.431M440.263 74.8549C440.658 73.5408 440.783 72.1062 441.084 70.8878C441.417 69.6133 438.97 66.7045 435.5 64.2502C432.43 62.1442 429.344 60.0661 426.241 58.0161C422.672 55.73 419.464 54.8244 418.793 55.9008C418.38 57.0532 417.682 58.1131 417.203 59.3776C416.373 60.6617 418.934 63.8262 422.812 66.2939C426.251 68.542 429.45 70.686 432.824 73.0462C436.254 75.4395 439.451 76.3006 440.16 75.0956C440.193 75.0395 440.226 74.9835 440.258 74.9274M434.121 96.6202C435.054 94.4539 435.718 92.1671 436.529 90.0799C437.39 87.9086 434.674 83.786 430.574 80.924C426.667 78.2502 422.923 75.7479 419.191 73.2902C414.796 70.4808 410.429 69.8746 409.4 71.9468C408.436 73.9069 407.379 75.9627 406.093 77.9589C404.821 80.3789 407.518 84.7917 412.222 87.7827C416.319 90.455 420.428 93.1718 424.46 95.9563C428.407 98.6911 432.629 99.2874 433.864 97.1856C433.963 97.0175 434.062 96.8493 434.104 96.6482M422.351 129.18C423.773 125.604 425.269 122.223 426.615 118.904C428.06 115.417 425.308 109.878 420.315 106.415C415.845 103.411 411.388 100.452 406.729 97.4493C401.66 94.2438 395.913 94.1842 394.227 97.567C392.488 100.655 390.655 103.838 388.756 107.133C386.733 110.959 389.401 116.901 394.891 120.354C399.887 123.554 404.698 126.684 409.504 129.886C414.598 133.37 420.102 133.136 422.144 129.661C422.226 129.521 422.309 129.381 422.408 129.213M454.597 64.163C455.425 64.8759 456.709 65.97 457.937 67.0311C459.621 68.4734 461.48 70.1318 463.367 71.8068C463.367 71.8068 463.575 71.9668 463.62 71.9553C460.69 69.2903 457.665 66.7209 454.597 64.163ZM471.666 81.9254C471.295 81.1419 471.071 80.558 470.639 79.814C470.208 79.0701 468.092 76.8838 465.837 74.8046C463.786 72.958 461.691 71.123 459.607 69.3325C457.287 67.3654 455.443 66.1308 455.683 66.6867C455.906 67.2706 456.13 67.8545 456.337 68.4664C456.483 69.1179 458.583 71.3322 461.111 73.4594C463.403 75.4099 465.691 77.4331 467.95 79.4397C470.041 81.3473 471.559 82.4283 471.724 82.1481C471.757 82.092 471.745 82.0475 471.71 81.9139M475.138 95.2403C474.979 93.9028 474.98 92.8095 474.727 91.5676C474.508 90.2697 472.155 87.2653 469.337 84.6664C466.914 82.4881 464.238 80.1613 461.754 78.0227C458.837 75.5918 456.531 74.5004 456.379 75.4666C456.463 76.6095 456.503 77.7638 456.317 78.7861C456.23 80.0921 458.894 83.4677 461.946 86.0536C464.599 88.2914 467.41 90.7732 470.176 93.2667C472.543 95.4119 474.631 96.4883 475.043 95.7877C475.109 95.6756 475.152 95.4745 475.093 95.2518M475.602 115.987C475.76 113.855 475.901 111.751 476.1 109.87C476.168 107.76 473.637 103.709 470.351 100.684C467.213 97.8591 464.245 95.3227 461.057 92.5817C457.464 89.565 454.295 88.7204 453.934 90.6199C453.606 92.4633 453.218 94.3463 452.768 96.2688C452.294 98.5541 454.962 102.95 458.836 106.132C462.141 108.867 465.56 111.857 468.799 114.703C471.746 117.34 474.535 118.188 475.359 116.787C475.491 116.563 475.566 116.305 475.619 115.959M471.21 145.832C472.017 142.724 472.706 139.623 473.306 136.544C473.956 133.382 471.322 128.026 467.424 124.566C463.7 121.321 459.96 118.105 456.199 114.989C452.017 111.626 447.701 111.125 446.833 114.273C445.884 117.109 444.858 120.012 443.862 123.121C442.691 126.656 445.464 132.547 449.944 136.047C454.042 139.361 458.119 142.775 462.044 146.062C465.676 149.14 469.331 149.479 470.764 147.041C470.962 146.704 471.12 146.307 471.238 145.849M499.234 114.87C498.854 113.78 498.43 112.701 497.973 111.679C497.358 110.412 495.437 107.7 493.477 105.378C491.675 103.301 489.844 101.207 487.998 99.1416C485.943 96.9158 484.581 95.8892 485.05 96.9564C485.299 97.819 485.751 98.9143 485.955 99.7884C486.285 100.963 488.516 104.046 490.746 106.488C492.581 108.509 494.575 110.775 496.377 112.852C498.027 114.802 499.131 115.753 499.312 115.444C499.361 115.36 499.331 115.154 499.234 114.87ZM460.379 186.183C461.92 181.697 463.39 177.395 464.72 173.011C466.148 168.459 463.54 161.647 458.859 157.652C454.637 154.227 450.155 150.537 445.664 146.992C440.655 143.106 435.041 143.464 433.271 147.89C431.616 152.121 429.771 156.353 427.916 160.73C425.76 165.684 428.43 173.098 433.905 177.22C438.727 180.846 443.419 184.434 448.142 188.228C452.617 191.801 457.544 191.455 459.768 187.671C460.032 187.223 460.239 186.742 460.435 186.216M504.198 134.454C503.821 132.46 503.574 130.694 503.267 128.967C502.975 127.213 500.788 123.476 498.505 120.739C496.364 118.274 494.207 115.837 492.005 113.412C489.594 110.826 487.698 109.938 487.809 111.549C487.965 113.149 488.064 114.715 488.289 116.582C488.365 118.512 490.626 122.443 493.189 125.155C495.543 127.708 497.836 130.3 500.14 132.936C502.101 135.258 503.611 136.032 504.072 135.247C504.171 135.079 504.218 134.806 504.198 134.454ZM505.509 161.732C505.542 158.848 505.719 156.425 505.72 153.787C505.755 151.092 503.563 146.335 500.817 143.1C498.36 140.336 495.712 137.384 493.031 134.489C490.125 131.461 487.438 130.824 487.235 133.42C487.093 135.976 486.731 138.327 486.439 140.946C486.186 144.077 488.419 149.085 491.613 152.395C494.434 155.373 497.24 158.379 499.967 161.453C502.209 163.94 504.287 164.52 505.11 163.119C505.308 162.782 505.426 162.324 505.493 161.76M522.924 153.191C522.478 151.571 521.943 149.974 521.436 148.394C520.77 146.57 518.971 143.137 517.348 140.562C515.84 138.243 514.315 135.951 512.745 133.671C511 131.175 509.88 130.253 510.399 131.877C510.934 133.474 511.277 134.882 511.752 136.519C512.279 138.45 514.152 142.077 516.044 144.773C517.745 147.281 519.417 149.772 520.925 152.091C522.049 153.845 522.878 154.747 523.076 154.411C523.158 154.271 523.127 153.875 522.908 153.219M501.475 197.783C502.169 193.967 502.847 190.369 503.426 186.75C503.995 182.824 501.932 177.011 498.702 173.378C495.733 170.2 492.731 167.079 489.577 163.83C485.916 160.094 482.332 160.212 481.573 164.14C480.674 167.533 479.806 171.132 478.894 174.933C477.848 179.22 480.006 185.578 483.845 189.268C487.206 192.487 490.528 195.835 493.698 199.056C496.504 202.062 499.314 202.168 500.714 199.786C501.027 199.253 501.277 198.571 501.447 197.766M527.845 178.442C527.574 175.945 527.345 173.699 526.985 171.225C526.614 168.707 524.857 164.432 522.956 161.429C521.301 158.91 519.453 156.203 517.606 153.496C515.55 150.628 513.946 149.95 514.301 152.496C514.542 154.787 514.738 157.089 514.845 159.414C514.933 162.03 516.941 166.905 519.144 169.972C521.041 172.595 522.991 175.514 524.822 178.249C526.172 180.324 527.223 180.98 527.667 180.223C527.848 179.915 527.932 179.323 527.857 178.487M490.56 243.098C492.097 238.233 493.51 233.257 494.927 228.66C496.338 223.495 494.441 216.309 490.741 212.701C487.199 209.149 483.603 205.753 479.882 202.246C475.558 198.159 470.716 199.197 469.003 204.298C467.358 209.025 465.603 213.875 463.798 218.81C461.755 224.471 463.788 232.264 468.298 235.971C472.348 239.558 476.224 242.929 480.003 246.207C483.504 249.509 487.516 248.662 489.69 244.963C490.02 244.402 490.309 243.781 490.548 243.054M528.539 211.013C528.774 207.72 528.892 204.433 528.982 201.131C529.088 197.799 527.358 192.258 525.265 189.067C523.271 186.16 521.243 183.309 519.057 180.215C516.646 176.988 514.366 176.816 514.194 180.259C514.026 183.63 513.7 186.756 513.387 190.117C512.996 193.997 514.831 199.939 517.451 203.327C519.731 206.326 521.892 209.142 524.051 212.221C525.637 214.473 527.159 214.84 527.983 213.438C528.296 212.906 528.511 212.09 528.584 211.001M330.195 547.046C327.701 547.239 325.24 547.376 322.75 547.497C319.72 547.638 315.678 548.279 313.557 548.993C311.414 549.619 309.538 550.175 307.678 550.703C305.511 551.239 306.101 551.586 309.16 551.461C311.649 551.34 314.126 551.175 316.342 551.007C319.103 550.745 322.911 550.117 325.077 549.581C326.965 549.069 329.092 548.472 330.941 547.899C331.909 547.601 332.421 547.374 332.519 547.206C332.668 546.954 331.869 546.899 330.239 547.034M540.181 192.556C539.685 190.379 539.242 188.497 538.701 186.331C538.115 184.177 536.811 180.545 535.811 178.261C534.767 175.988 533.706 173.743 532.617 171.481C531.38 169.02 530.791 168.673 531.234 170.555C531.705 172.454 532.218 174.603 532.6 176.524C533.007 178.724 534.483 182.834 535.764 185.284C536.956 187.757 538.045 190.018 539.062 192.275C539.684 193.659 540.126 194.258 540.274 194.005C540.373 193.837 540.362 193.341 540.17 192.511M338.771 547.562C336.626 547.998 332.881 548.776 330.703 549.268C333.69 548.686 336.666 548.059 339.63 547.388L338.755 547.59L338.771 547.562ZM340.209 547.238C340.476 547.169 340.727 547.128 341.039 547.048C340.772 547.117 340.476 547.169 340.209 547.238ZM341.039 547.048C341.039 547.048 341.262 546.99 341.351 546.967C341.217 547.002 341.128 547.025 341.039 547.048ZM541.257 191.755C541.903 193.869 542.948 197.236 543.68 199.589C544.05 200.825 544.12 201.092 544.322 201.776C543.35 198.415 542.318 195.093 541.24 191.783M523.447 251.306C524.336 246.965 525.097 242.585 525.842 238.423C526.58 233.955 525.17 227.546 522.752 224.202C520.432 221.141 518.009 217.87 515.493 214.694C512.621 211.158 509.455 211.786 508.57 216.507C507.634 220.67 506.656 225.035 505.624 229.556C504.356 234.542 505.916 241.53 509.023 245.052C511.757 248.243 514.356 251.279 516.82 254.16C518.822 256.732 521.026 256.519 522.426 254.137C522.871 253.38 523.241 252.429 523.464 251.278M358.015 534.817C355.258 535.007 352.478 535.107 349.715 535.18C346.678 535.204 341.748 536.455 339.083 537.904C336.354 539.204 334.143 540.393 331.642 541.562C328.846 542.784 329.563 543.621 332.617 543.568C335.369 543.451 338.137 543.306 340.882 543.072C343.655 542.854 348.155 541.691 350.935 540.497C353.181 539.441 355.698 538.244 358.16 537.014C359.338 536.424 360.042 535.933 360.272 535.541C360.618 534.952 359.878 534.668 358.059 534.806M543.856 221.599C543.733 218.85 543.538 216.096 543.315 213.326C543.092 210.555 541.919 206.058 540.674 203.29C539.515 200.761 538.323 198.288 537.087 195.827C535.676 193.15 534.682 193.169 534.86 195.951C535.055 198.705 535.206 201.471 535.284 204.231C535.314 207.266 536.62 212.18 538.145 215.113C539.426 217.563 540.646 220.052 541.85 222.569C542.58 224.092 543.193 224.528 543.538 223.939C543.753 223.575 543.879 222.782 543.828 221.583M511.166 298.044C512.906 292.77 514.564 287.636 516.134 282.714C517.757 276.995 516.764 269.812 513.929 266.6C511.206 263.454 508.364 260.124 505.411 256.918C501.984 253.169 497.619 254.939 495.749 260.627C493.96 265.986 492.049 271.423 490.053 276.811C487.763 282.893 488.944 290.977 492.651 294.25C495.859 297.342 498.944 300.324 501.909 303.122C504.436 305.701 507.692 304.598 509.899 300.843C510.377 300.031 510.803 299.112 511.15 298.072M370.939 537.323C368.772 537.86 366.61 538.323 364.448 538.787C361.979 539.259 357.793 540.531 355.24 541.595C352.648 542.597 350.328 543.458 348.248 544.234C345.604 545.131 345.702 545.415 348.41 544.857C350.572 544.394 352.751 543.902 354.889 543.349C357.312 542.699 361.008 541.554 363.635 540.685C365.727 539.954 368.064 539.065 370.372 538.159C371.707 537.624 372.462 537.239 372.545 537.099C372.627 536.958 372.142 537.013 370.967 537.34M550.809 231.757C550.477 229.299 550.089 226.809 549.685 224.347C549.236 221.896 548.386 217.814 547.758 215.41C547.173 213.256 546.571 211.13 545.924 209.015C545.164 206.645 544.868 206.698 545.301 209.176C545.705 211.639 546.065 214.112 546.396 216.57C546.709 219.317 547.645 223.638 548.406 226.008C549.122 228.39 549.752 230.533 550.338 232.687C550.617 233.755 550.805 234.206 550.888 234.065C550.97 233.925 550.934 233.15 550.764 231.768M389.303 514.824C386.439 514.875 383.58 514.853 380.441 514.856C377.273 514.653 371.698 516.617 368.216 519.133C365.406 521.214 362.3 523.347 359.394 525.334C356.232 527.435 356.484 529.129 359.812 529.124C362.866 529.072 365.657 529.016 368.721 528.818C371.784 528.62 376.598 526.925 379.827 524.902C382.773 522.976 385.707 521.005 388.602 518.974C389.827 518.11 390.595 517.318 390.991 516.645C391.666 515.496 391.101 514.787 389.247 514.791M542.898 257.045C543.223 253.277 543.545 249.771 543.809 246.495C544.005 242.689 543.12 237.38 541.802 234.607C540.554 232.102 539.176 229.368 537.736 226.675C536.121 223.765 534.491 224.352 534.222 228.153C533.9 231.659 533.546 235.41 533.137 239.129C532.579 243.099 533.603 248.942 535.319 251.874C536.818 254.338 538.227 256.826 539.56 259.381C540.442 261.031 541.398 261.14 542.089 259.963C542.452 259.347 542.754 258.318 542.914 257.017M491.226 348.877C493.933 343.115 496.571 337.276 499.098 331.37C501.716 325.18 501.242 317.436 497.889 314.333C494.704 311.33 491.352 308.417 487.837 305.333C483.836 301.662 478.031 304.208 475.046 311.087C472.226 317.235 469.312 323.478 466.319 329.599C462.893 336.521 463.761 344.686 468.109 347.769C471.911 350.494 475.566 353.019 479.004 355.719C482.39 358.124 487.313 355.663 490.459 350.311C490.722 349.863 490.986 349.414 491.21 348.905M399.689 522.097C397.738 522.459 395.293 523.02 393.063 523.406C390.543 523.772 385.771 525.718 382.741 527.595C379.915 529.252 377.033 530.876 374.396 532.342C371.474 533.905 371.21 534.806 373.974 534.281C376.176 533.879 378.593 533.301 380.772 532.809C383.178 532.188 387.543 530.418 390.493 528.871C393.159 527.421 395.813 525.927 398.428 524.372C399.948 523.456 400.902 522.735 401.149 522.314C401.396 521.894 400.965 521.791 399.734 522.086M552.355 262.943C552.416 259.623 552.414 256.606 552.4 253.543C552.317 250.214 551.793 245.834 551.166 243.429C550.51 241.008 549.864 238.893 549.12 236.495C548.245 233.869 547.575 234.494 547.631 237.807C547.658 241.103 547.616 244.133 547.542 247.408C547.405 250.984 548.042 256.072 548.929 258.742C549.676 260.878 550.351 263.009 550.992 265.196C551.299 266.281 551.603 266.536 551.85 266.115C552.097 265.695 552.287 264.6 552.355 262.943ZM535.913 297.922C536.948 293.591 537.895 289.472 538.817 285.075C539.711 280.661 539.254 274.623 537.749 272.042C536.271 269.476 534.719 266.717 533.091 264.214C531.161 261.005 528.746 262.414 527.694 267.225C526.661 271.746 525.573 276.234 524.397 280.935C523.033 285.827 523.608 292.499 525.695 295.121C527.461 297.516 529.154 299.907 530.742 302.348C531.882 304.074 533.345 303.577 534.548 301.531C535.075 300.634 535.582 299.386 535.958 297.911M455.412 449.539C452.824 448.734 449.985 447.971 447.051 447.113C443.69 446.08 437.608 449.292 433.753 454.115C430.084 458.557 426.502 462.786 422.864 466.982C418.794 471.528 418.529 475.708 422.214 476.253C425.347 476.774 428.216 477.292 431.262 477.574C434.165 478.036 439.807 474.867 443.646 470.714C447.07 466.882 450.393 463.028 453.848 458.951C454.565 458.052 455.176 457.205 455.67 456.364C457.696 452.917 457.696 450.089 455.412 449.539ZM522.069 342.949C523.892 338.176 525.717 333.141 527.383 328.314C529.173 322.956 529.15 316.758 527.354 314.157C525.594 311.878 523.777 309.377 521.814 306.866C519.514 304.157 516.007 306.394 514.03 311.944C512.117 317.192 510.105 322.607 508.085 327.717C505.687 333.66 505.84 340.537 508.349 342.954C510.526 345.101 512.605 346.964 514.536 349.079C516.128 350.806 518.637 349.302 520.679 345.828C521.19 344.959 521.649 343.984 522.085 342.921M430.261 499.722C428.198 500.018 426.095 500.252 423.953 500.426C421.292 500.709 416.32 503.254 412.769 506.144C409.623 508.669 406.437 511.132 403.166 513.546C399.896 515.96 399.282 517.711 402.098 517.292C404.368 516.967 406.614 516.553 409.104 515.98C411.339 515.521 415.949 513.141 419.293 510.733C422.136 508.595 425.167 506.267 428.186 503.894C429.76 502.632 430.826 501.525 431.271 500.768C431.798 499.871 431.492 499.428 430.249 499.678M548.906 298.961C549.539 295.185 550.07 291.387 550.557 287.602C551.036 283.509 550.869 278.585 550.186 276.147C549.5 273.972 548.753 271.836 547.924 269.388C546.92 266.724 545.705 268.084 545.168 272.406C544.625 276.158 544.022 280.141 543.347 284.118C542.521 288.609 542.716 294.191 543.763 296.654C544.654 298.61 545.441 300.807 546.169 302.782C546.565 303.844 547.107 303.823 547.634 302.926C548.079 302.169 548.506 300.799 548.85 298.928M485.75 406.024C483.224 404.728 480.702 403.17 477.923 401.725C474.74 400.005 468.978 403.443 465.306 409.241C461.808 414.613 458.238 419.98 454.567 425.325C450.553 430.997 450.202 436.673 453.837 437.754C456.829 438.834 459.698 439.804 462.487 440.652C465.361 441.549 470.626 438.12 474.266 433.02C477.546 428.275 480.914 423.317 484.054 418.488C484.203 418.236 484.351 417.984 484.499 417.732C487.563 412.519 488.104 407.483 485.722 406.008M501.383 389.007C504.073 383.915 506.664 378.801 509.214 373.627C512.003 367.725 512.421 361.485 510.255 359.383C508.158 357.358 505.932 355.296 503.532 353.206C500.76 350.786 495.972 353.853 492.941 360.103C490.16 365.67 487.208 371.4 484.199 377.097C480.777 383.306 480.576 390.012 483.743 391.76C486.356 393.485 488.83 395.128 491.306 396.508C493.639 398.068 497.874 394.977 500.954 389.736C501.103 389.484 501.251 389.232 501.399 388.979M432 506.664C430.693 507.216 429.147 507.853 427.573 508.474C425.732 509.163 421.651 511.478 418.74 513.537C415.989 515.389 413.226 517.196 410.679 518.829C407.605 520.717 406.832 521.582 408.901 520.762C410.447 520.125 412.22 519.358 413.743 518.631C415.465 517.758 419.091 515.704 421.893 513.958C424.485 512.314 427.02 510.637 429.527 508.943C431.395 507.628 432.504 506.771 432.668 506.491C432.767 506.323 432.544 506.381 431.988 506.619M553.969 297.676C554.246 294.634 554.478 291.603 554.638 288.567C554.772 285.253 554.851 280.812 554.773 279.145C554.669 277.199 554.474 275.538 554.282 273.615C553.989 271.671 553.637 272.783 553.458 276.109C553.251 279.419 553.016 282.712 552.711 285.738C552.336 289.59 552.291 293.975 552.584 295.919C552.807 297.596 553.002 299.257 553.109 300.941C553.142 301.526 553.217 301.721 553.316 301.553C553.481 301.272 553.723 299.831 553.941 297.659M461.143 469.875C459.09 470.026 457.173 469.879 454.984 469.875C452.665 469.642 447.532 472.847 443.791 476.832C440.542 480.238 437.02 483.787 433.675 487.099C429.842 490.728 429.165 493.422 431.739 493.351C434.165 493.08 436.352 492.895 438.471 492.633C440.635 492.359 445.423 489.291 448.759 486.124C452.066 482.94 455.118 479.87 458.301 476.575C459.622 475.164 460.642 473.879 461.268 472.814C462.306 471.048 462.355 469.871 461.16 469.847M539.619 338.484C540.949 334.1 542.194 329.667 543.348 325.519C544.54 320.79 544.844 315.388 544.078 313.09C543.276 311.111 542.374 309.11 541.399 307.104C540.24 304.575 538.213 306.739 536.879 311.837C535.596 316.4 534.256 320.929 532.785 325.682C531.078 330.9 530.851 336.686 532.107 338.857C533.223 340.494 534.208 342.355 535.151 343.965C535.753 344.997 536.802 344.37 537.856 342.576C538.466 341.539 539.071 340.123 539.607 338.44M460.325 482.968C458.962 483.487 457.571 483.989 456.141 484.43C454.631 484.749 450.616 487.593 447.396 490.564C444.352 493.299 441.468 495.827 438.545 498.294C435.377 500.919 434.227 502.619 436.124 501.962C437.726 501.358 439.3 500.737 440.635 500.202C442.158 499.475 446.001 496.795 448.997 494.333C451.721 492.013 454.434 489.648 457.09 487.25C458.971 485.528 460.264 484.101 460.676 483.4C460.939 482.952 460.848 482.785 460.309 482.996M548.307 332.317C549.11 328.83 549.904 325.036 550.606 321.527C551.3 317.712 551.769 313.313 551.663 311.629C551.512 309.957 551.306 308.251 551.054 306.558C550.705 304.58 549.779 306.412 549.027 310.456C548.246 314.485 547.413 318.217 546.579 321.95C545.549 326.209 545.034 331.072 545.426 332.848C545.736 334.313 546.05 335.515 546.232 336.942C546.31 337.516 546.484 337.542 546.764 337.066C547.159 336.393 547.739 334.698 548.307 332.317ZM489.753 433.866C488.14 433.332 486.27 432.912 484.477 432.235C482.275 431.544 477.535 434.98 473.978 439.94C470.639 444.463 467.216 448.936 463.725 453.332C460.002 457.93 458.971 462 461.447 462.286C463.533 462.532 465.55 462.699 467.516 462.762C469.511 462.84 474.004 459.374 477.391 455.218C480.562 451.238 483.649 447.208 486.663 443.173C487.291 442.298 487.874 441.434 488.368 440.593C490.395 437.146 491.081 434.307 489.753 433.866ZM524.171 379.553C526.247 374.928 528.266 370.271 530.202 365.564C532.26 360.326 533.103 354.714 532.092 353.026C531.006 351.596 529.878 349.915 528.725 347.955C527.269 345.93 524.216 348.811 521.933 354.558C519.85 359.517 517.607 364.684 515.279 369.801C512.676 375.322 511.877 381.376 513.655 382.722C515.015 384.201 516.395 385.389 517.646 386.539C518.678 387.484 520.815 385.649 522.841 382.202C523.302 381.417 523.785 380.532 524.227 379.586M511.516 405.069C514.313 399.926 515.616 394.621 514.269 393.377C512.951 392.149 511.416 391.096 509.856 389.765C507.97 388.279 503.849 391.626 500.587 397.627C497.591 402.917 494.527 408.129 491.362 413.32C487.867 418.882 486.787 424.318 489.002 425.243C490.925 425.958 492.751 426.579 494.306 427.342C496.048 427.913 500.048 424.194 503.182 419.249C504.626 416.855 506.038 414.518 507.422 412.164C508.805 409.81 510.189 407.456 511.549 405.013M487.114 453.656C486.038 453.815 484.934 453.958 483.922 453.816C482.438 453.962 478.678 457.144 475.423 461.075C472.431 464.557 469.383 468.007 466.484 471.204C463.152 474.751 461.667 477.535 463.421 477.058C464.692 476.825 466.139 476.356 467.342 476.045C468.721 475.498 472.281 472.463 475.287 469.214C478.059 466.169 480.792 463.062 483.657 459.731C484.992 458.102 486.083 456.632 486.742 455.511C487.467 454.278 487.661 453.563 487.086 453.64M537.263 368.659C538.704 364.793 540.089 360.894 541.401 356.989C542.853 352.526 543.773 347.939 543.504 346.725C543.283 345.238 542.925 344.047 542.574 342.521C542.062 341.014 540.444 343.381 538.95 348.045C537.475 352.419 535.932 356.716 534.344 361.024C532.597 365.539 531.542 370.613 532.212 371.723C532.725 372.779 533.166 373.829 533.625 374.59C533.809 375.113 534.352 374.64 535.077 373.407C535.719 372.314 536.501 370.662 537.279 368.631M482.524 464.23C481.904 464.771 481.211 465.306 480.523 465.769C479.563 466.374 476.367 469.434 473.305 472.65C470.608 475.438 467.871 478.166 465.095 480.832C461.87 483.876 460.373 485.522 461.521 484.727C462.26 484.155 462.993 483.594 463.721 483.041C470.213 477.204 476.421 471.012 482.376 464.483C482.458 464.342 482.54 464.202 482.573 464.146C482.59 464.118 482.573 464.146 482.496 464.214M540.808 365.2C543.616 356.821 546.006 348.384 547.947 339.873C548.087 338.95 548.221 338.036 548.35 337.131C548.439 336.015 547.701 338.107 546.686 342.148C545.662 345.882 544.611 349.6 543.439 353.587C542.091 357.809 540.988 362.063 541.003 362.939C540.916 363.793 540.802 364.631 540.631 365.435C540.593 365.564 540.589 365.637 540.605 365.608C540.621 365.58 540.704 365.44 540.763 365.211M511.079 419.442C510.245 419.253 509.475 418.763 508.633 418.268C507.462 417.881 504.189 421.199 501.171 425.948C498.377 430.187 495.67 434.214 492.763 438.388C489.464 442.972 488.01 446.604 489.39 446.699C490.635 446.638 491.635 446.736 492.551 446.785C493.644 446.597 496.877 443.219 499.774 439.19C502.306 435.589 504.914 431.73 507.467 427.838C507.796 427.278 508.109 426.745 508.422 426.213C510.481 422.71 511.669 419.788 511.051 419.425M520.94 404.915C523.099 400.792 525.07 396.86 527.117 392.671C529.211 388.208 530.606 383.712 530.118 382.935C529.723 381.873 529.15 381.046 528.581 379.958C527.751 379.055 525.257 382.076 522.961 386.948C520.728 391.518 518.423 396.082 516.078 400.586C513.529 405.309 512.074 410.034 513.102 410.601C513.944 411.096 514.615 411.754 515.317 412.167C515.907 412.514 517.926 410.043 519.985 406.54C520.282 406.036 520.594 405.503 520.924 404.943M505.09 435.867C504.79 435.993 504.273 436.292 503.861 436.351C503.38 436.333 500.499 439.692 497.574 443.704C494.929 447.24 492.244 450.714 489.663 453.948C486.502 457.783 484.813 460.335 485.614 459.938C486.346 459.464 487.022 458.956 487.482 458.623C487.875 458.213 488.615 457.404 489.691 456.151C493.56 451.563 497.292 446.819 500.901 441.965C502.978 439.075 504.591 436.781 505.003 436.08C505.101 435.912 505.134 435.856 505.09 435.867ZM530.019 392.491C532.532 386.993 534.861 381.424 536.972 375.84C537.542 374.29 537.993 373.009 538.041 372.736C538.228 371.903 538.342 371.065 538.384 370.223C538.342 369.331 536.83 372.288 535.121 376.675C533.447 380.744 531.701 384.808 529.898 388.839C527.936 393.077 526.375 397.212 526.504 397.891C526.653 398.281 526.746 398.637 526.783 398.96C526.745 399.089 526.806 399.049 526.922 398.853C527.317 398.181 528.537 395.655 530.03 392.536M518.225 415.384C518.884 414.263 519.559 413.114 520.162 411.961C522.372 407.943 524.053 404.633 524.073 404.343C524.036 404.019 523.915 403.647 523.766 403.257C523.505 402.802 521.275 406.016 518.78 410.583C516.464 414.651 513.961 418.911 511.533 422.913C508.74 427.342 507.005 430.809 507.558 430.833C507.999 430.79 508.355 430.698 508.524 430.797C508.768 430.639 510.974 427.336 513.392 423.478C514.051 422.357 514.755 421.225 515.413 420.104C515.875 419.319 516.352 418.507 516.813 417.722C517.275 416.937 517.752 416.125 518.214 415.34" fill="white"/>
</svg>
