<svg width="100" height="100" viewBox="0 0 100 100" fill="none" xmlns="http://www.w3.org/2000/svg">
<g clip-path="url(#clip0_3_16235)">
<path opacity="0.5" d="M18.7625 83.7424C18.8027 83.8378 18.846 83.9287 18.8988 84.0061C18.9252 84.0448 19.2332 84.3216 19.6098 84.6533C20.0774 85.0558 20.5545 85.4447 21.0392 85.8323C21.1437 85.9124 21.236 85.9907 21.3943 86.1087C21.5495 86.2311 21.7123 86.3522 21.8751 86.4733C22.3321 86.8146 22.6774 87.0572 22.6869 87.0437C22.7027 87.0213 22.728 86.9853 22.7205 86.9196C22.7616 86.8612 22.2393 86.3935 21.6061 85.9217C20.9823 85.4365 20.4052 84.9706 19.8313 84.5002C19.5305 84.2418 19.2529 84.0266 19.0556 83.8879C18.8582 83.7493 18.7456 83.6903 18.7593 83.7469M27.0857 89.584C26.4455 89.208 25.8147 88.8185 25.1826 88.4213C24.4851 87.9648 23.8681 87.632 23.827 87.6904C23.7986 87.7309 23.7733 87.7668 23.7217 87.7641C23.7122 87.7776 24.0531 88.0171 24.5245 88.3282C24.6891 88.4372 24.8493 88.543 25.0171 88.6474C25.1848 88.7519 25.2867 88.8167 25.393 88.8847C25.9322 89.2233 26.4809 89.5485 27.0315 89.8614C27.4802 90.1096 27.8104 90.2879 27.898 90.3159C27.9887 90.3393 28.0499 90.3286 28.1532 90.3341C28.2112 90.3278 28.1175 90.2418 27.9247 90.1063C27.7318 89.9708 27.4397 89.7857 27.0812 89.5808M25.1643 86.9314C24.4148 86.4248 23.6747 85.9048 22.9486 85.3745C22.1558 84.7771 21.4259 84.4523 21.3655 84.6717C21.2914 84.8345 21.2343 84.9824 21.1791 85.1182C21.1643 85.2823 21.6895 85.8125 22.4286 86.3721C23.0636 86.8317 23.7454 87.3108 24.3976 87.7556C25.1714 88.2657 25.8514 88.5757 25.9617 88.4853C26.1143 88.4113 26.2341 88.3075 26.3621 88.1825C26.5309 88.0662 26.0883 87.5806 25.3796 87.0826C25.3123 87.0354 25.2406 86.9849 25.1688 86.9345M14.5589 79.5131C14.6318 79.6382 14.7406 79.7885 14.8262 79.8956C14.8262 79.8956 14.8557 79.9298 14.8526 79.9343C15.7516 80.9622 16.7002 81.9577 17.7015 82.9164C17.8696 83.0681 17.9678 83.1572 17.9087 83.0888C17.8559 83.0114 17.8094 82.925 17.7692 82.8296C17.743 82.7239 17.2412 82.1699 16.7065 81.6532C16.2153 81.1604 15.7632 80.6883 15.2847 80.1775C14.9397 79.8008 14.6874 79.5497 14.5887 79.4803C14.5438 79.4488 14.533 79.4546 14.5621 79.5086M32.6873 92.4053C32.0912 92.1476 31.4516 91.8661 30.8637 91.5872C30.1541 91.2431 29.5019 90.9795 29.3545 90.97C29.2511 90.9645 29.1541 90.95 29.0634 90.9266C29.018 90.9149 29.1038 90.955 29.3393 91.0869C30.5627 91.6914 31.8074 92.2369 33.0625 92.7294C33.0928 92.7372 33.1079 92.7411 33.1079 92.7411C33.2875 92.8002 33.4236 92.8354 33.6081 92.8778C33.6643 92.8837 33.6661 92.8715 33.6258 92.8432C33.5271 92.7738 33.1752 92.6072 32.6918 92.4085M16.2402 80.1238C16.2603 80.3527 16.2911 80.5758 16.2987 80.7557C16.3435 80.9685 16.8438 81.5818 17.4407 82.1624C17.9817 82.6701 18.5618 83.1986 19.1199 83.6914C19.753 84.2302 20.3133 84.577 20.325 84.4173C20.3367 84.2577 20.395 84.1174 20.4346 83.9371C20.49 83.7343 19.9742 83.0764 19.2532 82.4624C18.64 81.9241 18.0362 81.3722 17.406 80.7817C17.1697 80.5553 16.9568 80.3721 16.7729 80.2429C16.45 80.016 16.2398 79.9623 16.2402 80.1238ZM31.403 90.6099C30.6728 90.2379 29.91 89.8362 29.1956 89.4417C28.366 88.9729 27.5798 88.7092 27.4078 88.83C27.2862 88.946 27.1349 89.0277 26.9932 89.096C26.8905 89.1849 27.3631 89.5707 28.0845 89.9837C28.7765 90.3624 29.4312 90.7083 30.0922 91.0452C30.8408 91.41 31.6296 91.689 31.8027 91.6428C32.0213 91.6084 32.1949 91.5424 32.4171 91.4836C32.5646 91.4262 32.4474 91.2498 32.1245 91.0229C31.945 90.8968 31.6992 90.7509 31.403 90.6099ZM11.954 75.2589C12.0009 75.5068 12.0882 75.783 12.1568 76.0191C12.2549 76.2895 12.693 76.9532 13.1592 77.5292C13.5771 78.031 14.0277 78.5624 14.4551 79.0507C14.9819 79.6358 15.3595 79.9279 15.3116 79.7197C15.2681 79.5146 15.2341 79.296 15.2078 79.076C15.1766 78.8057 14.7242 78.1051 14.1736 77.4967C13.662 76.9089 13.1877 76.3541 12.7447 75.8212C12.4881 75.4999 12.273 75.2816 12.1339 75.1839C11.9949 75.0863 11.9229 75.1028 11.9526 75.2513M37.6906 93.3225C36.9983 93.0778 36.311 92.8164 35.6314 92.5537C34.8723 92.2419 34.0176 92.0375 33.7528 92.0999C33.5338 92.1541 33.3242 92.1949 33.1542 92.2366C32.9465 92.2652 33.3449 92.5183 34.0317 92.7994C34.6781 93.0522 35.2887 93.2798 35.9477 93.5146C36.6508 93.7535 37.4237 93.9407 37.666 93.9296C37.9568 93.9258 38.204 93.8981 38.4499 93.8627C38.6239 93.844 38.6151 93.7707 38.4761 93.673C38.337 93.5753 38.0588 93.4469 37.6906 93.3225ZM19.2779 80.2439C19.1651 80.5474 19.0914 80.8716 19.0066 81.1544C18.9186 81.4417 19.4491 82.1837 20.17 82.7977C20.8273 83.3401 21.5313 83.9019 22.2012 84.4264C22.9537 84.9954 23.7312 85.3 23.8641 85.0442C24.022 84.8194 24.1656 84.5578 24.3533 84.3002C24.5726 83.9977 24.0418 83.2085 23.1816 82.5638C22.4354 81.9858 21.6673 81.3723 20.9369 80.7718C20.8222 80.6777 20.7119 80.5868 20.5997 80.508C19.9449 80.0478 19.388 79.9251 19.2824 80.247M30.22 87.2877C29.4075 86.8041 28.6013 86.3115 27.7732 85.7833C26.9155 85.221 25.9886 84.986 25.7424 85.2696C25.5669 85.5289 25.4008 85.7748 25.2083 85.982C25.0472 86.2112 25.566 86.8174 26.3532 87.337C27.114 87.8179 27.8408 88.2614 28.5739 88.696C29.3959 89.1661 30.2738 89.4137 30.5533 89.2542C30.7862 89.0754 31.0285 88.8831 31.3135 88.6872C31.573 88.4801 31.2463 87.982 30.5914 87.5219C30.4748 87.4399 30.3551 87.3625 30.22 87.2877ZM9.98848 73.2602C9.85164 73.0163 9.66516 72.6906 9.47551 72.3693C9.45226 72.3261 9.45226 72.3261 9.42269 72.2919C9.60918 72.6177 9.79119 72.9403 9.98848 73.2602ZM42.0072 95.2074C41.6861 95.1496 41.3196 95.0801 40.9952 95.0268C41.3618 95.0963 41.7283 95.1658 42.098 95.2309C42.0698 95.22 42.0396 95.2122 42.0072 95.2074ZM13.921 74.9289C13.8877 75.2815 13.8683 75.6237 13.8642 75.9633C13.857 76.3073 14.3194 77.0889 14.8996 77.7315C15.4302 78.2923 15.9966 78.8783 16.5366 79.4256C17.1528 80.0264 17.7152 80.294 17.7699 79.9967C17.8542 79.7337 17.9153 79.4275 17.9948 79.1141C18.079 78.7368 17.597 77.8878 16.9063 77.2212C16.2874 76.6051 15.7075 76.0096 15.1308 75.4097C14.9413 75.2027 14.7553 75.0384 14.5938 74.9249C14.2215 74.6634 13.951 74.6479 13.9179 74.9334M37.2722 90.9336C36.5091 90.5989 35.7102 90.239 34.9207 89.8655C34.064 89.4448 33.0942 89.2804 32.81 89.5037C32.5421 89.6848 32.2792 89.8492 32.0168 89.9938C31.7557 90.1461 32.198 90.5844 32.9722 90.9605C33.7092 91.3038 34.4134 91.6173 35.1208 91.9264C35.9189 92.2589 36.8141 92.4246 37.1353 92.3012C37.4534 92.1822 37.7688 92.048 38.0892 91.8971C38.3511 91.7723 38.2601 91.5204 37.8878 91.2588C37.7308 91.1485 37.5222 91.0354 37.2722 90.9336ZM8.64171 70.3332C8.7433 70.6463 8.82929 70.9148 8.94932 71.2207C9.05059 71.4866 9.42389 72.1853 9.73793 72.7014C10.0332 73.1775 10.3657 73.6864 10.6937 74.1921C11.0589 74.7307 11.2933 74.9692 11.192 74.7034C11.1203 74.4717 11.0298 74.2 10.9766 73.9612C10.8921 73.6332 10.4969 72.899 10.1066 72.3293C9.74901 71.7894 9.42102 71.2836 9.10382 70.772C8.90388 70.4368 8.75523 70.2384 8.67898 70.1848C8.62068 70.1438 8.60122 70.1906 8.64171 70.3332ZM43.6813 95.0274C43.0471 94.8907 42.457 94.758 41.8278 94.6046C41.1551 94.4274 40.3317 94.3121 40.0431 94.351C39.7549 94.3701 39.5108 94.3933 39.2264 94.3882C38.9873 94.3947 39.2867 94.5312 39.9217 94.6954C40.4646 94.8285 41.0592 94.9643 41.6072 95.0807C42.2477 95.2085 42.9862 95.3111 43.316 95.328C43.596 95.33 43.8823 95.323 44.2144 95.308C44.3623 95.2978 44.3997 95.2636 44.3414 95.2226C44.2652 95.1691 44.0447 95.1014 43.6935 95.0292M9.70454 69.5357C9.7295 69.9292 9.76211 70.3214 9.7944 70.6664C9.8423 71.0559 10.2149 71.8414 10.6348 72.4453C11.0126 72.9659 11.4232 73.5162 11.8369 74.0621C12.291 74.6363 12.6777 74.8677 12.6755 74.5372C12.6482 74.1756 12.6581 73.8468 12.6788 73.5122C12.6836 73.0859 12.2914 72.2329 11.7885 71.6042C11.3291 70.9994 10.8948 70.4257 10.4932 69.8817C10.3155 69.6292 10.1465 69.4501 10.012 69.3556C9.81463 69.2169 9.68867 69.2627 9.70005 69.5325M44.0404 93.4199C43.3516 93.2179 42.6614 93.0082 41.9808 92.7851C41.2189 92.525 40.2426 92.4366 39.8839 92.5942C39.5353 92.7185 39.2294 92.8393 38.9176 92.9492C38.565 93.0506 38.9138 93.336 39.6488 93.5771C40.3026 93.7814 40.9187 93.9725 41.5774 94.1601C42.2878 94.3504 43.1563 94.4302 43.4949 94.3392C43.8776 94.2522 44.2105 94.1504 44.5923 94.036C44.8501 93.9552 44.8657 93.8185 44.6639 93.6767C44.5383 93.5884 44.326 93.4997 44.0359 93.4167M24.0385 79.3992C23.7451 79.8645 23.5002 80.337 23.2473 80.7636C23.0132 81.2302 23.5666 82.1495 24.4806 82.832C25.3008 83.4285 26.162 84.0336 27.0371 84.6283C27.989 85.2569 29.0055 85.4407 29.3697 85.0654C29.6853 84.6829 30.0437 84.2969 30.3851 83.8586C30.7995 83.3642 30.3249 82.3996 29.2622 81.6999C28.3064 81.0485 27.3914 80.4055 26.4545 79.7271C26.4186 79.7019 26.3872 79.6798 26.3513 79.6546C25.3601 78.9581 24.3506 78.8598 24.0353 79.4037M6.30773 65.598L6.35075 65.6416L6.27652 65.5089C6.27652 65.5089 6.29926 65.5719 6.31221 65.6011M49.4003 95.87L49.4515 95.8925C49.4515 95.8925 49.5184 95.8926 49.5503 95.8948L49.4003 95.87ZM6.35075 65.6416C6.45179 65.9364 6.55643 66.2293 6.66467 66.5202C6.94492 67.2274 7.2481 67.9305 7.56208 68.6279C7.66901 68.8507 7.77639 69.0761 7.88421 69.3041C8.13311 69.808 8.25119 70.0118 8.12667 69.7027C8.02988 69.44 7.91749 69.1327 7.83151 68.8642C7.73757 68.5497 7.43356 67.8192 7.18465 67.3153C6.96215 66.8501 6.75178 66.3867 6.54008 65.9156C6.41822 65.6219 6.33685 65.4707 6.31442 65.455C6.29648 65.4423 6.3071 65.5035 6.35075 65.6416ZM49.0707 95.7861C48.5603 95.7497 48.0926 95.7098 47.5354 95.6541C46.977 95.5907 46.2338 95.5519 45.859 95.5705C45.5772 95.5807 45.2985 95.5863 45.014 95.5811C44.6887 95.5674 44.8688 95.6067 45.4273 95.67C45.7961 95.7076 45.7961 95.7076 46.1681 95.7408C46.9472 95.8047 47.73 95.8445 48.5145 95.872C48.9284 95.8741 48.9329 95.8773 49.3958 95.8668C49.5527 95.8629 49.6215 95.8508 49.6035 95.8382C49.5811 95.8225 49.396 95.7998 49.0738 95.7816M17.5087 73.7704C17.349 74.3028 17.1904 74.7956 17.0501 75.2812C16.9036 75.7758 17.3961 76.753 18.1406 77.4574C18.8632 78.1262 19.558 78.7487 20.2963 79.3951C21.1083 80.0797 21.9445 80.2913 22.1718 79.8534C22.3864 79.4335 22.5931 78.9678 22.8528 78.5124C23.1374 77.9738 22.6411 76.9066 21.7413 76.1468C20.9356 75.4532 20.1601 74.7739 19.3971 74.0767C19.2649 73.9503 19.1322 73.8436 19.0021 73.7522C18.3024 73.2605 17.68 73.2596 17.5119 73.7659M5.76555 64.0622L5.78116 64.1067C5.78116 64.1067 5.77137 64.0729 5.76423 64.0545M6.67333 64.3911C6.71092 64.7667 6.76065 65.1441 6.81354 65.5169C6.88651 65.9375 7.15994 66.6735 7.43077 67.2129C7.69363 67.7065 7.96282 68.191 8.23965 68.6743C8.5648 69.2317 8.78774 69.3817 8.73352 69.0011C8.69808 68.6607 8.65599 68.2819 8.62022 67.8942C8.60739 67.5025 8.29429 66.6514 7.96597 66.0984C7.67171 65.5828 7.38376 65.0582 7.11458 64.5736C6.98406 64.3208 6.87395 64.1628 6.79321 64.1061C6.69454 64.0368 6.6435 64.1285 6.66884 64.388M50.1889 94.7858C49.5991 94.7004 49.0519 94.6114 48.4626 94.5061C47.7871 94.3806 46.9242 94.3786 46.5042 94.4997C46.1318 94.6006 45.8007 94.6903 45.4684 94.7724C45.092 94.8504 45.3042 95.0061 45.8993 95.1222C46.4918 95.2229 47.0421 95.3074 47.5955 95.3874C48.1476 95.4598 48.9799 95.4672 49.3531 95.3937C49.7218 95.3171 50.0937 95.2359 50.507 95.1436C50.7399 95.079 50.7936 95.0026 50.695 94.9333C50.6187 94.8797 50.4436 94.8238 50.1857 94.7903M5.76107 64.059C5.65948 63.7459 5.44967 63.0815 5.3134 62.6366C5.28667 62.5507 5.27688 62.5169 5.26311 62.4603C5.42294 62.9956 5.58594 63.5264 5.76423 64.0545M52.5746 95.8242C52.1053 95.8437 51.4563 95.8711 51.0801 95.882L51.033 95.8825C51.6055 95.8685 52.1768 95.8469 52.7499 95.8131L52.5777 95.8197L52.5746 95.8242ZM12.1273 67.9279C12.0256 68.454 11.9468 68.9761 11.8646 69.4555C11.7948 69.9838 12.2193 71.0006 12.7787 71.6823C13.3149 72.3209 13.865 72.9492 14.4169 73.5653C15.0594 74.2718 15.6598 74.4184 15.7919 73.954C15.8926 73.4674 16.0413 73.0079 16.182 72.5025C16.3593 71.9355 15.9144 70.8239 15.2297 70.1011C14.6123 69.4256 14.0218 68.769 13.4408 68.0989C13.293 67.9279 13.1473 67.7919 13.0128 67.6974C12.5732 67.3885 12.2108 67.4562 12.1228 67.9247M44.6732 90.0307C43.8458 89.7112 43.0325 89.3814 42.1832 89.0264C41.2711 88.6272 40.1122 88.5985 39.6389 88.9574C39.2156 89.2643 38.7914 89.5437 38.41 89.8196C37.9769 90.0927 38.3593 90.6165 39.2009 90.9728C40.013 91.295 40.7891 91.592 41.5308 91.8713C42.4027 92.1751 43.4577 92.2182 43.9357 91.9766C44.4028 91.7408 44.8673 91.4898 45.3278 91.2158C45.7356 90.9786 45.6778 90.6224 45.2427 90.3167C45.0947 90.2127 44.904 90.1123 44.6732 90.0307ZM4.73662 59.6531C4.78502 60.0228 4.83791 60.3957 4.90159 60.7627C4.98089 61.1743 5.16145 61.8517 5.31301 62.2939C5.46772 62.7316 5.61897 63.1266 5.78133 63.563C5.97459 64.0412 6.07193 64.1029 6.00824 63.7358C5.94772 63.3643 5.91044 63.036 5.86204 62.6662C5.81648 62.2448 5.61368 61.4846 5.42175 61.014C5.25174 60.579 5.08938 60.1426 4.93466 59.7049C4.86378 59.5007 4.80882 59.3882 4.77293 59.363C4.72808 59.3315 4.71343 59.4286 4.7411 59.6562M55.4656 95.19C55.044 95.1893 54.5785 95.1844 54.1116 95.1719C53.5993 95.1477 52.8198 95.2177 52.4079 95.3177C52.0405 95.402 51.6718 95.4786 51.3017 95.5476C50.9317 95.6166 51.0731 95.6824 51.5413 95.7025C52.0082 95.715 52.4769 95.7153 52.894 95.7129C53.3614 95.7056 54.1058 95.6378 54.4771 95.5765C54.8472 95.5075 55.2128 95.4354 55.577 95.3556C55.8036 95.3 55.9022 95.2551 55.8573 95.2236C55.8215 95.1984 55.6925 95.1816 55.4656 95.19ZM8.11772 62.2974C8.07086 62.8217 8.03613 63.3479 8.00109 63.8268C7.97849 64.3548 8.27561 65.2954 8.65857 65.9136C9.02593 66.4873 9.41836 67.0921 9.79835 67.6478C10.2375 68.2719 10.6586 68.4067 10.7126 67.9008C10.759 67.3962 10.8219 66.8966 10.8957 66.3911C10.9855 65.7962 10.6706 64.776 10.1826 64.0974C9.76809 63.5241 9.36302 62.9374 8.97191 62.3403C8.84304 62.1423 8.72029 62.0023 8.60816 61.9235C8.35251 61.7439 8.15308 61.8656 8.11639 62.2897M5.44241 57.1612C5.4248 57.6725 5.41167 58.187 5.39823 58.6543C5.39724 59.1705 5.58407 60.0202 5.82565 60.5727C6.04366 61.0347 6.28044 61.5368 6.52038 62.0344C6.79436 62.5694 7.04541 62.6316 7.04956 62.1108C7.06932 61.6346 7.09805 61.1646 7.13094 60.6506C7.17881 60.0866 6.97025 59.1344 6.67118 58.5684C6.42045 58.0767 6.17286 57.5804 5.93924 57.0738C5.86286 56.906 5.78497 56.7976 5.71321 56.7472C5.57416 56.6495 5.46861 56.7901 5.44241 57.1612ZM16.4668 65.1558C16.2114 65.8626 15.9704 66.5393 15.7349 67.1795C15.5056 67.8778 15.9063 69.0524 16.6152 69.7788C17.2932 70.4633 17.9763 71.1312 18.6862 71.8181C19.4858 72.5679 20.3786 72.6513 20.6725 71.9851C20.9771 71.3799 21.259 70.7118 21.5952 70.0618C21.9734 69.3137 21.572 68.0447 20.6988 67.2565C19.9301 66.5485 19.1856 65.8441 18.4416 65.12C18.3376 65.02 18.2318 64.9323 18.1286 64.8598C17.4334 64.3713 16.7262 64.472 16.4681 65.1635M11.1933 59.1407C11.0148 59.8143 10.8386 60.4559 10.6867 61.1012C10.5208 61.7568 10.8049 62.8494 11.323 63.5424C11.8035 64.1553 12.3032 64.7884 12.817 65.4112C13.3948 66.0858 14.0449 66.1331 14.249 65.4708C14.4405 64.8264 14.6485 64.1871 14.8853 63.5545C15.1481 62.7991 14.8409 61.5963 14.2119 60.8992C13.6489 60.2417 13.1127 59.6031 12.5914 58.9816C12.491 58.8574 12.3839 58.762 12.2807 58.6895C11.8232 58.3681 11.3747 58.5296 11.1978 59.1438M3.93445 52.7378C3.92101 53.205 3.91521 53.671 3.91706 54.1355C3.92339 54.6033 4.02019 55.3427 4.12557 55.7458C4.23544 56.1519 4.35295 56.5568 4.48126 56.9558C4.62518 57.3994 4.74747 57.3779 4.74879 56.9088C4.7501 56.4397 4.76038 55.9769 4.77831 55.5128C4.80804 55.0033 4.69798 54.1874 4.54958 53.7407C4.41678 53.3385 4.29927 52.9337 4.18972 52.5747C4.14524 52.4092 4.10639 52.3214 4.06602 52.2931C4.00323 52.249 3.952 52.4077 3.93761 52.7333M7.50135 53.7065C7.36839 54.3248 7.24542 54.9098 7.13805 55.5393C7.02752 56.1734 7.19868 57.1598 7.51619 57.7186C7.8181 58.2329 8.1406 58.775 8.47524 59.319C8.84891 59.8837 9.2741 59.8602 9.41072 59.2176C9.5445 58.6268 9.69141 57.9981 9.8473 57.3758C10.0393 56.7117 9.85085 55.6259 9.43997 55.0283C9.08373 54.496 8.73697 53.9503 8.41213 53.44C8.33474 53.3118 8.25186 53.22 8.16664 53.1601C7.89304 52.9678 7.62015 53.1655 7.50135 53.7065ZM3.37452 49.0342C3.36524 49.4574 3.35881 49.8289 3.36482 50.2494C3.37084 50.6699 3.39821 51.327 3.41888 51.6504C3.44403 51.9769 3.47651 52.2549 3.51379 52.5832C3.56219 52.9529 3.59694 52.9035 3.59061 52.4357C3.58908 52.0184 3.59386 51.592 3.60446 51.1765C3.62239 50.7124 3.59602 50.0157 3.54661 49.6856C3.50617 49.3617 3.47686 49.0793 3.44406 48.7541C3.43446 48.6533 3.42649 48.6075 3.4162 48.5935C3.39825 48.5809 3.38392 48.7253 3.37003 49.0311M5.24626 49.0401C5.14306 49.6256 5.05167 50.1657 4.96476 50.7089C4.88266 51.3025 4.9487 52.1143 5.12351 52.5997C5.28688 52.9965 5.46004 53.427 5.64534 53.8593C5.85704 54.3304 6.11609 54.2573 6.21032 53.6655C6.30588 53.0813 6.4094 52.5431 6.52158 51.9639C6.65769 51.3411 6.57542 50.3903 6.35058 49.9571C6.15316 49.5229 5.96553 49.1225 5.79003 48.7239C5.74271 48.6101 5.69438 48.5358 5.64056 48.498C5.48806 48.3909 5.32749 48.6003 5.23729 49.0338M4.14053 45.2552C4.05464 45.7588 3.98055 46.2171 3.90678 46.7225C3.8375 47.2311 3.83196 47.9255 3.89982 48.2485C3.96452 48.5759 4.03553 48.8944 4.11551 49.2192C4.20662 49.5853 4.34755 49.4896 4.42232 48.9446C4.50058 48.4423 4.57883 47.94 4.66605 47.444C4.77273 46.9013 4.77713 46.1322 4.67289 45.8038C4.58842 45.4759 4.51608 45.1498 4.44722 44.8664C4.42814 44.7791 4.40672 44.7238 4.37981 44.7049C4.30804 44.6545 4.21626 44.8518 4.14053 45.2552ZM11.4432 49.1644C11.1493 49.9449 10.8623 50.6966 10.5964 51.4565C10.3168 52.2739 10.4753 53.4595 10.9529 54.1242C11.4025 54.6952 11.8727 55.2942 12.359 55.9179C12.9126 56.5888 13.6383 56.481 13.9552 55.6294C14.263 54.8386 14.5888 54.0603 14.9272 53.2641C15.3166 52.3761 15.1387 51.056 14.5343 50.4098C14.0061 49.8171 13.4958 49.237 13.0072 48.6452C12.9423 48.566 12.8678 48.5003 12.7961 48.4499C12.3117 48.1095 11.7428 48.3946 11.4432 49.1644ZM3.92067 42.2405C3.85075 42.6546 3.78532 43.0719 3.72305 43.4847C3.65794 43.9493 3.60874 44.5055 3.5982 44.7398C3.5953 44.9728 3.59688 45.2089 3.60163 45.4405C3.61118 45.7225 3.67403 45.5854 3.73599 45.1254C3.79826 44.7126 3.86786 44.2512 3.93778 43.837C4.03132 43.332 4.08468 42.7317 4.07096 42.4938C4.06173 42.259 4.05597 42.067 4.05887 41.834C4.06355 41.7701 4.05376 41.7364 4.04927 41.7332C4.02684 41.7175 3.98092 41.9068 3.92067 42.2405ZM8.10844 44.4041C7.87145 45.1037 7.64343 45.8096 7.43303 46.4809C7.2153 47.2008 7.25601 48.2298 7.536 48.7086C7.80253 49.1778 8.08302 49.6368 8.37463 50.1371C8.71425 50.6645 9.19864 50.5281 9.44846 49.7435C9.68678 49.0515 9.93957 48.3294 10.1982 47.6181C10.5007 46.7967 10.443 45.7155 10.0697 45.198C9.75013 44.7184 9.44039 44.2724 9.14809 43.8589C9.09395 43.7739 9.0393 43.7086 8.981 43.6677C8.69394 43.466 8.33179 43.7621 8.1008 44.4055M6.20948 40.6326C6.01455 41.2342 5.83176 41.8376 5.6621 42.4032C5.48095 43.0615 5.44048 43.8723 5.57245 44.2471C5.69994 44.6186 5.84373 44.948 5.99099 45.32C6.16466 45.7307 6.46945 45.5353 6.6664 44.8546C6.85917 44.2179 7.05227 43.6284 7.2585 43.0012C7.49865 42.2971 7.54032 41.3797 7.35086 40.9914C7.18048 40.6904 7.02639 40.3471 6.88027 40.0498C6.85304 39.9836 6.82215 39.9418 6.78627 39.9166C6.62929 39.8063 6.39259 40.0764 6.21081 40.6402M5.40637 37.7518C5.25401 38.2356 5.09433 38.768 4.95095 39.2581C4.80024 39.7968 4.70216 40.4799 4.74462 40.7246C4.78259 40.9661 4.82088 41.2549 4.87414 41.4937C4.93669 41.7861 5.11388 41.5816 5.27772 41.0051C5.43424 40.4773 5.59942 39.9085 5.76807 39.3824C5.96615 38.7763 6.06108 38.0977 5.98539 37.8431C5.92632 37.5935 5.88253 37.3411 5.83142 37.1374C5.82346 37.0915 5.81051 37.0623 5.79705 37.0528C5.7208 36.9992 5.56769 37.2743 5.41268 37.7429M5.39209 35.6268C5.26468 36.0274 5.12995 36.4766 5.01468 36.8791C4.89208 37.3301 4.75798 37.8737 4.72735 38.0603C4.71618 38.2002 4.69003 38.3899 4.67468 38.5739C4.66831 38.7641 4.76508 38.5501 4.89949 38.0537C5.02658 37.6058 5.16579 37.1598 5.30501 36.7138C5.465 36.2286 5.59461 35.6818 5.60099 35.4916C5.60319 35.3455 5.60988 35.2024 5.62422 35.0581C5.62971 35.0217 5.63022 35.0019 5.62573 34.9987C5.60779 34.9861 5.51633 35.2307 5.3876 35.6237M12.9339 38.8715C12.5488 39.6483 12.174 40.4391 11.8182 41.203C11.4375 42.05 11.4587 43.1258 11.8676 43.6212C12.2541 44.1009 12.6591 44.5735 13.077 45.0752C13.554 45.6454 14.2971 45.3887 14.7216 44.4986C15.1135 43.6929 15.5256 42.868 15.9481 42.057C16.4229 41.1619 16.3749 40.0002 15.8592 39.4565C15.3939 39.0222 14.9529 38.5914 14.5304 38.1535C14.5008 38.1193 14.4604 38.091 14.4245 38.0658C13.976 37.7506 13.3311 38.0964 12.9339 38.8715ZM9.92096 35.2169C9.61037 35.8782 9.30427 36.5427 9.00714 37.2135C8.69819 37.9297 8.62431 38.7976 8.85249 39.1594C9.06406 39.5162 9.29092 39.8703 9.53306 40.2217C9.81507 40.6213 10.3196 40.3514 10.657 39.5947C10.978 38.8803 11.3126 38.1754 11.6484 37.4781C12.0317 36.7134 12.0986 35.76 11.7737 35.431C11.5194 35.0778 11.251 34.8019 11.0123 34.4932C10.9917 34.4653 10.9635 34.4387 10.9366 34.4198C10.672 34.2339 10.2392 34.5542 9.9178 35.2214M8.25608 32.5901C8.00967 33.122 7.75145 33.6992 7.514 34.2374C7.24845 34.8632 7.12479 35.535 7.21841 35.8022C7.31937 36.0209 7.43245 36.2413 7.53372 36.5072C7.66689 36.7754 7.9948 36.5089 8.27166 35.8574C8.53671 35.2514 8.79758 34.6894 9.07608 34.0928C9.39615 33.418 9.51766 32.7111 9.36422 32.4623C9.2277 32.2657 9.10647 32.0663 8.98656 31.8747C8.97361 31.8454 8.95883 31.8283 8.94089 31.8157C8.80185 31.718 8.50881 32.0493 8.25292 32.5946M7.60783 30.738C7.39667 31.2007 7.18683 31.6709 6.98015 32.1367C6.77795 32.6056 6.62276 33.1412 6.64165 33.2954C6.66055 33.4497 6.68392 33.6071 6.71495 33.7632C6.74628 33.9665 6.9524 33.7018 7.18403 33.1528C7.40385 32.6493 7.60737 32.188 7.83932 31.6863C8.09204 31.1454 8.24408 30.6144 8.20276 30.4444C8.15412 30.3229 8.11312 30.2001 8.07793 30.0881C8.07843 30.0683 8.06813 30.0543 8.06365 30.0512C8.00534 30.0102 7.80769 30.3011 7.60467 30.7425M7.68082 29.5472C7.52707 29.8868 7.3777 30.2138 7.23272 30.5282C7.15041 30.7121 7.07708 30.9023 6.99477 31.0861C6.89067 31.3487 6.82233 31.5223 6.78973 31.6068C6.76163 31.6945 6.738 31.7853 6.71886 31.8793C6.70421 31.9764 6.82941 31.7219 7.01531 31.2953C7.18491 30.9109 7.35451 30.5265 7.55254 30.1016C7.75056 29.6768 7.93198 29.247 7.94663 29.1498C7.94947 29.0981 7.97309 29.0073 7.98042 28.9587C7.98674 28.9497 7.98989 28.9452 7.98541 28.9421C7.98092 28.9389 7.84625 29.2069 7.68846 29.5459M14.0208 25.9113C13.7931 25.711 13.2568 26.0929 12.8099 26.7861C12.4149 27.4149 12.0529 28.0065 11.6713 28.6449C11.2735 29.3255 11.1159 30.0742 11.3197 30.3181C11.5101 30.5525 11.717 30.7919 11.9329 31.0377C12.1955 31.3027 12.743 30.9623 13.1824 30.2034C13.5892 29.5291 14.0036 28.8535 14.4018 28.2201C14.8739 27.491 15.0203 26.7009 14.7356 26.4673C14.5285 26.2949 14.3335 26.1243 14.1316 25.9825C14.0957 25.9572 14.0554 25.9289 14.0195 25.9037M15.6189 29.129C15.1494 29.8734 14.6844 30.621 14.2506 31.3434C13.7651 32.1773 13.6689 33.1437 14.0427 33.5272C14.3971 33.8904 14.7813 34.2208 15.1591 34.6272C15.6032 35.0534 16.415 34.6704 16.9428 33.7857C17.4254 33.0035 17.927 32.1944 18.4199 31.4261C18.9949 30.541 19.0638 29.5085 18.5647 29.151C18.1314 28.8332 17.7238 28.5266 17.3251 28.2263L17.3116 28.2169C16.89 27.9206 16.1384 28.3325 15.6189 29.129ZM11.2447 25.3237C10.9305 25.8281 10.6 26.3747 10.2948 26.8854C9.97328 27.4383 9.78069 28.008 9.8697 28.1578C9.95423 28.3045 10.0432 28.4543 10.1444 28.6059C10.2635 28.7702 10.6545 28.4138 11.0126 27.7993C11.3544 27.2271 11.6786 26.6894 12.0086 26.1626C12.3923 25.5593 12.5935 24.9487 12.4586 24.8069C12.3914 24.7597 12.3241 24.7124 12.2676 24.6593C12.208 24.6107 12.1515 24.5576 12.09 24.5211C12.09 24.5211 12.0811 24.5148 12.0766 24.5116C11.96 24.4297 11.5773 24.8121 11.2429 25.3358M9.45214 26.0918C9.45214 26.0918 9.62054 25.814 9.83683 25.449C10.05 25.0885 10.2707 24.7266 10.496 24.3679C10.691 24.0618 10.8544 23.8006 10.9275 23.6774C10.4112 24.4695 9.9173 25.2773 9.4553 26.0874M22.3514 31.7043C21.7078 31.2186 20.6704 31.6176 20.0435 32.567C19.4856 33.4372 18.9304 34.3228 18.4017 35.1801C17.8247 36.1443 17.833 37.3721 18.4309 37.9131C19.0075 38.3988 19.5857 38.9394 20.2045 39.4413C20.8935 40.053 21.9874 39.7071 22.6095 38.7073C23.195 37.7692 23.7845 36.854 24.3911 35.9239C25.0653 34.9071 25.0069 33.6172 24.2611 33.0864C23.7009 32.6727 23.1542 32.2684 22.6115 31.8871C22.5263 31.8272 22.4411 31.7673 22.3514 31.7043ZM11.1649 23.7972C11.1201 23.7657 10.859 24.0992 10.5832 24.5299C10.3119 24.9637 10.0703 25.3646 9.80797 25.8047C9.55012 26.248 9.33131 26.7119 9.3509 26.7794C9.37364 26.8424 9.4022 26.9162 9.43391 26.9855C9.4583 27.1033 9.72392 26.773 9.99939 26.2951C10.2825 25.8159 10.5462 25.3834 10.8175 24.9496C11.1393 24.4439 11.3329 24.0159 11.2908 23.9327C11.2639 23.9138 11.2433 23.8859 11.2272 23.8611C11.2111 23.8364 11.195 23.8116 11.1726 23.7959M14.8398 18.6244C14.7876 18.6415 14.7444 18.6648 14.7012 18.6882C14.6625 18.7147 14.3821 19.0279 14.0822 19.3879C13.8121 19.7151 13.5541 20.0442 13.293 20.3777C13.0066 20.7471 12.7918 21.0528 12.8305 21.0263C12.8485 21.0389 12.8664 21.0515 12.9141 21.0313C12.941 21.0502 13.2214 20.737 13.5078 20.3675C13.7987 20.0012 14.0864 19.6393 14.3521 19.309C14.6614 18.9355 14.8743 18.642 14.8474 18.6231M16.0642 18.5313C15.9303 18.5312 15.8275 18.506 15.7323 18.4794C15.6041 18.4901 15.2225 18.8329 14.8663 19.2541C14.5159 19.686 14.1985 20.0806 13.8823 20.4829C13.5454 20.9243 13.3218 21.3379 13.398 21.3915C13.4995 21.4091 13.5771 21.4703 13.6592 21.5347C13.7876 21.5712 14.1705 21.236 14.5593 20.7303C14.8944 20.3011 15.2372 19.8705 15.5857 19.4507C15.9798 18.9756 16.1674 18.6038 16.0777 18.5408L16.0687 18.5345M18.3014 19.0088C18.0859 18.9246 17.8465 18.8839 17.6458 18.8167C17.4361 18.7433 16.9138 19.1148 16.4538 19.6645C16.0579 20.1517 15.6664 20.6421 15.2795 21.1356C14.8465 21.7042 14.6504 22.2311 14.8222 22.3585C15.0102 22.4437 15.1788 22.5756 15.3848 22.6733C15.5893 22.8304 16.1562 22.4432 16.624 21.8252C17.0488 21.2777 17.4529 20.7693 17.8957 20.2345C18.3448 19.6906 18.5333 19.165 18.3404 19.0295C18.3314 19.0232 18.3225 19.0169 18.3135 19.0106M21.8758 20.3387C21.5244 20.1522 21.1491 20.0094 20.8094 19.8445C20.4562 19.6702 19.7261 20.0704 19.1891 20.7203C18.6863 21.3405 18.2145 21.9356 17.7504 22.5294C17.2182 23.2297 17.0566 23.9554 17.3909 24.1567C17.7072 24.3454 18.0382 24.5512 18.3562 24.7947C18.7456 25.0415 19.5241 24.6485 20.0911 23.8988C20.5963 23.2466 21.1091 22.5931 21.6322 21.9535C22.1458 21.3274 22.3037 20.6259 21.9673 20.3895C21.9404 20.3706 21.9135 20.3517 21.8803 20.3418M27.1877 22.7618C26.6061 22.4739 26.0582 22.1763 25.5188 21.9047C24.9524 21.6142 23.9838 22.0011 23.3335 22.7931C22.7675 23.5032 22.2092 24.212 21.6409 24.9541C21.0328 25.7623 20.9443 26.7274 21.4898 27.057C21.985 27.3915 22.495 27.7431 23.023 28.1074C23.6384 28.4995 24.6735 28.1324 25.329 27.2568C25.9352 26.4608 26.5269 25.6949 27.1308 24.9308C27.7861 24.1222 27.8219 23.194 27.2658 22.8032C27.2433 22.7874 27.2209 22.7717 27.194 22.7528M16.7001 16.4536C16.8312 16.3241 17.0327 16.1233 17.2278 15.9314C17.4932 15.668 17.7974 15.3782 18.1047 15.0838C18.1047 15.0838 18.1345 15.051 18.1331 15.0434C17.6452 15.4995 17.172 15.9727 16.7001 16.4536ZM19.9189 13.8273C19.7821 13.8789 19.6809 13.9085 19.55 13.9709C19.419 14.0333 19.0226 14.3591 18.6423 14.7096C18.304 15.0291 17.9669 15.3563 17.6375 15.6821C17.2751 16.0452 17.0424 16.3382 17.1391 16.3055C17.2403 16.2759 17.3415 16.2463 17.4472 16.2198C17.5587 16.2042 17.9596 15.8815 18.3517 15.4856C18.7108 15.127 19.0821 14.7702 19.4503 14.4179C19.7995 14.0925 20.0019 13.8521 19.9571 13.8205C19.9481 13.8142 19.9405 13.8156 19.9175 13.8196M22.2043 13.4256C21.9773 13.4339 21.7936 13.4189 21.5814 13.4444C21.3602 13.4636 20.8231 13.818 20.3477 14.2562C19.9485 14.6337 19.5209 15.0516 19.1275 15.4399C18.679 15.8969 18.4641 16.2696 18.6244 16.3084C18.8176 16.3099 19.0122 16.319 19.1815 16.3641C19.3998 16.3967 20.0036 15.9951 20.4799 15.5173C20.8923 15.1021 21.3479 14.6635 21.8048 14.2325C22.1977 13.864 22.4071 13.5278 22.295 13.449C22.2771 13.4364 22.2439 13.4265 22.2056 13.4332M25.6978 13.631C25.3416 13.5754 24.9899 13.523 24.6764 13.4638C24.3228 13.4235 23.6072 13.7936 23.0539 14.3045C22.5362 14.7934 22.0693 15.2577 21.565 15.7561C21.0089 16.3187 20.8236 16.8398 21.138 16.9264C21.4433 17.0067 21.7545 17.0978 22.0715 17.1996C22.4492 17.3106 23.2246 16.9221 23.8123 16.3145C24.3171 15.7963 24.8664 15.2625 25.3891 14.7569C25.8726 14.2976 26.0532 13.8404 25.8289 13.6828C25.793 13.6576 25.7508 13.6414 25.6934 13.6278M30.6542 14.777C30.1429 14.599 29.631 14.4408 29.1218 14.2978C28.5991 14.1454 27.6628 14.5148 27.0279 15.1229C26.4318 15.7044 25.8401 16.289 25.265 16.8787C24.6425 17.5357 24.4994 18.2543 25.0166 18.4431C25.4802 18.6413 25.9542 18.8535 26.4633 19.0635C27.0414 19.3086 28.0694 18.923 28.7189 18.2179C29.3319 17.5743 29.9615 16.9357 30.5677 16.3209C31.1346 15.7524 31.2415 15.1427 30.8513 14.8685C30.7974 14.8307 30.7328 14.7987 30.6574 14.7725M25.833 9.64373C25.6446 9.69261 25.4575 9.74914 25.2793 9.81197C25.058 9.89815 24.5759 10.1838 24.1589 10.4817C23.7851 10.7562 23.4082 11.0352 23.0358 11.3174C22.6336 11.6323 22.4424 11.8472 22.6282 11.783C22.7766 11.753 22.9668 11.6919 23.1166 11.6696C23.3185 11.6301 23.8672 11.2973 24.3081 10.9558C24.6729 10.675 25.0809 10.3708 25.4547 10.0963C25.805 9.84564 25.9799 9.67307 25.9306 9.63841C25.9171 9.62895 25.882 9.63117 25.833 9.64373ZM37.2884 17.1489C36.5554 16.8286 35.8525 16.5227 35.1338 16.2393C34.3882 15.937 33.2076 16.2824 32.4721 17.0145C31.8388 17.6774 31.1574 18.3802 30.5002 19.0867C29.7785 19.8755 29.7619 20.824 30.4817 21.182C31.1702 21.5181 31.8563 21.886 32.5666 22.2576C33.3699 22.6877 34.6525 22.3401 35.4203 21.4763C36.0956 20.7154 36.7628 19.9756 37.4651 19.2336C38.1267 18.5303 38.1358 17.6974 37.5303 17.2719C37.4585 17.2215 37.3805 17.18 37.2947 17.14M29.1925 9.07687C28.8522 9.11305 28.552 9.13036 28.2576 9.15848C27.9586 9.18344 27.3007 9.50001 26.8095 9.84639C26.3659 10.1726 25.9268 10.5019 25.489 10.8389C25.0215 11.2087 24.8463 11.5152 25.1186 11.5186C25.3896 11.5143 25.6543 11.519 25.9712 11.5066C26.2965 11.5204 26.9881 11.1939 27.4791 10.8003C27.9403 10.4395 28.4073 10.0895 28.882 9.73821C29.2989 9.44034 29.4497 9.19715 29.3241 9.1089C29.2972 9.08999 29.2519 9.07827 29.1925 9.07687ZM33.7953 9.22918C33.311 9.18429 32.9063 9.12147 32.4628 9.08516C32.0104 9.04255 31.1808 9.34595 30.5995 9.76332C30.1014 10.1385 29.5691 10.5433 29.0457 10.9544C28.4971 11.4015 28.3534 11.8444 28.7869 11.914C29.2146 11.9727 29.6048 12.0657 30.041 12.1506C30.5638 12.2359 31.4361 11.929 32.0361 11.4374C32.5752 11.0038 33.1188 10.5734 33.6728 10.1569C34.1213 9.81408 34.2472 9.47282 34.023 9.31524C33.9691 9.27743 33.8937 9.25129 33.7998 9.23233M32.5977 6.18536C32.3193 6.23822 32.0437 6.30638 31.7711 6.37004C31.4554 6.45705 30.8539 6.7125 30.3988 6.95007C29.9884 7.17193 29.5824 7.39695 29.1777 7.62961C28.7343 7.88878 28.564 8.0645 28.8441 7.9995C29.1198 7.93134 29.3612 7.89284 29.6427 7.83549C29.9746 7.77322 30.6099 7.5079 31.0888 7.22673C31.5335 6.97521 31.9751 6.72818 32.3855 6.50632C32.6956 6.3415 32.8587 6.21434 32.8049 6.17652C32.7824 6.16077 32.7155 6.16072 32.6022 6.18852M39.7997 10.3998C39.1679 10.2312 38.5724 10.0679 37.972 9.92129C37.3198 9.77194 36.3147 10.0392 35.6599 10.5326C35.0852 10.9882 34.5194 11.4501 33.9302 11.9358C33.2523 12.5002 33.2232 13.1041 33.873 13.2854C34.431 13.4828 35.0242 13.678 35.6505 13.8831C36.3568 14.1175 37.455 13.8417 38.1276 13.2468C38.7146 12.726 39.3227 12.2133 39.9074 11.7244C40.4511 11.2939 40.5072 10.8231 40.126 10.5552C40.0407 10.4954 39.9294 10.444 39.7965 10.4043M36.9092 5.70332C36.4859 5.7147 36.1052 5.72251 35.6845 5.74918C35.2561 5.77719 34.5135 6.0141 33.9829 6.29254C33.5368 6.53641 33.0566 6.80994 32.5763 7.08347C32.0662 7.38981 31.9303 7.65011 32.3631 7.62524C32.7514 7.61609 33.141 7.61458 33.5333 7.62837C33.9741 7.64938 34.8211 7.37838 35.3667 7.05003C35.8335 6.76704 36.3507 6.47915 36.8355 6.20877C37.2027 6.01026 37.3272 5.8426 37.2061 5.75751C37.1568 5.72284 37.0584 5.70073 36.9169 5.70198M47.2673 12.8538C46.4705 12.5289 45.6534 12.2234 44.9002 11.9224C44.0512 11.6146 42.8175 11.8354 42.1606 12.4079C41.5151 12.9547 40.8952 13.5128 40.2549 14.0903C39.5089 14.7612 39.6171 15.5892 40.4511 15.9469C41.2231 16.2879 42.0144 16.6492 42.8191 17.02C43.7428 17.4407 45.0805 17.2056 45.7651 16.4982C46.4234 15.8664 47.043 15.261 47.6455 14.6705C48.2484 14.1273 48.1609 13.4413 47.5688 13.0253C47.4791 12.9623 47.3786 12.9051 47.2596 12.8551M42.3933 6.03168C41.843 5.94716 41.2922 5.88244 40.7383 5.82221C40.1798 5.75883 39.2247 5.97399 38.6598 6.28209C38.144 6.57763 37.6371 6.87947 37.087 7.20467C36.5117 7.56583 36.4518 7.94671 37.0281 8.0227C37.5924 8.09688 38.1134 8.19441 38.674 8.29287C39.3208 8.41164 40.3447 8.18438 40.9498 7.79042C41.4851 7.44812 41.988 7.12333 42.5349 6.80263C42.9351 6.56682 43.0176 6.31593 42.7933 6.15835C42.7081 6.09847 42.5739 6.05115 42.3919 6.02403M96.1643 43.9613C96.1626 44.3831 96.152 44.7987 96.1383 45.2187C96.1207 45.73 96.1731 46.4182 96.2642 46.7843C96.34 47.1532 96.4079 47.4761 96.4713 47.7959C96.5318 48.1675 96.5981 48.0731 96.6189 47.5572C96.6326 47.1372 96.6388 46.7185 96.6407 46.3439C96.6344 45.8761 96.5809 45.2276 96.5204 44.856C96.4602 44.5317 96.3888 44.1661 96.3178 43.8476C96.281 43.6807 96.2498 43.5916 96.2229 43.5727C96.1825 43.5444 96.1624 43.6779 96.1629 43.9536M39.45 3.82262C39.0773 3.87631 38.755 3.92509 38.3836 3.98643C38.0135 4.05541 37.3852 4.22494 36.9876 4.36181C36.5913 4.50633 36.1994 4.654 35.8044 4.80617C35.3738 4.98034 35.3075 5.07474 35.6299 5.02596C35.9554 4.97268 36.3236 4.91584 36.6518 4.87786C37.0271 4.83946 37.7382 4.64751 38.1674 4.46569C38.5993 4.29916 38.9943 4.14699 39.3875 4.00696C39.6286 3.92125 39.7353 3.85522 39.6949 3.82685C39.668 3.80794 39.5844 3.80293 39.4424 3.82396M96.3683 42.5267C96.4122 42.8933 96.4917 43.5333 96.5446 43.9062C96.4876 43.3962 96.423 42.8875 96.3507 42.3801L96.3727 42.5299L96.3683 42.5267ZM96.3334 42.2807C96.3255 42.2348 96.322 42.1921 96.3127 42.1386C96.3207 42.1845 96.3255 42.2348 96.3334 42.2807ZM96.3127 42.1386C96.3127 42.1386 96.3061 42.1004 96.3034 42.0851C96.3074 42.108 96.3101 42.1233 96.3127 42.1386ZM39.3301 3.63094C39.6944 3.55116 40.2744 3.42162 40.6801 3.33063C40.8928 3.28536 40.9386 3.2773 41.0564 3.25265C40.4782 3.37005 39.9057 3.49825 39.3346 3.63409M49.0962 7.43806C48.3787 7.2293 47.653 7.04167 46.9636 6.85946C46.2226 6.67451 45.1261 6.82391 44.531 7.1846C43.9849 7.53274 43.4019 7.89524 42.8337 8.27484C42.2002 8.70926 42.2625 9.24989 43.0438 9.4632C43.7308 9.67734 44.451 9.9014 45.1968 10.1367C46.0176 10.418 47.2134 10.2511 47.848 9.77711C48.4217 9.36108 48.9675 8.96572 49.4853 8.59103C49.945 8.2896 49.9393 7.91631 49.5581 7.64844C49.437 7.56335 49.2821 7.48812 49.0917 7.43491M94.489 39.1181C94.4832 39.5841 94.4621 40.0527 94.4365 40.5181C94.3991 41.029 94.5419 41.8746 94.7491 42.3425C94.9303 42.8189 95.0999 43.2067 95.2623 43.6431C95.4295 44.1298 95.5799 44.0206 95.6128 43.5066C95.6307 43.0425 95.6441 42.5752 95.6423 42.1106C95.6436 41.6416 95.5096 40.8693 95.3469 40.3857C95.2002 39.9939 95.0333 39.5543 94.8601 39.1238C94.7771 38.9178 94.7042 38.7927 94.6414 38.7486C94.5472 38.6824 94.4894 38.8029 94.4876 39.1105M44.3819 3.60189C43.9182 3.5849 43.4526 3.58005 42.9839 3.5797C42.5152 3.57935 41.7432 3.71505 41.2609 3.88649C40.8201 4.04671 40.3882 4.21324 39.9576 4.38742C39.4883 4.5881 39.478 4.75539 39.948 4.76339C40.4136 4.76824 40.8805 4.78073 41.3455 4.80536C41.856 4.84172 42.6999 4.68944 43.2137 4.47305C43.643 4.29123 44.078 4.12021 44.5176 3.95233C44.7835 3.85044 44.8651 3.75336 44.7709 3.68718C44.7126 3.64621 44.581 3.61418 44.3788 3.60638M56.7842 10.1409C55.9215 9.7764 55.0812 9.42767 54.2754 9.09651C53.3363 8.74547 52.1155 8.81426 51.5368 9.24693C50.9708 9.66161 50.3723 10.0938 49.7931 10.5463C49.1162 11.0711 49.354 11.829 50.2845 12.221C51.1607 12.5949 52.0485 12.9905 52.9269 13.3995C53.9179 13.8675 55.2928 13.7795 55.8935 13.2011C56.4571 12.7041 57.0004 12.2265 57.5113 11.7663C57.9793 11.3767 57.8384 10.8145 57.2374 10.3922C57.1074 10.3008 56.9588 10.2166 56.7887 10.144M95.0868 36.9801C95.1473 37.3516 95.1957 37.7213 95.2441 38.0911C95.2897 38.5125 95.4463 39.2335 95.5902 39.6771C95.7233 40.1265 95.8364 40.5282 95.9383 40.8885C96.0529 41.3451 96.102 41.3325 96.0453 40.8697C95.9969 40.5 95.944 40.1271 95.8803 39.7601C95.8042 39.344 95.6621 38.7071 95.552 38.2536C95.4577 37.892 95.3402 37.4871 95.2195 37.0868C95.1478 36.8551 95.0934 36.7228 95.0709 36.7071C95.0485 36.6913 95.051 36.7736 95.09 36.9756M46.1842 2.57199C45.7667 2.59416 45.3428 2.62533 44.9234 2.65964C44.5053 2.70161 43.8076 2.78878 43.3949 2.86133C43.0248 2.93032 42.6593 3.00245 42.295 3.08223C41.8862 3.17772 41.891 3.22809 42.3136 3.18928C42.733 3.15497 43.1537 3.1283 43.5712 3.10612C44.0373 3.09118 44.7764 2.99279 45.1852 2.8973C45.5953 2.80946 45.964 2.73283 46.3341 2.66385C46.5175 2.6316 46.5958 2.60602 46.5734 2.59027C46.5509 2.57451 46.4202 2.56991 46.1855 2.57963M91.5559 33.586C91.5253 34.0681 91.4826 34.5484 91.4403 35.0759C91.3628 35.6056 91.6168 36.5696 91.9921 37.1892C92.3035 37.6899 92.6196 38.2411 92.9139 38.7567C93.2238 39.3169 93.5119 39.2978 93.5566 38.7383C93.5895 38.2243 93.6182 37.7543 93.6269 37.2367C93.6355 36.7191 93.4163 35.8869 93.1204 35.3164C92.8369 34.7949 92.5458 34.2748 92.2439 33.7605C92.1155 33.5428 91.9928 33.4028 91.8851 33.3272C91.7012 33.198 91.5743 33.2833 91.5496 33.595M50.3266 4.2472C49.6978 4.14104 49.1129 4.03897 48.5658 3.94996C47.9288 3.86493 47.0244 3.94116 46.5403 4.12474C46.1021 4.30026 45.6238 4.49464 45.1514 4.69982C44.6402 4.9315 44.7167 5.21354 45.3519 5.31071C45.9367 5.41279 46.5625 5.52344 47.1818 5.64308C47.8416 5.79109 48.8377 5.69874 49.3539 5.45042C49.7886 5.23217 50.226 5.02922 50.6737 4.84021C50.963 4.7145 50.9945 4.55532 50.8061 4.42296C50.7074 4.35363 50.5386 4.28874 50.3221 4.24405M65.0559 14.187C64.1244 13.6534 63.179 13.1301 62.2209 12.6248C61.2162 12.1001 59.908 12.0739 59.3408 12.5952C58.7925 13.0895 58.2571 13.613 57.6907 14.1617C57.0189 14.7841 57.3675 15.7945 58.483 16.3903C59.4778 16.9483 60.4873 17.5234 61.4753 18.1101C62.592 18.7806 63.9762 18.7461 64.5538 18.0575C65.0638 17.4557 65.5382 16.8759 66.039 16.3348C66.4894 15.7986 66.1431 14.9376 65.2864 14.3356C65.2147 14.2852 65.1429 14.2348 65.0603 14.1902M92.9204 31.9396C92.9545 32.2725 93.0154 32.6912 93.0498 33.0713C93.0769 33.4999 93.3388 34.3285 93.6128 34.8634C93.8528 35.361 94.0864 35.8676 94.2968 36.331C94.5196 36.8434 94.6673 36.9002 94.6169 36.4284C94.5793 36.0528 94.5153 35.6385 94.4624 35.2657C94.3908 34.8528 94.1529 34.0948 93.9333 33.5779C93.726 33.11 93.5112 32.6435 93.2855 32.1828C93.1524 31.9146 93.0441 31.7445 92.9768 31.6973C92.9095 31.65 92.8864 31.721 92.9191 31.932M51.4472 2.73827C50.8901 2.68254 50.3828 2.64169 49.8679 2.60217C49.3071 2.57072 48.5637 2.59895 48.151 2.6715C47.7351 2.74854 47.3708 2.82832 46.9576 2.92066C46.5043 3.03186 46.6001 3.15291 47.1577 3.18885C47.7121 3.22929 48.2207 3.2778 48.7702 3.33487C49.3695 3.40683 50.2334 3.36925 50.6943 3.25671C51.0635 3.16029 51.4309 3.07601 51.8073 2.99804C51.9939 2.9613 52.0408 2.91367 51.9735 2.86639C51.9062 2.81912 51.7248 2.77221 51.4472 2.73827ZM57.1019 5.9797C56.388 5.74666 55.7087 5.53117 54.9821 5.31611C54.2524 5.10553 53.2314 5.09982 52.7769 5.31761C52.3256 5.53089 51.8405 5.75405 51.3976 5.99343C50.8319 6.27409 51.0357 6.69925 51.83 6.9418C52.5758 7.17712 53.3153 7.42143 54.0893 7.6833C54.8929 7.97938 56.0223 7.97393 56.4914 7.65901C56.9182 7.39489 57.3431 7.1429 57.7752 6.90936C58.0808 6.74139 58.0173 6.48859 57.6898 6.25853C57.5463 6.15768 57.3435 6.05544 57.1006 5.97206M81.486 21.5822C81.3154 22.0062 81.1483 22.4729 80.964 22.9544C80.7445 23.5052 81.2013 24.5714 81.9592 25.2852C82.6557 25.9626 83.3176 26.6224 83.9732 27.2912C84.6816 28.0374 85.3806 28.1391 85.5225 27.5271C85.653 27.0078 85.7792 26.5325 85.8683 26.0244C85.9856 25.5428 85.53 24.5512 84.8843 23.8492C84.287 23.2213 83.6847 22.6101 83.0466 21.9737C82.9054 21.841 82.7713 21.7266 82.6368 21.6321C82.0851 21.2444 81.6097 21.2059 81.486 21.5822ZM64.481 8.92199C63.7036 8.55038 62.8823 8.17469 62.0936 7.8287C61.2175 7.45477 60.1755 7.37393 59.7137 7.64028C59.3067 7.90487 58.8615 8.17618 58.4126 8.47177C57.9258 8.8213 58.2539 9.44129 59.1597 9.84942C60.0156 10.2427 60.8984 10.6549 61.7296 11.0643C62.6958 11.5485 63.8537 11.6168 64.2943 11.2281C64.6849 10.8915 65.0264 10.5675 65.4083 10.2719C65.7205 10.0279 65.5019 9.58567 64.9458 9.19488C64.8067 9.09719 64.6493 9.00667 64.4765 8.91884M89.5772 26.4953C89.5987 26.8461 89.6094 27.2028 89.6093 27.5653C89.6206 28.0164 89.9804 28.8869 90.4177 29.5231C90.799 30.0865 91.1695 30.6557 91.5306 31.2383C91.8916 31.821 92.1775 31.9481 92.1456 31.4691C92.1219 31.0832 92.083 30.7 92.0209 30.2736C91.9743 29.8917 91.6372 29.0842 91.278 28.4894C90.9577 27.9823 90.6078 27.441 90.2502 26.901C90.0595 26.6193 89.888 26.4249 89.7669 26.3398C89.6233 26.239 89.5446 26.2844 89.5696 26.4967M57.454 3.80999C56.828 3.65211 56.197 3.51087 55.5673 3.37728C54.8859 3.24095 54.056 3.20165 53.6369 3.28319C53.2619 3.36881 52.8927 3.46523 52.4699 3.57105C52.0085 3.70338 52.2204 3.92616 52.9395 4.07556C53.5629 4.21814 54.2239 4.37379 54.8832 4.54159C55.6268 4.74183 56.5678 4.78525 56.996 4.64301C57.337 4.52003 57.717 4.41778 58.0588 4.32224C58.2428 4.27021 58.2466 4.17891 58.1031 4.07806C57.982 3.99297 57.7576 3.90241 57.4477 3.81898M74.5865 15.8883C74.3342 16.2951 74.0378 16.6979 73.757 17.1452C73.4244 17.6567 73.9235 18.6721 74.8478 19.3686C75.7029 20.0299 76.5563 20.7033 77.4046 21.3934C78.3031 22.1456 79.2523 22.2821 79.4836 21.6859C79.7061 21.1977 79.9083 20.7288 80.0889 20.2715C80.2789 19.8008 79.7746 18.869 78.9672 18.1875C78.2143 17.5712 77.427 16.9374 76.6583 16.3437C76.618 16.3153 76.5776 16.2869 76.5372 16.2586C75.703 15.6724 74.864 15.5125 74.5834 15.8928M71.9399 13.0283C71.1207 12.5064 70.2966 12.0012 69.4617 11.5018C68.5078 10.9524 67.4647 10.7969 67.0818 11.1321C66.7128 11.457 66.3357 11.803 65.9517 12.1778C65.507 12.6106 65.9571 13.4573 66.9662 14.0522C67.8639 14.5957 68.7867 15.1703 69.7032 15.7538C70.7 16.4139 71.8245 16.5393 72.1616 16.0309C72.4872 15.6151 72.7971 15.2218 73.0629 14.8245C73.3569 14.4536 72.8952 13.6995 72.0565 13.1102C72.0161 13.0818 71.9758 13.0535 71.9354 13.0251M90.7678 26.2979C90.8427 26.525 90.9287 26.7936 91.0115 27.0667C91.1023 27.3856 91.4355 28.1032 91.7419 28.6206C92.0156 29.1083 92.2816 29.5974 92.5212 30.0477C92.7965 30.5903 92.9314 30.7321 92.8219 30.3731C92.7359 30.1046 92.6311 29.796 92.5299 29.5301C92.4067 29.2287 92.1109 28.5912 91.8557 28.0963C91.6148 27.6383 91.3675 27.1892 91.1171 26.7447C90.9216 26.4127 90.7928 26.2147 90.7479 26.1832C90.721 26.1643 90.7276 26.2025 90.7602 26.2992M57.3072 2.94144C56.7997 2.85336 56.2934 2.77293 55.7853 2.70464C55.2301 2.63676 54.4847 2.5629 54.2034 2.55324C53.8749 2.544 53.5931 2.55414 53.2673 2.56019C52.9365 2.58288 53.1187 2.65722 53.6753 2.73274C54.2288 2.81276 54.779 2.89727 55.2835 2.98985C55.9258 3.10546 56.6622 3.17302 56.993 3.15033C57.2779 3.1357 57.5597 3.12557 57.8442 3.13073C57.9431 3.13305 57.9768 3.12318 57.9499 3.10427C57.905 3.07276 57.6661 3.01231 57.3041 2.94593M84.9825 20.8967C84.9797 21.2439 84.9289 21.5641 84.8982 21.9319C84.8275 22.3187 85.2959 23.2252 85.9146 23.9084C86.4428 24.5011 86.9911 25.1415 87.5022 25.749C88.0597 26.4429 88.5033 26.5935 88.5266 26.1599C88.5142 25.7484 88.513 25.3783 88.4979 25.0185C88.4814 24.651 88.0312 23.8043 87.5444 23.2004C87.0544 22.601 86.58 22.0461 86.0698 21.466C85.8507 21.2248 85.6485 21.0357 85.4781 20.916C85.1955 20.7174 84.9983 20.693 84.978 20.8936M63.9703 5.91108C63.2516 5.62766 62.5234 5.35772 61.842 5.10716C61.0634 4.84213 60.1596 4.71733 59.7629 4.81462C59.4193 4.9223 59.0707 5.04662 58.7202 5.18308C58.2793 5.34331 58.6153 5.71369 59.454 6.00754C60.2033 6.28559 60.9462 6.57263 61.7251 6.88488C62.5788 7.24306 63.5483 7.36026 63.9304 7.17885C64.2207 7.01357 64.5469 6.87349 64.8304 6.73699C65.0122 6.64987 64.9211 6.46496 64.634 6.26327C64.4681 6.14666 64.2383 6.02551 63.9627 5.91242M87.172 21.2132C87.2405 21.4493 87.3059 21.69 87.3605 21.9365C87.3935 22.1946 87.8166 22.9082 88.272 23.4901C88.6902 24.0391 89.0757 24.5584 89.4504 25.0835C89.8483 25.6518 90.1183 25.8683 90.0338 25.5404C89.9541 25.2629 89.8713 24.9898 89.7996 24.7581C89.6983 24.4923 89.3003 23.8097 88.9274 23.2725C88.5747 22.7829 88.2143 22.2947 87.8475 21.8154C87.5838 21.4757 87.3615 21.2389 87.2494 21.1601C87.1777 21.1097 87.1484 21.1227 87.1765 21.2163M63.0525 4.36645C62.4773 4.18387 61.8504 3.99856 61.2703 3.83263C60.6384 3.66395 59.9054 3.52489 59.621 3.51973C59.3378 3.52221 59.0484 3.53369 58.7603 3.55281C58.4231 3.58449 58.7183 3.76506 59.3879 3.9468C60.0543 4.13304 60.6703 4.32419 61.2864 4.51534C61.9881 4.74658 62.7984 4.89964 63.1023 4.85804C63.3527 4.82585 63.5591 4.78958 63.8014 4.77851C63.8989 4.77319 63.9057 4.74441 63.8295 4.69084C63.7218 4.6152 63.4449 4.49446 63.0525 4.36645ZM79.3209 15.5959C79.2092 15.8598 79.113 16.1683 78.9747 16.4605C78.8285 16.8211 79.3412 17.6647 80.1262 18.3305C80.8408 18.9534 81.5459 19.5899 82.2371 20.2367C82.9592 20.9253 83.629 21.1543 83.7111 20.7419C83.7808 20.3948 83.8366 20.058 83.8739 19.7284C83.9144 19.3942 83.3931 18.5915 82.741 17.9654C82.1152 17.3781 81.48 16.8042 80.843 16.2424C80.7045 16.125 80.5673 16.0151 80.4327 15.9206C79.881 15.5329 79.4132 15.3788 79.3209 15.5959ZM70.6621 9.06873C69.9132 8.65666 69.158 8.25358 68.3933 7.86399C67.541 7.44645 66.6091 7.22808 66.3117 7.37492C66.0564 7.53798 65.7584 7.70461 65.4133 7.87166C65.0531 8.08861 65.4956 8.64122 66.4304 9.10335C67.2355 9.5213 68.0733 9.96897 68.9016 10.4301C69.794 10.943 70.8005 11.1601 71.0511 10.8797C71.3182 10.6712 71.5368 10.4555 71.7472 10.2609C71.9202 10.1005 71.6409 9.71618 71.0892 9.32855C70.9636 9.2403 70.8214 9.1471 70.6684 9.05974M74.778 11.5445C73.9517 11.0042 73.078 10.7125 72.8504 10.9219C72.6261 11.1268 72.4281 11.3705 72.1829 11.6145C71.9075 11.9111 72.4137 12.6495 73.3777 13.2798C74.2259 13.8557 75.0602 14.4419 75.8894 15.0447C76.7765 15.7083 77.6755 15.9639 77.8612 15.6043C78.0077 15.2909 78.1371 14.9924 78.2865 14.7416C78.4064 14.4565 77.8359 13.7334 77.0475 13.1391C76.6649 12.8636 76.2913 12.5944 75.9146 12.3296C75.5378 12.0649 75.1611 11.8002 74.769 11.5382M82.6112 16.3099C82.6233 16.4929 82.6322 16.6805 82.5944 16.8486C82.5987 17.1 83.0821 17.7755 83.6984 18.3763C84.2429 18.9268 84.781 19.4862 85.2788 20.0172C85.8295 20.6257 86.2772 20.9134 86.2209 20.612C86.1991 20.3953 86.14 20.1456 86.1042 19.9392C86.0311 19.6998 85.5696 19.06 85.0646 18.5105C84.5906 18.0028 84.1057 17.501 83.585 16.974C83.3295 16.7273 83.0973 16.5239 82.9179 16.3978C82.7206 16.2591 82.6029 16.2168 82.6081 16.3144M69.0099 6.71942C68.3798 6.42437 67.7433 6.13831 67.105 5.8644C66.3747 5.55938 65.6163 5.34204 65.4086 5.37067C65.1555 5.38757 64.9505 5.43149 64.6893 5.46952C64.4289 5.53499 64.8046 5.83929 65.5682 6.15423C66.2832 6.46193 66.9843 6.77997 67.6867 7.10566C68.4218 7.46105 69.2602 7.70768 69.4559 7.61023C69.6404 7.53841 69.823 7.47873 69.9571 7.41182C70.0475 7.38806 69.9754 7.29041 69.7781 7.15174C69.6032 7.02883 69.3362 6.87482 69.0054 6.71627M84.3258 17.2259C84.4082 17.3375 84.4887 17.4613 84.5572 17.5832C84.6457 17.7528 85.1164 18.332 85.615 18.8905C86.0468 19.3819 86.4679 19.8792 86.8781 20.3823C87.3457 20.9659 87.602 21.24 87.4839 21.0362C87.398 20.9042 87.3136 20.7733 87.2306 20.6434C86.3383 19.4725 85.3824 18.3443 84.3662 17.2543C84.3438 17.2385 84.3213 17.2228 84.3124 17.2165C84.3079 17.2133 84.3124 17.2165 84.3227 17.2304M68.4769 6.07635C67.107 5.48977 65.7216 4.97289 64.3175 4.5302C64.1642 4.4941 64.0124 4.45906 63.8621 4.42507C63.6757 4.39479 64.0173 4.54751 64.6827 4.77333C65.2964 4.99641 65.9069 5.22398 66.561 5.47542C67.2523 5.75972 67.9522 6.0031 68.0996 6.01265C68.242 6.03884 68.3812 6.06953 68.5141 6.10921C68.5352 6.11732 68.5474 6.11913 68.5429 6.11598C68.5384 6.11282 68.516 6.09707 68.4782 6.08399M77.1878 11.8143C77.1447 11.9519 77.0518 12.0746 76.9571 12.2094C76.8761 12.401 77.389 12.9964 78.146 13.5685C78.8204 14.0961 79.4603 14.6062 80.1221 15.1517C80.8475 15.7689 81.4381 16.063 81.4729 15.8323C81.4797 15.6223 81.5099 15.4554 81.5305 15.3021C81.514 15.1159 80.9903 14.5264 80.3527 13.9844C79.782 13.5095 79.169 13.0184 78.5497 12.5362C78.46 12.4732 78.3748 12.4133 78.2896 12.3535C77.7289 11.9595 77.2541 11.7199 77.1847 11.8188M74.8808 9.95831C74.2173 9.53911 73.5834 9.15411 72.9073 8.75289C72.1858 8.33995 71.4492 8.04392 71.3119 8.11532C71.1279 8.16736 70.9812 8.25225 70.7904 8.33306C70.6274 8.46021 71.1011 8.92064 71.8885 9.37322C72.6261 9.81091 73.3619 10.2607 74.0869 10.7164C74.8459 11.2095 75.6202 11.5186 75.7294 11.3536C75.8242 11.2187 75.944 11.1149 76.023 11.0026C76.0893 10.9082 75.7016 10.535 75.141 10.1411C75.0602 10.0844 74.975 10.0245 74.8853 9.96146M79.8669 13.0454C79.8838 13.0976 79.9271 13.1885 79.9314 13.2587C79.9218 13.3392 80.447 13.8693 81.0814 14.4158C81.6395 14.9087 82.1868 15.4074 82.6951 15.8854C83.2966 16.4691 83.7024 16.7879 83.6466 16.6479C83.5768 16.5184 83.5008 16.3978 83.4511 16.3159C83.3875 16.2443 83.2616 16.1089 83.0658 15.9108C82.3474 15.1979 81.6011 14.5057 80.8345 13.8327C80.3772 13.4443 80.0135 13.1418 79.9014 13.063C79.8745 13.0441 79.8655 13.0378 79.8669 13.0454ZM72.9167 8.26269C72.027 7.76506 71.1227 7.29756 70.213 6.86648C69.9603 6.74936 69.7512 6.65611 69.7058 6.64439C69.5684 6.60156 69.4292 6.57087 69.2881 6.55233C69.1376 6.54727 69.614 6.84175 70.328 7.18903C70.9891 7.52593 71.6483 7.87497 72.3011 8.233C72.9867 8.62073 73.6604 8.93965 73.7764 8.92714C73.8439 8.9074 73.905 8.89666 73.9598 8.8949C73.9809 8.90301 73.9751 8.89221 73.9437 8.87015C73.8361 8.79451 73.4282 8.55495 72.9244 8.26134M76.6035 10.5578C76.4241 10.4317 76.2402 10.3025 76.0545 10.1854C75.4094 9.75902 74.876 9.43122 74.8275 9.42399C74.7727 9.42574 74.7084 9.44099 74.6409 9.46073C74.5608 9.49844 75.0706 9.91708 75.804 10.3988C76.4562 10.8437 77.138 11.3227 77.7775 11.7855C78.4838 12.3154 79.0428 12.6544 79.0543 12.5618C79.0532 12.4872 79.0426 12.426 79.0615 12.399C79.0383 12.3558 78.5132 11.9399 77.8979 11.4807C77.7185 11.3546 77.5378 11.2209 77.3584 11.0948C77.2328 11.0066 77.1027 10.9152 76.9771 10.827C76.8515 10.7387 76.7215 10.6473 76.5959 10.5591" fill="#F4B686"/>
</g>
<defs>
<clipPath id="clip0_3_16235">
<rect width="100" height="100" fill="white"/>
</clipPath>
</defs>
</svg>
